<svg xmlns="http://www.w3.org/2000/svg" xmlns:xlink="http://www.w3.org/1999/xlink" width="66" zoomAndPan="magnify" viewBox="0 0 49.5 49.499998" height="66" preserveAspectRatio="xMidYMid meet" version="1.0"><defs><clipPath id="a6f5013985"><path d="M 7.609375 7.609375 L 41.765625 7.609375 L 41.765625 41.765625 L 7.609375 41.765625 Z M 7.609375 7.609375 " clip-rule="nonzero"/></clipPath></defs><g clip-path="url(#a6f5013985)"><path fill="#46cc6b" d="M 41.765625 24.6875 C 41.765625 34.121094 34.121094 41.765625 24.6875 41.765625 C 21.347656 41.765625 18.230469 40.808594 15.597656 39.148438 L 7.613281 40.71875 L 10.84375 34.691406 C 8.8125 31.878906 7.613281 28.425781 7.613281 24.6875 C 7.613281 15.257812 15.257812 7.613281 24.6875 7.613281 C 34.121094 7.613281 41.765625 15.257812 41.765625 24.6875 Z M 41.765625 24.6875 " fill-opacity="1" fill-rule="nonzero"/></g><path fill="#ffffff" d="M 38.59375 24.6875 C 38.59375 25.601562 38.503906 26.507812 38.324219 27.402344 C 38.148438 28.296875 37.882812 29.167969 37.535156 30.007812 C 37.183594 30.851562 36.757812 31.652344 36.25 32.414062 C 35.742188 33.171875 35.164062 33.875 34.519531 34.519531 C 33.875 35.164062 33.171875 35.742188 32.414062 36.25 C 31.652344 36.757812 30.851562 37.183594 30.007812 37.535156 C 29.167969 37.882812 28.296875 38.148438 27.402344 38.324219 C 26.507812 38.503906 25.601562 38.59375 24.6875 38.59375 C 23.777344 38.59375 22.871094 38.503906 21.976562 38.324219 C 21.082031 38.148438 20.210938 37.882812 19.367188 37.535156 C 18.523438 37.183594 17.722656 36.757812 16.964844 36.25 C 16.207031 35.742188 15.503906 35.164062 14.859375 34.519531 C 14.210938 33.875 13.636719 33.171875 13.128906 32.414062 C 12.621094 31.652344 12.195312 30.851562 11.84375 30.007812 C 11.496094 29.167969 11.230469 28.296875 11.054688 27.402344 C 10.875 26.507812 10.785156 25.601562 10.785156 24.6875 C 10.785156 23.777344 10.875 22.871094 11.054688 21.976562 C 11.230469 21.082031 11.496094 20.210938 11.84375 19.367188 C 12.195312 18.523438 12.621094 17.722656 13.128906 16.964844 C 13.636719 16.207031 14.210938 15.503906 14.859375 14.859375 C 15.503906 14.210938 16.207031 13.636719 16.964844 13.128906 C 17.722656 12.621094 18.523438 12.195312 19.367188 11.84375 C 20.210938 11.496094 21.082031 11.230469 21.976562 11.054688 C 22.871094 10.875 23.777344 10.785156 24.6875 10.785156 C 25.601562 10.785156 26.507812 10.875 27.402344 11.054688 C 28.296875 11.230469 29.167969 11.496094 30.007812 11.84375 C 30.851562 12.195312 31.652344 12.621094 32.414062 13.128906 C 33.171875 13.636719 33.875 14.210938 34.519531 14.859375 C 35.164062 15.503906 35.742188 16.207031 36.25 16.964844 C 36.757812 17.722656 37.183594 18.523438 37.535156 19.367188 C 37.882812 20.210938 38.148438 21.082031 38.324219 21.976562 C 38.503906 22.871094 38.59375 23.777344 38.59375 24.6875 Z M 38.59375 24.6875 " fill-opacity="1" fill-rule="nonzero"/><path fill="#46cc6b" d="M 35.910156 24.6875 C 35.910156 25.425781 35.839844 26.15625 35.695312 26.878906 C 35.550781 27.601562 35.335938 28.300781 35.054688 28.984375 C 34.773438 29.664062 34.429688 30.308594 34.019531 30.921875 C 33.609375 31.535156 33.144531 32.101562 32.625 32.625 C 32.101562 33.144531 31.535156 33.609375 30.921875 34.019531 C 30.308594 34.429688 29.664062 34.773438 28.984375 35.054688 C 28.300781 35.335938 27.601562 35.550781 26.878906 35.695312 C 26.15625 35.839844 25.425781 35.910156 24.6875 35.910156 C 23.953125 35.910156 23.222656 35.839844 22.5 35.695312 C 21.777344 35.550781 21.074219 35.335938 20.394531 35.054688 C 19.714844 34.773438 19.066406 34.429688 18.453125 34.019531 C 17.84375 33.609375 17.277344 33.144531 16.753906 32.625 C 16.234375 32.101562 15.769531 31.535156 15.359375 30.921875 C 14.949219 30.308594 14.605469 29.664062 14.320312 28.984375 C 14.039062 28.300781 13.828125 27.601562 13.683594 26.878906 C 13.539062 26.15625 13.46875 25.425781 13.46875 24.6875 C 13.46875 23.953125 13.539062 23.222656 13.683594 22.5 C 13.828125 21.777344 14.039062 21.074219 14.320312 20.394531 C 14.605469 19.714844 14.949219 19.066406 15.359375 18.453125 C 15.769531 17.84375 16.234375 17.277344 16.753906 16.753906 C 17.277344 16.234375 17.84375 15.769531 18.453125 15.359375 C 19.066406 14.949219 19.714844 14.605469 20.394531 14.320312 C 21.074219 14.039062 21.777344 13.828125 22.5 13.683594 C 23.222656 13.539062 23.953125 13.46875 24.6875 13.46875 C 25.425781 13.46875 26.15625 13.539062 26.878906 13.683594 C 27.601562 13.828125 28.300781 14.039062 28.984375 14.320312 C 29.664062 14.605469 30.308594 14.949219 30.921875 15.359375 C 31.535156 15.769531 32.101562 16.234375 32.625 16.753906 C 33.144531 17.277344 33.609375 17.84375 34.019531 18.453125 C 34.429688 19.066406 34.773438 19.714844 35.054688 20.394531 C 35.335938 21.074219 35.550781 21.777344 35.695312 22.5 C 35.839844 23.222656 35.910156 23.953125 35.910156 24.6875 Z M 35.910156 24.6875 " fill-opacity="1" fill-rule="nonzero"/><path fill="#ffffff" d="M 22.929688 21.992188 L 22.324219 20.179688 C 22.050781 19.371094 21.171875 18.933594 20.359375 19.203125 C 20.304688 19.222656 20.25 19.242188 20.199219 19.269531 L 19.21875 19.722656 C 18.5625 20.03125 18.207031 20.75 18.359375 21.460938 C 18.972656 24.292969 21.222656 31.074219 28.828125 31.921875 C 29.445312 31.992188 30.042969 31.683594 30.347656 31.144531 L 30.851562 30.253906 C 31.273438 29.507812 31.011719 28.5625 30.265625 28.140625 L 30.257812 28.136719 L 28.902344 27.382812 C 28.300781 27.046875 27.546875 27.148438 27.058594 27.636719 C 26.570312 28.117188 25.824219 28.222656 25.222656 27.894531 C 24.402344 27.441406 23.269531 26.671875 22.480469 25.53125 C 22.113281 25.007812 22.105469 24.3125 22.457031 23.78125 L 22.75 23.34375 C 23.015625 22.945312 23.082031 22.449219 22.929688 21.992188 Z M 22.929688 21.992188 " fill-opacity="1" fill-rule="nonzero"/></svg>