<svg xmlns="http://www.w3.org/2000/svg" xmlns:xlink="http://www.w3.org/1999/xlink" width="66" zoomAndPan="magnify" viewBox="0 0 49.5 49.499998" height="66" preserveAspectRatio="xMidYMid meet" version="1.0"><defs><clipPath id="19e4ccb8cb"><path d="M 16 16.949219 L 32.175781 16.949219 L 32.175781 28.328125 L 16 28.328125 Z M 16 16.949219 " clip-rule="nonzero"/></clipPath><clipPath id="260e97ee67"><path d="M 16 17 L 32.175781 17 L 32.175781 25 L 16 25 Z M 16 17 " clip-rule="nonzero"/></clipPath><clipPath id="b7c63d9a65"><path d="M 12.871094 18.949219 L 25.976562 18.949219 L 25.976562 31.792969 L 12.871094 31.792969 Z M 12.871094 18.949219 " clip-rule="nonzero"/></clipPath></defs><g clip-path="url(#19e4ccb8cb)"><path fill="#2f73f2" d="M 30.894531 28.300781 L 26.054688 28.300781 C 25.835938 28.300781 25.660156 28.125 25.660156 27.910156 C 25.660156 27.695312 25.835938 27.519531 26.054688 27.519531 L 30.894531 27.519531 C 31.328125 27.519531 31.683594 27.164062 31.683594 26.726562 L 31.683594 18.523438 C 31.683594 18.089844 31.328125 17.734375 30.894531 17.734375 L 17.605469 17.734375 C 17.167969 17.734375 16.8125 18.089844 16.8125 18.523438 C 16.8125 18.742188 16.636719 18.917969 16.421875 18.917969 C 16.203125 18.917969 16.027344 18.742188 16.027344 18.523438 C 16.027344 17.65625 16.734375 16.949219 17.605469 16.949219 L 30.894531 16.949219 C 31.761719 16.949219 32.46875 17.65625 32.46875 18.523438 L 32.46875 26.726562 C 32.46875 27.59375 31.761719 28.300781 30.894531 28.300781 " fill-opacity="1" fill-rule="nonzero"/></g><g clip-path="url(#260e97ee67)"><path fill="#2f73f2" d="M 24.25 24.953125 C 24.023438 24.953125 23.796875 24.871094 23.613281 24.707031 L 16.367188 18.140625 C 16.207031 17.996094 16.195312 17.746094 16.339844 17.585938 C 16.488281 17.429688 16.734375 17.414062 16.894531 17.558594 L 24.140625 24.125 C 24.203125 24.179688 24.296875 24.183594 24.355469 24.125 L 31.601562 17.558594 C 31.761719 17.414062 32.011719 17.429688 32.15625 17.585938 C 32.300781 17.746094 32.289062 17.996094 32.128906 18.140625 L 24.882812 24.707031 C 24.703125 24.871094 24.476562 24.953125 24.25 24.953125 " fill-opacity="1" fill-rule="nonzero"/></g><g clip-path="url(#b7c63d9a65)"><path fill="#2f73f2" d="M 15.6875 19.75 C 15.277344 19.75 14.78125 19.808594 14.589844 19.96875 C 14.007812 20.449219 13.695312 21.101562 13.660156 21.902344 C 13.558594 24.105469 15.464844 26.847656 16.773438 28.15625 C 18.078125 29.460938 20.8125 31.371094 23.023438 31.265625 C 23.824219 31.230469 24.476562 30.917969 24.957031 30.335938 C 25.125 30.136719 25.179688 29.613281 25.175781 29.199219 C 23.839844 28.628906 22.417969 28.050781 22.03125 27.929688 C 21.835938 28.050781 21.375 28.464844 21.019531 28.820312 C 20.878906 29.023438 20.410156 29.25 19.835938 28.902344 C 18.921875 28.574219 16.371094 25.933594 16.03125 25.097656 C 15.671875 24.519531 15.90625 24.046875 16.152344 23.867188 C 16.472656 23.542969 16.886719 23.074219 17.003906 22.886719 C 16.910156 22.585938 16.3125 21.125 15.726562 19.75 C 15.714844 19.75 15.703125 19.75 15.6875 19.75 Z M 22.859375 32.054688 C 20.597656 32.054688 17.851562 30.34375 16.21875 28.707031 C 14.535156 27.027344 12.773438 24.167969 12.875 21.867188 C 12.921875 20.835938 13.332031 19.996094 14.085938 19.367188 C 14.652344 18.898438 15.796875 18.957031 16.023438 18.976562 C 16.167969 18.988281 16.292969 19.078125 16.351562 19.214844 C 17.800781 22.609375 17.800781 22.835938 17.800781 22.925781 C 17.800781 23.054688 17.800781 23.320312 16.660156 24.460938 C 16.617188 24.503906 16.628906 24.585938 16.710938 24.707031 C 16.730469 24.738281 16.75 24.777344 16.761719 24.816406 C 16.9375 25.398438 19.546875 28.023438 20.085938 28.160156 C 20.128906 28.167969 20.183594 28.191406 20.21875 28.214844 C 20.34375 28.296875 20.421875 28.308594 20.445312 28.289062 C 21.605469 27.128906 21.875 27.128906 22.003906 27.128906 C 22.089844 27.128906 22.320312 27.128906 25.710938 28.574219 C 25.847656 28.632812 25.9375 28.757812 25.949219 28.90625 C 25.964844 29.128906 26.03125 30.273438 25.558594 30.839844 C 24.929688 31.59375 24.089844 32.003906 23.058594 32.050781 C 22.992188 32.050781 22.925781 32.054688 22.859375 32.054688 " fill-opacity="1" fill-rule="nonzero"/></g></svg>