<svg xmlns="http://www.w3.org/2000/svg" xmlns:xlink="http://www.w3.org/1999/xlink" width="66" zoomAndPan="magnify" viewBox="0 0 49.5 49.499998" height="66" preserveAspectRatio="xMidYMid meet" version="1.0"><defs><clipPath id="95fea7b190"><path d="M 0.46875 2.027344 L 48.527344 2.027344 L 48.527344 48.527344 L 0.46875 48.527344 Z M 0.46875 2.027344 " clip-rule="nonzero"/></clipPath><clipPath id="709731b1ac"><path d="M 40.542969 2.109375 C 44.910156 2.109375 48.441406 5.652344 48.441406 10.007812 L 48.441406 40.542969 C 48.441406 44.910156 44.902344 48.441406 40.542969 48.441406 L 8.449219 48.441406 C 4.085938 48.441406 0.554688 44.902344 0.554688 40.542969 L 0.554688 10.007812 C 0.554688 5.640625 4.09375 2.109375 8.449219 2.109375 Z M 40.542969 2.109375 " clip-rule="nonzero"/></clipPath><clipPath id="476e0f9011"><path d="M 0 1.550781 L 49 1.550781 L 49 49 L 0 49 Z M 0 1.550781 " clip-rule="nonzero"/></clipPath><clipPath id="2ae179e0e7"><path d="M 49 10.007812 L 49 40.542969 C 49 45.203125 45.203125 49 40.542969 49 L 8.449219 49 C 3.789062 49 -0.00390625 45.203125 -0.00390625 40.542969 L -0.00390625 10.007812 C -0.00390625 5.347656 3.789062 1.550781 8.449219 1.550781 L 40.535156 1.550781 C 45.203125 1.550781 49 5.347656 49 10.007812 Z M 1.113281 40.542969 C 1.113281 44.585938 4.40625 47.878906 8.449219 47.878906 L 40.535156 47.878906 C 44.578125 47.878906 47.871094 44.585938 47.871094 40.542969 L 47.871094 10.007812 C 47.871094 5.964844 44.578125 2.671875 40.535156 2.671875 L 8.449219 2.671875 C 4.40625 2.671875 1.113281 5.964844 1.113281 10.007812 Z M 1.113281 40.542969 " clip-rule="nonzero"/></clipPath><clipPath id="7b703ff5fc"><path d="M 8.601562 8.84375 L 40.53125 8.84375 L 40.53125 40.027344 L 8.601562 40.027344 Z M 8.601562 8.84375 " clip-rule="nonzero"/></clipPath></defs><g clip-path="url(#95fea7b190)"><g clip-path="url(#709731b1ac)"><path fill="#ffffff" d="M -0.00390625 49 L -0.00390625 1.550781 L 49 1.550781 L 49 49 Z M -0.00390625 49 " fill-opacity="1" fill-rule="nonzero"/></g></g><g clip-path="url(#476e0f9011)"><g clip-path="url(#2ae179e0e7)"><path fill="#edf4ff" d="M -0.00390625 49 L -0.00390625 1.550781 L 49 1.550781 L 49 49 Z M -0.00390625 49 " fill-opacity="1" fill-rule="nonzero"/></g></g><g clip-path="url(#7b703ff5fc)"><path fill="#2f72f1" d="M 39.347656 13.261719 L 38.917969 12.929688 C 38.109375 12.261719 36.875 12.40625 36.210938 13.214844 L 31.980469 18.488281 L 31.980469 14.925781 C 31.980469 13.972656 31.222656 13.214844 30.269531 13.214844 L 26.566406 13.214844 L 26.566406 12.121094 C 26.566406 11.835938 26.375 11.644531 26.089844 11.644531 L 24.472656 11.644531 L 24.472656 11.265625 C 24.472656 9.933594 23.382812 8.84375 22.050781 8.84375 L 18.628906 8.84375 C 17.300781 8.84375 16.207031 9.933594 16.207031 11.265625 L 16.207031 11.597656 L 14.589844 11.597656 C 14.304688 11.597656 14.117188 11.789062 14.117188 12.074219 L 14.117188 13.214844 L 10.410156 13.214844 C 9.460938 13.214844 8.699219 13.972656 8.699219 14.925781 L 8.699219 38.445312 C 8.699219 39.394531 9.460938 40.15625 10.410156 40.15625 L 30.269531 40.15625 C 31.222656 40.15625 31.980469 39.394531 31.980469 38.445312 L 31.980469 35.261719 L 33.214844 34.023438 C 33.40625 33.835938 33.40625 33.550781 33.214844 33.359375 L 32.265625 32.316406 C 32.742188 31.554688 33.074219 30.746094 33.265625 29.890625 L 34.691406 29.796875 C 34.925781 29.796875 35.117188 29.558594 35.117188 29.320312 L 35.117188 27.324219 C 35.117188 27.085938 34.925781 26.851562 34.691406 26.851562 L 33.265625 26.753906 C 33.074219 25.996094 32.789062 25.328125 32.503906 24.808594 L 39.632812 15.875 C 40.296875 15.160156 40.152344 13.925781 39.347656 13.261719 Z M 30.839844 25.425781 L 28.894531 23.855469 L 35.402344 15.730469 L 37.351562 17.300781 Z M 29.558594 28.417969 C 29.558594 30.320312 27.988281 31.886719 26.089844 31.886719 C 24.1875 31.886719 22.621094 30.320312 22.621094 28.417969 C 22.621094 26.519531 24.1875 24.949219 26.089844 24.949219 C 26.46875 24.949219 26.800781 24.996094 27.183594 25.140625 L 24.902344 30.175781 C 24.804688 30.367188 24.855469 30.605469 25.042969 30.746094 C 25.234375 30.890625 25.472656 30.890625 25.613281 30.746094 L 29.511719 27.800781 C 29.558594 27.992188 29.558594 28.179688 29.558594 28.417969 Z M 26.515625 28.796875 L 28.226562 25.042969 L 28.371094 24.710938 L 30.128906 26.089844 Z M 17.109375 11.265625 C 17.109375 10.457031 17.773438 9.792969 18.582031 9.792969 L 22.003906 9.792969 C 22.8125 9.792969 23.476562 10.457031 23.476562 11.265625 L 23.476562 11.597656 L 17.109375 11.597656 Z M 16.632812 12.59375 L 25.613281 12.59375 C 25.613281 13.59375 25.613281 14.210938 25.613281 15.160156 L 15.066406 15.160156 C 15.066406 14.210938 15.066406 13.59375 15.066406 12.59375 Z M 30.269531 39.25 L 10.410156 39.25 C 9.980469 39.25 9.648438 38.917969 9.648438 38.492188 L 9.648438 14.972656 C 9.648438 14.542969 9.980469 14.210938 10.410156 14.210938 L 14.117188 14.210938 L 14.117188 15.589844 C 14.117188 15.875 14.304688 16.0625 14.589844 16.0625 L 26.089844 16.0625 C 26.375 16.0625 26.566406 15.875 26.566406 15.589844 L 26.566406 14.210938 L 30.269531 14.210938 C 30.699219 14.210938 31.03125 14.542969 31.03125 14.972656 L 31.03125 19.722656 L 29.320312 21.859375 C 28.796875 21.625 28.226562 21.386719 27.65625 21.289062 L 27.5625 19.867188 C 27.5625 19.628906 27.324219 19.4375 27.085938 19.4375 L 25.089844 19.4375 C 24.855469 19.4375 24.617188 19.628906 24.617188 19.867188 L 24.519531 21.289062 C 23.667969 21.480469 22.859375 21.8125 22.097656 22.289062 L 21.003906 21.339844 C 20.816406 21.195312 20.53125 21.195312 20.339844 21.339844 L 18.914062 22.765625 C 18.722656 22.953125 18.722656 23.238281 18.914062 23.429688 L 19.863281 24.472656 C 19.390625 25.1875 19.058594 26.042969 18.867188 26.898438 L 17.441406 26.992188 C 17.203125 26.992188 17.015625 27.230469 17.015625 27.46875 L 17.015625 29.464844 C 17.015625 29.703125 17.203125 29.9375 17.441406 29.9375 L 18.867188 30.035156 C 19.058594 30.890625 19.390625 31.695312 19.863281 32.457031 L 18.914062 33.503906 C 18.722656 33.691406 18.773438 33.976562 18.914062 34.167969 L 20.339844 35.546875 C 20.53125 35.734375 20.816406 35.734375 21.003906 35.546875 L 22.097656 34.59375 C 22.859375 35.070312 23.667969 35.402344 24.519531 35.59375 L 24.617188 37.019531 C 24.617188 37.257812 24.855469 37.445312 25.089844 37.445312 L 27.085938 37.445312 C 27.324219 37.445312 27.5625 37.257812 27.5625 37.019531 L 27.65625 35.59375 C 28.511719 35.402344 29.367188 35.070312 30.082031 34.59375 L 31.03125 35.449219 L 31.03125 38.539062 C 31.03125 38.917969 30.652344 39.25 30.269531 39.25 Z M 32.410156 27.371094 C 32.457031 27.609375 32.648438 27.753906 32.835938 27.753906 L 34.167969 27.847656 L 34.167969 28.941406 L 32.835938 29.035156 C 32.597656 29.035156 32.457031 29.226562 32.410156 29.417969 C 32.265625 30.414062 31.886719 31.316406 31.269531 32.125 C 31.125 32.316406 31.125 32.550781 31.316406 32.742188 L 32.21875 33.738281 L 31.410156 34.5 L 30.414062 33.597656 C 30.269531 33.453125 29.984375 33.453125 29.84375 33.550781 C 29.035156 34.121094 28.132812 34.5 27.132812 34.644531 C 26.898438 34.691406 26.753906 34.878906 26.753906 35.070312 L 26.660156 36.402344 L 25.566406 36.402344 L 25.472656 35.070312 C 25.472656 34.832031 25.28125 34.644531 25.089844 34.644531 C 24.09375 34.5 23.191406 34.121094 22.382812 33.550781 C 22.191406 33.40625 21.957031 33.453125 21.8125 33.597656 L 20.71875 34.5 L 19.960938 33.738281 L 20.863281 32.742188 C 21.003906 32.550781 21.003906 32.316406 20.910156 32.171875 C 20.339844 31.363281 19.960938 30.460938 19.769531 29.464844 C 19.722656 29.226562 19.53125 29.082031 19.34375 29.082031 L 18.011719 28.988281 L 18.011719 27.847656 L 19.34375 27.753906 C 19.578125 27.753906 19.722656 27.5625 19.769531 27.371094 C 19.914062 26.375 20.339844 25.472656 20.910156 24.664062 C 21.054688 24.472656 21.054688 24.238281 20.863281 24.046875 L 19.960938 23.097656 L 20.71875 22.335938 L 21.71875 23.238281 C 21.90625 23.382812 22.144531 23.382812 22.289062 23.285156 C 23.097656 22.714844 24 22.335938 24.996094 22.195312 C 25.234375 22.144531 25.375 21.957031 25.375 21.765625 L 25.472656 20.4375 L 26.566406 20.4375 L 26.660156 21.765625 C 26.660156 22.003906 26.851562 22.195312 27.039062 22.195312 C 27.609375 22.289062 28.132812 22.429688 28.609375 22.667969 L 27.753906 23.761719 C 27.753906 23.761719 27.703125 23.855469 27.703125 23.855469 L 27.515625 24.332031 C 27.039062 24.1875 26.566406 24.09375 26.042969 24.09375 C 23.617188 24.09375 21.621094 26.089844 21.621094 28.511719 C 21.621094 30.9375 23.617188 32.933594 26.042969 32.933594 C 28.464844 32.933594 30.460938 30.9375 30.460938 28.511719 C 30.460938 28.085938 30.414062 27.65625 30.269531 27.230469 L 31.125 26.566406 C 31.125 26.566406 31.171875 26.519531 31.171875 26.519531 C 31.171875 26.519531 31.222656 26.519531 31.222656 26.46875 L 31.792969 25.757812 C 32.078125 26.183594 32.3125 26.753906 32.410156 27.371094 Z M 38.871094 15.398438 L 37.921875 16.585938 L 35.972656 15.019531 L 36.921875 13.832031 C 37.253906 13.402344 37.921875 13.355469 38.300781 13.6875 L 38.726562 14.019531 C 39.15625 14.355469 39.25 14.972656 38.871094 15.398438 Z M 38.871094 15.398438 " fill-opacity="1" fill-rule="nonzero"/></g><path fill="#2f72f1" d="M 13.117188 22.859375 C 13.210938 22.953125 13.308594 23.050781 13.449219 23.050781 C 13.496094 23.050781 13.496094 23.050781 13.546875 23.050781 C 13.640625 23.050781 13.78125 23 13.832031 22.953125 L 18.203125 19.390625 C 18.390625 19.246094 18.4375 18.914062 18.25 18.726562 C 18.105469 18.535156 17.773438 18.488281 17.585938 18.675781 L 13.59375 21.910156 L 12.5 20.199219 C 12.359375 19.960938 12.074219 19.914062 11.835938 20.054688 C 11.597656 20.199219 11.550781 20.484375 11.691406 20.722656 Z M 13.117188 22.859375 " fill-opacity="1" fill-rule="nonzero"/><path fill="#2f72f1" d="M 16.160156 24.570312 L 11.074219 24.570312 C 10.789062 24.570312 10.597656 24.757812 10.597656 25.042969 C 10.597656 25.328125 10.789062 25.519531 11.074219 25.519531 L 16.160156 25.519531 C 16.445312 25.519531 16.632812 25.328125 16.632812 25.042969 C 16.632812 24.757812 16.394531 24.570312 16.160156 24.570312 Z M 16.160156 24.570312 " fill-opacity="1" fill-rule="nonzero"/><path fill="#2f72f1" d="M 11.074219 28.511719 L 15.351562 28.511719 C 15.636719 28.511719 15.824219 28.324219 15.824219 28.039062 C 15.824219 27.753906 15.636719 27.5625 15.351562 27.5625 L 11.074219 27.5625 C 10.789062 27.5625 10.597656 27.753906 10.597656 28.039062 C 10.597656 28.324219 10.789062 28.511719 11.074219 28.511719 Z M 11.074219 28.511719 " fill-opacity="1" fill-rule="nonzero"/><path fill="#2f72f1" d="M 16.160156 30.554688 L 11.074219 30.554688 C 10.789062 30.554688 10.597656 30.746094 10.597656 31.03125 C 10.597656 31.316406 10.789062 31.507812 11.074219 31.507812 L 16.160156 31.507812 C 16.445312 31.507812 16.632812 31.316406 16.632812 31.03125 C 16.632812 30.746094 16.394531 30.554688 16.160156 30.554688 Z M 16.160156 30.554688 " fill-opacity="1" fill-rule="nonzero"/><path fill="#2f72f1" d="M 16.160156 33.550781 L 11.074219 33.550781 C 10.789062 33.550781 10.597656 33.738281 10.597656 34.023438 C 10.597656 34.308594 10.789062 34.5 11.074219 34.5 L 16.160156 34.5 C 16.445312 34.5 16.632812 34.308594 16.632812 34.023438 C 16.632812 33.738281 16.394531 33.550781 16.160156 33.550781 Z M 16.160156 33.550781 " fill-opacity="1" fill-rule="nonzero"/><path fill="#2f72f1" d="M 16.160156 36.542969 L 11.074219 36.542969 C 10.789062 36.542969 10.597656 36.734375 10.597656 37.019531 C 10.597656 37.304688 10.789062 37.492188 11.074219 37.492188 L 16.160156 37.492188 C 16.445312 37.492188 16.632812 37.304688 16.632812 37.019531 C 16.632812 36.734375 16.394531 36.542969 16.160156 36.542969 Z M 16.160156 36.542969 " fill-opacity="1" fill-rule="nonzero"/></svg>