<svg xmlns="http://www.w3.org/2000/svg" xmlns:xlink="http://www.w3.org/1999/xlink" width="66" zoomAndPan="magnify" viewBox="0 0 49.5 49.499998" height="66" preserveAspectRatio="xMidYMid meet" version="1.0"><defs><clipPath id="0efd6321c6"><path d="M 0.46875 2.027344 L 48.527344 2.027344 L 48.527344 48.527344 L 0.46875 48.527344 Z M 0.46875 2.027344 " clip-rule="nonzero"/></clipPath><clipPath id="ab1b79c123"><path d="M 40.542969 2.109375 C 44.910156 2.109375 48.441406 5.652344 48.441406 10.007812 L 48.441406 40.542969 C 48.441406 44.910156 44.902344 48.441406 40.542969 48.441406 L 8.449219 48.441406 C 4.085938 48.441406 0.554688 44.902344 0.554688 40.542969 L 0.554688 10.007812 C 0.554688 5.640625 4.09375 2.109375 8.449219 2.109375 Z M 40.542969 2.109375 " clip-rule="nonzero"/></clipPath><clipPath id="9b7a1c5da7"><path d="M 0 1.550781 L 49 1.550781 L 49 49 L 0 49 Z M 0 1.550781 " clip-rule="nonzero"/></clipPath><clipPath id="f9c4838646"><path d="M 49 10.007812 L 49 40.542969 C 49 45.203125 45.203125 49 40.542969 49 L 8.449219 49 C 3.789062 49 -0.00390625 45.203125 -0.00390625 40.542969 L -0.00390625 10.007812 C -0.00390625 5.347656 3.789062 1.550781 8.449219 1.550781 L 40.535156 1.550781 C 45.203125 1.550781 49 5.347656 49 10.007812 Z M 1.113281 40.542969 C 1.113281 44.585938 4.40625 47.878906 8.449219 47.878906 L 40.535156 47.878906 C 44.578125 47.878906 47.871094 44.585938 47.871094 40.542969 L 47.871094 10.007812 C 47.871094 5.964844 44.578125 2.671875 40.535156 2.671875 L 8.449219 2.671875 C 4.40625 2.671875 1.113281 5.964844 1.113281 10.007812 Z M 1.113281 40.542969 " clip-rule="nonzero"/></clipPath><clipPath id="b9f94d87bc"><path d="M 8.574219 25 L 24 25 L 24 40.503906 L 8.574219 40.503906 Z M 8.574219 25 " clip-rule="nonzero"/></clipPath><clipPath id="e3994ffca1"><path d="M 15 8.574219 L 17 8.574219 L 17 27 L 15 27 Z M 15 8.574219 " clip-rule="nonzero"/></clipPath><clipPath id="ce47d1da3a"><path d="M 13 8.574219 L 19 8.574219 L 19 12 L 13 12 Z M 13 8.574219 " clip-rule="nonzero"/></clipPath><clipPath id="c85e58d80a"><path d="M 20 8.574219 L 40.503906 8.574219 L 40.503906 29 L 20 29 Z M 20 8.574219 " clip-rule="nonzero"/></clipPath><clipPath id="f5b1fd9fc0"><path d="M 37 8.574219 L 40.503906 8.574219 L 40.503906 12 L 37 12 Z M 37 8.574219 " clip-rule="nonzero"/></clipPath><clipPath id="925b30cccc"><path d="M 22 32 L 40.503906 32 L 40.503906 34 L 22 34 Z M 22 32 " clip-rule="nonzero"/></clipPath><clipPath id="d1fc01cce9"><path d="M 37 30 L 40.503906 30 L 40.503906 36 L 37 36 Z M 37 30 " clip-rule="nonzero"/></clipPath></defs><g clip-path="url(#0efd6321c6)"><g clip-path="url(#ab1b79c123)"><path fill="#ffffff" d="M -0.00390625 49 L -0.00390625 1.550781 L 49 1.550781 L 49 49 Z M -0.00390625 49 " fill-opacity="1" fill-rule="nonzero"/></g></g><g clip-path="url(#9b7a1c5da7)"><g clip-path="url(#f9c4838646)"><path fill="#edf4ff" d="M -0.00390625 49 L -0.00390625 1.550781 L 49 1.550781 L 49 49 Z M -0.00390625 49 " fill-opacity="1" fill-rule="nonzero"/></g></g><g clip-path="url(#b9f94d87bc)"><path fill="#2f72f1" d="M 17.160156 40.421875 L 14.609375 40.421875 C 14.433594 40.421875 14.296875 40.285156 14.296875 40.109375 L 14.296875 38.941406 C 13.804688 38.808594 13.324219 38.609375 12.878906 38.355469 L 12.054688 39.183594 C 11.929688 39.308594 11.738281 39.308594 11.613281 39.183594 L 9.8125 37.386719 C 9.6875 37.261719 9.6875 37.066406 9.8125 36.941406 L 10.644531 36.113281 C 10.386719 35.667969 10.195312 35.195312 10.054688 34.695312 L 8.886719 34.695312 C 8.714844 34.695312 8.574219 34.554688 8.574219 34.382812 L 8.574219 31.839844 C 8.574219 31.664062 8.714844 31.527344 8.886719 31.527344 L 10.0625 31.527344 C 10.195312 31.03125 10.394531 30.558594 10.648438 30.109375 L 9.820312 29.277344 C 9.695312 29.152344 9.695312 28.960938 9.820312 28.835938 L 11.617188 27.035156 C 11.675781 26.980469 11.753906 26.941406 11.835938 26.941406 C 11.917969 26.941406 12 26.972656 12.054688 27.035156 L 12.878906 27.859375 C 13.324219 27.605469 13.796875 27.410156 14.296875 27.273438 L 14.296875 26.105469 C 14.296875 25.929688 14.433594 25.792969 14.609375 25.792969 L 17.160156 25.792969 C 17.332031 25.792969 17.472656 25.929688 17.472656 26.105469 L 17.472656 27.277344 C 17.964844 27.410156 18.441406 27.609375 18.890625 27.867188 L 19.71875 27.042969 C 19.84375 26.917969 20.039062 26.917969 20.164062 27.042969 L 21.960938 28.839844 C 22.085938 28.964844 22.085938 29.160156 21.960938 29.285156 L 21.132812 30.109375 C 21.386719 30.550781 21.589844 31.027344 21.71875 31.527344 L 22.886719 31.527344 C 23.0625 31.527344 23.199219 31.664062 23.199219 31.839844 L 23.199219 34.386719 C 23.199219 34.5625 23.0625 34.699219 22.886719 34.699219 L 21.71875 34.699219 C 21.589844 35.195312 21.386719 35.667969 21.132812 36.117188 L 21.960938 36.949219 C 22.085938 37.074219 22.085938 37.265625 21.960938 37.390625 L 20.164062 39.191406 C 20.039062 39.316406 19.84375 39.316406 19.71875 39.191406 L 18.890625 38.359375 C 18.445312 38.617188 17.972656 38.808594 17.472656 38.949219 L 17.472656 40.117188 C 17.472656 40.285156 17.332031 40.421875 17.160156 40.421875 Z M 14.929688 39.796875 L 16.851562 39.796875 L 16.851562 38.699219 C 16.851562 38.554688 16.953125 38.421875 17.097656 38.390625 C 17.691406 38.253906 18.257812 38.023438 18.777344 37.699219 C 18.902344 37.625 19.058594 37.636719 19.164062 37.742188 L 19.945312 38.523438 L 21.300781 37.160156 L 20.519531 36.378906 C 20.414062 36.273438 20.402344 36.117188 20.476562 35.992188 C 20.800781 35.476562 21.039062 34.914062 21.167969 34.3125 C 21.199219 34.167969 21.324219 34.070312 21.476562 34.070312 L 22.574219 34.070312 L 22.574219 32.152344 L 21.476562 32.152344 C 21.332031 32.152344 21.199219 32.050781 21.167969 31.90625 C 21.03125 31.3125 20.800781 30.746094 20.476562 30.226562 C 20.402344 30.101562 20.414062 29.941406 20.519531 29.839844 L 21.300781 29.058594 L 19.9375 27.703125 L 19.15625 28.484375 C 19.050781 28.585938 18.894531 28.601562 18.769531 28.527344 C 18.253906 28.203125 17.683594 27.964844 17.089844 27.835938 C 16.945312 27.804688 16.847656 27.679688 16.847656 27.527344 L 16.847656 26.429688 L 14.921875 26.429688 L 14.921875 27.527344 C 14.921875 27.671875 14.824219 27.804688 14.679688 27.835938 C 14.085938 27.972656 13.515625 28.203125 13 28.527344 C 12.875 28.601562 12.71875 28.589844 12.609375 28.484375 L 11.835938 27.703125 L 10.476562 29.058594 L 11.253906 29.839844 C 11.355469 29.945312 11.375 30.101562 11.300781 30.226562 C 10.976562 30.746094 10.738281 31.308594 10.601562 31.90625 C 10.570312 32.050781 10.445312 32.152344 10.292969 32.152344 L 9.199219 32.152344 L 9.199219 34.074219 L 10.300781 34.074219 C 10.445312 34.074219 10.574219 34.175781 10.605469 34.320312 C 10.742188 34.914062 10.976562 35.480469 11.300781 36 C 11.378906 36.125 11.363281 36.285156 11.253906 36.386719 L 10.476562 37.167969 L 11.835938 38.523438 L 12.617188 37.742188 C 12.722656 37.640625 12.878906 37.625 13.003906 37.699219 C 13.523438 38.023438 14.09375 38.261719 14.683594 38.390625 C 14.828125 38.421875 14.929688 38.546875 14.929688 38.699219 Z M 14.929688 39.796875 " fill-opacity="1" fill-rule="nonzero"/></g><path fill="#2f72f1" d="M 15.890625 36.605469 C 13.960938 36.605469 12.394531 35.042969 12.394531 33.113281 C 12.394531 31.183594 13.953125 29.613281 15.882812 29.613281 C 17.816406 29.613281 19.382812 31.175781 19.382812 33.105469 C 19.375 35.039062 17.816406 36.605469 15.890625 36.605469 Z M 15.890625 30.238281 C 14.304688 30.238281 13.015625 31.519531 13.015625 33.105469 C 13.015625 34.695312 14.296875 35.980469 15.882812 35.980469 C 17.472656 35.980469 18.757812 34.699219 18.757812 33.113281 C 18.75 31.527344 17.472656 30.238281 15.890625 30.238281 Z M 15.890625 30.238281 " fill-opacity="1" fill-rule="nonzero"/><g clip-path="url(#e3994ffca1)"><path fill="#2f72f1" d="M 15.890625 26.421875 C 15.714844 26.421875 15.578125 26.285156 15.578125 26.109375 L 15.578125 8.925781 C 15.578125 8.75 15.714844 8.613281 15.890625 8.613281 C 16.066406 8.613281 16.203125 8.75 16.203125 8.925781 L 16.203125 26.109375 C 16.203125 26.28125 16.058594 26.421875 15.890625 26.421875 Z M 15.890625 26.421875 " fill-opacity="1" fill-rule="nonzero"/></g><g clip-path="url(#ce47d1da3a)"><path fill="#2f72f1" d="M 17.796875 11.144531 C 17.714844 11.144531 17.632812 11.113281 17.578125 11.050781 L 15.890625 9.363281 L 14.203125 11.050781 C 14.078125 11.175781 13.886719 11.175781 13.761719 11.050781 C 13.636719 10.925781 13.636719 10.730469 13.761719 10.605469 L 15.664062 8.699219 C 15.789062 8.574219 15.984375 8.574219 16.109375 8.699219 L 18.019531 10.605469 C 18.144531 10.730469 18.144531 10.925781 18.019531 11.050781 C 17.957031 11.113281 17.878906 11.144531 17.796875 11.144531 Z M 17.796875 11.144531 " fill-opacity="1" fill-rule="nonzero"/></g><g clip-path="url(#c85e58d80a)"><path fill="#2f72f1" d="M 20.839844 28.472656 C 20.664062 28.472656 20.527344 28.335938 20.527344 28.160156 C 20.527344 28.078125 20.558594 27.996094 20.621094 27.941406 L 39.855469 8.699219 C 39.980469 8.574219 40.171875 8.574219 40.296875 8.699219 C 40.421875 8.824219 40.421875 9.019531 40.296875 9.144531 L 21.058594 28.378906 C 21 28.441406 20.917969 28.472656 20.839844 28.472656 Z M 20.839844 28.472656 " fill-opacity="1" fill-rule="nonzero"/></g><g clip-path="url(#f5b1fd9fc0)"><path fill="#2f72f1" d="M 40.074219 11.9375 C 39.898438 11.9375 39.761719 11.800781 39.761719 11.625 L 39.761719 9.238281 L 37.367188 9.238281 C 37.191406 9.238281 37.054688 9.101562 37.054688 8.925781 C 37.054688 8.75 37.191406 8.613281 37.367188 8.613281 L 40.066406 8.613281 C 40.242188 8.613281 40.378906 8.75 40.378906 8.925781 L 40.378906 11.625 C 40.382812 11.800781 40.246094 11.9375 40.074219 11.9375 Z M 40.074219 11.9375 " fill-opacity="1" fill-rule="nonzero"/></g><g clip-path="url(#925b30cccc)"><path fill="#2f72f1" d="M 40.074219 33.425781 L 22.886719 33.425781 C 22.710938 33.425781 22.574219 33.289062 22.574219 33.113281 C 22.574219 32.9375 22.710938 32.800781 22.886719 32.800781 L 40.074219 32.800781 C 40.246094 32.800781 40.382812 32.9375 40.382812 33.113281 C 40.382812 33.289062 40.246094 33.425781 40.074219 33.425781 Z M 40.074219 33.425781 " fill-opacity="1" fill-rule="nonzero"/></g><g clip-path="url(#d1fc01cce9)"><path fill="#2f72f1" d="M 38.167969 35.332031 C 37.992188 35.332031 37.855469 35.195312 37.855469 35.019531 C 37.855469 34.9375 37.886719 34.855469 37.949219 34.800781 L 39.636719 33.113281 L 37.949219 31.425781 C 37.828125 31.300781 37.828125 31.101562 37.953125 30.984375 C 38.074219 30.863281 38.265625 30.863281 38.386719 30.984375 L 40.296875 32.894531 C 40.421875 33.019531 40.421875 33.214844 40.296875 33.339844 L 38.386719 35.25 C 38.324219 35.300781 38.25 35.332031 38.167969 35.332031 Z M 38.167969 35.332031 " fill-opacity="1" fill-rule="nonzero"/></g><path fill="#2f72f1" d="M 27.976562 33.425781 C 27.804688 33.425781 27.667969 33.289062 27.667969 33.113281 L 27.667969 21.332031 L 15.890625 21.332031 C 15.714844 21.332031 15.578125 21.195312 15.578125 21.019531 C 15.578125 20.84375 15.714844 20.707031 15.890625 20.707031 L 27.976562 20.707031 C 28.152344 20.707031 28.289062 20.84375 28.289062 21.019531 L 28.289062 33.113281 C 28.289062 33.28125 28.152344 33.425781 27.976562 33.425781 Z M 27.976562 33.425781 " fill-opacity="1" fill-rule="nonzero"/><path fill="#2f72f1" d="M 31.164062 33.425781 C 30.988281 33.425781 30.851562 33.289062 30.851562 33.113281 L 30.851562 18.144531 L 15.890625 18.144531 C 15.714844 18.144531 15.578125 18.007812 15.578125 17.832031 C 15.578125 17.660156 15.714844 17.519531 15.890625 17.519531 L 31.164062 17.519531 C 31.339844 17.519531 31.476562 17.660156 31.476562 17.832031 L 31.476562 33.105469 C 31.476562 33.28125 31.332031 33.425781 31.164062 33.425781 Z M 31.164062 33.425781 " fill-opacity="1" fill-rule="nonzero"/><path fill="#2f72f1" d="M 25.4375 33.425781 C 25.261719 33.425781 25.125 33.289062 25.125 33.113281 L 25.125 23.875 L 15.890625 23.875 C 15.714844 23.875 15.578125 23.738281 15.578125 23.5625 C 15.578125 23.386719 15.714844 23.25 15.890625 23.25 L 25.4375 23.25 C 25.609375 23.25 25.75 23.386719 25.75 23.5625 L 25.75 33.105469 C 25.75 33.28125 25.605469 33.425781 25.4375 33.425781 Z M 25.4375 33.425781 " fill-opacity="1" fill-rule="nonzero"/></svg>