<svg xmlns="http://www.w3.org/2000/svg" xmlns:xlink="http://www.w3.org/1999/xlink" width="66" zoomAndPan="magnify" viewBox="0 0 49.5 49.499998" height="66" preserveAspectRatio="xMidYMid meet" version="1.0"><defs><clipPath id="b6dfe4116e"><path d="M 0.46875 2.027344 L 48.527344 2.027344 L 48.527344 48.527344 L 0.46875 48.527344 Z M 0.46875 2.027344 " clip-rule="nonzero"/></clipPath><clipPath id="f7718ff2c1"><path d="M 40.542969 2.109375 C 44.910156 2.109375 48.441406 5.652344 48.441406 10.007812 L 48.441406 40.542969 C 48.441406 44.910156 44.902344 48.441406 40.542969 48.441406 L 8.449219 48.441406 C 4.085938 48.441406 0.554688 44.902344 0.554688 40.542969 L 0.554688 10.007812 C 0.554688 5.640625 4.09375 2.109375 8.449219 2.109375 Z M 40.542969 2.109375 " clip-rule="nonzero"/></clipPath><clipPath id="b6de5f2aa9"><path d="M 0 1.550781 L 49 1.550781 L 49 49 L 0 49 Z M 0 1.550781 " clip-rule="nonzero"/></clipPath><clipPath id="98eef5bef6"><path d="M 49 10.007812 L 49 40.542969 C 49 45.203125 45.203125 49 40.542969 49 L 8.449219 49 C 3.789062 49 -0.00390625 45.203125 -0.00390625 40.542969 L -0.00390625 10.007812 C -0.00390625 5.347656 3.789062 1.550781 8.449219 1.550781 L 40.535156 1.550781 C 45.203125 1.550781 49 5.347656 49 10.007812 Z M 1.113281 40.542969 C 1.113281 44.585938 4.40625 47.878906 8.449219 47.878906 L 40.535156 47.878906 C 44.578125 47.878906 47.871094 44.585938 47.871094 40.542969 L 47.871094 10.007812 C 47.871094 5.964844 44.578125 2.671875 40.535156 2.671875 L 8.449219 2.671875 C 4.40625 2.671875 1.113281 5.964844 1.113281 10.007812 Z M 1.113281 40.542969 " clip-rule="nonzero"/></clipPath><clipPath id="83c6d749f8"><path d="M 23 19 L 37.890625 19 L 37.890625 36.304688 L 23 36.304688 Z M 23 19 " clip-rule="nonzero"/></clipPath><clipPath id="2a4c3eb8b3"><path d="M 11.160156 12.542969 L 26 12.542969 L 26 23 L 11.160156 23 Z M 11.160156 12.542969 " clip-rule="nonzero"/></clipPath></defs><g clip-path="url(#b6dfe4116e)"><g clip-path="url(#f7718ff2c1)"><path fill="#ffffff" d="M -0.00390625 49 L -0.00390625 1.550781 L 49 1.550781 L 49 49 Z M -0.00390625 49 " fill-opacity="1" fill-rule="nonzero"/></g></g><g clip-path="url(#b6de5f2aa9)"><g clip-path="url(#98eef5bef6)"><path fill="#edf4ff" d="M -0.00390625 49 L -0.00390625 1.550781 L 49 1.550781 L 49 49 Z M -0.00390625 49 " fill-opacity="1" fill-rule="nonzero"/></g></g><g clip-path="url(#83c6d749f8)"><path fill="#2f72f1" d="M 37.765625 25.171875 C 37.738281 24.6875 37.617188 24.214844 37.46875 23.753906 C 37.378906 23.523438 37.300781 23.296875 37.175781 23.082031 C 37.074219 22.859375 36.933594 22.65625 36.800781 22.453125 C 36.515625 22.054688 36.171875 21.699219 35.792969 21.394531 C 35.417969 21.082031 34.992188 20.839844 34.558594 20.636719 C 34.121094 20.425781 33.664062 20.273438 33.199219 20.15625 C 32.277344 19.921875 31.320312 19.835938 30.378906 19.867188 C 29.90625 19.875 29.4375 19.929688 28.96875 20.007812 C 28.503906 20.078125 28.046875 20.195312 27.597656 20.347656 C 27.484375 20.386719 27.375 20.4375 27.265625 20.480469 C 27.15625 20.53125 27.046875 20.578125 26.945312 20.640625 C 26.734375 20.753906 26.535156 20.902344 26.371094 21.09375 L 26.316406 21.164062 L 26.269531 21.25 C 26.238281 21.304688 26.207031 21.363281 26.195312 21.429688 C 26.164062 21.558594 26.164062 21.691406 26.183594 21.816406 C 26.226562 22.042969 26.320312 22.242188 26.429688 22.433594 C 26.253906 22.664062 26.097656 22.902344 25.957031 23.152344 C 25.804688 23.421875 25.675781 23.703125 25.566406 23.988281 C 25.355469 24.570312 25.238281 25.1875 25.222656 25.804688 L 25.222656 25.851562 L 25.253906 25.898438 C 25.339844 26.015625 25.371094 26.144531 25.34375 26.253906 C 25.316406 26.367188 25.234375 26.464844 25.109375 26.585938 C 24.871094 26.824219 24.617188 27.058594 24.367188 27.289062 L 23.988281 27.628906 L 23.792969 27.800781 C 23.710938 27.886719 23.648438 27.96875 23.597656 28.066406 C 23.492188 28.257812 23.453125 28.503906 23.503906 28.726562 C 23.554688 28.957031 23.683594 29.148438 23.867188 29.289062 L 23.898438 29.3125 L 23.945312 29.328125 C 24.113281 29.382812 24.273438 29.449219 24.421875 29.53125 C 24.484375 29.5625 24.554688 29.605469 24.605469 29.636719 C 24.605469 29.640625 24.601562 29.640625 24.601562 29.648438 C 24.570312 29.695312 24.539062 29.746094 24.511719 29.792969 C 24.464844 29.875 24.414062 29.988281 24.382812 30.121094 C 24.351562 30.25 24.359375 30.410156 24.40625 30.539062 C 24.429688 30.59375 24.449219 30.644531 24.480469 30.6875 C 24.476562 30.691406 24.476562 30.695312 24.46875 30.707031 C 24.46875 30.710938 24.464844 30.71875 24.460938 30.722656 L 24.460938 30.726562 L 24.453125 30.734375 L 24.453125 30.738281 L 24.449219 30.742188 L 24.445312 30.757812 L 24.433594 30.785156 L 24.417969 30.832031 C 24.40625 30.863281 24.402344 30.894531 24.398438 30.929688 C 24.386719 30.996094 24.382812 31.058594 24.382812 31.132812 C 24.390625 31.273438 24.421875 31.382812 24.460938 31.488281 C 24.523438 31.664062 24.601562 31.820312 24.6875 31.96875 L 24.6875 31.992188 C 24.542969 32.183594 24.433594 32.40625 24.382812 32.644531 C 24.324219 32.914062 24.339844 33.210938 24.445312 33.480469 C 24.542969 33.753906 24.742188 33.996094 24.984375 34.152344 C 25.105469 34.230469 25.234375 34.289062 25.371094 34.328125 C 25.503906 34.371094 25.632812 34.390625 25.785156 34.402344 L 25.8125 34.402344 C 26.148438 34.382812 26.488281 34.402344 26.820312 34.453125 C 27.152344 34.503906 27.472656 34.605469 27.773438 34.734375 C 28.078125 34.863281 28.355469 35.042969 28.601562 35.257812 C 28.851562 35.472656 29.054688 35.730469 29.21875 36.019531 L 29.25 36.066406 C 29.371094 36.199219 29.519531 36.308594 29.6875 36.371094 C 29.847656 36.433594 30.019531 36.453125 30.191406 36.4375 C 30.617188 36.429688 31.042969 36.429688 31.46875 36.414062 L 32.753906 36.375 L 35.316406 36.289062 L 35.34375 36.289062 L 35.359375 36.28125 C 35.496094 36.230469 35.617188 36.148438 35.707031 36.023438 C 35.792969 35.902344 35.832031 35.753906 35.820312 35.609375 L 35.820312 35.597656 C 35.757812 35.269531 35.695312 34.941406 35.648438 34.613281 C 35.597656 34.289062 35.558594 33.953125 35.523438 33.621094 C 35.492188 33.289062 35.457031 32.957031 35.457031 32.625 L 35.425781 31.621094 C 35.425781 31.570312 35.441406 31.511719 35.464844 31.464844 C 35.492188 31.417969 35.527344 31.378906 35.566406 31.332031 L 35.789062 31.058594 C 35.945312 30.882812 36.070312 30.6875 36.210938 30.5 C 36.351562 30.3125 36.464844 30.105469 36.59375 29.910156 C 36.714844 29.710938 36.824219 29.5 36.933594 29.292969 C 37.347656 28.453125 37.644531 27.542969 37.769531 26.597656 C 37.789062 26.476562 37.789062 26.355469 37.800781 26.242188 C 37.804688 26.125 37.824219 26.003906 37.820312 25.882812 C 37.785156 25.648438 37.792969 25.410156 37.765625 25.171875 Z M 37.4375 26.574219 C 37.378906 27.488281 37.15625 28.394531 36.785156 29.246094 C 36.6875 29.453125 36.585938 29.664062 36.476562 29.871094 L 36.296875 30.171875 C 36.242188 30.269531 36.183594 30.375 36.117188 30.46875 C 35.980469 30.65625 35.855469 30.851562 35.707031 31.027344 L 35.488281 31.300781 C 35.449219 31.347656 35.410156 31.386719 35.378906 31.445312 C 35.347656 31.503906 35.335938 31.5625 35.335938 31.625 L 35.351562 32.628906 C 35.351562 32.796875 35.359375 32.960938 35.367188 33.132812 L 35.394531 33.636719 C 35.414062 33.96875 35.445312 34.308594 35.476562 34.640625 C 35.507812 34.972656 35.550781 35.300781 35.589844 35.628906 C 35.589844 35.726562 35.554688 35.824219 35.496094 35.898438 C 35.441406 35.964844 35.359375 36.019531 35.273438 36.042969 L 32.734375 35.957031 L 31.449219 35.917969 C 31.023438 35.910156 30.597656 35.902344 30.164062 35.894531 L 30.132812 35.894531 C 29.964844 35.910156 29.792969 35.835938 29.683594 35.710938 C 29.496094 35.382812 29.261719 35.082031 28.980469 34.828125 C 28.695312 34.5625 28.363281 34.34375 28.007812 34.183594 C 27.65625 34.023438 27.28125 33.917969 26.902344 33.855469 C 26.535156 33.800781 26.160156 33.777344 25.785156 33.800781 C 25.617188 33.792969 25.429688 33.738281 25.292969 33.648438 C 25.152344 33.558594 25.042969 33.433594 24.980469 33.273438 C 24.917969 33.117188 24.902344 32.9375 24.9375 32.765625 C 24.96875 32.589844 25.050781 32.421875 25.167969 32.28125 L 25.222656 32.207031 L 25.230469 32.121094 L 25.246094 31.929688 L 25.25 31.835938 L 25.199219 31.757812 C 25.105469 31.609375 25.019531 31.457031 24.964844 31.304688 C 24.9375 31.230469 24.917969 31.152344 24.910156 31.101562 C 24.910156 31.082031 24.910156 31.050781 24.917969 31.019531 C 24.917969 31.003906 24.921875 30.988281 24.925781 30.976562 L 24.933594 30.957031 L 24.9375 30.945312 C 24.949219 30.921875 24.96875 30.894531 24.988281 30.867188 L 25.167969 30.675781 L 24.988281 30.492188 C 24.941406 30.445312 24.910156 30.398438 24.894531 30.351562 C 24.878906 30.308594 24.875 30.277344 24.886719 30.222656 C 24.894531 30.171875 24.921875 30.109375 24.964844 30.03125 C 24.980469 30 24.996094 29.96875 25.015625 29.9375 C 25.035156 29.902344 25.0625 29.886719 25.113281 29.785156 C 25.140625 29.742188 25.160156 29.652344 25.152344 29.585938 C 25.144531 29.523438 25.121094 29.453125 25.089844 29.402344 C 25.027344 29.304688 24.964844 29.265625 24.917969 29.230469 C 24.816406 29.164062 24.734375 29.121094 24.640625 29.074219 C 24.476562 28.992188 24.304688 28.929688 24.132812 28.871094 C 23.960938 28.726562 23.894531 28.484375 24.003906 28.273438 C 24.027344 28.222656 24.070312 28.160156 24.105469 28.125 L 24.289062 27.949219 L 24.65625 27.582031 C 24.902344 27.339844 25.140625 27.089844 25.378906 26.835938 C 25.492188 26.714844 25.648438 26.539062 25.691406 26.308594 C 25.734375 26.101562 25.660156 25.894531 25.550781 25.742188 C 25.539062 25.171875 25.625 24.601562 25.800781 24.054688 C 25.976562 23.492188 26.257812 22.957031 26.617188 22.484375 L 26.65625 22.433594 L 26.621094 22.382812 C 26.503906 22.1875 26.398438 21.988281 26.363281 21.773438 C 26.347656 21.667969 26.339844 21.558594 26.367188 21.460938 C 26.378906 21.410156 26.398438 21.363281 26.425781 21.320312 L 26.460938 21.253906 L 26.511719 21.191406 C 26.648438 21.023438 26.828125 20.890625 27.03125 20.785156 C 27.132812 20.730469 27.234375 20.6875 27.339844 20.636719 C 27.449219 20.59375 27.550781 20.550781 27.660156 20.515625 C 28.535156 20.230469 29.464844 20.125 30.382812 20.148438 C 31.304688 20.164062 32.222656 20.292969 33.089844 20.5625 C 33.960938 20.828125 34.785156 21.226562 35.476562 21.789062 C 35.820312 22.070312 36.125 22.390625 36.398438 22.746094 C 36.523438 22.925781 36.652344 23.109375 36.746094 23.3125 C 36.859375 23.503906 36.941406 23.710938 37.03125 23.914062 C 37.351562 24.746094 37.488281 25.660156 37.4375 26.574219 Z M 24.910156 30.996094 L 24.941406 30.945312 L 24.9375 30.949219 C 24.925781 30.972656 24.921875 30.988281 24.910156 30.996094 Z M 24.910156 30.996094 " fill-opacity="1" fill-rule="nonzero"/></g><path fill="#2f72f1" d="M 32.265625 31.269531 C 32.265625 31.152344 32.222656 31.039062 32.140625 30.957031 C 32.0625 30.875 31.949219 30.828125 31.828125 30.820312 L 31.820312 30.820312 C 30.960938 31.027344 30.058594 31.035156 29.195312 30.828125 L 29.183594 30.828125 C 29.070312 30.828125 28.960938 30.875 28.882812 30.957031 C 28.804688 31.035156 28.757812 31.144531 28.757812 31.257812 C 28.757812 31.367188 28.800781 31.480469 28.878906 31.558594 C 28.921875 31.605469 28.980469 31.640625 29.042969 31.664062 C 28.980469 31.683594 28.921875 31.71875 28.878906 31.765625 C 28.804688 31.851562 28.769531 31.960938 28.773438 32.070312 C 28.773438 32.175781 28.820312 32.28125 28.898438 32.355469 C 28.949219 32.40625 29.011719 32.4375 29.085938 32.457031 C 29.015625 32.472656 28.949219 32.511719 28.898438 32.5625 C 28.820312 32.640625 28.773438 32.742188 28.773438 32.851562 C 28.773438 32.960938 28.816406 33.070312 28.894531 33.148438 C 28.96875 33.226562 29.078125 33.273438 29.1875 33.28125 L 29.183594 33.28125 L 29.511719 33.320312 L 29.640625 33.335938 L 29.640625 33.339844 C 29.640625 33.351562 29.640625 33.367188 29.644531 33.378906 C 29.652344 33.402344 29.65625 33.429688 29.660156 33.449219 C 29.675781 33.503906 29.699219 33.542969 29.722656 33.589844 C 29.777344 33.679688 29.847656 33.746094 29.933594 33.804688 C 30.015625 33.855469 30.113281 33.886719 30.210938 33.898438 L 30.503906 33.914062 C 30.601562 33.917969 30.695312 33.921875 30.792969 33.921875 C 30.898438 33.921875 31.003906 33.882812 31.085938 33.824219 C 31.246094 33.710938 31.328125 33.519531 31.335938 33.335938 L 31.339844 33.335938 L 31.507812 33.316406 L 31.835938 33.273438 L 31.84375 33.273438 C 31.933594 33.222656 32.019531 33.171875 32.09375 33.101562 C 32.167969 33.035156 32.246094 32.945312 32.238281 32.835938 C 32.234375 32.734375 32.1875 32.636719 32.113281 32.566406 C 32.050781 32.511719 31.972656 32.472656 31.890625 32.464844 C 31.980469 32.453125 32.0625 32.417969 32.125 32.355469 C 32.203125 32.28125 32.246094 32.175781 32.246094 32.070312 C 32.246094 31.964844 32.203125 31.855469 32.128906 31.777344 C 32.089844 31.730469 32.03125 31.699219 31.96875 31.671875 C 32.03125 31.652344 32.089844 31.621094 32.140625 31.574219 C 32.214844 31.496094 32.261719 31.382812 32.265625 31.269531 Z M 31.042969 33.769531 C 30.964844 33.816406 30.878906 33.835938 30.789062 33.839844 C 30.695312 33.839844 30.597656 33.847656 30.503906 33.851562 C 30.410156 33.855469 30.3125 33.867188 30.21875 33.863281 C 30.125 33.863281 30.03125 33.832031 29.953125 33.773438 C 29.875 33.722656 29.8125 33.644531 29.777344 33.566406 C 29.761719 33.523438 29.738281 33.480469 29.734375 33.433594 C 29.730469 33.414062 29.730469 33.386719 29.722656 33.367188 C 29.722656 33.355469 29.722656 33.351562 29.722656 33.339844 C 29.984375 33.355469 30.25 33.378906 30.507812 33.378906 C 30.550781 33.371094 30.59375 33.367188 30.632812 33.367188 L 31.175781 33.339844 L 31.328125 33.332031 C 31.320312 33.523438 31.199219 33.691406 31.042969 33.769531 Z M 31.828125 31.640625 L 31.828125 31.6875 C 31.925781 31.683594 32.027344 31.726562 32.097656 31.792969 C 32.171875 31.859375 32.21875 31.960938 32.21875 32.0625 C 32.21875 32.160156 32.175781 32.265625 32.109375 32.339844 C 32.035156 32.410156 31.9375 32.453125 31.835938 32.453125 L 31.835938 32.457031 C 31.59375 32.5 31.359375 32.535156 31.121094 32.550781 C 30.878906 32.566406 30.628906 32.566406 30.378906 32.542969 C 30.625 32.605469 30.871094 32.609375 31.121094 32.597656 C 31.246094 32.589844 31.371094 32.578125 31.496094 32.550781 C 31.609375 32.53125 31.726562 32.5 31.835938 32.464844 C 31.933594 32.464844 32.027344 32.503906 32.097656 32.574219 C 32.171875 32.640625 32.214844 32.738281 32.21875 32.835938 C 32.230469 32.9375 32.152344 33.015625 32.074219 33.078125 C 31.996094 33.140625 31.910156 33.1875 31.824219 33.234375 L 31.496094 33.257812 L 31.328125 33.273438 L 31.164062 33.28125 L 30.628906 33.296875 C 30.585938 33.296875 30.546875 33.296875 30.503906 33.296875 C 30.367188 33.289062 30.226562 33.28125 30.09375 33.28125 L 29.683594 33.269531 L 29.652344 33.269531 L 29.515625 33.257812 L 29.1875 33.226562 L 29.183594 33.226562 C 29.085938 33.226562 28.992188 33.191406 28.917969 33.125 C 28.847656 33.054688 28.804688 32.957031 28.804688 32.859375 C 28.804688 32.757812 28.839844 32.660156 28.914062 32.589844 C 28.980469 32.515625 29.078125 32.472656 29.183594 32.472656 L 29.183594 32.441406 C 29.085938 32.441406 28.984375 32.402344 28.917969 32.328125 C 28.851562 32.261719 28.808594 32.160156 28.808594 32.0625 C 28.804688 31.964844 28.839844 31.867188 28.910156 31.796875 C 28.976562 31.726562 29.070312 31.6875 29.167969 31.6875 L 29.167969 31.636719 C 29.074219 31.632812 28.980469 31.585938 28.917969 31.519531 C 28.855469 31.449219 28.820312 31.351562 28.824219 31.257812 C 28.832031 31.164062 28.871094 31.074219 28.9375 31.011719 C 29.007812 30.949219 29.09375 30.914062 29.183594 30.914062 C 29.613281 31.023438 30.0625 31.082031 30.507812 31.085938 C 30.957031 31.085938 31.402344 31.027344 31.835938 30.921875 C 31.921875 30.921875 32.015625 30.957031 32.078125 31.019531 C 32.109375 31.050781 32.136719 31.089844 32.15625 31.132812 C 32.035156 31.148438 31.917969 31.167969 31.796875 31.195312 C 31.664062 31.214844 31.53125 31.238281 31.398438 31.261719 C 31.132812 31.304688 30.867188 31.351562 30.597656 31.378906 C 30.460938 31.394531 30.328125 31.398438 30.191406 31.394531 C 30.058594 31.382812 29.925781 31.355469 29.792969 31.332031 C 29.527344 31.285156 29.265625 31.230469 29.015625 31.128906 L 29.011719 31.136719 C 29.121094 31.226562 29.25 31.277344 29.382812 31.324219 C 29.511719 31.367188 29.644531 31.398438 29.78125 31.414062 C 29.847656 31.417969 29.917969 31.425781 29.984375 31.425781 C 30.050781 31.425781 30.117188 31.425781 30.1875 31.425781 C 30.320312 31.425781 30.457031 31.433594 30.59375 31.429688 C 30.863281 31.441406 31.136719 31.410156 31.40625 31.363281 C 31.542969 31.335938 31.671875 31.300781 31.804688 31.269531 C 31.917969 31.230469 32.035156 31.195312 32.152344 31.148438 C 32.167969 31.183594 32.175781 31.226562 32.175781 31.269531 C 32.183594 31.363281 32.144531 31.457031 32.078125 31.527344 C 32.019531 31.59375 31.925781 31.640625 31.828125 31.640625 Z M 31.828125 31.640625 " fill-opacity="1" fill-rule="nonzero"/><path fill="#2f72f1" d="M 31.144531 31.632812 C 30.949219 31.648438 30.757812 31.664062 30.566406 31.699219 C 30.46875 31.714844 30.375 31.726562 30.273438 31.71875 C 30.175781 31.714844 30.082031 31.695312 29.984375 31.679688 C 29.792969 31.65625 29.597656 31.667969 29.40625 31.65625 L 29.402344 31.667969 C 29.492188 31.726562 29.589844 31.75 29.683594 31.773438 C 29.78125 31.792969 29.878906 31.796875 29.980469 31.796875 C 30.078125 31.792969 30.175781 31.773438 30.273438 31.765625 C 30.375 31.761719 30.46875 31.765625 30.566406 31.777344 C 30.761719 31.796875 30.957031 31.796875 31.152344 31.789062 C 31.34375 31.765625 31.539062 31.734375 31.730469 31.671875 L 31.730469 31.65625 C 31.53125 31.632812 31.335938 31.625 31.144531 31.632812 Z M 31.144531 31.632812 " fill-opacity="1" fill-rule="nonzero"/><path fill="#2f72f1" d="M 30.105469 32.074219 C 30.019531 32.078125 29.9375 32.085938 29.855469 32.074219 C 29.769531 32.0625 29.6875 32.042969 29.605469 32.03125 C 29.4375 32.007812 29.273438 32 29.109375 31.96875 L 29.105469 31.980469 C 29.179688 32.03125 29.261719 32.058594 29.34375 32.074219 C 29.429688 32.09375 29.511719 32.105469 29.597656 32.109375 C 29.683594 32.109375 29.769531 32.105469 29.855469 32.105469 C 29.9375 32.105469 30.019531 32.117188 30.105469 32.125 C 30.441406 32.167969 30.777344 32.171875 31.113281 32.101562 L 31.113281 32.089844 C 30.773438 32.042969 30.441406 32.054688 30.105469 32.074219 Z M 30.105469 32.074219 " fill-opacity="1" fill-rule="nonzero"/><path fill="#2f72f1" d="M 29.183594 32.457031 C 29.492188 32.5 29.796875 32.515625 30.105469 32.519531 C 30.410156 32.519531 30.722656 32.515625 31.027344 32.484375 L 30.105469 32.472656 Z M 29.183594 32.457031 " fill-opacity="1" fill-rule="nonzero"/><path fill="#2f72f1" d="M 29.023438 32.757812 C 29.46875 32.910156 29.941406 32.960938 30.410156 32.976562 C 30.644531 32.984375 30.882812 32.976562 31.117188 32.957031 C 31.351562 32.941406 31.585938 32.898438 31.8125 32.847656 L 31.113281 32.847656 C 30.878906 32.847656 30.648438 32.84375 30.414062 32.835938 C 30.179688 32.832031 29.953125 32.820312 29.71875 32.8125 C 29.492188 32.789062 29.257812 32.78125 29.023438 32.757812 Z M 29.023438 32.757812 " fill-opacity="1" fill-rule="nonzero"/><path fill="#2f72f1" d="M 29.613281 30.46875 C 29.761719 30.472656 29.90625 30.453125 30.046875 30.410156 C 30.113281 30.394531 30.1875 30.351562 30.234375 30.296875 C 30.28125 30.238281 30.304688 30.167969 30.304688 30.09375 C 30.300781 29.296875 30.328125 28.503906 30.347656 27.714844 C 30.375 26.917969 30.378906 26.125 30.367188 25.332031 C 30.367188 24.9375 30.351562 24.539062 30.347656 24.144531 L 30.335938 23.546875 L 30.332031 23.394531 C 30.332031 23.335938 30.316406 23.285156 30.289062 23.234375 C 30.238281 23.136719 30.132812 23.066406 30.027344 23.058594 C 29.625 23.03125 29.214844 23.074219 28.847656 23.238281 C 28.664062 23.328125 28.488281 23.457031 28.410156 23.65625 C 28.332031 23.835938 28.367188 24.039062 28.441406 24.214844 C 28.289062 24.253906 28.144531 24.300781 28 24.363281 C 27.84375 24.429688 27.6875 24.511719 27.546875 24.621094 C 27.410156 24.730469 27.285156 24.882812 27.25 25.066406 C 27.21875 25.230469 27.25 25.386719 27.316406 25.527344 C 27.132812 25.597656 26.960938 25.707031 26.828125 25.863281 C 26.679688 26.035156 26.578125 26.253906 26.554688 26.488281 C 26.527344 26.722656 26.589844 26.960938 26.710938 27.15625 C 26.808594 27.3125 26.945312 27.449219 27.101562 27.542969 C 26.992188 27.652344 26.902344 27.792969 26.859375 27.9375 C 26.804688 28.128906 26.808594 28.347656 26.886719 28.535156 C 26.964844 28.722656 27.109375 28.882812 27.285156 28.976562 C 27.433594 29.054688 27.605469 29.089844 27.769531 29.082031 C 27.757812 29.203125 27.757812 29.324219 27.78125 29.449219 C 27.804688 29.605469 27.875 29.761719 27.988281 29.875 C 28.097656 29.988281 28.242188 30.074219 28.394531 30.109375 C 28.464844 30.136719 28.542969 30.136719 28.621094 30.152344 L 28.835938 30.15625 C 29.046875 30.347656 29.328125 30.457031 29.613281 30.46875 Z M 28.414062 30.027344 C 28.28125 29.984375 28.160156 29.90625 28.070312 29.800781 C 27.984375 29.699219 27.9375 29.570312 27.914062 29.433594 C 27.894531 29.304688 27.898438 29.160156 27.929688 29.027344 C 28.101562 28.945312 28.3125 28.933594 28.488281 29.019531 C 28.683594 29.105469 28.832031 29.292969 28.894531 29.511719 C 28.855469 29.292969 28.722656 29.082031 28.519531 28.964844 C 28.347656 28.867188 28.132812 28.851562 27.941406 28.914062 L 27.847656 28.929688 C 27.515625 28.976562 27.171875 28.785156 27.054688 28.476562 C 26.992188 28.328125 26.992188 28.15625 27.039062 28 C 27.085938 27.84375 27.183594 27.703125 27.3125 27.609375 L 27.324219 27.605469 C 27.488281 27.625 27.652344 27.660156 27.800781 27.730469 C 27.972656 27.800781 28.128906 27.925781 28.203125 28.097656 C 28.238281 28.179688 28.257812 28.28125 28.300781 28.375 C 28.339844 28.46875 28.402344 28.546875 28.480469 28.605469 C 28.632812 28.738281 28.824219 28.804688 29.015625 28.835938 C 28.832031 28.792969 28.636719 28.722656 28.503906 28.585938 C 28.433594 28.519531 28.378906 28.441406 28.339844 28.351562 C 28.304688 28.265625 28.289062 28.171875 28.253906 28.070312 C 28.1875 27.878906 28.019531 27.730469 27.835938 27.644531 C 27.703125 27.578125 27.558594 27.53125 27.40625 27.5 L 27.296875 27.449219 C 27.121094 27.367188 26.964844 27.230469 26.859375 27.0625 C 26.757812 26.898438 26.703125 26.699219 26.71875 26.507812 C 26.734375 26.316406 26.820312 26.125 26.949219 25.972656 C 27.070312 25.828125 27.230469 25.722656 27.410156 25.65625 C 27.527344 25.796875 27.660156 25.925781 27.8125 26.023438 C 27.976562 26.140625 28.175781 26.210938 28.367188 26.257812 C 28.460938 26.285156 28.554688 26.316406 28.628906 26.371094 C 28.699219 26.429688 28.761719 26.511719 28.800781 26.601562 C 28.878906 26.777344 28.894531 26.980469 28.886719 27.179688 C 28.902344 26.980469 28.898438 26.777344 28.824219 26.589844 C 28.789062 26.496094 28.730469 26.410156 28.652344 26.339844 C 28.574219 26.273438 28.476562 26.230469 28.382812 26.207031 C 28.191406 26.148438 28.015625 26.070312 27.863281 25.957031 C 27.734375 25.863281 27.621094 25.742188 27.527344 25.613281 L 27.53125 25.613281 L 27.488281 25.535156 C 27.410156 25.402344 27.363281 25.246094 27.390625 25.097656 C 27.417969 24.953125 27.515625 24.820312 27.636719 24.714844 C 27.753906 24.609375 27.898438 24.527344 28.050781 24.453125 C 28.179688 24.394531 28.320312 24.347656 28.460938 24.304688 C 28.523438 24.410156 28.597656 24.507812 28.679688 24.589844 C 28.769531 24.6875 28.882812 24.765625 28.976562 24.839844 C 29.070312 24.917969 29.136719 25.03125 29.179688 25.152344 C 29.21875 25.269531 29.242188 25.402344 29.25 25.527344 C 29.25 25.394531 29.242188 25.265625 29.203125 25.140625 C 29.167969 25.015625 29.105469 24.890625 29.011719 24.796875 C 28.914062 24.710938 28.820312 24.632812 28.738281 24.53125 C 28.660156 24.441406 28.589844 24.335938 28.539062 24.226562 C 28.457031 24.058594 28.402344 23.855469 28.476562 23.6875 C 28.542969 23.507812 28.710938 23.382812 28.882812 23.296875 C 29.234375 23.125 29.644531 23.097656 30.03125 23.125 C 30.117188 23.136719 30.203125 23.191406 30.238281 23.269531 C 30.257812 23.3125 30.269531 23.351562 30.269531 23.394531 L 30.253906 23.539062 L 30.242188 24.136719 C 30.238281 24.53125 30.222656 24.933594 30.222656 25.328125 C 30.210938 26.125 30.21875 26.917969 30.242188 27.707031 C 30.265625 28.503906 30.289062 29.296875 30.285156 30.089844 C 30.285156 30.230469 30.175781 30.359375 30.035156 30.382812 C 29.902344 30.425781 29.753906 30.441406 29.613281 30.429688 C 29.328125 30.414062 29.058594 30.285156 28.863281 30.09375 L 28.851562 30.082031 L 28.835938 30.082031 L 28.617188 30.066406 C 28.550781 30.058594 28.476562 30.046875 28.414062 30.027344 Z M 28.414062 30.027344 " fill-opacity="1" fill-rule="nonzero"/><path fill="#2f72f1" d="M 29.734375 23.835938 C 29.796875 23.914062 29.816406 24.007812 29.777344 24.097656 C 29.734375 24.183594 29.65625 24.269531 29.589844 24.355469 C 29.519531 24.445312 29.453125 24.546875 29.417969 24.664062 C 29.382812 24.777344 29.371094 24.902344 29.398438 25.015625 C 29.445312 25.25 29.578125 25.449219 29.734375 25.605469 C 29.613281 25.417969 29.507812 25.214844 29.484375 25.007812 C 29.460938 24.792969 29.542969 24.59375 29.683594 24.429688 C 29.746094 24.339844 29.828125 24.257812 29.878906 24.144531 C 29.90625 24.085938 29.910156 24.011719 29.902344 23.949219 C 29.886719 23.882812 29.847656 23.832031 29.808594 23.785156 C 29.628906 23.613281 29.402344 23.554688 29.183594 23.515625 C 29.289062 23.554688 29.390625 23.597656 29.484375 23.65625 C 29.578125 23.695312 29.671875 23.753906 29.734375 23.835938 Z M 29.734375 23.835938 " fill-opacity="1" fill-rule="nonzero"/><path fill="#2f72f1" d="M 29.25 26.402344 C 29.257812 26.535156 29.234375 26.667969 29.210938 26.800781 C 29.261719 26.675781 29.292969 26.539062 29.308594 26.402344 C 29.320312 26.269531 29.292969 26.117188 29.210938 26 C 29.125 25.875 28.984375 25.804688 28.855469 25.765625 C 28.722656 25.722656 28.585938 25.707031 28.457031 25.675781 C 28.328125 25.648438 28.203125 25.613281 28.109375 25.542969 C 28.015625 25.46875 27.957031 25.347656 27.945312 25.230469 C 27.929688 25.105469 27.984375 24.984375 28.09375 24.914062 C 28.195312 24.839844 28.332031 24.8125 28.464844 24.820312 C 28.335938 24.789062 28.191406 24.796875 28.0625 24.867188 C 28 24.902344 27.941406 24.953125 27.90625 25.015625 C 27.867188 25.082031 27.851562 25.15625 27.859375 25.230469 C 27.859375 25.375 27.925781 25.519531 28.039062 25.625 C 28.160156 25.71875 28.300781 25.757812 28.433594 25.789062 C 28.570312 25.816406 28.699219 25.832031 28.824219 25.867188 C 28.949219 25.898438 29.0625 25.957031 29.140625 26.050781 C 29.214844 26.144531 29.25 26.273438 29.25 26.402344 Z M 29.25 26.402344 " fill-opacity="1" fill-rule="nonzero"/><path fill="#2f72f1" d="M 27.898438 27.242188 C 27.734375 27.214844 27.566406 27.164062 27.433594 27.0625 C 27.296875 26.96875 27.203125 26.828125 27.1875 26.664062 C 27.171875 26.496094 27.222656 26.324219 27.296875 26.164062 C 27.183594 26.300781 27.101562 26.476562 27.101562 26.667969 C 27.09375 26.867188 27.214844 27.046875 27.371094 27.15625 C 27.527344 27.265625 27.714844 27.324219 27.894531 27.328125 C 28.078125 27.335938 28.265625 27.292969 28.425781 27.21875 C 28.242188 27.257812 28.066406 27.261719 27.898438 27.242188 Z M 27.898438 27.242188 " fill-opacity="1" fill-rule="nonzero"/><path fill="#2f72f1" d="M 29.40625 27.910156 C 29.460938 27.917969 29.515625 27.933594 29.589844 27.917969 C 29.660156 27.902344 29.722656 27.839844 29.738281 27.765625 C 29.753906 27.691406 29.738281 27.636719 29.730469 27.582031 L 29.691406 27.425781 C 29.667969 27.324219 29.652344 27.226562 29.652344 27.121094 C 29.652344 26.914062 29.730469 26.710938 29.855469 26.535156 C 29.777344 26.605469 29.707031 26.695312 29.65625 26.792969 C 29.605469 26.890625 29.578125 27 29.5625 27.117188 C 29.546875 27.230469 29.5625 27.34375 29.582031 27.449219 C 29.605469 27.550781 29.640625 27.667969 29.625 27.738281 C 29.621094 27.777344 29.59375 27.796875 29.5625 27.808594 C 29.527344 27.816406 29.476562 27.808594 29.421875 27.800781 C 29.320312 27.785156 29.199219 27.777344 29.089844 27.796875 C 28.976562 27.816406 28.871094 27.859375 28.777344 27.921875 C 28.691406 27.984375 28.605469 28.0625 28.542969 28.148438 C 28.699219 28.003906 28.894531 27.902344 29.101562 27.886719 C 29.199219 27.878906 29.296875 27.890625 29.40625 27.910156 Z M 29.40625 27.910156 " fill-opacity="1" fill-rule="nonzero"/><path fill="#2f72f1" d="M 29.675781 29.832031 C 29.777344 29.769531 29.863281 29.683594 29.921875 29.574219 C 29.980469 29.464844 29.984375 29.328125 29.949219 29.214844 C 29.863281 28.992188 29.703125 28.835938 29.671875 28.628906 C 29.636719 28.421875 29.71875 28.207031 29.859375 28.039062 C 29.699219 28.1875 29.574219 28.40625 29.597656 28.636719 C 29.609375 28.753906 29.65625 28.863281 29.707031 28.960938 C 29.761719 29.058594 29.816406 29.152344 29.84375 29.246094 C 29.910156 29.433594 29.792969 29.632812 29.621094 29.742188 C 29.449219 29.855469 29.230469 29.863281 29.039062 29.785156 L 29.015625 29.777344 L 29 29.785156 C 28.886719 29.847656 28.738281 29.847656 28.621094 29.777344 C 28.566406 29.746094 28.511719 29.695312 28.480469 29.632812 C 28.449219 29.570312 28.429688 29.5 28.425781 29.429688 C 28.410156 29.574219 28.464844 29.730469 28.597656 29.824219 C 28.714844 29.910156 28.882812 29.925781 29.023438 29.871094 C 29.21875 29.972656 29.484375 29.964844 29.675781 29.832031 Z M 29.675781 29.832031 " fill-opacity="1" fill-rule="nonzero"/><path fill="#2f72f1" d="M 33.554688 24.867188 C 33.394531 24.515625 33.152344 24.214844 32.875 23.972656 C 32.308594 23.476562 31.570312 23.238281 30.847656 23.238281 C 30.820312 23.238281 30.789062 23.253906 30.773438 23.28125 C 30.769531 23.289062 30.761719 23.304688 30.761719 23.320312 L 30.761719 23.488281 C 30.761719 23.578125 30.761719 23.671875 30.757812 23.757812 C 30.753906 23.941406 30.746094 24.117188 30.738281 24.300781 C 30.722656 24.65625 30.695312 25.015625 30.675781 25.375 C 30.628906 26.09375 30.617188 26.8125 30.640625 27.53125 L 30.6875 28.605469 C 30.699219 28.964844 30.714844 29.324219 30.726562 29.683594 L 30.726562 29.953125 C 30.726562 30.058594 30.761719 30.15625 30.832031 30.234375 C 30.894531 30.3125 30.988281 30.367188 31.085938 30.390625 C 31.195312 30.40625 31.273438 30.394531 31.367188 30.398438 C 31.453125 30.398438 31.542969 30.40625 31.640625 30.398438 C 31.742188 30.390625 31.835938 30.363281 31.921875 30.324219 C 32.097656 30.238281 32.25 30.089844 32.328125 29.902344 C 32.371094 29.808594 32.394531 29.710938 32.402344 29.605469 L 32.410156 29.335938 L 32.421875 29.070312 C 32.425781 28.992188 32.441406 28.917969 32.472656 28.851562 C 32.503906 28.785156 32.539062 28.722656 32.585938 28.664062 C 32.613281 28.636719 32.640625 28.613281 32.664062 28.589844 L 32.773438 28.503906 C 32.921875 28.382812 33.050781 28.242188 33.167969 28.097656 C 33.410156 27.800781 33.585938 27.457031 33.695312 27.089844 C 33.808594 26.726562 33.8125 26.324219 33.804688 25.96875 C 33.796875 25.589844 33.714844 25.207031 33.554688 24.867188 Z M 33.449219 26.503906 C 33.441406 26.667969 33.410156 26.835938 33.367188 27 C 33.285156 27.328125 33.132812 27.636719 32.929688 27.90625 C 32.828125 28.039062 32.710938 28.164062 32.585938 28.285156 L 32.488281 28.375 C 32.449219 28.410156 32.410156 28.445312 32.375 28.488281 C 32.308594 28.570312 32.253906 28.664062 32.222656 28.761719 C 32.191406 28.863281 32.171875 28.964844 32.171875 29.070312 L 32.183594 29.34375 L 32.191406 29.609375 C 32.199219 29.6875 32.183594 29.765625 32.15625 29.839844 C 32.105469 29.988281 31.996094 30.121094 31.855469 30.203125 C 31.78125 30.246094 31.703125 30.269531 31.625 30.285156 C 31.546875 30.296875 31.453125 30.296875 31.367188 30.296875 C 31.277344 30.296875 31.179688 30.308594 31.105469 30.296875 C 31.027344 30.28125 30.960938 30.238281 30.910156 30.183594 C 30.855469 30.121094 30.832031 30.042969 30.832031 29.964844 L 30.832031 29.695312 C 30.835938 29.335938 30.851562 28.976562 30.871094 28.617188 L 30.917969 27.542969 C 30.941406 26.824219 30.929688 26.101562 30.882812 25.386719 C 30.863281 25.027344 30.835938 24.667969 30.820312 24.308594 C 30.808594 24.128906 30.804688 23.949219 30.800781 23.769531 C 30.792969 23.679688 30.800781 23.585938 30.792969 23.5 L 30.792969 23.363281 C 30.792969 23.335938 30.789062 23.316406 30.800781 23.304688 C 30.804688 23.289062 30.824219 23.28125 30.839844 23.28125 C 31.199219 23.285156 31.554688 23.363281 31.875 23.515625 C 32.199219 23.664062 32.476562 23.882812 32.710938 24.136719 C 33.167969 24.652344 33.445312 25.3125 33.449219 25.988281 C 33.457031 26.070312 33.449219 26.164062 33.457031 26.253906 C 33.457031 26.335938 33.457031 26.414062 33.449219 26.503906 Z M 33.449219 26.503906 " fill-opacity="1" fill-rule="nonzero"/><path fill="#2f72f1" d="M 30.867188 21.742188 C 30.863281 21.421875 30.851562 21.097656 30.785156 20.777344 C 30.714844 21.097656 30.699219 21.421875 30.699219 21.742188 C 30.699219 22.066406 30.714844 22.386719 30.785156 22.707031 C 30.847656 22.386719 30.863281 22.066406 30.867188 21.742188 Z M 30.867188 21.742188 " fill-opacity="1" fill-rule="nonzero"/><path fill="#2f72f1" d="M 33.417969 21.351562 C 33.179688 21.605469 32.984375 21.882812 32.800781 22.167969 C 32.617188 22.460938 32.449219 22.753906 32.324219 23.078125 C 32.5625 22.828125 32.757812 22.546875 32.941406 22.261719 C 33.117188 21.972656 33.289062 21.679688 33.417969 21.351562 Z M 33.417969 21.351562 " fill-opacity="1" fill-rule="nonzero"/><path fill="#2f72f1" d="M 35.570312 23.082031 C 35.242188 23.203125 34.9375 23.367188 34.640625 23.546875 C 34.34375 23.726562 34.058594 23.917969 33.796875 24.152344 C 34.125 24.035156 34.433594 23.867188 34.730469 23.691406 C 35.023438 23.507812 35.3125 23.316406 35.570312 23.082031 Z M 35.570312 23.082031 " fill-opacity="1" fill-rule="nonzero"/><path fill="#2f72f1" d="M 34.121094 28.128906 C 34.378906 28.363281 34.671875 28.554688 34.960938 28.738281 C 35.257812 28.914062 35.558594 29.082031 35.894531 29.199219 C 35.632812 28.964844 35.347656 28.773438 35.050781 28.589844 C 34.753906 28.414062 34.453125 28.25 34.121094 28.128906 Z M 34.121094 28.128906 " fill-opacity="1" fill-rule="nonzero"/><path fill="#2f72f1" d="M 34.269531 26.1875 C 34.644531 26.246094 35.019531 26.257812 35.394531 26.257812 C 35.769531 26.253906 36.140625 26.230469 36.511719 26.160156 C 36.136719 26.097656 35.761719 26.085938 35.394531 26.085938 C 35.015625 26.097656 34.644531 26.113281 34.269531 26.1875 Z M 34.269531 26.1875 " fill-opacity="1" fill-rule="nonzero"/><g clip-path="url(#2a4c3eb8b3)"><path fill="#2f72f1" d="M 24.609375 22.308594 C 24.925781 22.371094 25.25 22.417969 25.578125 22.453125 L 25.921875 22.492188 L 25.644531 22.273438 C 25.199219 21.914062 24.816406 21.472656 24.523438 20.988281 C 24.242188 20.53125 24.039062 20.03125 23.917969 19.511719 C 24.429688 18.726562 24.664062 17.730469 24.492188 16.789062 C 24.46875 16.671875 24.445312 16.550781 24.417969 16.429688 C 24.386719 16.3125 24.339844 16.195312 24.304688 16.082031 L 24.242188 15.910156 C 24.214844 15.855469 24.191406 15.800781 24.164062 15.746094 C 24.105469 15.636719 24.054688 15.527344 23.996094 15.417969 L 23.792969 15.117188 C 23.757812 15.0625 23.726562 15.011719 23.691406 14.964844 L 23.578125 14.824219 C 23.5 14.738281 23.425781 14.636719 23.34375 14.554688 L 23.082031 14.3125 C 23.035156 14.269531 22.996094 14.226562 22.953125 14.191406 L 22.53125 13.863281 L 22.230469 13.675781 C 22.132812 13.613281 22.03125 13.550781 21.921875 13.5 C 21.714844 13.390625 21.507812 13.28125 21.289062 13.199219 C 21.179688 13.15625 21.070312 13.109375 20.960938 13.070312 L 20.628906 12.960938 C 19.742188 12.683594 18.816406 12.550781 17.894531 12.550781 C 16.976562 12.542969 16.050781 12.679688 15.164062 12.953125 L 14.820312 13.058594 C 14.710938 13.101562 14.601562 13.148438 14.496094 13.1875 C 14.386719 13.234375 14.277344 13.269531 14.175781 13.328125 L 13.863281 13.488281 C 13.753906 13.542969 13.65625 13.605469 13.558594 13.667969 L 13.253906 13.851562 L 12.96875 14.066406 C 12.875 14.140625 12.777344 14.207031 12.695312 14.296875 L 12.429688 14.535156 C 12.347656 14.617188 12.269531 14.714844 12.191406 14.804688 C 12.023438 14.980469 11.902344 15.195312 11.765625 15.390625 C 11.703125 15.496094 11.648438 15.609375 11.59375 15.714844 L 11.507812 15.878906 L 11.445312 16.050781 C 11.40625 16.167969 11.359375 16.28125 11.328125 16.398438 C 11.300781 16.519531 11.273438 16.640625 11.25 16.765625 C 11.21875 16.882812 11.210938 17.007812 11.203125 17.132812 C 11.199219 17.257812 11.175781 17.375 11.1875 17.5 L 11.207031 17.871094 L 11.210938 17.964844 L 11.226562 18.058594 L 11.265625 18.238281 C 11.300781 18.488281 11.390625 18.71875 11.46875 18.953125 C 11.515625 19.066406 11.570312 19.175781 11.625 19.285156 L 11.707031 19.449219 C 11.738281 19.503906 11.769531 19.554688 11.804688 19.605469 L 12.003906 19.917969 L 12.230469 20.203125 L 12.347656 20.34375 L 12.734375 20.730469 C 13.105469 21.039062 13.488281 21.332031 13.914062 21.554688 C 14.75 22.011719 15.671875 22.3125 16.613281 22.433594 C 17.554688 22.554688 18.503906 22.523438 19.425781 22.324219 C 20.324219 22.132812 21.1875 21.792969 21.953125 21.300781 C 22.5 21.617188 23.070312 21.871094 23.667969 22.066406 C 23.980469 22.15625 24.292969 22.246094 24.609375 22.308594 Z M 22.007812 21.082031 L 21.953125 21.046875 L 21.898438 21.082031 C 21.117188 21.535156 20.246094 21.832031 19.363281 21.960938 C 18.472656 22.09375 17.570312 22.074219 16.691406 21.941406 C 15.8125 21.800781 14.960938 21.503906 14.199219 21.0625 C 13.816406 20.847656 13.472656 20.574219 13.144531 20.289062 L 12.921875 20.054688 L 12.808594 19.9375 L 12.710938 19.8125 L 12.507812 19.566406 L 12.335938 19.292969 C 12.308594 19.246094 12.277344 19.207031 12.253906 19.160156 L 12.183594 19.015625 C 12.136719 18.914062 12.085938 18.820312 12.050781 18.722656 C 11.988281 18.519531 11.898438 18.328125 11.867188 18.113281 L 11.835938 17.957031 L 11.820312 17.882812 L 11.816406 17.804688 L 11.789062 17.484375 C 11.78125 17.382812 11.800781 17.273438 11.800781 17.167969 C 11.804688 17.066406 11.804688 16.957031 11.832031 16.851562 C 11.851562 16.75 11.871094 16.644531 11.886719 16.539062 C 11.914062 16.4375 11.949219 16.335938 11.980469 16.234375 L 12.027344 16.082031 L 12.097656 15.9375 C 12.144531 15.839844 12.183594 15.738281 12.230469 15.644531 C 12.347656 15.464844 12.4375 15.265625 12.578125 15.09375 C 12.648438 15.007812 12.710938 14.917969 12.777344 14.835938 L 13 14.589844 C 13.074219 14.507812 13.152344 14.429688 13.234375 14.359375 L 13.480469 14.132812 L 13.742188 13.929688 C 13.832031 13.863281 13.921875 13.796875 14.019531 13.738281 L 14.304688 13.558594 C 14.398438 13.496094 14.503906 13.453125 14.601562 13.394531 C 14.699219 13.34375 14.796875 13.292969 14.902344 13.238281 L 15.21875 13.109375 C 16.0625 12.773438 16.980469 12.605469 17.894531 12.601562 C 18.8125 12.605469 19.730469 12.765625 20.578125 13.109375 L 20.894531 13.238281 C 21 13.285156 21.097656 13.34375 21.195312 13.394531 C 21.398438 13.496094 21.589844 13.621094 21.785156 13.738281 C 21.882812 13.796875 21.96875 13.863281 22.058594 13.929688 L 22.328125 14.132812 L 22.703125 14.472656 C 22.746094 14.507812 22.777344 14.554688 22.816406 14.597656 L 23.039062 14.839844 C 23.109375 14.925781 23.175781 15.015625 23.242188 15.101562 L 23.34375 15.230469 C 23.375 15.277344 23.398438 15.324219 23.429688 15.371094 L 23.597656 15.652344 L 23.730469 15.949219 C 23.753906 15.996094 23.777344 16.046875 23.800781 16.09375 L 23.851562 16.25 C 23.882812 16.351562 23.925781 16.453125 23.945312 16.554688 C 23.964844 16.660156 23.988281 16.769531 24.007812 16.871094 C 24.160156 17.71875 23.972656 18.601562 23.539062 19.367188 L 23.492188 19.449219 L 23.515625 19.527344 C 23.675781 20.117188 23.945312 20.671875 24.289062 21.160156 C 24.570312 21.558594 24.910156 21.914062 25.28125 22.226562 C 25.074219 22.203125 24.871094 22.171875 24.667969 22.136719 C 24.355469 22.082031 24.042969 22.003906 23.742188 21.902344 C 23.441406 21.804688 23.144531 21.691406 22.859375 21.550781 C 22.550781 21.410156 22.273438 21.253906 22.007812 21.082031 Z M 22.007812 21.082031 " fill-opacity="1" fill-rule="nonzero"/></g><path fill="#2f72f1" d="M 21.953125 17.496094 L 21.945312 17.277344 L 21.945312 17.226562 C 21.945312 17.207031 21.945312 17.195312 21.9375 17.164062 C 21.929688 17.113281 21.890625 17.058594 21.84375 17.039062 C 21.820312 17.027344 21.792969 17.019531 21.769531 17.019531 L 21.710938 17.019531 L 21.320312 17.023438 C 21.269531 16.773438 21.171875 16.535156 21.023438 16.328125 L 21.304688 16.050781 L 21.339844 16.015625 C 21.355469 16 21.371094 15.972656 21.378906 15.953125 C 21.394531 15.90625 21.382812 15.847656 21.355469 15.808594 C 21.300781 15.738281 21.257812 15.699219 21.207031 15.644531 L 21.132812 15.570312 L 21.097656 15.53125 C 21.082031 15.523438 21.078125 15.507812 21.050781 15.492188 C 21.007812 15.460938 20.953125 15.449219 20.898438 15.460938 C 20.875 15.464844 20.847656 15.480469 20.828125 15.496094 L 20.785156 15.53125 L 20.519531 15.78125 C 20.328125 15.644531 20.109375 15.546875 19.882812 15.492188 L 19.890625 15.140625 L 19.890625 15.085938 C 19.890625 15.046875 19.882812 15.011719 19.867188 14.980469 C 19.835938 14.917969 19.765625 14.871094 19.695312 14.855469 C 19.652344 14.851562 19.640625 14.851562 19.621094 14.851562 L 19.300781 14.851562 C 19.277344 14.851562 19.273438 14.851562 19.226562 14.855469 C 19.152344 14.867188 19.085938 14.914062 19.050781 14.980469 C 19.035156 15.011719 19.023438 15.046875 19.019531 15.089844 L 19.019531 15.148438 C 19.019531 15.257812 19.019531 15.367188 19.019531 15.476562 C 18.796875 15.527344 18.585938 15.621094 18.398438 15.75 L 18.152344 15.523438 L 18.109375 15.484375 C 18.082031 15.464844 18.058594 15.449219 18.027344 15.4375 C 17.964844 15.421875 17.902344 15.433594 17.847656 15.46875 C 17.824219 15.492188 17.8125 15.5 17.800781 15.515625 L 17.765625 15.558594 L 17.695312 15.636719 L 17.621094 15.714844 L 17.585938 15.753906 C 17.574219 15.769531 17.5625 15.777344 17.542969 15.800781 C 17.511719 15.847656 17.5 15.90625 17.523438 15.957031 C 17.53125 15.984375 17.542969 16.011719 17.5625 16.027344 L 17.605469 16.0625 L 17.894531 16.332031 C 17.828125 16.441406 17.769531 16.554688 17.722656 16.675781 C 17.679688 16.800781 17.640625 16.929688 17.621094 17.058594 L 17.15625 17.066406 C 17.101562 17.066406 17.042969 17.105469 17.027344 17.164062 C 17.019531 17.222656 17.023438 17.269531 17.023438 17.320312 L 17.023438 17.476562 C 17.027344 17.527344 17.011719 17.574219 17.027344 17.636719 C 17.050781 17.695312 17.113281 17.734375 17.167969 17.730469 L 17.324219 17.734375 C 17.417969 17.734375 17.507812 17.742188 17.601562 17.746094 C 17.636719 17.988281 17.722656 18.230469 17.855469 18.449219 L 17.578125 18.695312 L 17.539062 18.734375 C 17.515625 18.753906 17.496094 18.785156 17.484375 18.816406 C 17.464844 18.878906 17.476562 18.953125 17.511719 19.003906 C 17.539062 19.035156 17.542969 19.039062 17.558594 19.054688 L 17.59375 19.097656 L 17.667969 19.175781 L 17.738281 19.253906 L 17.777344 19.292969 C 17.792969 19.308594 17.792969 19.316406 17.828125 19.347656 C 17.886719 19.386719 17.964844 19.402344 18.035156 19.382812 C 18.074219 19.371094 18.105469 19.355469 18.128906 19.332031 L 18.171875 19.289062 L 18.398438 19.070312 C 18.582031 19.191406 18.78125 19.273438 18.988281 19.324219 L 18.980469 19.636719 L 18.980469 19.695312 C 18.980469 19.734375 18.992188 19.777344 19.011719 19.8125 C 19.050781 19.886719 19.121094 19.9375 19.207031 19.949219 C 19.257812 19.953125 19.261719 19.949219 19.285156 19.953125 L 19.605469 19.953125 C 19.625 19.953125 19.632812 19.953125 19.683594 19.949219 C 19.765625 19.9375 19.839844 19.882812 19.875 19.8125 C 19.898438 19.777344 19.90625 19.734375 19.90625 19.695312 L 19.90625 19.324219 C 20.113281 19.273438 20.3125 19.191406 20.496094 19.070312 L 20.71875 19.289062 L 20.757812 19.332031 C 20.785156 19.355469 20.820312 19.378906 20.859375 19.386719 C 20.929688 19.410156 21.015625 19.394531 21.078125 19.351562 C 21.113281 19.320312 21.117188 19.316406 21.132812 19.300781 L 21.171875 19.261719 L 21.242188 19.183594 L 21.316406 19.109375 L 21.351562 19.070312 C 21.363281 19.054688 21.371094 19.050781 21.398438 19.015625 C 21.441406 18.953125 21.457031 18.875 21.429688 18.800781 C 21.417969 18.765625 21.398438 18.734375 21.371094 18.707031 L 21.332031 18.664062 L 21.085938 18.433594 C 21.207031 18.234375 21.289062 18.015625 21.332031 17.789062 L 21.683594 17.777344 L 21.742188 17.777344 C 21.773438 17.777344 21.800781 17.765625 21.824219 17.75 C 21.875 17.71875 21.914062 17.667969 21.917969 17.609375 C 21.921875 17.574219 21.917969 17.5625 21.917969 17.546875 Z M 19.664062 15.09375 C 19.664062 15.101562 19.664062 15.101562 19.664062 15.09375 Z M 17.984375 19.148438 C 17.988281 19.148438 17.984375 19.148438 17.984375 19.148438 Z M 21.816406 17.390625 L 21.808594 17.5 L 21.808594 17.554688 C 21.808594 17.570312 21.808594 17.59375 21.808594 17.59375 C 21.808594 17.605469 21.800781 17.621094 21.785156 17.625 C 21.777344 17.625 21.773438 17.632812 21.769531 17.632812 L 21.714844 17.632812 L 21.289062 17.621094 L 21.21875 17.621094 L 21.203125 17.699219 C 21.148438 17.953125 21.039062 18.191406 20.890625 18.402344 L 20.832031 18.480469 L 20.898438 18.550781 L 21.195312 18.859375 L 21.222656 18.882812 L 21.085938 19.015625 L 20.957031 19.136719 L 20.929688 19.113281 L 20.628906 18.804688 L 20.546875 18.722656 L 20.449219 18.789062 C 20.238281 18.9375 20 19.03125 19.75 19.070312 L 19.625 19.09375 L 19.625 19.222656 L 19.621094 19.648438 L 19.621094 19.664062 L 19.300781 19.664062 L 19.300781 19.648438 L 19.292969 19.222656 L 19.292969 19.097656 L 19.175781 19.078125 C 18.925781 19.039062 18.6875 18.941406 18.476562 18.796875 L 18.378906 18.726562 L 18.300781 18.8125 L 18.003906 19.125 L 17.972656 19.160156 L 17.832031 19.03125 L 17.6875 18.894531 C 17.683594 18.890625 17.683594 18.882812 17.683594 18.878906 C 17.683594 18.875 17.683594 18.875 17.6875 18.867188 L 17.722656 18.832031 L 18.015625 18.515625 L 18.058594 18.46875 L 18.019531 18.421875 C 17.859375 18.214844 17.738281 17.96875 17.6875 17.703125 L 17.683594 17.671875 L 17.652344 17.671875 C 17.546875 17.679688 17.445312 17.683594 17.34375 17.683594 L 17.1875 17.6875 C 17.140625 17.695312 17.101562 17.671875 17.085938 17.632812 C 17.070312 17.59375 17.082031 17.53125 17.074219 17.484375 L 17.074219 17.332031 C 17.074219 17.277344 17.070312 17.222656 17.074219 17.179688 C 17.085938 17.136719 17.125 17.101562 17.171875 17.101562 L 17.652344 17.105469 L 17.667969 17.105469 L 17.667969 17.089844 C 17.6875 16.957031 17.734375 16.824219 17.785156 16.707031 C 17.839844 16.582031 17.910156 16.46875 17.996094 16.359375 L 18.015625 16.332031 L 17.996094 16.304688 L 17.703125 15.988281 L 17.667969 15.953125 C 17.664062 15.949219 17.65625 15.9375 17.65625 15.933594 C 17.652344 15.917969 17.65625 15.894531 17.667969 15.886719 L 17.816406 15.746094 L 17.894531 15.671875 L 17.9375 15.636719 C 17.949219 15.625 17.96875 15.609375 17.96875 15.609375 C 17.980469 15.605469 17.988281 15.605469 18 15.609375 C 18.003906 15.609375 18.003906 15.613281 18.011719 15.621094 L 18.046875 15.65625 L 18.335938 15.972656 L 18.398438 16.035156 L 18.476562 15.984375 C 18.691406 15.839844 18.933594 15.746094 19.191406 15.707031 L 19.292969 15.691406 L 19.292969 15.585938 C 19.292969 15.445312 19.300781 15.296875 19.292969 15.15625 L 19.292969 15.117188 L 19.480469 15.117188 L 19.671875 15.109375 L 19.671875 15.15625 L 19.6875 15.585938 L 19.695312 15.675781 L 19.777344 15.6875 C 20.03125 15.722656 20.28125 15.816406 20.503906 15.964844 L 20.5625 16 L 20.605469 15.953125 L 20.894531 15.640625 L 20.929688 15.605469 C 20.9375 15.597656 20.941406 15.59375 20.953125 15.589844 C 20.96875 15.585938 20.988281 15.585938 21.003906 15.59375 C 21.007812 15.59375 21.023438 15.609375 21.035156 15.625 L 21.070312 15.660156 L 21.148438 15.734375 L 21.292969 15.878906 C 21.308594 15.894531 21.308594 15.921875 21.304688 15.941406 C 21.300781 15.953125 21.292969 15.964844 21.289062 15.96875 L 21.253906 16.003906 L 20.953125 16.3125 L 20.925781 16.335938 L 20.945312 16.367188 C 21.101562 16.585938 21.207031 16.839844 21.246094 17.105469 L 21.253906 17.148438 L 21.292969 17.148438 L 21.722656 17.160156 L 21.773438 17.160156 C 21.785156 17.160156 21.789062 17.164062 21.800781 17.167969 C 21.816406 17.179688 21.824219 17.195312 21.824219 17.210938 Z M 21.816406 17.390625 " fill-opacity="1" fill-rule="nonzero"/><path fill="#2f72f1" d="M 20.125 16.269531 C 19.84375 16.074219 19.472656 16 19.128906 16.082031 C 18.78125 16.167969 18.460938 16.390625 18.285156 16.703125 C 18.109375 17.011719 18.066406 17.402344 18.203125 17.730469 C 18.328125 18.058594 18.578125 18.300781 18.851562 18.464844 C 19.128906 18.625 19.464844 18.710938 19.808594 18.664062 C 20.152344 18.613281 20.472656 18.386719 20.628906 18.066406 C 20.796875 17.75 20.789062 17.386719 20.695312 17.070312 C 20.605469 16.75 20.40625 16.460938 20.125 16.269531 Z M 20.421875 17.949219 C 20.261719 18.1875 20.03125 18.375 19.757812 18.488281 C 19.480469 18.601562 19.132812 18.601562 18.863281 18.4375 C 18.585938 18.28125 18.414062 17.972656 18.378906 17.683594 C 18.347656 17.386719 18.398438 17.097656 18.546875 16.855469 C 18.6875 16.617188 18.917969 16.425781 19.191406 16.34375 C 19.464844 16.265625 19.773438 16.273438 20.042969 16.40625 C 20.3125 16.53125 20.535156 16.789062 20.605469 17.089844 C 20.675781 17.390625 20.582031 17.710938 20.421875 17.949219 Z M 20.421875 17.949219 " fill-opacity="1" fill-rule="nonzero"/><path fill="#2f72f1" d="M 17.019531 16.65625 L 17.058594 16.65625 C 17.085938 16.65625 17.113281 16.644531 17.132812 16.632812 C 17.171875 16.609375 17.203125 16.566406 17.210938 16.515625 C 17.214844 16.484375 17.210938 16.476562 17.210938 16.460938 L 17.210938 16.421875 L 17.203125 16.34375 L 17.199219 16.265625 L 17.199219 16.222656 C 17.199219 16.207031 17.199219 16.203125 17.195312 16.175781 C 17.1875 16.128906 17.15625 16.09375 17.117188 16.074219 C 17.097656 16.0625 17.074219 16.058594 17.054688 16.058594 L 17.011719 16.058594 L 16.738281 16.0625 C 16.695312 15.886719 16.628906 15.71875 16.523438 15.570312 L 16.722656 15.371094 L 16.753906 15.34375 C 16.769531 15.328125 16.777344 15.3125 16.785156 15.292969 C 16.792969 15.257812 16.789062 15.210938 16.769531 15.179688 C 16.726562 15.125 16.695312 15.101562 16.652344 15.058594 L 16.601562 15 L 16.574219 14.976562 C 16.566406 14.964844 16.558594 14.960938 16.539062 14.945312 C 16.503906 14.917969 16.457031 14.910156 16.414062 14.917969 C 16.394531 14.925781 16.375 14.933594 16.359375 14.949219 L 16.328125 14.976562 L 16.144531 15.140625 C 16.015625 15.046875 15.863281 14.980469 15.707031 14.933594 L 15.71875 14.699219 L 15.71875 14.660156 C 15.71875 14.628906 15.707031 14.597656 15.691406 14.570312 C 15.660156 14.511719 15.609375 14.476562 15.546875 14.464844 C 15.503906 14.460938 15.503906 14.464844 15.488281 14.460938 L 15.25 14.460938 C 15.234375 14.460938 15.230469 14.460938 15.195312 14.460938 C 15.125 14.472656 15.070312 14.511719 15.042969 14.570312 C 15.027344 14.597656 15.015625 14.632812 15.015625 14.664062 L 15.015625 14.707031 C 15.015625 14.777344 15.015625 14.847656 15.015625 14.917969 C 14.867188 14.960938 14.726562 15.023438 14.601562 15.105469 L 14.433594 14.957031 L 14.402344 14.929688 C 14.382812 14.914062 14.355469 14.898438 14.335938 14.894531 C 14.285156 14.878906 14.230469 14.886719 14.191406 14.925781 C 14.164062 14.945312 14.164062 14.949219 14.15625 14.960938 L 14.128906 14.992188 L 14.078125 15.046875 L 14.023438 15.105469 L 14 15.136719 C 13.988281 15.148438 13.984375 15.152344 13.96875 15.171875 C 13.941406 15.210938 13.9375 15.261719 13.953125 15.304688 C 13.957031 15.324219 13.972656 15.34375 13.988281 15.359375 L 14.019531 15.386719 L 14.230469 15.578125 C 14.183594 15.65625 14.144531 15.738281 14.113281 15.824219 C 14.078125 15.910156 14.054688 16.011719 14.039062 16.105469 L 13.707031 16.109375 C 13.660156 16.109375 13.617188 16.140625 13.609375 16.179688 C 13.601562 16.226562 13.601562 16.257812 13.601562 16.296875 L 13.601562 16.410156 C 13.601562 16.453125 13.597656 16.476562 13.609375 16.53125 C 13.625 16.578125 13.675781 16.609375 13.71875 16.601562 L 13.832031 16.609375 C 13.894531 16.609375 13.960938 16.613281 14.023438 16.617188 C 14.050781 16.789062 14.109375 16.960938 14.195312 17.117188 L 14.003906 17.289062 L 13.972656 17.316406 C 13.953125 17.335938 13.9375 17.355469 13.929688 17.386719 C 13.914062 17.4375 13.921875 17.5 13.953125 17.546875 C 13.972656 17.574219 13.976562 17.578125 13.988281 17.589844 L 14.015625 17.621094 L 14.066406 17.679688 L 14.117188 17.734375 L 14.144531 17.765625 C 14.15625 17.777344 14.15625 17.78125 14.183594 17.808594 C 14.238281 17.84375 14.300781 17.859375 14.363281 17.839844 C 14.394531 17.828125 14.417969 17.8125 14.445312 17.792969 L 14.476562 17.761719 L 14.621094 17.625 C 14.742188 17.703125 14.871094 17.761719 15.011719 17.796875 L 15.011719 18.042969 C 15.011719 18.078125 15.023438 18.113281 15.039062 18.144531 C 15.074219 18.207031 15.136719 18.253906 15.210938 18.265625 C 15.257812 18.269531 15.257812 18.265625 15.273438 18.269531 L 15.511719 18.269531 C 15.527344 18.269531 15.527344 18.269531 15.574219 18.265625 C 15.644531 18.253906 15.707031 18.207031 15.746094 18.144531 C 15.761719 18.113281 15.769531 18.078125 15.769531 18.042969 L 15.769531 17.796875 C 15.90625 17.761719 16.035156 17.703125 16.15625 17.632812 L 16.300781 17.773438 L 16.332031 17.804688 C 16.359375 17.824219 16.390625 17.84375 16.421875 17.851562 C 16.484375 17.871094 16.554688 17.855469 16.605469 17.820312 C 16.636719 17.792969 16.636719 17.789062 16.648438 17.777344 L 16.675781 17.75 L 16.726562 17.695312 L 16.777344 17.636719 L 16.804688 17.609375 C 16.816406 17.601562 16.820312 17.601562 16.847656 17.5625 C 16.882812 17.511719 16.894531 17.4375 16.878906 17.382812 C 16.867188 17.351562 16.851562 17.324219 16.832031 17.300781 L 16.800781 17.269531 L 16.636719 17.113281 C 16.714844 16.976562 16.773438 16.824219 16.800781 16.671875 Z M 14.097656 17.433594 C 14.097656 17.433594 14.097656 17.4375 14.097656 17.433594 Z M 16.632812 16.476562 L 16.617188 16.554688 C 16.574219 16.738281 16.5 16.910156 16.390625 17.054688 L 16.332031 17.128906 L 16.398438 17.199219 L 16.613281 17.421875 L 16.589844 17.445312 L 16.535156 17.496094 L 16.46875 17.5625 L 16.253906 17.347656 L 16.175781 17.261719 L 16.078125 17.332031 C 15.933594 17.433594 15.761719 17.5 15.582031 17.527344 L 15.457031 17.546875 L 15.457031 17.957031 L 15.304688 17.957031 L 15.296875 17.679688 L 15.296875 17.554688 L 15.179688 17.53125 C 15 17.507812 14.828125 17.4375 14.683594 17.339844 L 14.585938 17.273438 L 14.511719 17.351562 L 14.300781 17.578125 L 14.292969 17.585938 L 14.214844 17.515625 L 14.160156 17.464844 L 14.128906 17.4375 C 14.125 17.433594 14.117188 17.429688 14.113281 17.429688 L 14.125 17.414062 L 14.332031 17.179688 L 14.371094 17.132812 L 14.335938 17.089844 C 14.214844 16.945312 14.128906 16.769531 14.085938 16.578125 L 14.082031 16.546875 L 14.050781 16.546875 C 13.976562 16.550781 13.898438 16.554688 13.828125 16.554688 L 13.710938 16.5625 C 13.679688 16.566406 13.65625 16.550781 13.644531 16.523438 C 13.632812 16.503906 13.640625 16.457031 13.640625 16.421875 L 13.640625 16.304688 C 13.640625 16.269531 13.632812 16.226562 13.640625 16.195312 C 13.644531 16.167969 13.675781 16.144531 13.707031 16.144531 L 14.054688 16.152344 L 14.070312 16.152344 L 14.070312 16.136719 C 14.085938 16.035156 14.125 15.941406 14.160156 15.855469 C 14.199219 15.765625 14.253906 15.683594 14.308594 15.605469 L 14.332031 15.578125 L 14.300781 15.542969 L 14.09375 15.308594 L 14.066406 15.277344 C 14.066406 15.273438 14.0625 15.273438 14.0625 15.265625 C 14.0625 15.257812 14.0625 15.25 14.066406 15.246094 L 14.175781 15.148438 L 14.230469 15.09375 L 14.261719 15.070312 C 14.273438 15.058594 14.285156 15.046875 14.285156 15.054688 C 14.285156 15.054688 14.289062 15.054688 14.285156 15.058594 C 14.285156 15.058594 14.285156 15.058594 14.277344 15.058594 L 14.304688 15.085938 L 14.511719 15.320312 L 14.570312 15.382812 L 14.652344 15.328125 C 14.808594 15.230469 14.980469 15.164062 15.164062 15.136719 L 15.265625 15.121094 L 15.265625 15.011719 C 15.265625 14.910156 15.273438 14.804688 15.265625 14.707031 L 15.472656 14.707031 L 15.488281 15.015625 L 15.496094 15.109375 L 15.578125 15.121094 C 15.761719 15.140625 15.941406 15.210938 16.101562 15.308594 L 16.160156 15.34375 L 16.203125 15.296875 L 16.414062 15.070312 L 16.441406 15.042969 C 16.441406 15.039062 16.445312 15.039062 16.453125 15.039062 C 16.457031 15.03125 16.46875 15.03125 16.476562 15.039062 C 16.476562 15.039062 16.492188 15.046875 16.5 15.058594 L 16.523438 15.085938 L 16.582031 15.136719 L 16.691406 15.242188 C 16.695312 15.25 16.699219 15.261719 16.695312 15.273438 C 16.695312 15.277344 16.691406 15.28125 16.683594 15.289062 L 16.660156 15.3125 L 16.441406 15.539062 L 16.414062 15.5625 L 16.4375 15.59375 C 16.542969 15.753906 16.621094 15.9375 16.648438 16.128906 L 16.652344 16.171875 L 16.695312 16.171875 L 17.007812 16.179688 L 17.042969 16.179688 C 17.050781 16.179688 17.050781 16.179688 17.054688 16.1875 C 17.058594 16.191406 17.066406 16.195312 17.066406 16.207031 L 17.058594 16.351562 L 17.054688 16.5 C 17.054688 16.503906 17.050781 16.503906 17.050781 16.503906 C 17.050781 16.503906 17.050781 16.503906 17.042969 16.503906 L 17.007812 16.503906 L 16.695312 16.492188 Z M 16.632812 16.476562 " fill-opacity="1" fill-rule="nonzero"/><path fill="#2f72f1" d="M 15.863281 15.507812 C 15.660156 15.351562 15.375 15.289062 15.109375 15.351562 C 14.84375 15.40625 14.605469 15.578125 14.472656 15.816406 C 14.335938 16.058594 14.308594 16.351562 14.417969 16.597656 C 14.523438 16.839844 14.714844 17.011719 14.917969 17.128906 C 15.121094 17.242188 15.363281 17.320312 15.625 17.292969 C 15.753906 17.277344 15.886719 17.230469 15.988281 17.152344 C 16.097656 17.074219 16.1875 16.972656 16.242188 16.851562 C 16.363281 16.609375 16.347656 16.332031 16.273438 16.105469 C 16.210938 15.871094 16.070312 15.65625 15.863281 15.507812 Z M 16.046875 16.738281 C 15.925781 16.902344 15.777344 17.035156 15.582031 17.121094 C 15.390625 17.214844 15.136719 17.226562 14.933594 17.105469 C 14.730469 16.992188 14.617188 16.765625 14.601562 16.550781 C 14.589844 16.335938 14.632812 16.140625 14.730469 15.972656 C 14.828125 15.808594 14.992188 15.675781 15.179688 15.613281 C 15.363281 15.558594 15.582031 15.558594 15.78125 15.644531 C 15.976562 15.730469 16.144531 15.917969 16.191406 16.136719 C 16.242188 16.347656 16.160156 16.570312 16.046875 16.738281 Z M 16.046875 16.738281 " fill-opacity="1" fill-rule="nonzero"/></svg>