<svg xmlns="http://www.w3.org/2000/svg" xmlns:xlink="http://www.w3.org/1999/xlink" width="66" zoomAndPan="magnify" viewBox="0 0 49.5 49.499998" height="66" preserveAspectRatio="xMidYMid meet" version="1.0"><defs><clipPath id="0a316fd5d4"><path d="M 0.46875 2.027344 L 48.527344 2.027344 L 48.527344 48.527344 L 0.46875 48.527344 Z M 0.46875 2.027344 " clip-rule="nonzero"/></clipPath><clipPath id="de163cb4ae"><path d="M 40.542969 2.109375 C 44.910156 2.109375 48.441406 5.652344 48.441406 10.007812 L 48.441406 40.542969 C 48.441406 44.910156 44.902344 48.441406 40.542969 48.441406 L 8.449219 48.441406 C 4.085938 48.441406 0.554688 44.902344 0.554688 40.542969 L 0.554688 10.007812 C 0.554688 5.640625 4.09375 2.109375 8.449219 2.109375 Z M 40.542969 2.109375 " clip-rule="nonzero"/></clipPath><clipPath id="f78cfc6bcf"><path d="M 0 1.550781 L 49 1.550781 L 49 49 L 0 49 Z M 0 1.550781 " clip-rule="nonzero"/></clipPath><clipPath id="7d01245c23"><path d="M 49 10.007812 L 49 40.542969 C 49 45.203125 45.203125 49 40.542969 49 L 8.449219 49 C 3.789062 49 -0.00390625 45.203125 -0.00390625 40.542969 L -0.00390625 10.007812 C -0.00390625 5.347656 3.789062 1.550781 8.449219 1.550781 L 40.535156 1.550781 C 45.203125 1.550781 49 5.347656 49 10.007812 Z M 1.113281 40.542969 C 1.113281 44.585938 4.40625 47.878906 8.449219 47.878906 L 40.535156 47.878906 C 44.578125 47.878906 47.871094 44.585938 47.871094 40.542969 L 47.871094 10.007812 C 47.871094 5.964844 44.578125 2.671875 40.535156 2.671875 L 8.449219 2.671875 C 4.40625 2.671875 1.113281 5.964844 1.113281 10.007812 Z M 1.113281 40.542969 " clip-rule="nonzero"/></clipPath><clipPath id="0c709b6fcd"><path d="M 10.679688 13.582031 L 38.152344 13.582031 L 38.152344 35.117188 L 10.679688 35.117188 Z M 10.679688 13.582031 " clip-rule="nonzero"/></clipPath></defs><g clip-path="url(#0a316fd5d4)"><g clip-path="url(#de163cb4ae)"><path fill="#ffffff" d="M -0.00390625 49 L -0.00390625 1.550781 L 49 1.550781 L 49 49 Z M -0.00390625 49 " fill-opacity="1" fill-rule="nonzero"/></g></g><g clip-path="url(#f78cfc6bcf)"><g clip-path="url(#7d01245c23)"><path fill="#edf4ff" d="M -0.00390625 49 L -0.00390625 1.550781 L 49 1.550781 L 49 49 Z M -0.00390625 49 " fill-opacity="1" fill-rule="nonzero"/></g></g><g clip-path="url(#0c709b6fcd)"><path fill="#2f72f1" d="M 36.667969 13.613281 C 36.601562 13.613281 36.539062 13.644531 36.488281 13.6875 L 36.089844 14.085938 C 36.089844 14.089844 36.089844 14.089844 36.089844 14.089844 C 36.085938 14.09375 36.085938 14.097656 36.082031 14.101562 C 36.082031 14.101562 36.078125 14.101562 36.078125 14.101562 L 35.539062 14.632812 C 35.5 14.675781 35.476562 14.730469 35.46875 14.785156 L 35.339844 15.617188 L 35.285156 15.976562 C 35.28125 15.984375 35.277344 15.992188 35.269531 15.996094 L 30.765625 20.503906 C 30.601562 20.667969 30.601562 20.933594 30.765625 21.097656 C 30.929688 21.265625 31.195312 21.265625 31.359375 21.097656 L 35.859375 16.605469 C 35.863281 16.601562 35.871094 16.59375 35.878906 16.59375 L 36.246094 16.53125 C 36.265625 16.53125 36.285156 16.527344 36.300781 16.519531 C 36.300781 16.519531 36.304688 16.519531 36.308594 16.519531 L 37.078125 16.398438 C 37.136719 16.390625 37.1875 16.363281 37.226562 16.324219 L 37.625 15.929688 C 37.625 15.929688 37.625 15.925781 37.628906 15.925781 L 37.632812 15.921875 C 37.636719 15.917969 37.636719 15.917969 37.640625 15.914062 L 38.179688 15.375 C 38.246094 15.304688 38.269531 15.199219 38.242188 15.109375 C 38.21875 15.015625 38.140625 14.945312 38.050781 14.921875 L 37.183594 14.707031 C 37.171875 14.707031 37.160156 14.695312 37.15625 14.679688 L 36.941406 13.8125 C 36.925781 13.753906 36.890625 13.707031 36.847656 13.671875 C 36.800781 13.636719 36.746094 13.613281 36.691406 13.609375 C 36.683594 13.613281 36.675781 13.613281 36.667969 13.613281 Z M 31.246094 14.472656 C 29.539062 14.421875 27.832031 15.058594 26.5625 16.328125 C 24.082031 18.808594 24.085938 22.824219 26.5625 25.304688 C 29.039062 27.78125 33.0625 27.785156 35.539062 25.308594 C 37.570312 23.277344 37.980469 20.136719 36.546875 17.648438 C 36.546875 17.648438 36.546875 17.644531 36.546875 17.644531 C 36.527344 17.609375 36.503906 17.578125 36.476562 17.550781 C 36.3125 17.386719 36.046875 17.386719 35.882812 17.550781 C 35.746094 17.6875 35.722656 17.910156 35.824219 18.074219 C 35.824219 18.078125 35.824219 18.078125 35.824219 18.078125 C 37.0625 20.234375 36.699219 22.949219 34.941406 24.707031 C 32.792969 26.859375 29.308594 26.859375 27.15625 24.707031 C 25.007812 22.558594 25.007812 19.074219 27.15625 16.921875 C 28.914062 15.164062 31.632812 14.800781 33.792969 16.039062 C 33.957031 16.140625 34.175781 16.121094 34.3125 15.984375 C 34.480469 15.820312 34.480469 15.550781 34.3125 15.386719 C 34.289062 15.359375 34.257812 15.339844 34.226562 15.320312 C 34.222656 15.320312 34.222656 15.320312 34.222656 15.320312 C 33.289062 14.78125 32.269531 14.503906 31.246094 14.472656 Z M 30.84375 16.296875 C 29.738281 16.347656 28.664062 16.800781 27.847656 17.613281 C 26.082031 19.382812 26.082031 22.25 27.847656 24.015625 C 29.617188 25.78125 32.484375 25.78125 34.25 24.015625 C 35.554688 22.710938 35.933594 20.75 35.214844 19.050781 C 35.214844 19.050781 35.214844 19.046875 35.214844 19.046875 C 35.195312 18.996094 35.164062 18.949219 35.121094 18.910156 C 34.957031 18.746094 34.6875 18.746094 34.523438 18.910156 C 34.390625 19.042969 34.363281 19.246094 34.453125 19.410156 C 34.453125 19.410156 34.453125 19.410156 34.453125 19.414062 C 35.019531 20.789062 34.707031 22.367188 33.652344 23.421875 C 32.214844 24.859375 29.886719 24.859375 28.449219 23.421875 C 27.011719 21.980469 27.011719 19.648438 28.449219 18.210938 C 29.5 17.160156 31.078125 16.847656 32.453125 17.414062 C 32.453125 17.414062 32.453125 17.414062 32.457031 17.414062 C 32.621094 17.503906 32.828125 17.472656 32.957031 17.34375 C 33.125 17.179688 33.125 16.910156 32.957031 16.746094 C 32.917969 16.707031 32.871094 16.671875 32.820312 16.648438 C 32.820312 16.648438 32.820312 16.648438 32.816406 16.648438 C 32.183594 16.378906 31.503906 16.265625 30.84375 16.296875 Z M 15.75 16.851562 C 15.214844 16.855469 14.683594 17.078125 14.308594 17.457031 C 13.929688 17.839844 13.710938 18.371094 13.710938 18.90625 C 13.710938 19.445312 13.933594 19.980469 14.3125 20.359375 C 14.695312 20.742188 15.226562 20.960938 15.765625 20.960938 C 16.304688 20.960938 16.839844 20.742188 17.222656 20.359375 C 17.601562 19.980469 17.824219 19.445312 17.824219 18.90625 C 17.824219 18.367188 17.601562 17.832031 17.222656 17.453125 C 16.839844 17.070312 16.304688 16.851562 15.769531 16.851562 C 15.761719 16.851562 15.757812 16.851562 15.75 16.851562 Z M 22.328125 17.402344 C 21.535156 17.402344 20.894531 18.042969 20.894531 18.835938 L 20.894531 22.660156 L 19.589844 22.761719 L 17.621094 21.601562 C 17.578125 21.578125 17.550781 21.566406 17.542969 21.5625 L 17.539062 21.558594 C 17.535156 21.558594 17.53125 21.554688 17.527344 21.554688 C 17.515625 21.546875 17.492188 21.535156 17.464844 21.523438 C 17.464844 21.523438 17.460938 21.523438 17.460938 21.523438 C 17.410156 21.503906 17.363281 21.492188 17.324219 21.480469 L 17.316406 21.480469 C 17.304688 21.476562 17.285156 21.472656 17.269531 21.46875 C 17.261719 21.46875 17.253906 21.464844 17.246094 21.464844 C 17.246094 21.464844 17.242188 21.464844 17.242188 21.464844 C 17.203125 21.457031 17.175781 21.453125 17.152344 21.453125 L 17.148438 21.453125 C 17.171875 21.457031 17.148438 21.453125 17.128906 21.449219 C 17.109375 21.445312 17.082031 21.441406 17.050781 21.441406 L 17.046875 21.441406 L 14.671875 21.4375 C 14.570312 21.445312 14.546875 21.453125 14.527344 21.453125 C 14.527344 21.453125 14.527344 21.453125 14.523438 21.453125 C 14.523438 21.453125 14.503906 21.453125 14.503906 21.453125 C 14.5 21.453125 14.5 21.453125 14.496094 21.453125 C 14.496094 21.457031 14.488281 21.457031 14.484375 21.457031 C 14.472656 21.457031 14.460938 21.460938 14.449219 21.460938 C 14.445312 21.464844 14.441406 21.464844 14.433594 21.464844 C 14.382812 21.476562 14.34375 21.492188 14.300781 21.507812 L 14.300781 21.503906 C 14.300781 21.503906 14.277344 21.511719 14.273438 21.511719 C 14.269531 21.515625 14.265625 21.515625 14.261719 21.515625 C 14.257812 21.515625 14.257812 21.519531 14.257812 21.519531 C 14.253906 21.519531 14.25 21.519531 14.246094 21.523438 C 14.242188 21.523438 14.242188 21.523438 14.238281 21.527344 C 14.191406 21.546875 14.160156 21.566406 14.125 21.585938 C 14.125 21.585938 14.125 21.585938 14.121094 21.585938 C 14.109375 21.589844 14.101562 21.597656 14.089844 21.601562 C 14.097656 21.597656 14.066406 21.613281 14.035156 21.636719 C 14.027344 21.644531 14.019531 21.648438 14.011719 21.65625 L 14.007812 21.660156 C 13.980469 21.683594 13.949219 21.707031 13.941406 21.714844 C 13.9375 21.71875 13.925781 21.730469 13.914062 21.738281 C 13.914062 21.738281 13.902344 21.746094 13.898438 21.75 C 13.871094 21.769531 13.878906 21.765625 13.871094 21.773438 C 13.867188 21.78125 13.859375 21.789062 13.851562 21.796875 L 12.121094 23.691406 C 12.046875 23.761719 11.992188 23.839844 11.945312 23.914062 C 11.933594 23.933594 11.9375 23.933594 11.929688 23.945312 C 11.929688 23.945312 11.929688 23.945312 11.929688 23.949219 C 11.925781 23.953125 11.921875 23.957031 11.921875 23.960938 C 11.921875 23.957031 11.890625 24.007812 11.867188 24.074219 L 10.886719 26.515625 C 10.660156 27.078125 10.9375 27.722656 11.5 27.949219 C 12.0625 28.175781 12.707031 27.898438 12.933594 27.335938 L 13.546875 25.808594 L 13.542969 27.539062 C 13.542969 27.542969 13.542969 27.550781 13.542969 27.554688 C 13.542969 27.554688 13.542969 27.554688 13.542969 27.558594 L 13 34.089844 C 12.945312 34.738281 13.433594 35.3125 14.082031 35.367188 C 14.730469 35.421875 15.304688 34.933594 15.359375 34.285156 L 15.828125 28.660156 L 15.878906 28.660156 L 16.347656 34.285156 C 16.402344 34.933594 16.976562 35.421875 17.625 35.367188 C 18.277344 35.3125 18.765625 34.738281 18.710938 34.089844 L 18.167969 27.554688 C 18.164062 27.523438 18.160156 27.515625 18.15625 27.496094 L 18.164062 24.480469 L 18.765625 24.835938 C 18.777344 24.84375 18.789062 24.847656 18.796875 24.851562 C 18.804688 24.859375 18.789062 24.851562 18.828125 24.867188 C 18.832031 24.871094 18.847656 24.875 18.855469 24.878906 C 18.894531 24.898438 18.929688 24.917969 18.984375 24.933594 C 19.050781 24.957031 19.121094 24.972656 19.191406 24.980469 C 19.21875 24.984375 19.238281 24.984375 19.257812 24.984375 C 19.261719 24.984375 19.265625 24.984375 19.265625 24.984375 C 19.269531 24.984375 19.269531 24.984375 19.269531 24.984375 C 19.285156 24.984375 19.320312 24.984375 19.351562 24.984375 C 19.351562 24.984375 19.363281 24.988281 19.367188 24.988281 C 19.394531 24.988281 19.386719 24.988281 19.394531 24.988281 C 19.394531 24.988281 19.402344 24.988281 19.402344 24.988281 C 19.40625 24.988281 19.410156 24.988281 19.417969 24.984375 L 20.894531 24.871094 L 20.894531 29.390625 C 20.894531 30.183594 21.535156 30.820312 22.328125 30.820312 L 27.414062 30.820312 L 27.414062 34.5625 L 26.25 34.5625 C 26.015625 34.5625 25.835938 34.742188 25.835938 34.976562 C 25.835938 35.210938 26.015625 35.386719 26.25 35.386719 L 29.40625 35.386719 C 29.636719 35.386719 29.816406 35.210938 29.816406 34.976562 C 29.816406 34.742188 29.636719 34.5625 29.40625 34.5625 L 28.242188 34.5625 L 28.242188 30.820312 L 33.351562 30.820312 C 34.144531 30.820312 34.785156 30.183594 34.785156 29.390625 L 34.785156 26.773438 C 34.515625 26.941406 34.238281 27.089844 33.953125 27.21875 L 33.953125 29.390625 C 33.953125 29.738281 33.699219 29.992188 33.351562 29.992188 L 22.328125 29.992188 C 21.984375 29.992188 21.730469 29.738281 21.730469 29.390625 L 21.730469 24.804688 L 22.039062 24.78125 C 22.644531 24.734375 23.101562 24.203125 23.054688 23.597656 C 23.007812 22.996094 22.472656 22.535156 21.871094 22.582031 L 21.730469 22.59375 L 21.730469 18.835938 C 21.730469 18.488281 21.984375 18.234375 22.328125 18.234375 L 24.507812 18.234375 C 24.621094 17.949219 24.753906 17.671875 24.90625 17.402344 Z M 15.757812 17.683594 C 15.761719 17.683594 15.761719 17.683594 15.765625 17.683594 C 15.765625 17.683594 15.765625 17.683594 15.769531 17.683594 C 16.40625 17.683594 16.988281 18.265625 16.988281 18.90625 C 16.988281 19.546875 16.40625 20.128906 15.769531 20.128906 C 15.128906 20.128906 14.542969 19.546875 14.542969 18.90625 C 14.542969 18.269531 15.121094 17.6875 15.757812 17.683594 Z M 31.167969 18.121094 C 30.410156 18.089844 29.675781 18.371094 29.140625 18.90625 C 28.085938 19.960938 28.085938 21.667969 29.140625 22.722656 C 30.195312 23.777344 31.902344 23.777344 32.957031 22.722656 C 33.492188 22.1875 33.777344 21.453125 33.746094 20.695312 C 33.746094 20.585938 33.703125 20.484375 33.625 20.40625 C 33.460938 20.242188 33.191406 20.242188 33.027344 20.40625 C 32.941406 20.492188 32.898438 20.609375 32.90625 20.730469 C 32.90625 20.730469 32.90625 20.730469 32.90625 20.734375 C 32.929688 21.253906 32.734375 21.757812 32.363281 22.128906 C 31.636719 22.855469 30.464844 22.855469 29.738281 22.128906 C 29.011719 21.402344 29.011719 20.226562 29.738281 19.5 C 30.105469 19.132812 30.609375 18.933594 31.132812 18.957031 C 31.132812 18.957031 31.136719 18.957031 31.136719 18.957031 C 31.257812 18.964844 31.378906 18.921875 31.460938 18.839844 C 31.625 18.675781 31.625 18.40625 31.460938 18.242188 C 31.382812 18.164062 31.277344 18.125 31.167969 18.121094 Z M 14.703125 22.269531 L 14.703125 22.273438 L 17.03125 22.277344 C 17.042969 22.28125 17.011719 22.273438 17.039062 22.277344 C 17.054688 22.28125 17.070312 22.28125 17.082031 22.285156 L 17.101562 22.285156 C 17.097656 22.285156 17.097656 22.285156 17.117188 22.289062 C 17.121094 22.289062 17.121094 22.289062 17.125 22.292969 C 17.132812 22.292969 17.128906 22.292969 17.132812 22.292969 C 17.132812 22.292969 17.136719 22.292969 17.136719 22.292969 C 17.144531 22.296875 17.15625 22.300781 17.15625 22.300781 C 17.15625 22.300781 17.164062 22.300781 17.164062 22.304688 L 17.167969 22.308594 C 17.171875 22.308594 17.175781 22.3125 17.179688 22.3125 C 17.257812 22.351562 17.203125 22.324219 17.199219 22.320312 L 19.21875 23.507812 C 19.332031 23.574219 19.460938 23.605469 19.59375 23.597656 L 21.933594 23.417969 C 22.085938 23.40625 22.210938 23.511719 22.222656 23.667969 C 22.234375 23.820312 22.128906 23.941406 21.976562 23.957031 L 19.351562 24.160156 C 19.355469 24.160156 19.328125 24.152344 19.414062 24.160156 C 19.417969 24.160156 19.382812 24.160156 19.347656 24.160156 C 19.355469 24.15625 19.363281 24.160156 19.3125 24.15625 C 19.300781 24.152344 19.289062 24.15625 19.28125 24.15625 C 19.269531 24.152344 19.257812 24.148438 19.246094 24.144531 C 19.246094 24.148438 19.238281 24.144531 19.207031 24.125 C 19.195312 24.121094 19.183594 24.117188 19.171875 24.113281 L 18.304688 23.597656 C 17.875 23.34375 17.332031 23.652344 17.328125 24.152344 L 17.320312 27.507812 C 17.320312 27.554688 17.328125 27.601562 17.335938 27.648438 L 17.878906 34.160156 C 17.894531 34.359375 17.753906 34.523438 17.554688 34.539062 C 17.359375 34.558594 17.191406 34.417969 17.175781 34.21875 L 16.695312 28.421875 C 16.667969 28.089844 16.390625 27.832031 16.054688 27.828125 L 15.65625 27.828125 C 15.320312 27.828125 15.042969 28.085938 15.015625 28.421875 L 14.53125 34.21875 C 14.515625 34.417969 14.351562 34.558594 14.152344 34.539062 C 13.953125 34.523438 13.8125 34.359375 13.828125 34.160156 L 14.367188 27.660156 C 14.367188 27.660156 14.371094 27.65625 14.371094 27.65625 L 14.371094 27.648438 C 14.371094 27.644531 14.371094 27.644531 14.371094 27.644531 L 14.371094 27.625 C 14.371094 27.625 14.375 27.625 14.375 27.625 C 14.378906 27.589844 14.378906 27.554688 14.375 27.519531 L 14.375 27.515625 L 14.382812 24.917969 C 14.386719 24.332031 13.667969 24.046875 13.269531 24.476562 L 13.207031 24.539062 C 13.152344 24.597656 13.109375 24.667969 13.078125 24.742188 L 12.160156 27.027344 C 12.105469 27.167969 11.953125 27.234375 11.808594 27.175781 C 11.667969 27.121094 11.601562 26.96875 11.660156 26.824219 L 12.636719 24.386719 L 12.640625 24.382812 C 12.636719 24.390625 12.621094 24.417969 12.65625 24.359375 C 12.683594 24.304688 12.664062 24.339844 12.660156 24.347656 L 12.660156 24.34375 C 12.679688 24.3125 12.695312 24.296875 12.703125 24.289062 C 12.710938 24.28125 12.71875 24.269531 12.726562 24.261719 L 14.433594 22.394531 C 14.4375 22.390625 14.4375 22.390625 14.441406 22.386719 C 14.449219 22.378906 14.457031 22.367188 14.46875 22.359375 C 14.46875 22.359375 14.464844 22.363281 14.484375 22.34375 C 14.488281 22.34375 14.488281 22.34375 14.492188 22.339844 C 14.523438 22.3125 14.511719 22.320312 14.507812 22.324219 L 14.511719 22.320312 C 14.503906 22.324219 14.480469 22.339844 14.523438 22.3125 L 14.527344 22.3125 C 14.546875 22.300781 14.550781 22.300781 14.554688 22.296875 C 14.554688 22.296875 14.5625 22.296875 14.566406 22.292969 C 14.582031 22.289062 14.585938 22.285156 14.59375 22.285156 C 14.609375 22.28125 14.683594 22.273438 14.703125 22.269531 Z M 14.703125 22.269531 " fill-opacity="1" fill-rule="nonzero"/></g></svg>