<svg xmlns="http://www.w3.org/2000/svg" xmlns:xlink="http://www.w3.org/1999/xlink" width="66" zoomAndPan="magnify" viewBox="0 0 49.5 49.499998" height="66" preserveAspectRatio="xMidYMid meet" version="1.0"><defs><clipPath id="fa100bc3f2"><path d="M 0 0 L 49.003906 0 L 49.003906 49.003906 L 0 49.003906 Z M 0 0 " clip-rule="nonzero"/></clipPath><clipPath id="349a8734f2"><path d="M 0.46875 2.027344 L 48.527344 2.027344 L 48.527344 48.527344 L 0.46875 48.527344 Z M 0.46875 2.027344 " clip-rule="nonzero"/></clipPath><clipPath id="8eea71a09e"><path d="M 40.542969 2.109375 C 44.910156 2.109375 48.441406 5.652344 48.441406 10.007812 L 48.441406 40.542969 C 48.441406 44.910156 44.902344 48.441406 40.542969 48.441406 L 8.449219 48.441406 C 4.085938 48.441406 0.554688 44.902344 0.554688 40.542969 L 0.554688 10.007812 C 0.554688 5.640625 4.09375 2.109375 8.449219 2.109375 Z M 40.542969 2.109375 " clip-rule="nonzero"/></clipPath><clipPath id="48e614d77b"><path d="M 0 1.550781 L 49 1.550781 L 49 49 L 0 49 Z M 0 1.550781 " clip-rule="nonzero"/></clipPath><clipPath id="7794ad176c"><path d="M 49 10.007812 L 49 40.542969 C 49 45.203125 45.203125 49 40.542969 49 L 8.449219 49 C 3.789062 49 -0.00390625 45.203125 -0.00390625 40.542969 L -0.00390625 10.007812 C -0.00390625 5.347656 3.789062 1.550781 8.449219 1.550781 L 40.535156 1.550781 C 45.203125 1.550781 49 5.347656 49 10.007812 Z M 1.113281 40.542969 C 1.113281 44.585938 4.40625 47.878906 8.449219 47.878906 L 40.535156 47.878906 C 44.578125 47.878906 47.871094 44.585938 47.871094 40.542969 L 47.871094 10.007812 C 47.871094 5.964844 44.578125 2.671875 40.535156 2.671875 L 8.449219 2.671875 C 4.40625 2.671875 1.113281 5.964844 1.113281 10.007812 Z M 1.113281 40.542969 " clip-rule="nonzero"/></clipPath><clipPath id="062837a6d8"><path d="M 6.570312 6 L 38 6 L 38 43.34375 L 6.570312 43.34375 Z M 6.570312 6 " clip-rule="nonzero"/></clipPath><clipPath id="ab5d7fa726"><path d="M 15 5.476562 L 30 5.476562 L 30 11 L 15 11 Z M 15 5.476562 " clip-rule="nonzero"/></clipPath><clipPath id="fb233109b8"><path d="M 39 16 L 42.210938 16 L 42.210938 25 L 39 25 Z M 39 16 " clip-rule="nonzero"/></clipPath></defs><g clip-path="url(#fa100bc3f2)"><path fill="#ffffff" d="M 0 0 L 49.003906 0 L 49.003906 49.003906 L 0 49.003906 Z M 0 0 " fill-opacity="1" fill-rule="nonzero"/><path fill="#ffffff" d="M 0 0 L 49.003906 0 L 49.003906 49.003906 L 0 49.003906 Z M 0 0 " fill-opacity="1" fill-rule="nonzero"/></g><g clip-path="url(#349a8734f2)"><g clip-path="url(#8eea71a09e)"><path fill="#ffffff" d="M -0.00390625 49 L -0.00390625 1.550781 L 49 1.550781 L 49 49 Z M -0.00390625 49 " fill-opacity="1" fill-rule="nonzero"/></g></g><g clip-path="url(#48e614d77b)"><g clip-path="url(#7794ad176c)"><path fill="#edf4ff" d="M -0.00390625 49 L -0.00390625 1.550781 L 49 1.550781 L 49 49 Z M -0.00390625 49 " fill-opacity="1" fill-rule="nonzero"/></g></g><g clip-path="url(#062837a6d8)"><path fill="#2f72f1" d="M 36.125 43.519531 L 8.445312 43.519531 C 7.410156 43.519531 6.574219 42.679688 6.574219 41.648438 L 6.574219 8.179688 C 6.574219 7.148438 7.410156 6.308594 8.445312 6.308594 L 15.449219 6.308594 C 15.613281 6.308594 15.746094 6.441406 15.746094 6.609375 L 15.746094 9.894531 C 15.746094 10.101562 15.917969 10.273438 16.125 10.273438 L 28.230469 10.273438 C 28.433594 10.273438 28.605469 10.101562 28.605469 9.898438 L 28.605469 6.609375 C 28.605469 6.441406 28.738281 6.308594 28.902344 6.308594 L 36.125 6.308594 C 37.160156 6.308594 37.996094 7.148438 37.996094 8.179688 L 37.996094 13.382812 C 37.996094 13.410156 37.992188 13.441406 37.984375 13.46875 L 37.660156 14.542969 C 37.613281 14.695312 37.457031 14.785156 37.300781 14.746094 L 36.59375 14.570312 C 36.523438 14.550781 36.449219 14.59375 36.429688 14.667969 L 34.476562 21.851562 C 34.464844 21.902344 34.480469 21.9375 34.492188 21.957031 C 34.5 21.976562 34.527344 22.011719 34.574219 22.023438 L 34.75 22.070312 C 34.828125 22.089844 34.890625 22.140625 34.933594 22.207031 C 34.972656 22.277344 34.980469 22.359375 34.960938 22.433594 L 32.539062 31.414062 L 33.285156 34.394531 L 35.488281 32.207031 L 37.410156 24.675781 C 37.445312 24.527344 37.585938 24.433594 37.734375 24.453125 C 37.886719 24.46875 37.996094 24.597656 37.996094 24.746094 L 37.996094 41.648438 C 37.996094 42.679688 37.160156 43.519531 36.125 43.519531 Z M 8.445312 6.90625 C 7.742188 6.90625 7.171875 7.476562 7.171875 8.179688 L 7.171875 41.648438 C 7.171875 42.351562 7.742188 42.921875 8.445312 42.921875 L 36.125 42.921875 C 36.828125 42.921875 37.398438 42.351562 37.398438 41.648438 L 37.398438 27.128906 L 36.046875 32.4375 C 36.03125 32.5 35.996094 32.554688 35.949219 32.59375 L 35.175781 33.359375 L 33.332031 35.191406 C 33.253906 35.265625 33.144531 35.296875 33.042969 35.265625 C 32.9375 35.238281 32.859375 35.15625 32.832031 35.050781 L 31.941406 31.484375 C 31.929688 31.4375 31.929688 31.382812 31.941406 31.335938 L 34.308594 22.558594 C 34.167969 22.496094 34.050781 22.394531 33.972656 22.257812 C 33.875 22.085938 33.847656 21.886719 33.898438 21.695312 L 35.851562 14.511719 C 35.957031 14.128906 36.351562 13.894531 36.738281 13.988281 L 37.171875 14.097656 L 37.398438 13.339844 L 37.398438 8.179688 C 37.398438 7.476562 36.828125 6.90625 36.125 6.90625 L 29.199219 6.90625 L 29.199219 9.898438 C 29.199219 10.433594 28.765625 10.871094 28.230469 10.871094 L 16.125 10.871094 C 15.585938 10.871094 15.152344 10.433594 15.152344 9.894531 L 15.152344 6.90625 Z M 8.445312 6.90625 " fill-opacity="1" fill-rule="nonzero"/></g><path fill="#2f72f1" d="M 34.191406 40.945312 L 10.378906 40.945312 C 9.785156 40.945312 9.308594 40.464844 9.308594 39.875 L 9.308594 9.957031 C 9.308594 9.363281 9.785156 8.886719 10.378906 8.886719 L 15.449219 8.886719 C 15.613281 8.886719 15.746094 9.019531 15.746094 9.183594 L 15.746094 9.894531 C 15.746094 10.101562 15.917969 10.273438 16.125 10.273438 L 28.230469 10.273438 C 28.433594 10.273438 28.605469 10.105469 28.605469 9.898438 L 28.605469 9.183594 C 28.605469 9.019531 28.738281 8.886719 28.902344 8.886719 L 34.191406 8.886719 C 34.785156 8.886719 35.261719 9.363281 35.261719 9.957031 L 35.261719 18.917969 C 35.261719 18.941406 35.261719 18.96875 35.253906 18.996094 L 34.476562 21.851562 C 34.464844 21.902344 34.480469 21.9375 34.492188 21.957031 C 34.5 21.976562 34.527344 22.011719 34.574219 22.023438 L 34.75 22.070312 C 34.828125 22.089844 34.890625 22.140625 34.933594 22.207031 C 34.972656 22.277344 34.980469 22.359375 34.960938 22.4375 L 32.539062 31.414062 L 33.285156 34.394531 L 34.753906 32.9375 C 34.839844 32.851562 34.96875 32.824219 35.078125 32.871094 C 35.191406 32.917969 35.261719 33.027344 35.261719 33.148438 L 35.261719 39.875 C 35.261719 40.464844 34.785156 40.945312 34.191406 40.945312 Z M 10.378906 9.480469 C 10.117188 9.480469 9.902344 9.695312 9.902344 9.957031 L 9.902344 39.875 C 9.902344 40.132812 10.117188 40.347656 10.378906 40.347656 L 34.191406 40.347656 C 34.453125 40.347656 34.664062 40.132812 34.664062 39.875 L 34.664062 33.867188 L 33.332031 35.191406 C 33.253906 35.265625 33.144531 35.296875 33.042969 35.265625 C 32.9375 35.238281 32.859375 35.15625 32.832031 35.050781 L 31.941406 31.484375 C 31.929688 31.4375 31.929688 31.382812 31.941406 31.335938 L 34.308594 22.558594 C 34.167969 22.496094 34.050781 22.394531 33.972656 22.257812 C 33.875 22.085938 33.847656 21.886719 33.898438 21.695312 L 34.667969 18.878906 L 34.667969 9.957031 C 34.667969 9.695312 34.453125 9.480469 34.191406 9.480469 L 29.199219 9.480469 L 29.199219 9.898438 C 29.199219 10.433594 28.765625 10.871094 28.230469 10.871094 L 16.125 10.871094 C 15.585938 10.871094 15.152344 10.433594 15.152344 9.894531 L 15.152344 9.480469 Z M 10.378906 9.480469 " fill-opacity="1" fill-rule="nonzero"/><path fill="#2f72f1" d="M 17.777344 19.527344 L 13.480469 19.527344 C 13.035156 19.527344 12.675781 19.167969 12.675781 18.722656 L 12.675781 14.421875 C 12.675781 13.980469 13.035156 13.617188 13.480469 13.617188 L 17.777344 13.617188 C 18.222656 13.617188 18.582031 13.980469 18.582031 14.421875 L 18.582031 18.722656 C 18.582031 19.167969 18.222656 19.527344 17.777344 19.527344 Z M 13.480469 14.214844 C 13.363281 14.214844 13.273438 14.308594 13.273438 14.421875 L 13.273438 18.722656 C 13.273438 18.835938 13.363281 18.929688 13.480469 18.929688 L 17.777344 18.929688 C 17.890625 18.929688 17.984375 18.835938 17.984375 18.722656 L 17.984375 14.421875 C 17.984375 14.308594 17.890625 14.214844 17.777344 14.214844 Z M 13.480469 14.214844 " fill-opacity="1" fill-rule="nonzero"/><path fill="#2f72f1" d="M 27.21875 15.566406 L 20.9375 15.566406 C 20.773438 15.566406 20.640625 15.429688 20.640625 15.265625 C 20.640625 15.101562 20.773438 14.96875 20.9375 14.96875 L 27.21875 14.96875 C 27.382812 14.96875 27.515625 15.101562 27.515625 15.265625 C 27.515625 15.429688 27.382812 15.566406 27.21875 15.566406 Z M 27.21875 15.566406 " fill-opacity="1" fill-rule="nonzero"/><path fill="#2f72f1" d="M 31.359375 18.199219 L 20.9375 18.199219 C 20.773438 18.199219 20.640625 18.066406 20.640625 17.902344 C 20.640625 17.734375 20.773438 17.601562 20.9375 17.601562 L 31.359375 17.601562 C 31.523438 17.601562 31.65625 17.734375 31.65625 17.902344 C 31.65625 18.066406 31.523438 18.199219 31.359375 18.199219 Z M 31.359375 18.199219 " fill-opacity="1" fill-rule="nonzero"/><path fill="#2f72f1" d="M 17.777344 27.867188 L 13.480469 27.867188 C 13.035156 27.867188 12.675781 27.507812 12.675781 27.0625 L 12.675781 22.765625 C 12.675781 22.320312 13.035156 21.960938 13.480469 21.960938 L 17.777344 21.960938 C 18.222656 21.960938 18.582031 22.320312 18.582031 22.765625 L 18.582031 27.0625 C 18.582031 27.507812 18.222656 27.867188 17.777344 27.867188 Z M 13.480469 22.558594 C 13.363281 22.558594 13.273438 22.652344 13.273438 22.765625 L 13.273438 27.0625 C 13.273438 27.175781 13.363281 27.269531 13.480469 27.269531 L 17.777344 27.269531 C 17.890625 27.269531 17.984375 27.175781 17.984375 27.0625 L 17.984375 22.765625 C 17.984375 22.652344 17.890625 22.558594 17.777344 22.558594 Z M 13.480469 22.558594 " fill-opacity="1" fill-rule="nonzero"/><path fill="#2f72f1" d="M 27.21875 23.90625 L 20.9375 23.90625 C 20.773438 23.90625 20.640625 23.773438 20.640625 23.605469 C 20.640625 23.441406 20.773438 23.308594 20.9375 23.308594 L 27.21875 23.308594 C 27.382812 23.308594 27.515625 23.441406 27.515625 23.605469 C 27.515625 23.773438 27.382812 23.90625 27.21875 23.90625 Z M 27.21875 23.90625 " fill-opacity="1" fill-rule="nonzero"/><path fill="#2f72f1" d="M 31.359375 26.539062 L 20.9375 26.539062 C 20.773438 26.539062 20.640625 26.40625 20.640625 26.242188 C 20.640625 26.078125 20.773438 25.941406 20.9375 25.941406 L 31.359375 25.941406 C 31.523438 25.941406 31.65625 26.078125 31.65625 26.242188 C 31.65625 26.40625 31.523438 26.539062 31.359375 26.539062 Z M 31.359375 26.539062 " fill-opacity="1" fill-rule="nonzero"/><path fill="#2f72f1" d="M 17.777344 36.210938 L 13.480469 36.210938 C 13.035156 36.210938 12.675781 35.847656 12.675781 35.40625 L 12.675781 31.105469 C 12.675781 30.664062 13.035156 30.300781 13.480469 30.300781 L 17.777344 30.300781 C 18.222656 30.300781 18.582031 30.664062 18.582031 31.105469 L 18.582031 35.40625 C 18.582031 35.847656 18.222656 36.210938 17.777344 36.210938 Z M 13.480469 30.898438 C 13.363281 30.898438 13.273438 30.992188 13.273438 31.105469 L 13.273438 35.40625 C 13.273438 35.519531 13.363281 35.613281 13.480469 35.613281 L 17.777344 35.613281 C 17.890625 35.613281 17.984375 35.519531 17.984375 35.40625 L 17.984375 31.105469 C 17.984375 30.992188 17.890625 30.898438 17.777344 30.898438 Z M 13.480469 30.898438 " fill-opacity="1" fill-rule="nonzero"/><path fill="#2f72f1" d="M 16.339844 34.308594 C 16.265625 34.308594 16.1875 34.277344 16.128906 34.21875 L 14.78125 32.871094 C 14.667969 32.753906 14.667969 32.566406 14.78125 32.449219 C 14.898438 32.332031 15.089844 32.332031 15.207031 32.449219 L 16.339844 33.585938 L 19.289062 30.636719 C 19.40625 30.519531 19.597656 30.519531 19.710938 30.636719 C 19.828125 30.753906 19.828125 30.941406 19.710938 31.058594 L 16.550781 34.21875 C 16.496094 34.277344 16.417969 34.308594 16.339844 34.308594 Z M 16.339844 34.308594 " fill-opacity="1" fill-rule="nonzero"/><path fill="#2f72f1" d="M 27.21875 32.246094 L 20.9375 32.246094 C 20.773438 32.246094 20.640625 32.113281 20.640625 31.949219 C 20.640625 31.78125 20.773438 31.648438 20.9375 31.648438 L 27.21875 31.648438 C 27.382812 31.648438 27.515625 31.78125 27.515625 31.949219 C 27.515625 32.113281 27.382812 32.246094 27.21875 32.246094 Z M 27.21875 32.246094 " fill-opacity="1" fill-rule="nonzero"/><path fill="#2f72f1" d="M 31.359375 34.882812 L 20.9375 34.882812 C 20.773438 34.882812 20.640625 34.746094 20.640625 34.582031 C 20.640625 34.417969 20.773438 34.285156 20.9375 34.285156 L 31.359375 34.285156 C 31.523438 34.285156 31.65625 34.417969 31.65625 34.582031 C 31.65625 34.746094 31.523438 34.882812 31.359375 34.882812 Z M 31.359375 34.882812 " fill-opacity="1" fill-rule="nonzero"/><g clip-path="url(#ab5d7fa726)"><path fill="#2f72f1" d="M 28.230469 10.871094 L 16.125 10.871094 C 15.585938 10.871094 15.152344 10.433594 15.152344 9.894531 L 15.152344 6.449219 C 15.152344 5.914062 15.585938 5.476562 16.121094 5.476562 L 28.230469 5.476562 C 28.765625 5.476562 29.199219 5.914062 29.199219 6.449219 L 29.199219 9.898438 C 29.199219 10.433594 28.765625 10.871094 28.230469 10.871094 Z M 16.121094 6.074219 C 15.917969 6.074219 15.746094 6.242188 15.746094 6.449219 L 15.746094 9.894531 C 15.746094 10.101562 15.917969 10.273438 16.125 10.273438 L 28.230469 10.273438 C 28.433594 10.273438 28.605469 10.105469 28.605469 9.898438 L 28.605469 6.449219 C 28.605469 6.242188 28.433594 6.074219 28.230469 6.074219 Z M 16.121094 6.074219 " fill-opacity="1" fill-rule="nonzero"/></g><path fill="#2f72f1" d="M 33.121094 35.277344 C 33.09375 35.277344 33.066406 35.273438 33.042969 35.265625 C 32.9375 35.238281 32.859375 35.15625 32.832031 35.050781 L 31.941406 31.484375 C 31.929688 31.4375 31.929688 31.382812 31.941406 31.335938 L 34.382812 22.28125 C 34.425781 22.121094 34.589844 22.027344 34.75 22.070312 L 35.5625 22.28125 L 38.15625 22.960938 C 38.316406 23.003906 38.410156 23.164062 38.371094 23.324219 L 36.046875 32.4375 C 36.03125 32.5 35.996094 32.554688 35.949219 32.59375 L 33.332031 35.191406 C 33.273438 35.246094 33.199219 35.277344 33.121094 35.277344 Z M 32.539062 31.414062 L 33.285156 34.394531 L 35.488281 32.207031 L 37.71875 23.464844 L 34.882812 22.722656 Z M 32.539062 31.414062 " fill-opacity="1" fill-rule="nonzero"/><path fill="#2f72f1" d="M 33.121094 35.277344 C 33.09375 35.277344 33.066406 35.273438 33.042969 35.265625 C 32.9375 35.238281 32.859375 35.15625 32.832031 35.050781 L 31.941406 31.484375 C 31.90625 31.347656 31.972656 31.207031 32.097656 31.144531 C 32.226562 31.082031 32.378906 31.117188 32.464844 31.226562 C 32.46875 31.230469 32.8125 31.65625 33.484375 31.9375 C 33.664062 32.015625 33.839844 32.070312 34.019531 32.113281 C 35.035156 32.339844 35.613281 32.101562 35.636719 32.089844 C 35.769531 32.035156 35.921875 32.078125 36.003906 32.199219 C 36.082031 32.316406 36.066406 32.476562 35.964844 32.578125 L 33.332031 35.191406 C 33.273438 35.246094 33.199219 35.277344 33.121094 35.277344 Z M 32.742188 32.226562 L 33.285156 34.394531 L 34.886719 32.808594 C 34.605469 32.808594 34.273438 32.78125 33.890625 32.695312 C 33.675781 32.648438 33.464844 32.582031 33.25 32.488281 C 33.058594 32.410156 32.890625 32.320312 32.742188 32.226562 Z M 32.742188 32.226562 " fill-opacity="1" fill-rule="nonzero"/><path fill="#2f72f1" d="M 39.769531 15.351562 C 39.746094 15.351562 39.722656 15.347656 39.695312 15.339844 L 37.300781 14.746094 C 37.222656 14.726562 37.15625 14.675781 37.113281 14.601562 C 37.074219 14.53125 37.0625 14.445312 37.089844 14.367188 L 37.4375 13.210938 C 37.589844 12.710938 37.984375 12.332031 38.488281 12.195312 C 38.75 12.125 39.03125 12.125 39.292969 12.199219 C 39.933594 12.382812 40.382812 12.980469 40.382812 13.648438 C 40.382812 13.773438 40.367188 13.894531 40.335938 14.015625 L 40.058594 15.125 C 40.023438 15.257812 39.902344 15.351562 39.769531 15.351562 Z M 37.75 14.242188 L 39.550781 14.6875 L 39.757812 13.871094 C 39.777344 13.796875 39.785156 13.722656 39.785156 13.648438 C 39.785156 13.246094 39.515625 12.886719 39.128906 12.777344 C 38.96875 12.730469 38.804688 12.730469 38.644531 12.773438 C 38.339844 12.855469 38.101562 13.082031 38.011719 13.382812 Z M 37.75 14.242188 " fill-opacity="1" fill-rule="nonzero"/><path fill="#2f72f1" d="M 38.304688 23.59375 C 38.242188 23.59375 38.179688 23.585938 38.121094 23.570312 L 38.003906 23.539062 L 34.597656 22.648438 L 34.421875 22.601562 C 34.234375 22.550781 34.074219 22.429688 33.972656 22.257812 C 33.875 22.085938 33.847656 21.886719 33.898438 21.695312 L 35.851562 14.511719 C 35.957031 14.128906 36.351562 13.894531 36.738281 13.988281 L 40.503906 14.925781 C 40.699219 14.976562 40.863281 15.097656 40.960938 15.273438 C 41.0625 15.445312 41.089844 15.648438 41.035156 15.839844 L 40.476562 17.828125 L 39.164062 22.519531 L 39.011719 23.054688 C 38.925781 23.378906 38.625 23.59375 38.304688 23.59375 Z M 36.5625 14.566406 C 36.503906 14.566406 36.445312 14.605469 36.429688 14.667969 L 34.476562 21.851562 C 34.464844 21.902344 34.480469 21.9375 34.492188 21.957031 C 34.5 21.976562 34.527344 22.011719 34.574219 22.023438 L 34.75 22.070312 L 38.269531 22.992188 C 38.34375 23.011719 38.417969 22.96875 38.4375 22.894531 L 38.589844 22.359375 L 39.902344 17.667969 L 40.457031 15.675781 C 40.457031 15.675781 40.460938 15.675781 40.460938 15.675781 C 40.472656 15.628906 40.457031 15.589844 40.445312 15.570312 C 40.433594 15.550781 40.410156 15.519531 40.359375 15.503906 L 36.59375 14.570312 C 36.582031 14.566406 36.574219 14.566406 36.5625 14.566406 Z M 36.5625 14.566406 " fill-opacity="1" fill-rule="nonzero"/><g clip-path="url(#fb233109b8)"><path fill="#2f72f1" d="M 40.332031 24.480469 C 40.027344 24.480469 39.746094 24.328125 39.578125 24.078125 L 39.355469 23.75 C 39.039062 23.273438 38.941406 22.679688 39.097656 22.128906 L 40.128906 18.425781 C 40.175781 18.261719 40.121094 18.085938 39.992188 17.972656 C 39.90625 17.898438 39.871094 17.777344 39.902344 17.667969 L 40.253906 16.40625 C 40.277344 16.332031 40.328125 16.265625 40.394531 16.226562 C 40.464844 16.1875 40.546875 16.179688 40.625 16.199219 L 41.128906 16.339844 C 41.570312 16.464844 41.9375 16.757812 42.160156 17.160156 C 42.378906 17.566406 42.425781 18.03125 42.292969 18.472656 L 41.019531 22.613281 C 40.992188 22.707031 40.996094 22.804688 41.035156 22.894531 L 41.167969 23.203125 C 41.3125 23.53125 41.25 23.914062 41.007812 24.179688 C 40.925781 24.269531 40.824219 24.347656 40.714844 24.394531 C 40.59375 24.449219 40.464844 24.480469 40.332031 24.480469 Z M 40.523438 17.667969 C 40.71875 17.925781 40.792969 18.269531 40.703125 18.585938 L 39.671875 22.289062 C 39.566406 22.671875 39.632812 23.085938 39.855469 23.417969 L 40.074219 23.742188 C 40.132812 23.832031 40.226562 23.882812 40.332031 23.882812 C 40.378906 23.882812 40.421875 23.871094 40.460938 23.851562 C 40.464844 23.851562 40.464844 23.851562 40.46875 23.851562 C 40.503906 23.835938 40.535156 23.808594 40.5625 23.78125 C 40.648438 23.6875 40.671875 23.554688 40.621094 23.441406 L 40.488281 23.132812 C 40.390625 22.914062 40.378906 22.667969 40.449219 22.4375 L 41.722656 18.296875 C 41.808594 18.011719 41.777344 17.710938 41.632812 17.445312 C 41.492188 17.1875 41.253906 16.996094 40.96875 16.917969 L 40.75 16.855469 L 40.519531 17.667969 Z M 40.523438 17.667969 " fill-opacity="1" fill-rule="nonzero"/></g><path fill="#2f72f1" d="M 16.339844 17.625 C 16.261719 17.625 16.1875 17.59375 16.128906 17.539062 L 14.78125 16.191406 C 14.667969 16.074219 14.667969 15.882812 14.78125 15.769531 C 14.898438 15.652344 15.089844 15.652344 15.207031 15.769531 L 16.339844 16.902344 L 19.289062 13.953125 C 19.40625 13.839844 19.597656 13.839844 19.710938 13.953125 C 19.828125 14.070312 19.828125 14.261719 19.710938 14.378906 L 16.550781 17.539062 C 16.496094 17.59375 16.421875 17.625 16.339844 17.625 Z M 16.339844 17.625 " fill-opacity="1" fill-rule="nonzero"/><path fill="#2f72f1" d="M 16.339844 25.964844 C 16.261719 25.964844 16.1875 25.933594 16.128906 25.878906 L 14.78125 24.53125 C 14.667969 24.414062 14.667969 24.226562 14.78125 24.109375 C 14.898438 23.992188 15.089844 23.992188 15.207031 24.109375 L 16.339844 25.246094 L 19.289062 22.296875 C 19.40625 22.179688 19.597656 22.179688 19.710938 22.296875 C 19.828125 22.414062 19.828125 22.601562 19.710938 22.71875 L 16.550781 25.878906 C 16.496094 25.933594 16.421875 25.964844 16.339844 25.964844 Z M 16.339844 25.964844 " fill-opacity="1" fill-rule="nonzero"/></svg>