<svg xmlns="http://www.w3.org/2000/svg" xmlns:xlink="http://www.w3.org/1999/xlink" width="66" zoomAndPan="magnify" viewBox="0 0 49.5 49.499998" height="66" preserveAspectRatio="xMidYMid meet" version="1.0"><defs><clipPath id="0ecab2b22e"><path d="M 0.46875 1.246094 L 48.527344 1.246094 L 48.527344 47.746094 L 0.46875 47.746094 Z M 0.46875 1.246094 " clip-rule="nonzero"/></clipPath><clipPath id="e176dc100f"><path d="M 40.542969 1.332031 C 44.910156 1.332031 48.441406 4.871094 48.441406 9.230469 L 48.441406 39.765625 C 48.441406 44.132812 44.902344 47.660156 40.542969 47.660156 L 8.449219 47.660156 C 4.085938 47.660156 0.554688 44.121094 0.554688 39.765625 L 0.554688 9.230469 C 0.554688 4.863281 4.09375 1.332031 8.449219 1.332031 Z M 40.542969 1.332031 " clip-rule="nonzero"/></clipPath><clipPath id="12b2b3a8da"><path d="M 0 0.773438 L 49 0.773438 L 49 48.222656 L 0 48.222656 Z M 0 0.773438 " clip-rule="nonzero"/></clipPath><clipPath id="6b13da4734"><path d="M 49 9.230469 L 49 39.765625 C 49 44.425781 45.203125 48.222656 40.542969 48.222656 L 8.449219 48.222656 C 3.789062 48.222656 -0.00390625 44.425781 -0.00390625 39.765625 L -0.00390625 9.230469 C -0.00390625 4.570312 3.789062 0.773438 8.449219 0.773438 L 40.535156 0.773438 C 45.203125 0.773438 49 4.570312 49 9.230469 Z M 1.113281 39.765625 C 1.113281 43.808594 4.40625 47.101562 8.449219 47.101562 L 40.535156 47.101562 C 44.578125 47.101562 47.871094 43.808594 47.871094 39.765625 L 47.871094 9.230469 C 47.871094 5.1875 44.578125 1.894531 40.535156 1.894531 L 8.449219 1.894531 C 4.40625 1.894531 1.113281 5.1875 1.113281 9.230469 Z M 1.113281 39.765625 " clip-rule="nonzero"/></clipPath><clipPath id="09f571e43c"><path d="M 8.613281 8.058594 L 40.542969 8.058594 L 40.542969 40.730469 L 8.613281 40.730469 Z M 8.613281 8.058594 " clip-rule="nonzero"/></clipPath></defs><g clip-path="url(#0ecab2b22e)"><g clip-path="url(#e176dc100f)"><path fill="#ffffff" d="M -0.00390625 48.222656 L -0.00390625 0.773438 L 49 0.773438 L 49 48.222656 Z M -0.00390625 48.222656 " fill-opacity="1" fill-rule="nonzero"/></g></g><g clip-path="url(#12b2b3a8da)"><g clip-path="url(#6b13da4734)"><path fill="#edf4ff" d="M -0.00390625 48.222656 L -0.00390625 0.773438 L 49 0.773438 L 49 48.222656 Z M -0.00390625 48.222656 " fill-opacity="1" fill-rule="nonzero"/></g></g><g clip-path="url(#09f571e43c)"><path fill="#2f72f1" d="M 36.121094 8.0625 L 19.519531 8.0625 C 17.164062 8.0625 15.25 9.980469 15.25 12.335938 L 15.25 28.933594 C 15.25 29.050781 15.253906 29.171875 15.261719 29.289062 L 10.59375 29.289062 C 9.503906 29.289062 8.613281 30.179688 8.613281 31.269531 L 8.613281 38.957031 C 8.613281 40.042969 9.503906 40.933594 10.59375 40.933594 L 18.277344 40.933594 C 19.367188 40.933594 20.257812 40.042969 20.257812 38.957031 L 20.257812 33.203125 L 36.113281 33.203125 C 38.46875 33.203125 40.386719 31.289062 40.386719 28.933594 L 40.386719 12.335938 C 40.390625 9.980469 38.472656 8.0625 36.121094 8.0625 Z M 38.523438 28.933594 C 38.523438 30.261719 37.441406 31.339844 36.113281 31.339844 L 20.257812 31.339844 L 20.257812 31.269531 C 20.257812 30.179688 19.367188 29.289062 18.277344 29.289062 L 17.140625 29.289062 C 17.125 29.175781 17.113281 29.058594 17.113281 28.933594 L 17.113281 12.335938 C 17.113281 11.007812 18.191406 9.925781 19.519531 9.925781 L 36.121094 9.925781 C 37.445312 9.925781 38.527344 11.007812 38.527344 12.335938 L 38.527344 28.933594 Z M 18.277344 40.066406 L 10.59375 40.066406 C 9.980469 40.066406 9.480469 39.570312 9.480469 38.957031 L 9.480469 31.269531 C 9.480469 30.65625 9.980469 30.15625 10.59375 30.15625 L 18.285156 30.15625 C 18.898438 30.15625 19.398438 30.65625 19.398438 31.269531 L 19.398438 38.957031 C 19.390625 39.570312 18.890625 40.066406 18.277344 40.066406 Z M 18.277344 40.066406 " fill-opacity="1" fill-rule="nonzero"/></g><path fill="#2f72f1" d="M 30.503906 15.550781 L 31.429688 16 L 20.679688 26.449219 C 20.308594 26.8125 20.300781 27.402344 20.660156 27.773438 C 20.84375 27.964844 21.089844 28.054688 21.332031 28.054688 C 21.566406 28.054688 21.804688 27.96875 21.984375 27.789062 L 32.746094 17.324219 L 33.160156 18.261719 C 33.292969 18.554688 33.722656 18.527344 33.808594 18.214844 L 35.070312 13.761719 L 30.570312 14.898438 C 30.253906 14.984375 30.210938 15.410156 30.503906 15.550781 Z M 30.503906 15.550781 " fill-opacity="1" fill-rule="nonzero"/></svg>