<svg xmlns="http://www.w3.org/2000/svg" xmlns:xlink="http://www.w3.org/1999/xlink" width="66" zoomAndPan="magnify" viewBox="0 0 49.5 49.499998" height="66" preserveAspectRatio="xMidYMid meet" version="1.0"><defs><clipPath id="b3284e0598"><path d="M 0.46875 1.246094 L 48.527344 1.246094 L 48.527344 47.746094 L 0.46875 47.746094 Z M 0.46875 1.246094 " clip-rule="nonzero"/></clipPath><clipPath id="f5b5b326c3"><path d="M 40.542969 1.332031 C 44.910156 1.332031 48.441406 4.871094 48.441406 9.230469 L 48.441406 39.765625 C 48.441406 44.132812 44.902344 47.660156 40.542969 47.660156 L 8.449219 47.660156 C 4.085938 47.660156 0.554688 44.121094 0.554688 39.765625 L 0.554688 9.230469 C 0.554688 4.863281 4.09375 1.332031 8.449219 1.332031 Z M 40.542969 1.332031 " clip-rule="nonzero"/></clipPath><clipPath id="e9a8c703cf"><path d="M 0 0.773438 L 49 0.773438 L 49 48.222656 L 0 48.222656 Z M 0 0.773438 " clip-rule="nonzero"/></clipPath><clipPath id="2dec9b9a20"><path d="M 49 9.230469 L 49 39.765625 C 49 44.425781 45.203125 48.222656 40.542969 48.222656 L 8.449219 48.222656 C 3.789062 48.222656 -0.00390625 44.425781 -0.00390625 39.765625 L -0.00390625 9.230469 C -0.00390625 4.570312 3.789062 0.773438 8.449219 0.773438 L 40.535156 0.773438 C 45.203125 0.773438 49 4.570312 49 9.230469 Z M 1.113281 39.765625 C 1.113281 43.808594 4.40625 47.101562 8.449219 47.101562 L 40.535156 47.101562 C 44.578125 47.101562 47.871094 43.808594 47.871094 39.765625 L 47.871094 9.230469 C 47.871094 5.1875 44.578125 1.894531 40.535156 1.894531 L 8.449219 1.894531 C 4.40625 1.894531 1.113281 5.1875 1.113281 9.230469 Z M 1.113281 39.765625 " clip-rule="nonzero"/></clipPath><clipPath id="083fea46fe"><path d="M 8.257812 8.257812 L 40.929688 8.257812 L 40.929688 40.929688 L 8.257812 40.929688 Z M 8.257812 8.257812 " clip-rule="nonzero"/></clipPath></defs><g clip-path="url(#b3284e0598)"><g clip-path="url(#f5b5b326c3)"><path fill="#ffffff" d="M -0.00390625 48.222656 L -0.00390625 0.773438 L 49 0.773438 L 49 48.222656 Z M -0.00390625 48.222656 " fill-opacity="1" fill-rule="nonzero"/></g></g><g clip-path="url(#e9a8c703cf)"><g clip-path="url(#2dec9b9a20)"><path fill="#edf4ff" d="M -0.00390625 48.222656 L -0.00390625 0.773438 L 49 0.773438 L 49 48.222656 Z M -0.00390625 48.222656 " fill-opacity="1" fill-rule="nonzero"/></g></g><g clip-path="url(#083fea46fe)"><path fill="#2f72f1" d="M 24.5 19.925781 C 21.976562 19.925781 19.925781 21.976562 19.925781 24.5 C 19.925781 27.023438 21.976562 29.078125 24.5 29.078125 C 27.023438 29.078125 29.078125 27.023438 29.078125 24.5 C 29.078125 21.976562 27.023438 19.925781 24.5 19.925781 Z M 22.25 27.214844 C 22.484375 26.171875 23.425781 25.414062 24.5 25.414062 C 25.585938 25.414062 26.511719 26.152344 26.75 27.207031 C 26.75 27.210938 26.75 27.214844 26.75 27.214844 C 26.140625 27.722656 25.355469 28.03125 24.5 28.03125 C 23.648438 28.03125 22.863281 27.722656 22.25 27.214844 Z M 24.5 24.367188 C 24 24.367188 23.59375 23.960938 23.59375 23.460938 C 23.59375 22.960938 24 22.554688 24.5 22.554688 C 25 22.554688 25.40625 22.960938 25.40625 23.460938 C 25.40625 23.960938 25 24.367188 24.5 24.367188 Z M 27.539062 26.292969 C 27.214844 25.601562 26.667969 25.046875 26 24.714844 C 26.285156 24.375 26.457031 23.9375 26.457031 23.460938 C 26.457031 22.382812 25.578125 21.507812 24.5 21.507812 C 23.421875 21.507812 22.546875 22.382812 22.546875 23.460938 C 22.546875 23.941406 22.722656 24.382812 23.007812 24.722656 C 22.339844 25.058594 21.789062 25.609375 21.464844 26.296875 C 21.152344 25.769531 20.972656 25.15625 20.972656 24.5 C 20.972656 22.554688 22.554688 20.972656 24.5 20.972656 C 26.445312 20.972656 28.03125 22.554688 28.03125 24.5 C 28.03125 25.15625 27.851562 25.769531 27.539062 26.292969 Z M 29.601562 37.996094 C 29.695312 38.269531 29.546875 38.566406 29.273438 38.660156 C 26.828125 39.484375 24.171875 39.652344 21.636719 39.160156 L 21.738281 39.261719 C 21.941406 39.46875 21.941406 39.796875 21.738281 40.003906 C 21.636719 40.105469 21.5 40.15625 21.367188 40.15625 C 21.234375 40.15625 21.097656 40.105469 20.996094 40.003906 L 19.527344 38.535156 C 19.394531 38.402344 19.34375 38.207031 19.390625 38.027344 C 19.4375 37.847656 19.582031 37.707031 19.761719 37.65625 L 21.769531 37.117188 C 22.046875 37.042969 22.335938 37.210938 22.410156 37.488281 C 22.484375 37.769531 22.320312 38.054688 22.039062 38.132812 L 21.949219 38.15625 C 24.273438 38.582031 26.703125 38.417969 28.9375 37.667969 C 29.210938 37.574219 29.507812 37.722656 29.601562 37.996094 Z M 38.15625 27.050781 C 38.582031 24.730469 38.417969 22.292969 37.667969 20.0625 C 37.574219 19.789062 37.722656 19.492188 37.996094 19.398438 C 38.269531 19.308594 38.566406 19.457031 38.660156 19.730469 C 39.480469 22.167969 39.648438 24.832031 39.160156 27.367188 L 39.261719 27.265625 C 39.46875 27.058594 39.796875 27.058594 40.003906 27.265625 C 40.207031 27.46875 40.207031 27.800781 40.003906 28.007812 L 38.535156 29.476562 C 38.433594 29.574219 38.300781 29.628906 38.164062 29.628906 C 38.117188 29.628906 38.070312 29.625 38.027344 29.613281 C 37.847656 29.5625 37.707031 29.421875 37.65625 29.242188 L 37.117188 27.234375 C 37.042969 26.953125 37.210938 26.667969 37.488281 26.589844 C 37.769531 26.515625 38.054688 26.683594 38.132812 26.960938 Z M 19.398438 11.007812 C 19.308594 10.730469 19.457031 10.433594 19.730469 10.34375 C 22.171875 9.519531 24.832031 9.351562 27.367188 9.839844 L 27.265625 9.738281 C 27.058594 9.535156 27.058594 9.203125 27.265625 9 C 27.46875 8.792969 27.800781 8.792969 28.007812 9 L 29.476562 10.46875 C 29.609375 10.601562 29.660156 10.792969 29.613281 10.976562 C 29.5625 11.15625 29.421875 11.296875 29.242188 11.34375 L 27.234375 11.882812 C 27.1875 11.894531 27.140625 11.902344 27.097656 11.902344 C 26.867188 11.902344 26.652344 11.746094 26.589844 11.511719 C 26.515625 11.234375 26.683594 10.945312 26.960938 10.871094 L 27.050781 10.847656 C 24.730469 10.417969 22.300781 10.582031 20.0625 11.335938 C 19.789062 11.429688 19.492188 11.28125 19.398438 11.007812 Z M 35.761719 30.785156 C 34.578125 30.785156 33.488281 31.199219 32.632812 31.894531 L 30.507812 29.765625 L 30.847656 29.425781 C 31.003906 29.269531 31.046875 29.039062 30.957031 28.839844 L 30.53125 27.878906 C 30.796875 27.402344 31.003906 26.898438 31.152344 26.375 L 32.136719 25.996094 C 32.339844 25.917969 32.472656 25.726562 32.472656 25.507812 L 32.472656 23.492188 C 32.472656 23.277344 32.339844 23.082031 32.136719 23.003906 L 31.152344 22.625 C 31.003906 22.101562 30.796875 21.597656 30.53125 21.125 L 30.957031 20.160156 C 31.046875 19.960938 31.003906 19.730469 30.847656 19.578125 L 30.507812 19.234375 L 32.632812 17.109375 C 33.488281 17.800781 34.578125 18.21875 35.761719 18.21875 C 38.507812 18.21875 40.742188 15.984375 40.742188 13.238281 C 40.742188 10.492188 38.507812 8.257812 35.761719 8.257812 C 33.015625 8.257812 30.785156 10.492188 30.785156 13.238281 C 30.785156 14.421875 31.199219 15.511719 31.894531 16.367188 L 29.765625 18.496094 L 29.425781 18.152344 C 29.269531 18 29.039062 17.957031 28.839844 18.042969 L 27.878906 18.472656 C 27.402344 18.207031 26.898438 17.996094 26.375 17.847656 L 25.996094 16.867188 C 25.921875 16.664062 25.726562 16.53125 25.507812 16.53125 L 23.492188 16.53125 C 23.277344 16.53125 23.082031 16.664062 23.003906 16.867188 L 22.625 17.847656 C 22.101562 17.996094 21.597656 18.207031 21.125 18.472656 L 20.160156 18.042969 C 19.964844 17.957031 19.730469 18 19.578125 18.152344 L 19.234375 18.496094 L 17.109375 16.367188 C 17.800781 15.511719 18.21875 14.421875 18.21875 13.238281 C 18.21875 10.492188 15.984375 8.257812 13.238281 8.257812 C 10.492188 8.257812 8.257812 10.492188 8.257812 13.238281 C 8.257812 15.984375 10.492188 18.21875 13.238281 18.21875 C 14.421875 18.21875 15.511719 17.800781 16.367188 17.109375 L 18.496094 19.234375 L 18.152344 19.578125 C 18 19.730469 17.957031 19.960938 18.042969 20.160156 L 18.472656 21.125 C 18.207031 21.597656 17.996094 22.101562 17.847656 22.625 L 16.867188 23.003906 C 16.664062 23.082031 16.53125 23.277344 16.53125 23.492188 L 16.53125 25.507812 C 16.53125 25.726562 16.664062 25.921875 16.867188 25.996094 L 17.847656 26.375 C 17.996094 26.898438 18.207031 27.402344 18.472656 27.878906 L 18.042969 28.839844 C 17.957031 29.039062 18 29.269531 18.152344 29.425781 L 18.496094 29.765625 L 16.367188 31.894531 C 15.511719 31.199219 14.421875 30.785156 13.238281 30.785156 C 10.492188 30.785156 8.257812 33.015625 8.257812 35.761719 C 8.257812 38.507812 10.492188 40.742188 13.238281 40.742188 C 15.984375 40.742188 18.21875 38.507812 18.21875 35.761719 C 18.21875 34.578125 17.800781 33.488281 17.109375 32.632812 L 19.234375 30.507812 L 19.578125 30.847656 C 19.730469 31.003906 19.960938 31.046875 20.160156 30.957031 L 21.125 30.53125 C 21.597656 30.796875 22.101562 31.003906 22.625 31.152344 L 23.003906 32.136719 C 23.082031 32.335938 23.277344 32.472656 23.492188 32.472656 L 25.507812 32.472656 C 25.726562 32.472656 25.917969 32.335938 25.996094 32.136719 L 26.375 31.152344 C 26.898438 31.003906 27.402344 30.796875 27.878906 30.53125 L 28.839844 30.957031 C 29.039062 31.046875 29.269531 31.003906 29.425781 30.847656 L 29.765625 30.507812 L 31.894531 32.632812 C 31.199219 33.488281 30.785156 34.578125 30.785156 35.761719 C 30.785156 38.507812 33.015625 40.742188 35.761719 40.742188 C 38.507812 40.742188 40.742188 38.507812 40.742188 35.761719 C 40.742188 33.015625 38.507812 30.785156 35.761719 30.785156 Z M 33.230469 16.242188 C 33.480469 15.050781 34.535156 14.191406 35.761719 14.191406 C 36.96875 14.191406 38.003906 15.007812 38.28125 16.179688 L 38.402344 16.152344 C 37.703125 16.785156 36.777344 17.171875 35.761719 17.171875 C 34.800781 17.171875 33.917969 16.820312 33.230469 16.242188 Z M 34.714844 12.09375 C 34.714844 11.515625 35.183594 11.046875 35.761719 11.046875 C 36.34375 11.046875 36.8125 11.515625 36.8125 12.09375 C 36.8125 12.671875 36.34375 13.144531 35.761719 13.144531 C 35.183594 13.144531 34.714844 12.671875 34.714844 12.09375 Z M 35.761719 9.308594 C 37.929688 9.308594 39.695312 11.070312 39.695312 13.238281 C 39.695312 14.003906 39.476562 14.71875 39.09375 15.324219 C 38.742188 14.507812 38.109375 13.863281 37.324219 13.492188 C 37.65625 13.121094 37.859375 12.632812 37.859375 12.09375 C 37.859375 10.9375 36.917969 9.996094 35.761719 9.996094 C 34.605469 9.996094 33.667969 10.9375 33.667969 12.09375 C 33.667969 12.632812 33.871094 13.125 34.203125 13.496094 C 33.417969 13.867188 32.785156 14.511719 32.429688 15.324219 C 32.050781 14.71875 31.832031 14.003906 31.832031 13.238281 C 31.832031 11.070312 33.59375 9.308594 35.761719 9.308594 Z M 13.238281 9.308594 C 15.40625 9.308594 17.171875 11.070312 17.171875 13.238281 C 17.171875 14.003906 16.949219 14.71875 16.570312 15.324219 C 16.355469 14.832031 16.03125 14.386719 15.617188 14.03125 C 15.367188 13.8125 15.089844 13.636719 14.796875 13.496094 C 15.132812 13.125 15.335938 12.632812 15.335938 12.09375 C 15.335938 10.9375 14.394531 9.996094 13.238281 9.996094 C 12.082031 9.996094 11.140625 10.9375 11.140625 12.09375 C 11.140625 12.632812 11.34375 13.121094 11.675781 13.492188 C 10.890625 13.863281 10.257812 14.511719 9.90625 15.320312 C 9.527344 14.71875 9.308594 14.003906 9.308594 13.238281 C 9.308594 11.070312 11.070312 9.308594 13.238281 9.308594 Z M 12.191406 12.09375 C 12.191406 11.515625 12.660156 11.046875 13.238281 11.046875 C 13.816406 11.046875 14.289062 11.515625 14.289062 12.09375 C 14.289062 12.671875 13.816406 13.144531 13.238281 13.144531 C 12.660156 13.144531 12.191406 12.671875 12.191406 12.09375 Z M 10.707031 16.242188 C 10.957031 15.046875 12 14.191406 13.238281 14.191406 C 14.457031 14.191406 15.519531 15.066406 15.769531 16.242188 C 15.085938 16.820312 14.203125 17.171875 13.238281 17.171875 C 12.273438 17.171875 11.390625 16.820312 10.707031 16.242188 Z M 10.707031 38.765625 C 10.933594 37.589844 12.003906 36.71875 13.238281 36.71875 C 14.457031 36.71875 15.519531 37.578125 15.769531 38.769531 C 15.085938 39.347656 14.203125 39.695312 13.238281 39.695312 C 12.273438 39.695312 11.390625 39.347656 10.707031 38.765625 Z M 12.191406 34.621094 C 12.191406 34.042969 12.660156 33.570312 13.238281 33.570312 C 13.816406 33.570312 14.289062 34.042969 14.289062 34.621094 C 14.289062 35.199219 13.816406 35.667969 13.238281 35.667969 C 12.660156 35.667969 12.191406 35.199219 12.191406 34.621094 Z M 16.570312 37.847656 C 16.214844 37.042969 15.578125 36.394531 14.796875 36.023438 C 15.132812 35.652344 15.335938 35.160156 15.335938 34.621094 C 15.335938 33.464844 14.394531 32.523438 13.238281 32.523438 C 12.082031 32.523438 11.140625 33.464844 11.140625 34.621094 C 11.140625 35.15625 11.34375 35.648438 11.679688 36.019531 C 10.890625 36.394531 10.253906 37.042969 9.902344 37.84375 C 9.527344 37.238281 9.308594 36.527344 9.308594 35.761719 C 9.308594 33.59375 11.070312 31.832031 13.238281 31.832031 C 15.40625 31.832031 17.171875 33.59375 17.171875 35.761719 C 17.171875 36.527344 16.949219 37.242188 16.570312 37.847656 Z M 28.9375 29.855469 L 28.058594 29.464844 C 27.898438 29.394531 27.71875 29.40625 27.570312 29.496094 C 27.039062 29.820312 26.464844 30.058594 25.863281 30.203125 C 25.695312 30.242188 25.558594 30.363281 25.496094 30.527344 L 25.148438 31.421875 L 23.851562 31.421875 L 23.507812 30.523438 C 23.445312 30.363281 23.308594 30.242188 23.140625 30.203125 C 22.535156 30.058594 21.960938 29.820312 21.433594 29.496094 C 21.285156 29.40625 21.101562 29.394531 20.945312 29.464844 L 20.066406 29.855469 L 19.148438 28.9375 L 19.539062 28.058594 C 19.609375 27.898438 19.597656 27.71875 19.507812 27.570312 C 19.179688 27.039062 18.941406 26.464844 18.796875 25.863281 C 18.757812 25.695312 18.636719 25.558594 18.476562 25.496094 L 17.578125 25.148438 L 17.578125 23.851562 L 18.476562 23.507812 C 18.636719 23.445312 18.757812 23.308594 18.796875 23.140625 C 18.941406 22.535156 19.179688 21.960938 19.507812 21.433594 C 19.597656 21.285156 19.609375 21.101562 19.539062 20.945312 L 19.148438 20.066406 L 20.066406 19.148438 L 20.945312 19.539062 C 21.101562 19.609375 21.285156 19.597656 21.433594 19.507812 C 21.960938 19.179688 22.535156 18.941406 23.140625 18.796875 C 23.308594 18.757812 23.445312 18.636719 23.507812 18.476562 L 23.851562 17.578125 L 25.148438 17.578125 L 25.496094 18.476562 C 25.558594 18.636719 25.695312 18.757812 25.863281 18.796875 C 26.464844 18.941406 27.039062 19.179688 27.570312 19.507812 C 27.71875 19.597656 27.898438 19.609375 28.058594 19.539062 L 28.9375 19.148438 L 29.855469 20.0625 L 29.464844 20.945312 C 29.394531 21.101562 29.40625 21.285156 29.496094 21.433594 C 29.820312 21.960938 30.058594 22.535156 30.203125 23.140625 C 30.242188 23.308594 30.363281 23.445312 30.527344 23.507812 L 31.421875 23.851562 L 31.421875 25.148438 L 30.523438 25.496094 C 30.363281 25.558594 30.242188 25.695312 30.203125 25.863281 C 30.058594 26.464844 29.820312 27.039062 29.496094 27.570312 C 29.40625 27.71875 29.394531 27.898438 29.464844 28.058594 L 29.855469 28.9375 Z M 33.230469 38.769531 C 33.480469 37.574219 34.535156 36.71875 35.761719 36.71875 C 36.960938 36.71875 38.023438 37.5625 38.285156 38.730469 C 38.289062 38.742188 38.292969 38.753906 38.296875 38.765625 C 37.613281 39.34375 36.726562 39.695312 35.761719 39.695312 C 34.800781 39.695312 33.917969 39.347656 33.230469 38.769531 Z M 34.714844 34.621094 C 34.714844 34.042969 35.183594 33.570312 35.761719 33.570312 C 36.34375 33.570312 36.8125 34.042969 36.8125 34.621094 C 36.8125 35.199219 36.34375 35.667969 35.761719 35.667969 C 35.183594 35.667969 34.714844 35.199219 34.714844 34.621094 Z M 39.09375 37.847656 C 38.742188 37.03125 38.109375 36.386719 37.324219 36.015625 C 37.65625 35.644531 37.859375 35.15625 37.859375 34.621094 C 37.859375 33.464844 36.917969 32.523438 35.761719 32.523438 C 34.605469 32.523438 33.667969 33.464844 33.667969 34.621094 C 33.667969 35.15625 33.871094 35.648438 34.203125 36.019531 C 33.417969 36.390625 32.785156 37.039062 32.429688 37.847656 C 32.050781 37.242188 31.832031 36.527344 31.832031 35.761719 C 31.832031 33.59375 33.59375 31.832031 35.761719 31.832031 C 37.929688 31.832031 39.695312 33.59375 39.695312 35.761719 C 39.695312 36.527344 39.476562 37.242188 39.09375 37.847656 Z M 10.847656 21.949219 C 10.417969 24.269531 10.582031 26.699219 11.335938 28.9375 C 11.429688 29.210938 11.28125 29.507812 11.007812 29.601562 C 10.949219 29.621094 10.894531 29.628906 10.839844 29.628906 C 10.621094 29.628906 10.417969 29.492188 10.34375 29.273438 C 9.519531 26.824219 9.351562 24.171875 9.839844 21.636719 L 9.738281 21.738281 C 9.535156 21.941406 9.203125 21.941406 9 21.738281 C 8.792969 21.53125 8.792969 21.199219 9 20.996094 L 10.46875 19.527344 C 10.601562 19.394531 10.792969 19.34375 10.976562 19.390625 C 11.15625 19.4375 11.296875 19.582031 11.34375 19.761719 L 11.882812 21.769531 C 11.957031 22.046875 11.792969 22.335938 11.511719 22.410156 C 11.234375 22.484375 10.945312 22.320312 10.871094 22.039062 Z M 10.847656 21.949219 " fill-opacity="1" fill-rule="nonzero"/></g></svg>