<svg xmlns="http://www.w3.org/2000/svg" xmlns:xlink="http://www.w3.org/1999/xlink" width="66" zoomAndPan="magnify" viewBox="0 0 49.5 49.499998" height="66" preserveAspectRatio="xMidYMid meet" version="1.0"><defs><clipPath id="5ea5640946"><path d="M 0.46875 1.246094 L 48.527344 1.246094 L 48.527344 47.746094 L 0.46875 47.746094 Z M 0.46875 1.246094 " clip-rule="nonzero"/></clipPath><clipPath id="9bd6f44bba"><path d="M 40.542969 1.332031 C 44.910156 1.332031 48.441406 4.871094 48.441406 9.230469 L 48.441406 39.765625 C 48.441406 44.132812 44.902344 47.660156 40.542969 47.660156 L 8.449219 47.660156 C 4.085938 47.660156 0.554688 44.121094 0.554688 39.765625 L 0.554688 9.230469 C 0.554688 4.863281 4.09375 1.332031 8.449219 1.332031 Z M 40.542969 1.332031 " clip-rule="nonzero"/></clipPath><clipPath id="dbd9a418e8"><path d="M 0 0.773438 L 49 0.773438 L 49 48.222656 L 0 48.222656 Z M 0 0.773438 " clip-rule="nonzero"/></clipPath><clipPath id="30a3a6af3d"><path d="M 49 9.230469 L 49 39.765625 C 49 44.425781 45.203125 48.222656 40.542969 48.222656 L 8.449219 48.222656 C 3.789062 48.222656 -0.00390625 44.425781 -0.00390625 39.765625 L -0.00390625 9.230469 C -0.00390625 4.570312 3.789062 0.773438 8.449219 0.773438 L 40.535156 0.773438 C 45.203125 0.773438 49 4.570312 49 9.230469 Z M 1.113281 39.765625 C 1.113281 43.808594 4.40625 47.101562 8.449219 47.101562 L 40.535156 47.101562 C 44.578125 47.101562 47.871094 43.808594 47.871094 39.765625 L 47.871094 9.230469 C 47.871094 5.1875 44.578125 1.894531 40.535156 1.894531 L 8.449219 1.894531 C 4.40625 1.894531 1.113281 5.1875 1.113281 9.230469 Z M 1.113281 39.765625 " clip-rule="nonzero"/></clipPath><clipPath id="3200416977"><path d="M 18 7 L 41.90625 7 L 41.90625 41 L 18 41 Z M 18 7 " clip-rule="nonzero"/></clipPath><clipPath id="e7c7489018"><path d="M 7.007812 19 L 29 19 L 29 42.871094 L 7.007812 42.871094 Z M 7.007812 19 " clip-rule="nonzero"/></clipPath></defs><g clip-path="url(#5ea5640946)"><g clip-path="url(#9bd6f44bba)"><path fill="#ffffff" d="M -0.00390625 48.222656 L -0.00390625 0.773438 L 49 0.773438 L 49 48.222656 Z M -0.00390625 48.222656 " fill-opacity="1" fill-rule="nonzero"/></g></g><g clip-path="url(#dbd9a418e8)"><g clip-path="url(#30a3a6af3d)"><path fill="#edf4ff" d="M -0.00390625 48.222656 L -0.00390625 0.773438 L 49 0.773438 L 49 48.222656 Z M -0.00390625 48.222656 " fill-opacity="1" fill-rule="nonzero"/></g></g><g clip-path="url(#3200416977)"><path fill="#2f72f1" d="M 41.210938 35.746094 L 37.289062 28.214844 C 37.132812 27.953125 36.820312 27.847656 36.609375 28.003906 L 35.667969 28.476562 L 34.359375 25.964844 C 38.386719 23.140625 39.75 17.753906 37.445312 13.359375 C 34.78125 8.339844 28.710938 6.5625 23.847656 9.019531 C 18.933594 11.53125 16.996094 17.492188 19.558594 22.410156 C 21.859375 26.800781 26.988281 28.894531 31.695312 27.273438 L 33 29.78125 L 32.007812 30.253906 C 31.902344 30.304688 31.796875 30.410156 31.746094 30.566406 C 31.695312 30.722656 31.695312 30.828125 31.796875 30.984375 L 35.722656 38.519531 C 36.503906 40.035156 38.386719 40.609375 39.851562 39.824219 C 41.421875 39.09375 41.996094 37.261719 41.210938 35.746094 Z M 20.5 21.9375 C 18.253906 17.542969 19.925781 12.210938 24.371094 9.960938 C 28.765625 7.710938 34.203125 9.386719 36.453125 13.832031 C 38.703125 18.171875 37.027344 23.558594 32.582031 25.808594 C 28.242188 28.003906 22.800781 26.332031 20.5 21.9375 Z M 32.6875 26.90625 C 32.792969 26.855469 32.949219 26.800781 33.054688 26.75 C 33.160156 26.695312 33.261719 26.59375 33.417969 26.539062 L 34.726562 28.945312 L 33.996094 29.3125 Z M 39.433594 38.9375 C 38.441406 39.40625 37.238281 39.039062 36.714844 38.046875 L 33.054688 30.984375 L 34.046875 30.464844 L 36.664062 29.101562 L 40.324219 36.164062 C 40.847656 37.210938 40.429688 38.414062 39.433594 38.9375 Z M 39.433594 38.9375 " fill-opacity="1" fill-rule="nonzero"/></g><path fill="#2f72f1" d="M 34.882812 22.355469 L 34.882812 17.335938 C 35.042969 17.230469 35.09375 17.074219 35.09375 16.917969 L 35.09375 14.09375 C 35.09375 13.570312 34.675781 13.203125 34.203125 13.203125 L 31.066406 13.203125 L 31.066406 12.992188 C 31.066406 11.84375 30.125 10.953125 29.027344 10.953125 L 27.980469 10.953125 C 26.828125 10.953125 25.941406 11.894531 25.941406 12.992188 L 25.941406 13.203125 L 22.800781 13.203125 C 22.28125 13.203125 21.914062 13.621094 21.914062 14.09375 L 21.914062 16.917969 C 21.914062 17.074219 22.019531 17.230469 22.121094 17.335938 L 22.121094 22.304688 C 22.121094 22.828125 22.539062 23.191406 23.011719 23.191406 L 34.046875 23.191406 C 34.464844 23.246094 34.882812 22.828125 34.882812 22.355469 Z M 26.933594 12.992188 C 26.933594 12.417969 27.40625 12 27.929688 12 L 28.972656 12 C 29.550781 12 29.96875 12.472656 29.96875 12.992188 L 29.96875 13.203125 L 26.933594 13.203125 Z M 22.855469 14.25 C 26.882812 14.25 29.96875 14.25 34.046875 14.25 L 34.046875 16.550781 L 29.914062 18.121094 L 29.914062 17.804688 C 29.914062 17.492188 29.707031 17.28125 29.390625 17.28125 L 27.507812 17.28125 C 27.195312 17.28125 26.988281 17.492188 26.988281 17.804688 L 26.988281 18.121094 L 22.855469 16.550781 Z M 28.871094 19.585938 L 28.03125 19.585938 L 28.03125 18.277344 L 28.871094 18.277344 C 28.871094 18.484375 28.871094 18.851562 28.871094 19.585938 Z M 23.0625 22.199219 L 23.0625 17.753906 L 26.988281 19.21875 L 26.988281 20.105469 C 26.988281 20.421875 27.195312 20.628906 27.507812 20.628906 L 29.390625 20.628906 C 29.707031 20.628906 29.914062 20.421875 29.914062 20.105469 L 29.914062 19.21875 L 33.839844 17.753906 L 33.839844 22.199219 Z M 23.0625 22.199219 " fill-opacity="1" fill-rule="nonzero"/><g clip-path="url(#e7c7489018)"><path fill="#2f72f1" d="M 27.824219 41.394531 L 26.621094 41.394531 L 26.621094 29.417969 C 26.621094 29.101562 26.410156 28.894531 26.097656 28.894531 L 23.324219 28.894531 C 23.011719 28.894531 22.800781 29.101562 22.800781 29.417969 L 22.800781 41.394531 L 21.546875 41.394531 L 21.546875 32.660156 C 21.546875 32.347656 21.335938 32.136719 21.023438 32.136719 L 18.253906 32.136719 C 17.9375 32.136719 17.730469 32.347656 17.730469 32.660156 L 17.730469 41.394531 L 16.472656 41.394531 L 16.472656 35.222656 C 16.472656 34.910156 16.265625 34.699219 15.949219 34.699219 L 13.441406 34.699219 C 13.125 34.699219 12.917969 34.910156 12.917969 35.222656 L 12.917969 41.394531 L 10.929688 41.394531 L 10.929688 21.78125 L 12.8125 24.03125 C 13.023438 24.238281 13.335938 24.292969 13.542969 24.082031 C 13.753906 23.871094 13.804688 23.558594 13.597656 23.351562 L 10.773438 20.003906 C 10.667969 19.898438 10.5625 19.84375 10.40625 19.84375 C 10.25 19.84375 10.09375 19.898438 10.039062 20.003906 L 7.214844 23.351562 C 7.007812 23.613281 7.007812 23.925781 7.269531 24.132812 C 7.476562 24.34375 7.84375 24.292969 8 24.082031 L 9.882812 21.832031 L 9.882812 41.917969 C 9.882812 42.230469 10.09375 42.441406 10.40625 42.441406 C 12.601562 42.441406 25.261719 42.441406 27.824219 42.441406 C 28.136719 42.441406 28.347656 42.230469 28.347656 41.917969 C 28.347656 41.601562 28.085938 41.394531 27.824219 41.394531 Z M 14.015625 41.394531 L 14.015625 35.746094 L 15.480469 35.746094 L 15.480469 41.394531 Z M 18.828125 41.394531 L 18.828125 33.183594 L 20.554688 33.183594 L 20.554688 41.394531 Z M 23.847656 41.394531 L 23.847656 29.941406 L 25.574219 29.941406 L 25.574219 41.394531 Z M 23.847656 41.394531 " fill-opacity="1" fill-rule="nonzero"/></g></svg>