<svg xmlns="http://www.w3.org/2000/svg" xmlns:xlink="http://www.w3.org/1999/xlink" width="66" zoomAndPan="magnify" viewBox="0 0 49.5 49.499998" height="66" preserveAspectRatio="xMidYMid meet" version="1.0"><defs><g/><clipPath id="ab7b930e60"><path d="M 0.46875 1.246094 L 48.527344 1.246094 L 48.527344 47.746094 L 0.46875 47.746094 Z M 0.46875 1.246094 " clip-rule="nonzero"/></clipPath><clipPath id="285cb48b5d"><path d="M 40.542969 1.332031 C 44.910156 1.332031 48.441406 4.871094 48.441406 9.230469 L 48.441406 39.765625 C 48.441406 44.132812 44.902344 47.660156 40.542969 47.660156 L 8.449219 47.660156 C 4.085938 47.660156 0.554688 44.121094 0.554688 39.765625 L 0.554688 9.230469 C 0.554688 4.863281 4.09375 1.332031 8.449219 1.332031 Z M 40.542969 1.332031 " clip-rule="nonzero"/></clipPath><clipPath id="f61b55b36b"><path d="M 0 0.773438 L 49 0.773438 L 49 48.222656 L 0 48.222656 Z M 0 0.773438 " clip-rule="nonzero"/></clipPath><clipPath id="0587225d07"><path d="M 49 9.230469 L 49 39.765625 C 49 44.425781 45.203125 48.222656 40.542969 48.222656 L 8.449219 48.222656 C 3.789062 48.222656 -0.00390625 44.425781 -0.00390625 39.765625 L -0.00390625 9.230469 C -0.00390625 4.570312 3.789062 0.773438 8.449219 0.773438 L 40.535156 0.773438 C 45.203125 0.773438 49 4.570312 49 9.230469 Z M 1.113281 39.765625 C 1.113281 43.808594 4.40625 47.101562 8.449219 47.101562 L 40.535156 47.101562 C 44.578125 47.101562 47.871094 43.808594 47.871094 39.765625 L 47.871094 9.230469 C 47.871094 5.1875 44.578125 1.894531 40.535156 1.894531 L 8.449219 1.894531 C 4.40625 1.894531 1.113281 5.1875 1.113281 9.230469 Z M 1.113281 39.765625 " clip-rule="nonzero"/></clipPath><clipPath id="a56239549e"><path d="M 5.648438 13.445312 L 43.34375 13.445312 L 43.34375 35.519531 L 5.648438 35.519531 Z M 5.648438 13.445312 " clip-rule="nonzero"/></clipPath><clipPath id="d974a0e0d2"><path d="M 6 13.378906 L 13 13.378906 L 13 23 L 6 23 Z M 6 13.378906 " clip-rule="nonzero"/></clipPath></defs><g clip-path="url(#ab7b930e60)"><g clip-path="url(#285cb48b5d)"><path fill="#ffffff" d="M -0.00390625 48.222656 L -0.00390625 0.773438 L 49 0.773438 L 49 48.222656 Z M -0.00390625 48.222656 " fill-opacity="1" fill-rule="nonzero"/></g></g><g clip-path="url(#f61b55b36b)"><g clip-path="url(#0587225d07)"><path fill="#edf4ff" d="M -0.00390625 48.222656 L -0.00390625 0.773438 L 49 0.773438 L 49 48.222656 Z M -0.00390625 48.222656 " fill-opacity="1" fill-rule="nonzero"/></g></g><g clip-path="url(#a56239549e)"><path fill="#2f72f1" d="M 22.648438 31.511719 C 23.273438 31.539062 23.757812 32.0625 23.730469 32.683594 C 23.71875 33 23.574219 33.296875 23.328125 33.503906 L 22.082031 34.53125 C 21.597656 34.925781 20.886719 34.847656 20.496094 34.363281 C 20.109375 33.886719 20.175781 33.1875 20.644531 32.792969 L 21.894531 31.761719 C 22.078125 31.613281 22.300781 31.527344 22.535156 31.515625 C 22.578125 31.511719 22.613281 31.511719 22.648438 31.511719 Z M 20.308594 29.5625 C 20.933594 29.527344 21.464844 30.003906 21.5 30.625 C 21.519531 30.980469 21.367188 31.328125 21.09375 31.554688 L 19.210938 33.109375 C 18.730469 33.507812 18.015625 33.4375 17.621094 32.960938 C 17.222656 32.476562 17.292969 31.765625 17.773438 31.371094 L 19.65625 29.8125 C 19.84375 29.664062 20.070312 29.574219 20.308594 29.5625 Z M 18.414062 27.332031 C 19.039062 27.304688 19.566406 27.78125 19.601562 28.402344 C 19.617188 28.761719 19.464844 29.105469 19.1875 29.332031 L 16.78125 31.320312 C 16.296875 31.714844 15.585938 31.640625 15.191406 31.15625 C 14.804688 30.675781 14.871094 29.976562 15.34375 29.578125 L 17.753906 27.589844 C 17.941406 27.4375 18.171875 27.347656 18.414062 27.332031 Z M 15.339844 26.070312 C 15.375 26.070312 15.417969 26.070312 15.453125 26.070312 C 16.074219 26.097656 16.5625 26.625 16.535156 27.246094 C 16.519531 27.5625 16.375 27.863281 16.128906 28.066406 L 14.796875 29.164062 C 14.300781 29.546875 13.59375 29.457031 13.214844 28.960938 C 12.847656 28.492188 12.914062 27.816406 13.359375 27.421875 L 14.695312 26.320312 C 14.878906 26.171875 15.105469 26.085938 15.34375 26.070312 Z M 22.902344 18.308594 C 23.238281 18.308594 23.578125 18.332031 23.914062 18.378906 C 23.078125 18.898438 22.191406 19.328125 21.265625 19.660156 C 20.679688 19.871094 20.375 20.519531 20.589844 21.105469 C 20.710938 21.449219 20.988281 21.710938 21.339844 21.808594 C 23.066406 22.296875 24.910156 22.132812 26.523438 21.355469 L 33.835938 27.292969 C 34.289062 27.671875 34.347656 28.347656 33.972656 28.800781 C 33.617188 29.222656 32.992188 29.308594 32.539062 28.992188 L 27.070312 25.058594 C 26.914062 24.957031 26.707031 24.992188 26.601562 25.144531 C 26.496094 25.289062 26.53125 25.496094 26.675781 25.605469 L 31.960938 29.398438 C 32.453125 29.777344 32.550781 30.484375 32.171875 30.980469 C 31.808594 31.457031 31.136719 31.566406 30.640625 31.234375 L 25.652344 27.652344 C 25.503906 27.542969 25.292969 27.578125 25.1875 27.726562 C 25.082031 27.878906 25.117188 28.085938 25.265625 28.191406 L 29.667969 31.355469 C 30.183594 31.703125 30.316406 32.40625 29.964844 32.921875 C 29.617188 33.4375 28.914062 33.574219 28.398438 33.222656 C 28.382812 33.210938 28.363281 33.199219 28.347656 33.1875 L 24.210938 30.214844 C 24.054688 30.113281 23.84375 30.160156 23.75 30.320312 C 23.65625 30.460938 23.683594 30.648438 23.820312 30.757812 L 26.984375 33.035156 C 27.421875 33.371094 27.503906 34 27.164062 34.4375 C 26.84375 34.855469 26.253906 34.953125 25.816406 34.660156 L 24.195312 33.496094 C 24.667969 32.621094 24.347656 31.53125 23.476562 31.054688 C 23.074219 30.835938 22.605469 30.777344 22.164062 30.890625 C 22.277344 29.90625 21.574219 29.011719 20.585938 28.898438 C 20.464844 28.882812 20.339844 28.882812 20.21875 28.894531 C 20.457031 27.929688 19.871094 26.953125 18.90625 26.714844 C 18.355469 26.578125 17.769531 26.710938 17.328125 27.074219 L 17.207031 27.175781 C 17.199219 26.179688 16.382812 25.382812 15.390625 25.398438 C 14.980469 25.402344 14.582031 25.546875 14.269531 25.804688 L 13.117188 26.757812 L 12.066406 25.988281 L 16.445312 18.78125 C 17.886719 18.8125 19.328125 18.765625 20.761719 18.636719 C 21.457031 18.421875 22.179688 18.308594 22.902344 18.308594 Z M 26.222656 18.171875 C 26.445312 18.179688 26.671875 18.222656 26.886719 18.300781 L 30.160156 19.46875 L 32.65625 18.554688 L 36.828125 25.242188 L 34.65625 27.234375 C 34.554688 27.054688 34.417969 26.902344 34.257812 26.769531 L 26.605469 20.554688 C 25.058594 21.429688 23.230469 21.648438 21.523438 21.164062 C 21.277344 21.097656 21.136719 20.84375 21.203125 20.597656 C 21.246094 20.453125 21.351562 20.339844 21.492188 20.289062 C 22.675781 19.863281 23.800781 19.285156 24.84375 18.570312 C 25.246094 18.292969 25.730469 18.152344 26.222656 18.171875 Z M 36.476562 14.519531 L 42.421875 24.042969 L 38.429688 26.539062 L 32.476562 17.011719 Z M 12.835938 14.363281 L 16.859375 16.804688 L 10.582031 27.140625 L 6.558594 24.691406 Z M 12.613281 13.445312 L 5.648438 24.917969 L 10.816406 28.054688 L 11.722656 26.558594 L 12.636719 27.230469 C 12.050781 28.027344 12.222656 29.152344 13.023438 29.742188 C 13.394531 30.015625 13.851562 30.132812 14.3125 30.078125 C 14.105469 31.046875 14.726562 32.003906 15.699219 32.207031 C 16.03125 32.28125 16.382812 32.253906 16.707031 32.132812 C 16.644531 33.125 17.402344 33.972656 18.390625 34.03125 C 18.816406 34.058594 19.234375 33.933594 19.574219 33.679688 C 19.585938 34.671875 20.398438 35.46875 21.386719 35.460938 C 21.800781 35.457031 22.199219 35.308594 22.515625 35.046875 L 23.769531 34.019531 C 23.769531 34.015625 23.769531 34.015625 23.769531 34.011719 L 25.425781 35.207031 C 26.175781 35.746094 27.21875 35.574219 27.757812 34.824219 C 27.96875 34.53125 28.078125 34.171875 28.070312 33.808594 C 28.921875 34.320312 30.023438 34.050781 30.539062 33.203125 C 30.753906 32.855469 30.839844 32.445312 30.789062 32.039062 C 31.738281 32.324219 32.738281 31.777344 33.023438 30.828125 C 33.117188 30.511719 33.121094 30.175781 33.039062 29.855469 C 33.996094 29.925781 34.828125 29.203125 34.898438 28.246094 C 34.90625 28.140625 34.90625 28.03125 34.890625 27.925781 L 37.1875 25.816406 L 38.214844 27.460938 L 43.34375 24.257812 L 36.6875 13.597656 L 31.558594 16.800781 L 32.292969 17.976562 L 30.152344 18.761719 L 27.109375 17.671875 C 26.328125 17.390625 25.464844 17.457031 24.738281 17.851562 C 23.382812 17.53125 21.96875 17.574219 20.632812 17.976562 C 19.375 18.085938 18.109375 18.132812 16.847656 18.117188 L 17.78125 16.585938 L 12.613281 13.445312 " fill-opacity="1" fill-rule="nonzero"/></g><g clip-path="url(#d974a0e0d2)"><path fill="#2f72f1" d="M 6.898438 22.847656 L 12.613281 13.445312 " fill-opacity="1" fill-rule="nonzero"/></g><g fill="#2f72f1" fill-opacity="1"><g transform="translate(9.675302, 25.36797)"><g><path d="M -1.765625 -1.125 L -1.328125 -1.875 C -1.171875 -2.125 -1.015625 -2.289062 -0.859375 -2.375 C -0.710938 -2.46875 -0.539062 -2.457031 -0.34375 -2.34375 C -0.132812 -2.207031 -0.0351562 -2.039062 -0.046875 -1.84375 C -0.0546875 -1.644531 -0.140625 -1.414062 -0.296875 -1.15625 L -0.3125 -1.140625 L 0.375 -0.734375 L 0.578125 -1.0625 L 0.625 -1.03125 L 0.03125 -0.046875 L -0.015625 -0.078125 L 0.078125 -0.234375 L -1.625 -1.265625 L -1.71875 -1.109375 Z M -1.328125 -1.765625 L -0.375 -1.171875 L -0.34375 -1.234375 C -0.28125 -1.328125 -0.265625 -1.414062 -0.296875 -1.5 C -0.335938 -1.582031 -0.441406 -1.675781 -0.609375 -1.78125 L -0.71875 -1.84375 C -0.875 -1.9375 -0.988281 -1.984375 -1.0625 -1.984375 C -1.144531 -1.984375 -1.21875 -1.9375 -1.28125 -1.84375 Z M -1.328125 -1.765625 "/></g></g></g><g fill="#2f72f1" fill-opacity="1"><g transform="translate(10.66034, 23.735592)"><g><path d="M -0.21875 -1 L -0.171875 -1.078125 L -0.359375 -1.203125 C -0.523438 -1.296875 -0.640625 -1.351562 -0.703125 -1.375 C -0.773438 -1.394531 -0.828125 -1.378906 -0.859375 -1.328125 C -0.878906 -1.285156 -0.882812 -1.25 -0.875 -1.21875 C -0.875 -1.1875 -0.859375 -1.160156 -0.828125 -1.140625 C -0.804688 -1.128906 -0.773438 -1.117188 -0.734375 -1.109375 L -0.703125 -1.171875 C -0.660156 -1.160156 -0.613281 -1.140625 -0.5625 -1.109375 C -0.507812 -1.078125 -0.476562 -1.03125 -0.46875 -0.96875 C -0.457031 -0.90625 -0.472656 -0.835938 -0.515625 -0.765625 C -0.597656 -0.628906 -0.710938 -0.601562 -0.859375 -0.6875 C -1.066406 -0.8125 -1.066406 -1.050781 -0.859375 -1.40625 C -0.734375 -1.613281 -0.613281 -1.734375 -0.5 -1.765625 C -0.382812 -1.796875 -0.234375 -1.753906 -0.046875 -1.640625 L 0.484375 -1.328125 C 0.566406 -1.273438 0.625 -1.273438 0.65625 -1.328125 C 0.6875 -1.378906 0.617188 -1.46875 0.453125 -1.59375 L 0.46875 -1.625 C 0.625 -1.539062 0.71875 -1.453125 0.75 -1.359375 C 0.78125 -1.273438 0.757812 -1.175781 0.6875 -1.0625 C 0.5625 -0.863281 0.425781 -0.78125 0.28125 -0.8125 C 0.332031 -0.769531 0.359375 -0.710938 0.359375 -0.640625 C 0.367188 -0.578125 0.347656 -0.5 0.296875 -0.40625 C 0.140625 -0.15625 -0.0390625 -0.09375 -0.25 -0.21875 C -0.375 -0.289062 -0.429688 -0.390625 -0.421875 -0.515625 C -0.410156 -0.640625 -0.34375 -0.800781 -0.21875 -1 Z M 0.03125 -0.703125 C 0.125 -0.648438 0.1875 -0.617188 0.21875 -0.609375 C 0.25 -0.609375 0.269531 -0.617188 0.28125 -0.640625 C 0.300781 -0.671875 0.296875 -0.710938 0.265625 -0.765625 C 0.234375 -0.816406 0.179688 -0.863281 0.109375 -0.90625 L -0.125 -1.0625 L -0.140625 -1.046875 C -0.203125 -0.929688 -0.15625 -0.828125 0 -0.734375 Z M 0.03125 -0.703125 "/></g></g></g><g fill="#2f72f1" fill-opacity="1"><g transform="translate(11.513315, 22.322066)"><g><path d="M -0.625 -1.578125 C -0.664062 -1.515625 -0.65625 -1.429688 -0.59375 -1.328125 C -0.539062 -1.234375 -0.457031 -1.148438 -0.34375 -1.078125 L 0.34375 -0.671875 L 0.453125 -0.859375 L 0.5 -0.828125 L 0.015625 -0.03125 L -0.03125 -0.0625 L 0.046875 -0.1875 L -1.078125 -0.859375 L -1.15625 -0.734375 L -1.203125 -0.765625 L -0.828125 -1.375 L -0.59375 -1.234375 C -0.664062 -1.316406 -0.703125 -1.398438 -0.703125 -1.484375 C -0.710938 -1.578125 -0.691406 -1.660156 -0.640625 -1.734375 C -0.597656 -1.816406 -0.535156 -1.867188 -0.453125 -1.890625 C -0.378906 -1.910156 -0.300781 -1.894531 -0.21875 -1.84375 C -0.144531 -1.800781 -0.0976562 -1.75 -0.078125 -1.6875 C -0.0546875 -1.625 -0.0664062 -1.550781 -0.109375 -1.46875 C -0.160156 -1.382812 -0.222656 -1.335938 -0.296875 -1.328125 C -0.367188 -1.328125 -0.4375 -1.367188 -0.5 -1.453125 L -0.453125 -1.546875 C -0.515625 -1.640625 -0.570312 -1.648438 -0.625 -1.578125 Z M -0.625 -1.578125 "/></g></g></g><g fill="#2f72f1" fill-opacity="1"><g transform="translate(12.282392, 21.047574)"><g><path d="M 0.453125 -0.6875 C 0.316406 -0.46875 0.160156 -0.335938 -0.015625 -0.296875 C -0.203125 -0.253906 -0.394531 -0.296875 -0.59375 -0.421875 C -0.789062 -0.546875 -0.90625 -0.703125 -0.9375 -0.890625 C -0.976562 -1.078125 -0.941406 -1.265625 -0.828125 -1.453125 C -0.585938 -1.835938 -0.28125 -1.90625 0.09375 -1.65625 L -0.34375 -0.9375 L -0.234375 -0.875 C -0.0664062 -0.769531 0.0703125 -0.710938 0.1875 -0.703125 C 0.300781 -0.703125 0.390625 -0.75 0.453125 -0.84375 C 0.566406 -1.050781 0.535156 -1.25 0.359375 -1.4375 L 0.40625 -1.46875 C 0.5 -1.363281 0.554688 -1.25 0.578125 -1.125 C 0.597656 -1 0.554688 -0.851562 0.453125 -0.6875 Z M -0.375 -0.953125 L -0.21875 -1.21875 L -0.359375 -1.3125 C -0.492188 -1.382812 -0.59375 -1.425781 -0.65625 -1.4375 C -0.71875 -1.457031 -0.765625 -1.441406 -0.796875 -1.390625 C -0.828125 -1.347656 -0.820312 -1.296875 -0.78125 -1.234375 C -0.738281 -1.179688 -0.648438 -1.117188 -0.515625 -1.046875 Z M -0.375 -0.953125 "/></g></g></g><g fill="#2f72f1" fill-opacity="1"><g transform="translate(13.084096, 19.719012)"><g><path d="M -1.203125 -0.765625 L -0.828125 -1.390625 L -0.59375 -1.25 C -0.65625 -1.332031 -0.691406 -1.410156 -0.703125 -1.484375 C -0.722656 -1.566406 -0.695312 -1.664062 -0.625 -1.78125 C -0.46875 -2.050781 -0.242188 -2.101562 0.046875 -1.9375 L 0.8125 -1.46875 L 0.90625 -1.609375 L 0.953125 -1.578125 L 0.515625 -0.84375 L 0.46875 -0.875 L 0.53125 -0.984375 L -0.3125 -1.484375 C -0.40625 -1.546875 -0.472656 -1.578125 -0.515625 -1.578125 C -0.554688 -1.578125 -0.585938 -1.5625 -0.609375 -1.53125 C -0.640625 -1.476562 -0.628906 -1.410156 -0.578125 -1.328125 C -0.535156 -1.242188 -0.460938 -1.171875 -0.359375 -1.109375 L 0.34375 -0.6875 L 0.40625 -0.796875 L 0.453125 -0.765625 L 0.015625 -0.03125 L -0.03125 -0.0625 L 0.0625 -0.203125 L -1.0625 -0.875 L -1.15625 -0.734375 Z M -1.203125 -0.765625 "/></g></g></g><g fill="#2f72f1" fill-opacity="1"><g transform="translate(14.041169, 18.132977)"><g><path d="M -0.265625 -0.375 L -1.078125 -0.859375 L -1.15625 -0.71875 L -1.203125 -0.75 L -1.125 -0.890625 L -1.453125 -1.09375 L -1.296875 -1.640625 L -0.84375 -1.359375 L -0.640625 -1.703125 L -0.59375 -1.671875 L -0.796875 -1.328125 L 0.0625 -0.8125 C 0.144531 -0.757812 0.207031 -0.734375 0.25 -0.734375 C 0.300781 -0.734375 0.34375 -0.753906 0.375 -0.796875 C 0.40625 -0.847656 0.40625 -0.910156 0.375 -0.984375 C 0.351562 -1.054688 0.300781 -1.125 0.21875 -1.1875 L 0.25 -1.234375 C 0.351562 -1.140625 0.421875 -1.039062 0.453125 -0.9375 C 0.492188 -0.832031 0.46875 -0.707031 0.375 -0.5625 C 0.289062 -0.425781 0.195312 -0.335938 0.09375 -0.296875 C 0 -0.265625 -0.117188 -0.289062 -0.265625 -0.375 Z M -0.265625 -0.375 "/></g></g></g><g fill="#2f72f1" fill-opacity="1"><g transform="translate(34.058758, 16.608384)"><g><path d="M 2.453125 0.40625 L 1.90625 0.796875 L 1.875 0.734375 C 2.03125 0.546875 2.128906 0.40625 2.171875 0.3125 C 2.210938 0.21875 2.203125 0.125 2.140625 0.03125 L 2.125 0 L 0.671875 0.9375 L 0.796875 1.125 L 0.75 1.15625 L 0.234375 0.359375 L 0.28125 0.328125 L 0.390625 0.5 L 1.84375 -0.4375 L 1.828125 -0.453125 C 1.765625 -0.546875 1.679688 -0.59375 1.578125 -0.59375 C 1.472656 -0.601562 1.300781 -0.578125 1.0625 -0.515625 L 1.03125 -0.5625 L 1.609375 -0.890625 Z M 2.453125 0.40625 "/></g></g></g><g fill="#2f72f1" fill-opacity="1"><g transform="translate(35.025419, 18.112081)"><g><path d="M 0.359375 0.625 C 0.234375 0.425781 0.191406 0.25 0.234375 0.09375 C 0.285156 -0.0507812 0.394531 -0.175781 0.5625 -0.28125 C 0.726562 -0.394531 0.894531 -0.429688 1.0625 -0.390625 C 1.226562 -0.347656 1.363281 -0.242188 1.46875 -0.078125 C 1.675781 0.253906 1.601562 0.519531 1.25 0.71875 L 0.859375 0.09375 L 0.78125 0.140625 C 0.632812 0.234375 0.535156 0.320312 0.484375 0.40625 C 0.429688 0.488281 0.4375 0.578125 0.5 0.671875 C 0.601562 0.835938 0.765625 0.890625 0.984375 0.828125 L 1 0.875 C 0.882812 0.914062 0.769531 0.914062 0.65625 0.875 C 0.550781 0.84375 0.453125 0.757812 0.359375 0.625 Z M 0.921875 0.0625 L 1.0625 0.296875 L 1.15625 0.21875 C 1.28125 0.144531 1.359375 0.0859375 1.390625 0.046875 C 1.421875 0.00390625 1.425781 -0.03125 1.40625 -0.0625 C 1.382812 -0.101562 1.34375 -0.125 1.28125 -0.125 C 1.21875 -0.125 1.128906 -0.0859375 1.015625 -0.015625 Z M 0.921875 0.0625 "/></g></g></g><g fill="#2f72f1" fill-opacity="1"><g transform="translate(35.755722, 19.248111)"><g><path d="M 0.875 0.21875 L 0.90625 0.296875 L 1.078125 0.1875 C 1.210938 0.09375 1.296875 0.0195312 1.328125 -0.03125 C 1.367188 -0.0820312 1.378906 -0.128906 1.359375 -0.171875 C 1.335938 -0.203125 1.3125 -0.222656 1.28125 -0.234375 C 1.257812 -0.242188 1.238281 -0.238281 1.21875 -0.21875 C 1.195312 -0.207031 1.175781 -0.191406 1.15625 -0.171875 L 1.1875 -0.109375 C 1.164062 -0.078125 1.128906 -0.046875 1.078125 -0.015625 C 1.035156 0.015625 0.988281 0.0195312 0.9375 0 C 0.894531 -0.0078125 0.851562 -0.0390625 0.8125 -0.09375 C 0.726562 -0.21875 0.742188 -0.320312 0.859375 -0.40625 C 1.046875 -0.519531 1.238281 -0.425781 1.4375 -0.125 C 1.550781 0.0507812 1.597656 0.191406 1.578125 0.296875 C 1.554688 0.398438 1.46875 0.503906 1.3125 0.609375 L 0.859375 0.890625 C 0.785156 0.941406 0.765625 0.988281 0.796875 1.03125 C 0.828125 1.082031 0.921875 1.066406 1.078125 0.984375 L 1.09375 1 C 0.96875 1.082031 0.863281 1.117188 0.78125 1.109375 C 0.695312 1.097656 0.625 1.046875 0.5625 0.953125 C 0.457031 0.773438 0.453125 0.632812 0.546875 0.53125 C 0.460938 0.550781 0.394531 0.550781 0.34375 0.53125 C 0.300781 0.507812 0.253906 0.460938 0.203125 0.390625 C 0.0664062 0.171875 0.09375 0.00390625 0.28125 -0.109375 C 0.382812 -0.179688 0.476562 -0.1875 0.5625 -0.125 C 0.65625 -0.0625 0.757812 0.0507812 0.875 0.21875 Z M 0.546875 0.296875 C 0.460938 0.347656 0.410156 0.382812 0.390625 0.40625 C 0.378906 0.425781 0.378906 0.445312 0.390625 0.46875 C 0.410156 0.488281 0.445312 0.5 0.5 0.5 C 0.550781 0.5 0.609375 0.484375 0.671875 0.453125 L 0.875 0.3125 L 0.875 0.296875 C 0.8125 0.191406 0.71875 0.179688 0.59375 0.265625 Z M 0.546875 0.296875 "/></g></g></g><g fill="#2f72f1" fill-opacity="1"><g transform="translate(36.53273, 20.456792)"><g><path d="M 1.4375 -0.03125 C 1.394531 -0.101562 1.328125 -0.128906 1.234375 -0.109375 C 1.148438 -0.0859375 1.03125 -0.0234375 0.875 0.078125 L 0.75 0.15625 C 0.601562 0.25 0.507812 0.332031 0.46875 0.40625 C 0.425781 0.476562 0.429688 0.554688 0.484375 0.640625 C 0.546875 0.734375 0.617188 0.785156 0.703125 0.796875 C 0.796875 0.816406 0.890625 0.8125 0.984375 0.78125 L 1.015625 0.8125 C 0.859375 0.863281 0.726562 0.867188 0.625 0.828125 C 0.507812 0.796875 0.410156 0.710938 0.328125 0.578125 C 0.210938 0.398438 0.175781 0.238281 0.21875 0.09375 C 0.257812 -0.0390625 0.367188 -0.164062 0.546875 -0.28125 C 0.722656 -0.394531 0.890625 -0.429688 1.046875 -0.390625 C 1.210938 -0.359375 1.351562 -0.25 1.46875 -0.0625 C 1.5625 0.0625 1.601562 0.175781 1.59375 0.28125 C 1.582031 0.382812 1.539062 0.457031 1.46875 0.5 C 1.394531 0.550781 1.328125 0.570312 1.265625 0.5625 C 1.210938 0.5625 1.164062 0.53125 1.125 0.46875 C 1.09375 0.40625 1.078125 0.34375 1.078125 0.28125 C 1.085938 0.226562 1.117188 0.1875 1.171875 0.15625 C 1.191406 0.132812 1.226562 0.117188 1.28125 0.109375 L 1.328125 0.1875 C 1.359375 0.175781 1.390625 0.164062 1.421875 0.15625 C 1.484375 0.101562 1.488281 0.0390625 1.4375 -0.03125 Z M 1.4375 -0.03125 "/></g></g></g><g fill="#2f72f1" fill-opacity="1"><g transform="translate(37.216327, 21.520166)"><g><path d="M 1.671875 -1.03125 L 2.015625 -0.515625 L 1.21875 0 C 1.289062 -0.0078125 1.363281 -0.00390625 1.4375 0.015625 C 1.507812 0.0351562 1.578125 0.09375 1.640625 0.1875 C 1.785156 0.414062 1.734375 0.609375 1.484375 0.765625 L 0.828125 1.1875 L 0.921875 1.328125 L 0.875 1.359375 L 0.46875 0.71875 L 0.515625 0.6875 L 0.578125 0.78125 L 1.296875 0.328125 C 1.378906 0.265625 1.425781 0.21875 1.4375 0.1875 C 1.457031 0.164062 1.457031 0.140625 1.4375 0.109375 C 1.40625 0.0546875 1.347656 0.03125 1.265625 0.03125 C 1.179688 0.0390625 1.09375 0.078125 1 0.140625 L 0.40625 0.515625 L 0.453125 0.609375 L 0.40625 0.640625 L 0.015625 0.03125 L 0.0625 0 L 0.140625 0.109375 L 1.703125 -0.90625 L 1.625 -1.015625 Z M 1.671875 -1.03125 "/></g></g></g><g fill="#2f72f1" fill-opacity="1"><g transform="translate(38.088162, 22.876357)"><g><path d="M 0.359375 0.625 C 0.234375 0.425781 0.191406 0.25 0.234375 0.09375 C 0.285156 -0.0507812 0.394531 -0.175781 0.5625 -0.28125 C 0.726562 -0.394531 0.894531 -0.429688 1.0625 -0.390625 C 1.226562 -0.347656 1.363281 -0.242188 1.46875 -0.078125 C 1.675781 0.253906 1.601562 0.519531 1.25 0.71875 L 0.859375 0.09375 L 0.78125 0.140625 C 0.632812 0.234375 0.535156 0.320312 0.484375 0.40625 C 0.429688 0.488281 0.4375 0.578125 0.5 0.671875 C 0.601562 0.835938 0.765625 0.890625 0.984375 0.828125 L 1 0.875 C 0.882812 0.914062 0.769531 0.914062 0.65625 0.875 C 0.550781 0.84375 0.453125 0.757812 0.359375 0.625 Z M 0.921875 0.0625 L 1.0625 0.296875 L 1.15625 0.21875 C 1.28125 0.144531 1.359375 0.0859375 1.390625 0.046875 C 1.421875 0.00390625 1.425781 -0.03125 1.40625 -0.0625 C 1.382812 -0.101562 1.34375 -0.125 1.28125 -0.125 C 1.21875 -0.125 1.128906 -0.0859375 1.015625 -0.015625 Z M 0.921875 0.0625 "/></g></g></g><g fill="#2f72f1" fill-opacity="1"><g transform="translate(38.818465, 24.012386)"><g><path d="M 1.46875 0.125 C 1.4375 0.0703125 1.375 0.046875 1.28125 0.046875 C 1.1875 0.046875 1.085938 0.078125 0.984375 0.140625 L 0.40625 0.515625 L 0.5 0.671875 L 0.453125 0.703125 L 0.015625 0.03125 L 0.0625 0 L 0.140625 0.109375 L 1.109375 -0.515625 L 1.03125 -0.625 L 1.0625 -0.640625 L 1.40625 -0.125 L 1.203125 0 C 1.285156 -0.0195312 1.363281 -0.015625 1.4375 0.015625 C 1.519531 0.046875 1.582031 0.09375 1.625 0.15625 C 1.664062 0.226562 1.675781 0.296875 1.65625 0.359375 C 1.644531 0.429688 1.601562 0.488281 1.53125 0.53125 C 1.457031 0.582031 1.394531 0.601562 1.34375 0.59375 C 1.289062 0.582031 1.238281 0.539062 1.1875 0.46875 C 1.144531 0.40625 1.140625 0.347656 1.171875 0.296875 C 1.203125 0.242188 1.257812 0.195312 1.34375 0.15625 L 1.390625 0.234375 C 1.492188 0.234375 1.519531 0.195312 1.46875 0.125 Z M 1.46875 0.125 "/></g></g></g></svg>