<svg xmlns="http://www.w3.org/2000/svg" xmlns:xlink="http://www.w3.org/1999/xlink" width="66" zoomAndPan="magnify" viewBox="0 0 49.5 49.499998" height="66" preserveAspectRatio="xMidYMid meet" version="1.0"><defs><clipPath id="e9a0459ec8"><path d="M 0.46875 1.285156 L 48.527344 1.285156 L 48.527344 47.78125 L 0.46875 47.78125 Z M 0.46875 1.285156 " clip-rule="nonzero"/></clipPath><clipPath id="3f78540040"><path d="M 40.542969 1.367188 C 44.910156 1.367188 48.441406 4.910156 48.441406 9.265625 L 48.441406 39.800781 C 48.441406 44.167969 44.902344 47.699219 40.542969 47.699219 L 8.449219 47.699219 C 4.085938 47.699219 0.554688 44.15625 0.554688 39.800781 L 0.554688 9.265625 C 0.554688 4.898438 4.09375 1.367188 8.449219 1.367188 Z M 40.542969 1.367188 " clip-rule="nonzero"/></clipPath><clipPath id="46e8830d83"><path d="M 0 0.808594 L 49 0.808594 L 49 48.257812 L 0 48.257812 Z M 0 0.808594 " clip-rule="nonzero"/></clipPath><clipPath id="4b84535dd1"><path d="M 49 9.265625 L 49 39.800781 C 49 44.460938 45.203125 48.257812 40.542969 48.257812 L 8.449219 48.257812 C 3.789062 48.257812 -0.00390625 44.460938 -0.00390625 39.800781 L -0.00390625 9.265625 C -0.00390625 4.605469 3.789062 0.808594 8.449219 0.808594 L 40.535156 0.808594 C 45.203125 0.808594 49 4.605469 49 9.265625 Z M 1.113281 39.800781 C 1.113281 43.84375 4.40625 47.136719 8.449219 47.136719 L 40.535156 47.136719 C 44.578125 47.136719 47.871094 43.84375 47.871094 39.800781 L 47.871094 9.265625 C 47.871094 5.222656 44.578125 1.929688 40.535156 1.929688 L 8.449219 1.929688 C 4.40625 1.929688 1.113281 5.222656 1.113281 9.265625 Z M 1.113281 39.800781 " clip-rule="nonzero"/></clipPath><clipPath id="b7d0f59a9c"><path d="M 6.84375 9.027344 L 42.484375 9.027344 L 42.484375 40 L 6.84375 40 Z M 6.84375 9.027344 " clip-rule="nonzero"/></clipPath><clipPath id="eb027083a8"><path d="M 13.980469 23.316406 L 22.339844 23.316406 L 22.339844 35.285156 L 13.980469 35.285156 Z M 13.980469 23.316406 " clip-rule="nonzero"/></clipPath><clipPath id="aa73df7bc3"><path d="M 13.980469 23.316406 L 23.632812 23.316406 L 23.632812 35.9375 L 13.980469 35.9375 Z M 13.980469 23.316406 " clip-rule="nonzero"/></clipPath></defs><g clip-path="url(#e9a0459ec8)"><g clip-path="url(#3f78540040)"><path fill="#ffffff" d="M -0.00390625 48.257812 L -0.00390625 0.808594 L 49 0.808594 L 49 48.257812 Z M -0.00390625 48.257812 " fill-opacity="1" fill-rule="nonzero"/></g></g><g clip-path="url(#46e8830d83)"><g clip-path="url(#4b84535dd1)"><path fill="#edf4ff" d="M -0.00390625 48.257812 L -0.00390625 0.808594 L 49 0.808594 L 49 48.257812 Z M -0.00390625 48.257812 " fill-opacity="1" fill-rule="nonzero"/></g></g><path fill="#2f72f1" d="M 15.015625 12.441406 L 26.152344 12.441406 L 26.152344 12.988281 L 15.015625 12.988281 Z M 14.875 13.277344 L 26.292969 13.277344 C 26.375 13.277344 26.4375 13.214844 26.4375 13.132812 L 26.4375 12.300781 C 26.4375 12.21875 26.375 12.15625 26.292969 12.15625 L 14.875 12.15625 C 14.792969 12.15625 14.730469 12.21875 14.730469 12.300781 L 14.730469 13.132812 C 14.730469 13.214844 14.792969 13.277344 14.875 13.277344 " fill-opacity="1" fill-rule="nonzero"/><path fill="#2f72f1" d="M 15.015625 14.761719 L 26.152344 14.761719 L 26.152344 15.308594 L 15.015625 15.308594 Z M 14.875 15.597656 L 26.292969 15.597656 C 26.375 15.597656 26.4375 15.53125 26.4375 15.453125 L 26.4375 14.617188 C 26.4375 14.539062 26.375 14.476562 26.292969 14.476562 L 14.875 14.476562 C 14.792969 14.476562 14.730469 14.539062 14.730469 14.617188 L 14.730469 15.453125 C 14.730469 15.53125 14.792969 15.597656 14.875 15.597656 " fill-opacity="1" fill-rule="nonzero"/><path fill="#2f72f1" d="M 15.015625 17.082031 L 26.152344 17.082031 L 26.152344 17.628906 L 15.015625 17.628906 Z M 14.875 17.917969 L 26.292969 17.917969 C 26.375 17.917969 26.4375 17.851562 26.4375 17.773438 L 26.4375 16.9375 C 26.4375 16.859375 26.375 16.792969 26.292969 16.792969 L 14.875 16.792969 C 14.792969 16.792969 14.730469 16.859375 14.730469 16.9375 L 14.730469 17.773438 C 14.730469 17.851562 14.792969 17.917969 14.875 17.917969 " fill-opacity="1" fill-rule="nonzero"/><path fill="#2f72f1" d="M 15.015625 19.402344 L 26.152344 19.402344 L 26.152344 19.949219 L 15.015625 19.949219 Z M 14.875 20.234375 L 26.292969 20.234375 C 26.375 20.234375 26.4375 20.171875 26.4375 20.089844 L 26.4375 19.257812 C 26.4375 19.175781 26.375 19.113281 26.292969 19.113281 L 14.875 19.113281 C 14.792969 19.113281 14.730469 19.175781 14.730469 19.257812 L 14.730469 20.089844 C 14.730469 20.171875 14.792969 20.234375 14.875 20.234375 " fill-opacity="1" fill-rule="nonzero"/><path fill="#2f72f1" d="M 26.152344 22.265625 L 15.015625 22.265625 L 15.015625 21.71875 L 26.152344 21.71875 Z M 26.4375 22.410156 L 26.4375 21.574219 C 26.4375 21.496094 26.375 21.433594 26.292969 21.433594 L 14.875 21.433594 C 14.792969 21.433594 14.730469 21.496094 14.730469 21.574219 L 14.730469 22.410156 C 14.730469 22.492188 14.792969 22.554688 14.875 22.554688 L 26.292969 22.554688 C 26.375 22.554688 26.4375 22.492188 26.4375 22.410156 " fill-opacity="1" fill-rule="nonzero"/><path fill="#2f72f1" d="M 18.046875 31.605469 C 16.222656 31.605469 14.742188 30.121094 14.742188 28.300781 C 14.742188 26.480469 16.222656 25 18.046875 25 C 19.867188 25 21.347656 26.480469 21.347656 28.300781 C 21.347656 30.121094 19.867188 31.605469 18.046875 31.605469 Z M 19.277344 34.414062 L 18.28125 33.671875 C 18.179688 33.597656 18.046875 33.597656 17.945312 33.664062 L 16.8125 34.441406 L 16.8125 31.972656 C 17.199219 32.105469 17.613281 32.179688 18.046875 32.179688 C 18.476562 32.179688 18.890625 32.105469 19.277344 31.976562 Z M 18.046875 24.421875 C 15.90625 24.421875 14.167969 26.164062 14.167969 28.300781 C 14.167969 29.785156 15.007812 31.078125 16.238281 31.730469 L 16.238281 34.984375 C 16.238281 35.09375 16.296875 35.191406 16.390625 35.242188 C 16.484375 35.289062 16.597656 35.285156 16.6875 35.222656 L 18.101562 34.253906 L 19.394531 35.21875 C 19.445312 35.253906 19.503906 35.273438 19.566406 35.273438 C 19.609375 35.273438 19.65625 35.261719 19.695312 35.242188 C 19.792969 35.195312 19.855469 35.09375 19.855469 34.984375 L 19.855469 31.730469 C 21.082031 31.078125 21.921875 29.785156 21.921875 28.300781 C 21.921875 26.164062 20.183594 24.421875 18.046875 24.421875 " fill-opacity="1" fill-rule="nonzero"/><path fill="#2f72f1" d="M 18.046875 30.367188 C 16.90625 30.367188 15.980469 29.441406 15.980469 28.300781 C 15.980469 27.164062 16.90625 26.234375 18.046875 26.234375 C 19.183594 26.234375 20.109375 27.164062 20.109375 28.300781 C 20.109375 29.441406 19.183594 30.367188 18.046875 30.367188 Z M 18.046875 25.660156 C 16.589844 25.660156 15.40625 26.84375 15.40625 28.300781 C 15.40625 29.757812 16.589844 30.941406 18.046875 30.941406 C 19.5 30.941406 20.6875 29.757812 20.6875 28.300781 C 20.6875 26.84375 19.5 25.660156 18.046875 25.660156 " fill-opacity="1" fill-rule="nonzero"/><g clip-path="url(#b7d0f59a9c)"><path fill="#2f72f1" d="M 41.171875 32.160156 C 40.621094 32.367188 38.402344 33.210938 35.65625 34.5 C 35.503906 33.648438 35.019531 31.632812 33.71875 30.503906 C 35.808594 29.480469 37.992188 28.238281 38.949219 27.550781 C 39.316406 27.660156 40.460938 28.058594 41.054688 29.097656 C 41.519531 29.910156 41.558594 30.9375 41.171875 32.160156 Z M 37.210938 35.878906 L 36.726562 36.472656 L 35.488281 35.421875 C 35.5 35.375 35.507812 35.332031 35.515625 35.292969 C 35.859375 35.464844 36.546875 35.773438 37.210938 35.878906 Z M 34.628906 37.296875 L 33.816406 36.554688 L 34.738281 35.582031 C 34.789062 35.558594 34.839844 35.53125 34.886719 35.507812 C 34.796875 35.988281 34.679688 36.691406 34.628906 37.296875 Z M 28.855469 38.179688 C 28.875 38.117188 28.898438 38.054688 28.914062 37.988281 C 29.117188 37.191406 29.046875 36.273438 28.707031 35.402344 C 28.707031 35.402344 28.707031 35.398438 28.707031 35.398438 C 28.316406 34.25 27.601562 33.390625 26.800781 33.046875 C 27.839844 32.742188 29.328125 32.292969 30.746094 31.792969 C 30.96875 31.714844 31.214844 31.617188 31.464844 31.515625 C 32.394531 32.089844 33.472656 33.230469 33.71875 35.457031 C 31.933594 36.386719 30.078125 37.457031 28.855469 38.179688 Z M 25.492188 37.625 C 25.414062 37.464844 25.347656 37.300781 25.292969 37.128906 C 24.789062 35.644531 24.6875 33.960938 25.597656 33.550781 C 25.734375 33.488281 25.886719 33.453125 26.039062 33.453125 C 26.824219 33.453125 27.652344 34.246094 28.097656 35.402344 Z M 28.355469 37.84375 C 28.191406 38.496094 27.820312 38.960938 27.316406 39.15625 C 27.148438 39.226562 26.964844 39.257812 26.777344 39.257812 C 25.800781 39.257812 24.773438 38.378906 24.277344 37.117188 C 23.980469 36.351562 23.914062 35.554688 24.089844 34.871094 C 24.175781 34.53125 24.320312 34.242188 24.503906 34.015625 C 24.1875 34.929688 24.378906 36.230469 24.746094 37.3125 C 24.855469 37.632812 24.992188 37.9375 25.15625 38.21875 C 25.199219 38.292969 25.273438 38.34375 25.355469 38.359375 C 25.371094 38.363281 25.386719 38.363281 25.40625 38.363281 C 25.472656 38.363281 25.539062 38.339844 25.589844 38.296875 L 28.296875 35.988281 C 28.480469 36.628906 28.503906 37.273438 28.355469 37.84375 Z M 23.484375 36.777344 C 23.109375 35.980469 23.058594 35.1875 23.339844 34.488281 C 23.644531 33.71875 24.351562 33.070312 25.277344 32.710938 C 25.378906 32.667969 25.492188 32.636719 25.652344 32.597656 C 25.789062 32.558594 25.988281 32.5 26.230469 32.429688 C 27.296875 32.125 29.097656 31.605469 30.480469 31.0625 C 30.570312 31.089844 30.667969 31.125 30.777344 31.167969 C 30.699219 31.199219 30.625 31.222656 30.554688 31.25 C 28.050781 32.132812 25.324219 32.867188 25.296875 32.875 C 25.25 32.886719 25.210938 32.914062 25.175781 32.945312 C 25.085938 32.964844 25 32.988281 24.917969 33.019531 C 24.238281 33.285156 23.746094 33.890625 23.53125 34.726562 C 23.335938 35.492188 23.398438 36.371094 23.703125 37.210938 C 23.628906 37.074219 23.558594 36.929688 23.484375 36.777344 Z M 22.804688 34.277344 C 22.535156 34.949219 22.519531 35.683594 22.742188 36.425781 L 12.460938 36.425781 L 12.460938 13.472656 C 12.464844 13.363281 12.617188 10.789062 11.523438 9.617188 C 11.519531 9.617188 11.519531 9.617188 11.519531 9.617188 L 29.980469 9.617188 C 30.929688 9.617188 31.214844 10.863281 31.285156 11.890625 L 31.285156 29.800781 L 29.945312 30.40625 C 29.828125 30.457031 29.757812 30.582031 29.777344 30.710938 C 29.777344 30.710938 29.78125 30.710938 29.78125 30.710938 C 28.484375 31.183594 26.941406 31.625 26.070312 31.875 C 25.824219 31.949219 25.625 32.003906 25.507812 32.042969 C 25.335938 32.082031 25.195312 32.121094 25.066406 32.175781 C 23.996094 32.59375 23.171875 33.359375 22.804688 34.277344 Z M 11.886719 13.453125 L 11.886719 15.898438 C 11.414062 16.367188 10.824219 16.648438 10.183594 16.648438 C 9.753906 16.648438 9.335938 16.523438 8.957031 16.277344 C 9.304688 16.132812 9.730469 15.886719 10.054688 15.476562 C 10.488281 14.929688 10.648438 14.242188 10.53125 13.421875 L 11.886719 13.421875 C 11.886719 13.4375 11.886719 13.453125 11.886719 13.453125 Z M 8.433594 15.851562 C 7.816406 15.207031 7.421875 14.226562 7.421875 13.132812 C 7.421875 11.195312 8.660156 9.617188 10.183594 9.617188 C 10.550781 9.617188 10.851562 9.746094 11.101562 10.011719 C 11.742188 10.695312 11.871094 12.054688 11.890625 12.847656 L 10.183594 12.847656 C 10.09375 12.847656 10.011719 12.886719 9.957031 12.953125 C 9.902344 13.023438 9.882812 13.113281 9.902344 13.199219 C 10.070312 13.929688 10 14.539062 9.691406 15.003906 C 9.324219 15.554688 8.703125 15.777344 8.433594 15.851562 Z M 35.113281 34.753906 C 34.808594 34.902344 34.496094 35.058594 34.265625 35.175781 C 33.855469 32.164062 31.992188 31.019531 30.898438 30.605469 L 31.632812 30.273438 C 34.214844 30.328125 34.964844 33.863281 35.113281 34.753906 Z M 35.386719 28.292969 C 35.917969 27.910156 36.574219 27.4375 37.527344 26.804688 L 38.136719 27.410156 C 37 28.144531 35.03125 29.238281 33.1875 30.121094 C 33.070312 30.054688 32.949219 29.992188 32.820312 29.941406 C 33.9375 29.335938 34.539062 28.902344 35.386719 28.292969 Z M 41.550781 28.808594 C 40.707031 27.335938 39.019531 26.972656 38.945312 26.957031 C 38.863281 26.941406 38.78125 26.960938 38.714844 27.011719 C 38.6875 27.03125 38.652344 27.054688 38.621094 27.082031 L 37.769531 26.230469 C 37.671875 26.132812 37.523438 26.117188 37.40625 26.191406 C 36.335938 26.902344 35.621094 27.414062 35.050781 27.824219 C 34.09375 28.515625 33.457031 28.972656 31.992188 29.726562 C 31.949219 29.722656 31.90625 29.714844 31.863281 29.710938 L 31.859375 11.871094 C 31.734375 10.046875 31.066406 9.042969 29.980469 9.042969 L 10.183594 9.042969 C 8.34375 9.042969 6.847656 10.875 6.847656 13.132812 C 6.847656 14.445312 7.355469 15.609375 8.140625 16.359375 C 8.144531 16.363281 8.144531 16.371094 8.152344 16.375 C 8.179688 16.402344 8.207031 16.425781 8.238281 16.449219 C 8.273438 16.484375 8.3125 16.519531 8.351562 16.550781 C 8.414062 16.597656 8.476562 16.644531 8.539062 16.6875 C 8.558594 16.703125 8.582031 16.722656 8.601562 16.734375 C 8.691406 16.796875 8.785156 16.851562 8.878906 16.898438 C 8.890625 16.90625 8.90625 16.910156 8.917969 16.917969 C 9 16.960938 9.082031 16.996094 9.167969 17.027344 C 9.191406 17.039062 9.214844 17.046875 9.238281 17.054688 C 9.316406 17.082031 9.390625 17.105469 9.464844 17.128906 C 9.496094 17.136719 9.523438 17.144531 9.554688 17.148438 C 9.628906 17.167969 9.703125 17.179688 9.78125 17.191406 C 9.808594 17.195312 9.839844 17.203125 9.867188 17.207031 C 9.972656 17.21875 10.078125 17.226562 10.183594 17.226562 C 10.804688 17.226562 11.386719 17.011719 11.886719 16.644531 L 11.886719 36.714844 C 11.886719 36.875 12.011719 37.003906 12.171875 37.003906 L 22.957031 37.003906 C 22.960938 37.007812 22.960938 37.015625 22.964844 37.023438 C 23.886719 38.988281 24.980469 39.941406 26.308594 39.941406 C 26.695312 39.941406 27.105469 39.859375 27.527344 39.695312 C 27.878906 39.554688 28.1875 39.351562 28.453125 39.089844 C 29.425781 38.503906 31.289062 37.40625 33.1875 36.390625 C 33.140625 36.441406 33.117188 36.507812 33.117188 36.578125 C 33.121094 36.65625 33.15625 36.726562 33.210938 36.78125 L 34.699219 38.144531 C 34.753906 38.195312 34.824219 38.21875 34.894531 38.21875 C 34.894531 38.21875 34.898438 38.21875 34.898438 38.21875 C 35.058594 38.21875 35.1875 38.09375 35.1875 37.933594 C 35.1875 37.910156 35.183594 37.886719 35.179688 37.867188 C 35.167969 37.390625 35.269531 36.667969 35.371094 36.074219 L 36.578125 37.097656 C 36.628906 37.144531 36.695312 37.167969 36.761719 37.167969 C 36.773438 37.167969 36.78125 37.167969 36.789062 37.167969 C 36.867188 37.160156 36.9375 37.121094 36.984375 37.0625 L 38.015625 35.804688 C 38.089844 35.714844 38.101562 35.589844 38.046875 35.484375 C 37.992188 35.382812 37.878906 35.324219 37.765625 35.335938 C 37.25 35.386719 36.5625 35.136719 36.09375 34.929688 C 39.136719 33.511719 41.476562 32.660156 41.5 32.652344 C 41.582031 32.621094 41.648438 32.558594 41.675781 32.472656 C 42.160156 31.027344 42.117188 29.796875 41.550781 28.808594 " fill-opacity="1" fill-rule="nonzero"/></g><g clip-path="url(#eb027083a8)"><path fill="#ffffff" d="M 13.980469 23.316406 L 22.339844 23.316406 L 22.339844 35.285156 L 13.980469 35.285156 Z M 13.980469 23.316406 " fill-opacity="1" fill-rule="nonzero"/></g><g clip-path="url(#aa73df7bc3)"><path fill="#2f72f1" d="M 18.628906 23.320312 C 16.121094 23.320312 14.074219 25.3125 13.984375 27.800781 C 13.984375 27.855469 13.984375 27.910156 13.984375 27.96875 C 13.984375 27.976562 13.984375 27.988281 13.984375 27.996094 L 13.984375 28.148438 C 13.984375 28.15625 13.988281 28.167969 13.988281 28.175781 L 13.988281 28.238281 L 13.992188 28.242188 L 13.992188 28.296875 L 13.996094 28.296875 L 13.996094 28.328125 C 13.996094 28.335938 13.996094 28.34375 14 28.355469 L 14 28.390625 L 14.003906 28.402344 L 14.003906 28.4375 L 14.007812 28.441406 L 14.007812 28.476562 L 14.011719 28.476562 L 14.011719 28.503906 C 14.015625 28.511719 14.015625 28.519531 14.015625 28.53125 L 14.015625 28.535156 L 14.019531 28.554688 L 14.019531 28.566406 L 14.023438 28.578125 L 14.023438 28.59375 L 14.027344 28.601562 L 14.027344 28.628906 L 14.03125 28.640625 L 14.03125 28.652344 L 14.035156 28.671875 L 14.035156 28.675781 C 14.039062 28.6875 14.039062 28.695312 14.039062 28.703125 L 14.042969 28.707031 L 14.042969 28.730469 L 14.046875 28.734375 L 14.046875 28.753906 L 14.050781 28.757812 L 14.050781 28.777344 L 14.054688 28.785156 L 14.054688 28.792969 L 14.058594 28.800781 L 14.058594 28.820312 L 14.0625 28.820312 L 14.0625 28.824219 L 14.066406 28.84375 L 14.066406 28.847656 C 14.070312 28.867188 14.074219 28.882812 14.078125 28.902344 L 14.078125 28.910156 L 14.082031 28.921875 L 14.082031 28.9375 L 14.085938 28.949219 L 14.085938 28.957031 L 14.089844 28.960938 L 14.089844 28.972656 L 14.09375 28.984375 L 14.09375 28.992188 L 14.097656 28.996094 L 14.101562 29.015625 L 14.101562 29.019531 C 14.105469 29.035156 14.109375 29.054688 14.113281 29.074219 L 14.117188 29.074219 L 14.121094 29.09375 L 14.121094 29.105469 L 14.125 29.117188 L 14.128906 29.125 L 14.128906 29.132812 L 14.132812 29.140625 L 14.136719 29.152344 L 14.136719 29.164062 L 14.144531 29.183594 C 14.148438 29.203125 14.152344 29.222656 14.160156 29.238281 L 14.164062 29.257812 L 14.167969 29.265625 L 14.167969 29.269531 L 14.171875 29.285156 L 14.175781 29.292969 L 14.175781 29.296875 L 14.183594 29.320312 L 14.183594 29.324219 L 14.1875 29.332031 L 14.191406 29.347656 C 14.199219 29.375 14.207031 29.402344 14.21875 29.429688 L 14.21875 29.433594 L 14.222656 29.449219 L 14.226562 29.457031 L 14.226562 29.460938 L 14.230469 29.46875 L 14.234375 29.484375 C 14.25 29.53125 14.269531 29.574219 14.285156 29.617188 C 14.449219 30.050781 14.675781 30.453125 14.957031 30.8125 L 14.972656 30.835938 C 14.984375 30.851562 15 30.867188 15.011719 30.882812 L 14.035156 34.523438 C 14 34.648438 14.046875 34.78125 14.148438 34.859375 C 14.25 34.9375 14.386719 34.945312 14.5 34.878906 C 14.5 34.878906 15.742188 34.160156 15.742188 34.160156 C 15.761719 34.152344 15.78125 34.15625 15.792969 34.175781 C 15.792969 34.175781 16.511719 35.421875 16.511719 35.421875 C 16.574219 35.53125 16.699219 35.59375 16.828125 35.574219 C 16.953125 35.558594 17.058594 35.46875 17.089844 35.34375 L 17.839844 32.546875 C 17.910156 32.558594 17.984375 32.570312 18.058594 32.578125 L 18.066406 32.582031 L 18.085938 32.582031 L 18.09375 32.585938 L 18.125 32.585938 L 18.128906 32.589844 L 18.152344 32.589844 C 18.164062 32.589844 18.171875 32.59375 18.183594 32.59375 L 18.207031 32.59375 L 18.210938 32.597656 L 18.25 32.597656 L 18.253906 32.601562 L 18.304688 32.601562 C 18.3125 32.605469 18.320312 32.605469 18.328125 32.605469 L 18.367188 32.605469 L 18.378906 32.609375 L 18.453125 32.609375 C 18.460938 32.613281 18.46875 32.613281 18.476562 32.613281 L 18.628906 32.613281 C 18.628906 32.613281 18.65625 32.613281 18.65625 32.613281 L 18.78125 32.613281 L 18.804688 32.609375 L 18.882812 32.609375 L 18.890625 32.605469 L 18.945312 32.605469 L 18.957031 32.601562 L 19 32.601562 L 19.011719 32.597656 L 19.042969 32.597656 L 19.054688 32.59375 L 19.085938 32.59375 L 19.09375 32.589844 L 19.117188 32.589844 C 19.148438 32.585938 19.179688 32.582031 19.210938 32.578125 L 19.21875 32.578125 L 19.234375 32.574219 L 19.25 32.574219 L 19.261719 32.570312 L 19.265625 32.570312 C 19.320312 32.5625 19.378906 32.554688 19.433594 32.546875 L 20.183594 35.34375 C 20.21875 35.46875 20.320312 35.558594 20.449219 35.574219 C 20.574219 35.59375 20.699219 35.53125 20.765625 35.421875 C 20.765625 35.421875 21.484375 34.175781 21.484375 34.175781 C 21.492188 34.15625 21.515625 34.152344 21.53125 34.160156 C 21.53125 34.160156 22.777344 34.878906 22.777344 34.878906 C 22.886719 34.945312 23.027344 34.9375 23.128906 34.859375 C 23.230469 34.78125 23.273438 34.648438 23.242188 34.523438 C 23.242188 34.523438 22.261719 30.863281 22.261719 30.863281 C 22.5 30.566406 22.703125 30.234375 22.863281 29.878906 L 22.871094 29.867188 L 22.875 29.855469 C 22.894531 29.8125 22.914062 29.769531 22.929688 29.726562 L 22.929688 29.722656 L 22.933594 29.722656 L 22.941406 29.699219 L 22.941406 29.695312 L 22.953125 29.671875 C 22.960938 29.644531 22.972656 29.617188 22.984375 29.59375 L 22.984375 29.589844 L 22.988281 29.574219 L 22.992188 29.566406 L 22.992188 29.5625 L 23 29.539062 L 23.003906 29.539062 L 23.003906 29.53125 L 23.011719 29.511719 C 23.019531 29.484375 23.03125 29.457031 23.039062 29.433594 L 23.039062 29.429688 L 23.046875 29.414062 L 23.046875 29.402344 L 23.050781 29.402344 L 23.050781 29.390625 L 23.054688 29.378906 L 23.058594 29.375 L 23.058594 29.367188 L 23.066406 29.351562 L 23.066406 29.347656 C 23.070312 29.332031 23.078125 29.3125 23.082031 29.292969 L 23.089844 29.273438 L 23.089844 29.261719 L 23.09375 29.25 L 23.097656 29.242188 L 23.097656 29.234375 L 23.101562 29.226562 L 23.105469 29.214844 L 23.105469 29.210938 L 23.109375 29.203125 L 23.113281 29.1875 L 23.113281 29.183594 C 23.117188 29.164062 23.125 29.148438 23.128906 29.128906 L 23.128906 29.125 L 23.132812 29.109375 L 23.136719 29.105469 L 23.136719 29.097656 L 23.140625 29.085938 L 23.140625 29.074219 L 23.144531 29.070312 L 23.144531 29.0625 L 23.148438 29.050781 L 23.148438 29.042969 L 23.152344 29.039062 L 23.15625 29.019531 L 23.15625 29.015625 C 23.160156 29 23.164062 28.980469 23.167969 28.960938 L 23.167969 28.957031 L 23.171875 28.941406 L 23.171875 28.9375 L 23.175781 28.933594 L 23.175781 28.925781 L 23.179688 28.917969 L 23.179688 28.898438 L 23.183594 28.894531 L 23.183594 28.882812 L 23.1875 28.875 L 23.1875 28.867188 L 23.191406 28.851562 L 23.191406 28.847656 C 23.195312 28.835938 23.195312 28.828125 23.195312 28.820312 L 23.199219 28.796875 L 23.203125 28.792969 L 23.203125 28.785156 L 23.207031 28.769531 L 23.207031 28.757812 L 23.210938 28.746094 L 23.210938 28.730469 L 23.214844 28.722656 L 23.214844 28.703125 L 23.21875 28.703125 L 23.21875 28.679688 L 23.222656 28.675781 C 23.222656 28.664062 23.222656 28.65625 23.226562 28.648438 L 23.226562 28.644531 L 23.230469 28.625 L 23.230469 28.609375 L 23.234375 28.597656 L 23.234375 28.574219 L 23.238281 28.566406 L 23.238281 28.550781 L 23.242188 28.539062 L 23.242188 28.507812 L 23.246094 28.5 C 23.246094 28.492188 23.246094 28.484375 23.246094 28.472656 L 23.25 28.46875 L 23.25 28.4375 L 23.253906 28.425781 L 23.253906 28.390625 L 23.257812 28.382812 L 23.257812 28.347656 L 23.261719 28.328125 L 23.261719 28.324219 C 23.261719 28.316406 23.261719 28.308594 23.261719 28.296875 L 23.265625 28.289062 L 23.265625 28.238281 L 23.269531 28.230469 L 23.269531 28.152344 L 23.273438 28.148438 C 23.273438 28.136719 23.273438 28.128906 23.273438 28.121094 L 23.273438 27.996094 C 23.273438 27.988281 23.273438 27.976562 23.273438 27.96875 C 23.273438 27.6875 23.25 27.410156 23.203125 27.140625 C 23.1875 27.066406 23.171875 26.992188 23.15625 26.917969 C 23.140625 26.855469 23.125 26.792969 23.105469 26.726562 C 23.097656 26.695312 23.089844 26.667969 23.082031 26.636719 L 23.074219 26.613281 C 23.070312 26.605469 23.070312 26.597656 23.066406 26.585938 L 23.058594 26.5625 C 23.039062 26.496094 23.015625 26.433594 22.992188 26.367188 L 22.984375 26.34375 C 22.980469 26.335938 22.976562 26.328125 22.972656 26.320312 L 22.964844 26.300781 C 22.953125 26.269531 22.945312 26.242188 22.933594 26.214844 C 22.917969 26.179688 22.902344 26.144531 22.886719 26.109375 C 22.882812 26.097656 22.878906 26.085938 22.871094 26.074219 L 22.863281 26.058594 L 22.851562 26.03125 L 22.847656 26.019531 C 22.824219 25.96875 22.800781 25.917969 22.773438 25.871094 C 22.710938 25.742188 22.640625 25.621094 22.5625 25.5 C 22.546875 25.46875 22.527344 25.441406 22.507812 25.414062 L 22.496094 25.394531 L 22.480469 25.375 C 22.472656 25.359375 22.464844 25.347656 22.457031 25.335938 C 22.429688 25.296875 22.40625 25.261719 22.378906 25.222656 C 22.34375 25.179688 22.3125 25.136719 22.277344 25.09375 C 22.253906 25.0625 22.226562 25.03125 22.203125 25 L 22.1875 24.984375 C 21.542969 24.214844 20.652344 23.65625 19.636719 23.429688 C 19.3125 23.359375 18.972656 23.320312 18.628906 23.320312 Z M 15.234375 31.136719 L 14.304688 34.597656 C 14.300781 34.609375 14.308594 34.625 14.320312 34.632812 C 14.328125 34.644531 14.34375 34.644531 14.359375 34.636719 L 15.601562 33.917969 C 15.753906 33.832031 15.949219 33.882812 16.035156 34.035156 L 16.753906 35.277344 C 16.761719 35.292969 16.777344 35.296875 16.789062 35.296875 C 16.804688 35.292969 16.816406 35.285156 16.820312 35.269531 L 17.5625 32.492188 C 16.65625 32.277344 15.847656 31.796875 15.234375 31.136719 Z M 22.039062 31.125 C 21.425781 31.785156 20.621094 32.269531 19.710938 32.488281 L 20.457031 35.269531 C 20.460938 35.285156 20.472656 35.292969 20.484375 35.296875 C 20.5 35.296875 20.511719 35.292969 20.519531 35.277344 L 21.238281 34.035156 C 21.328125 33.882812 21.519531 33.832031 21.671875 33.917969 L 22.917969 34.636719 C 22.929688 34.644531 22.945312 34.644531 22.957031 34.632812 C 22.96875 34.625 22.972656 34.609375 22.96875 34.597656 Z M 18.628906 23.605469 L 18.65625 23.605469 C 19.679688 23.609375 20.621094 23.96875 21.363281 24.566406 C 22.308594 25.328125 22.929688 26.476562 22.988281 27.773438 L 22.988281 27.800781 C 22.992188 27.855469 22.992188 27.910156 22.992188 27.96875 L 22.992188 28.128906 L 22.988281 28.136719 L 22.988281 28.21875 L 22.984375 28.226562 L 22.984375 28.269531 L 22.980469 28.28125 L 22.980469 28.324219 L 22.976562 28.332031 L 22.976562 28.359375 L 22.972656 28.386719 L 22.972656 28.410156 L 22.96875 28.421875 L 22.96875 28.449219 L 22.964844 28.464844 L 22.964844 28.472656 L 22.960938 28.488281 L 22.960938 28.519531 L 22.957031 28.527344 L 22.953125 28.550781 L 22.953125 28.578125 L 22.949219 28.585938 L 22.949219 28.601562 L 22.945312 28.613281 L 22.945312 28.628906 L 22.941406 28.636719 L 22.941406 28.652344 L 22.9375 28.664062 L 22.933594 28.679688 L 22.933594 28.691406 L 22.929688 28.707031 L 22.929688 28.714844 L 22.925781 28.742188 L 22.921875 28.765625 L 22.917969 28.773438 L 22.914062 28.792969 L 22.914062 28.800781 L 22.910156 28.816406 L 22.910156 28.824219 L 22.90625 28.84375 L 22.902344 28.851562 L 22.898438 28.867188 L 22.898438 28.875 L 22.894531 28.894531 L 22.894531 28.902344 L 22.886719 28.925781 L 22.886719 28.929688 L 22.882812 28.953125 L 22.878906 28.960938 L 22.875 28.976562 L 22.875 28.984375 L 22.871094 29.003906 L 22.867188 29.011719 L 22.863281 29.027344 L 22.863281 29.035156 L 22.855469 29.050781 L 22.855469 29.0625 L 22.851562 29.082031 L 22.847656 29.085938 L 22.84375 29.109375 L 22.839844 29.113281 L 22.835938 29.136719 L 22.832031 29.140625 L 22.828125 29.160156 L 22.824219 29.167969 L 22.820312 29.183594 L 22.820312 29.191406 L 22.8125 29.210938 L 22.8125 29.21875 L 22.804688 29.234375 L 22.804688 29.242188 L 22.796875 29.261719 L 22.796875 29.265625 L 22.789062 29.292969 L 22.78125 29.316406 L 22.777344 29.320312 L 22.773438 29.339844 L 22.769531 29.347656 L 22.765625 29.363281 L 22.761719 29.371094 L 22.757812 29.386719 L 22.753906 29.394531 L 22.75 29.414062 L 22.746094 29.421875 L 22.738281 29.441406 L 22.738281 29.445312 L 22.726562 29.46875 L 22.71875 29.492188 L 22.71875 29.496094 L 22.710938 29.515625 L 22.707031 29.523438 L 22.703125 29.539062 L 22.6875 29.570312 L 22.683594 29.589844 L 22.679688 29.59375 L 22.671875 29.613281 L 22.671875 29.617188 L 22.660156 29.640625 L 22.660156 29.644531 L 22.652344 29.664062 L 22.628906 29.710938 L 22.628906 29.71875 L 22.605469 29.765625 L 22.597656 29.785156 L 22.597656 29.789062 L 22.574219 29.835938 L 22.570312 29.839844 L 22.558594 29.863281 L 22.554688 29.878906 L 22.527344 29.933594 L 22.515625 29.949219 L 22.515625 29.957031 L 22.503906 29.976562 L 22.5 29.980469 L 22.492188 30 L 22.476562 30.03125 L 22.46875 30.042969 L 22.445312 30.089844 L 22.4375 30.097656 L 22.429688 30.113281 L 22.425781 30.117188 L 22.410156 30.148438 L 22.402344 30.160156 L 22.398438 30.171875 L 22.390625 30.183594 L 22.382812 30.191406 L 22.378906 30.203125 L 22.371094 30.214844 L 22.363281 30.222656 L 22.359375 30.234375 L 22.351562 30.246094 L 22.347656 30.257812 L 22.339844 30.265625 L 22.332031 30.277344 C 22.328125 30.285156 22.324219 30.289062 22.320312 30.296875 L 22.3125 30.308594 L 22.308594 30.316406 L 22.300781 30.328125 L 22.292969 30.335938 L 22.28125 30.359375 L 22.273438 30.371094 L 22.269531 30.378906 L 22.257812 30.390625 L 22.253906 30.398438 L 22.246094 30.410156 L 22.242188 30.414062 L 22.230469 30.429688 C 22.226562 30.4375 22.222656 30.445312 22.21875 30.449219 L 22.207031 30.46875 L 22.195312 30.484375 L 22.191406 30.488281 L 22.179688 30.503906 L 22.179688 30.507812 L 22.167969 30.523438 L 22.164062 30.527344 L 22.152344 30.542969 C 22.101562 30.613281 22.050781 30.675781 21.996094 30.742188 C 21.203125 31.707031 20 32.324219 18.65625 32.332031 L 18.476562 32.332031 L 18.460938 32.328125 L 18.394531 32.328125 L 18.378906 32.324219 L 18.324219 32.324219 L 18.3125 32.320312 L 18.285156 32.320312 L 18.269531 32.316406 L 18.230469 32.316406 L 18.210938 32.3125 L 18.183594 32.3125 L 18.175781 32.308594 L 18.148438 32.308594 L 18.128906 32.304688 L 18.121094 32.304688 L 18.101562 32.300781 L 18.09375 32.300781 L 18.078125 32.296875 L 18.066406 32.296875 L 18.050781 32.292969 L 18.023438 32.292969 L 18.015625 32.289062 L 17.996094 32.289062 L 17.988281 32.285156 L 17.96875 32.285156 L 17.960938 32.28125 L 17.941406 32.277344 L 17.933594 32.277344 L 17.914062 32.273438 L 17.90625 32.273438 L 17.886719 32.269531 L 17.878906 32.269531 L 17.863281 32.265625 L 17.851562 32.265625 L 17.835938 32.261719 L 17.824219 32.257812 L 17.808594 32.257812 L 17.796875 32.253906 L 17.78125 32.25 L 17.773438 32.25 C 16.773438 32.050781 15.902344 31.511719 15.273438 30.757812 C 15.203125 30.675781 15.140625 30.589844 15.078125 30.503906 L 15.074219 30.5 L 15.0625 30.484375 L 15.058594 30.480469 L 15.050781 30.464844 L 15.046875 30.460938 L 15.035156 30.445312 L 15.03125 30.441406 L 15.023438 30.425781 L 15.019531 30.425781 L 15.007812 30.40625 L 14.996094 30.390625 L 14.996094 30.386719 L 14.988281 30.375 L 14.984375 30.367188 L 14.976562 30.355469 L 14.96875 30.347656 L 14.960938 30.335938 L 14.957031 30.324219 L 14.949219 30.316406 L 14.941406 30.304688 L 14.9375 30.292969 L 14.929688 30.28125 L 14.921875 30.273438 L 14.914062 30.257812 L 14.910156 30.253906 L 14.898438 30.230469 L 14.894531 30.226562 L 14.882812 30.210938 L 14.867188 30.179688 L 14.859375 30.167969 L 14.855469 30.160156 L 14.84375 30.144531 L 14.832031 30.121094 L 14.828125 30.117188 L 14.816406 30.097656 L 14.816406 30.09375 L 14.792969 30.046875 L 14.789062 30.046875 L 14.78125 30.027344 L 14.777344 30.019531 L 14.765625 30.003906 L 14.765625 30 L 14.753906 29.980469 L 14.753906 29.976562 L 14.742188 29.957031 L 14.742188 29.953125 L 14.730469 29.933594 L 14.730469 29.929688 L 14.71875 29.90625 C 14.714844 29.898438 14.710938 29.890625 14.707031 29.882812 L 14.683594 29.835938 L 14.683594 29.832031 L 14.671875 29.8125 L 14.671875 29.808594 L 14.664062 29.789062 L 14.660156 29.785156 L 14.652344 29.765625 L 14.648438 29.761719 L 14.640625 29.738281 C 14.636719 29.730469 14.632812 29.722656 14.628906 29.714844 L 14.617188 29.691406 L 14.609375 29.667969 L 14.605469 29.664062 L 14.597656 29.644531 L 14.597656 29.640625 L 14.589844 29.621094 L 14.585938 29.617188 L 14.578125 29.59375 L 14.578125 29.589844 L 14.566406 29.570312 L 14.566406 29.566406 L 14.558594 29.542969 L 14.546875 29.519531 L 14.539062 29.496094 L 14.539062 29.492188 L 14.53125 29.46875 L 14.527344 29.464844 L 14.519531 29.445312 L 14.519531 29.441406 L 14.511719 29.421875 L 14.511719 29.417969 L 14.503906 29.394531 L 14.5 29.390625 L 14.492188 29.367188 C 14.492188 29.359375 14.488281 29.351562 14.484375 29.34375 L 14.476562 29.316406 L 14.476562 29.3125 L 14.46875 29.292969 L 14.46875 29.289062 L 14.460938 29.269531 L 14.460938 29.261719 L 14.453125 29.246094 L 14.453125 29.238281 L 14.445312 29.21875 L 14.445312 29.210938 L 14.4375 29.191406 L 14.4375 29.1875 L 14.429688 29.164062 L 14.421875 29.136719 L 14.421875 29.132812 L 14.414062 29.113281 L 14.414062 29.105469 L 14.410156 29.089844 L 14.40625 29.082031 L 14.402344 29.0625 L 14.402344 29.054688 L 14.394531 29.039062 L 14.394531 29.03125 L 14.390625 29.011719 L 14.386719 29.003906 L 14.382812 28.980469 L 14.375 28.953125 L 14.375 28.949219 L 14.371094 28.929688 L 14.367188 28.921875 L 14.363281 28.902344 L 14.363281 28.894531 L 14.359375 28.878906 L 14.359375 28.871094 L 14.355469 28.851562 L 14.351562 28.84375 L 14.347656 28.828125 L 14.347656 28.820312 L 14.34375 28.796875 L 14.34375 28.792969 L 14.335938 28.769531 L 14.335938 28.765625 L 14.332031 28.742188 L 14.332031 28.734375 L 14.328125 28.71875 L 14.328125 28.707031 L 14.324219 28.691406 L 14.324219 28.683594 L 14.320312 28.664062 L 14.316406 28.65625 L 14.316406 28.640625 L 14.3125 28.628906 L 14.3125 28.609375 L 14.308594 28.605469 L 14.304688 28.578125 L 14.304688 28.554688 L 14.300781 28.542969 L 14.300781 28.527344 L 14.296875 28.515625 L 14.296875 28.492188 L 14.292969 28.476562 L 14.292969 28.464844 L 14.289062 28.449219 L 14.289062 28.421875 L 14.285156 28.414062 L 14.285156 28.386719 L 14.28125 28.359375 L 14.28125 28.335938 L 14.277344 28.324219 L 14.277344 28.296875 L 14.273438 28.28125 L 14.273438 28.226562 L 14.269531 28.21875 L 14.269531 28.160156 L 14.265625 28.140625 L 14.265625 27.96875 C 14.265625 25.558594 16.21875 23.605469 18.628906 23.605469 Z M 18.628906 24.402344 C 16.660156 24.402344 15.0625 26 15.0625 27.96875 C 15.0625 29.9375 16.660156 31.535156 18.628906 31.535156 C 20.597656 31.535156 22.195312 29.9375 22.195312 27.96875 C 22.195312 26 20.597656 24.402344 18.628906 24.402344 Z M 18.628906 24.683594 C 20.441406 24.683594 21.914062 26.15625 21.914062 27.96875 C 21.914062 29.78125 20.441406 31.25 18.628906 31.25 C 16.816406 31.25 15.34375 29.78125 15.34375 27.96875 C 15.34375 26.15625 16.816406 24.683594 18.628906 24.683594 Z M 18.363281 26.226562 L 18.035156 27.296875 C 18.035156 27.296875 16.96875 27.289062 16.96875 27.289062 C 16.847656 27.289062 16.738281 27.371094 16.699219 27.492188 C 16.664062 27.609375 16.703125 27.738281 16.800781 27.808594 C 16.800781 27.808594 17.671875 28.464844 17.671875 28.464844 C 17.671875 28.464844 17.335938 29.535156 17.335938 29.535156 C 17.296875 29.652344 17.339844 29.78125 17.433594 29.855469 C 17.535156 29.929688 17.671875 29.929688 17.769531 29.851562 C 17.769531 29.851562 18.628906 29.195312 18.628906 29.195312 C 18.628906 29.195312 19.488281 29.851562 19.488281 29.851562 C 19.589844 29.929688 19.726562 29.929688 19.824219 29.855469 C 19.921875 29.78125 19.960938 29.652344 19.925781 29.535156 C 19.925781 29.535156 19.585938 28.464844 19.585938 28.464844 C 19.585938 28.464844 20.460938 27.808594 20.460938 27.808594 C 20.554688 27.738281 20.597656 27.609375 20.558594 27.492188 C 20.523438 27.371094 20.414062 27.289062 20.292969 27.289062 C 20.292969 27.289062 19.222656 27.296875 19.222656 27.296875 C 19.222656 27.296875 18.898438 26.226562 18.898438 26.226562 C 18.859375 26.105469 18.75 26.027344 18.628906 26.027344 C 18.507812 26.027344 18.398438 26.105469 18.363281 26.226562 Z M 18.628906 26.316406 L 18.984375 27.476562 C 19.003906 27.539062 19.058594 27.578125 19.121094 27.578125 L 20.292969 27.570312 C 20.292969 27.570312 20.292969 27.574219 20.292969 27.574219 C 20.292969 27.578125 20.292969 27.582031 20.289062 27.585938 C 20.289062 27.585938 19.339844 28.300781 19.339844 28.300781 C 19.289062 28.335938 19.269531 28.398438 19.289062 28.453125 L 19.65625 29.621094 C 19.65625 29.621094 19.65625 29.625 19.65625 29.625 L 18.714844 28.902344 C 18.664062 28.867188 18.59375 28.867188 18.542969 28.902344 L 17.601562 29.625 C 17.601562 29.625 17.601562 29.621094 17.601562 29.621094 C 17.601562 29.621094 17.96875 28.453125 17.96875 28.453125 C 17.988281 28.398438 17.96875 28.335938 17.921875 28.300781 L 16.96875 27.585938 C 16.964844 27.582031 16.96875 27.578125 16.96875 27.574219 C 16.96875 27.574219 16.96875 27.570312 16.964844 27.570312 C 16.964844 27.570312 18.136719 27.578125 18.136719 27.578125 C 18.199219 27.578125 18.253906 27.539062 18.273438 27.476562 Z M 18.628906 26.308594 Z M 18.628906 26.308594 " fill-opacity="1" fill-rule="evenodd"/></g></svg>