<svg xmlns="http://www.w3.org/2000/svg" xmlns:xlink="http://www.w3.org/1999/xlink" width="66" zoomAndPan="magnify" viewBox="0 0 49.5 49.499998" height="66" preserveAspectRatio="xMidYMid meet" version="1.0"><defs><clipPath id="16f217e817"><path d="M 0.46875 1.246094 L 48.527344 1.246094 L 48.527344 47.746094 L 0.46875 47.746094 Z M 0.46875 1.246094 " clip-rule="nonzero"/></clipPath><clipPath id="6c224de1fe"><path d="M 40.542969 1.332031 C 44.910156 1.332031 48.441406 4.871094 48.441406 9.230469 L 48.441406 39.765625 C 48.441406 44.132812 44.902344 47.660156 40.542969 47.660156 L 8.449219 47.660156 C 4.085938 47.660156 0.554688 44.121094 0.554688 39.765625 L 0.554688 9.230469 C 0.554688 4.863281 4.09375 1.332031 8.449219 1.332031 Z M 40.542969 1.332031 " clip-rule="nonzero"/></clipPath><clipPath id="57180ad50d"><path d="M 0 0.773438 L 49 0.773438 L 49 48.222656 L 0 48.222656 Z M 0 0.773438 " clip-rule="nonzero"/></clipPath><clipPath id="16426f0c60"><path d="M 49 9.230469 L 49 39.765625 C 49 44.425781 45.203125 48.222656 40.542969 48.222656 L 8.449219 48.222656 C 3.789062 48.222656 -0.00390625 44.425781 -0.00390625 39.765625 L -0.00390625 9.230469 C -0.00390625 4.570312 3.789062 0.773438 8.449219 0.773438 L 40.535156 0.773438 C 45.203125 0.773438 49 4.570312 49 9.230469 Z M 1.113281 39.765625 C 1.113281 43.808594 4.40625 47.101562 8.449219 47.101562 L 40.535156 47.101562 C 44.578125 47.101562 47.871094 43.808594 47.871094 39.765625 L 47.871094 9.230469 C 47.871094 5.1875 44.578125 1.894531 40.535156 1.894531 L 8.449219 1.894531 C 4.40625 1.894531 1.113281 5.1875 1.113281 9.230469 Z M 1.113281 39.765625 " clip-rule="nonzero"/></clipPath><clipPath id="925604a791"><path d="M 8 10.421875 L 41 10.421875 L 41 35 L 8 35 Z M 8 10.421875 " clip-rule="nonzero"/></clipPath><clipPath id="a258816e9a"><path d="M 5.636719 33 L 43.503906 33 L 43.503906 38.636719 L 5.636719 38.636719 Z M 5.636719 33 " clip-rule="nonzero"/></clipPath></defs><g clip-path="url(#16f217e817)"><g clip-path="url(#6c224de1fe)"><path fill="#ffffff" d="M -0.00390625 48.222656 L -0.00390625 0.773438 L 49 0.773438 L 49 48.222656 Z M -0.00390625 48.222656 " fill-opacity="1" fill-rule="nonzero"/></g></g><g clip-path="url(#57180ad50d)"><g clip-path="url(#16426f0c60)"><path fill="#edf4ff" d="M -0.00390625 48.222656 L -0.00390625 0.773438 L 49 0.773438 L 49 48.222656 Z M -0.00390625 48.222656 " fill-opacity="1" fill-rule="nonzero"/></g></g><g clip-path="url(#925604a791)"><path fill="#2f72f1" d="M 39.976562 34.15625 C 39.679688 34.15625 39.457031 33.933594 39.457031 33.640625 L 39.457031 11.460938 L 9.46875 11.460938 L 9.46875 33.640625 C 9.46875 33.933594 9.246094 34.15625 8.953125 34.15625 C 8.65625 34.15625 8.4375 33.933594 8.4375 33.640625 L 8.4375 10.945312 C 8.4375 10.648438 8.65625 10.425781 8.953125 10.425781 L 39.976562 10.425781 C 40.269531 10.425781 40.492188 10.648438 40.492188 10.945312 L 40.492188 33.640625 C 40.492188 33.933594 40.269531 34.15625 39.976562 34.15625 Z M 39.976562 34.15625 " fill-opacity="1" fill-rule="evenodd"/></g><g clip-path="url(#a258816e9a)"><path fill="#2f72f1" d="M 40.636719 38.578125 L 8.363281 38.578125 C 6.816406 38.578125 5.636719 37.398438 5.636719 35.851562 L 5.636719 33.640625 C 5.636719 33.34375 5.855469 33.125 6.152344 33.125 L 42.847656 33.125 C 43.144531 33.125 43.363281 33.34375 43.363281 33.640625 L 43.363281 35.851562 C 43.363281 37.324219 42.113281 38.578125 40.636719 38.578125 Z M 6.667969 34.15625 L 6.667969 35.851562 C 6.667969 36.808594 7.40625 37.542969 8.363281 37.542969 L 40.636719 37.542969 C 41.597656 37.542969 42.332031 36.808594 42.332031 35.851562 L 42.332031 34.15625 Z M 6.667969 34.15625 " fill-opacity="1" fill-rule="evenodd"/></g><path fill="#2f72f1" d="M 27.523438 36.367188 L 21.480469 36.367188 C 20.59375 36.367188 19.859375 35.628906 19.859375 34.746094 L 19.859375 33.640625 C 19.859375 33.34375 20.078125 33.125 20.375 33.125 L 28.625 33.125 C 28.921875 33.125 29.144531 33.34375 29.144531 33.640625 L 29.144531 34.746094 C 29.144531 35.628906 28.40625 36.367188 27.523438 36.367188 Z M 20.890625 34.15625 L 20.890625 34.746094 C 20.890625 35.039062 21.183594 35.335938 21.480469 35.335938 L 27.523438 35.335938 C 27.816406 35.335938 28.109375 35.039062 28.109375 34.746094 L 28.109375 34.15625 Z M 20.890625 34.15625 " fill-opacity="1" fill-rule="evenodd"/><path fill="#2f72f1" d="M 39.089844 36.367188 L 37.910156 36.367188 C 37.617188 36.367188 37.394531 36.144531 37.394531 35.851562 C 37.394531 35.554688 37.617188 35.335938 37.910156 35.335938 L 39.089844 35.335938 C 39.386719 35.335938 39.605469 35.554688 39.605469 35.851562 C 39.605469 36.144531 39.386719 36.367188 39.089844 36.367188 Z M 39.089844 36.367188 " fill-opacity="1" fill-rule="evenodd"/><path fill="#2f72f1" d="M 36.363281 36.367188 L 35.183594 36.367188 C 34.890625 36.367188 34.667969 36.144531 34.667969 35.851562 C 34.667969 35.554688 34.890625 35.335938 35.183594 35.335938 L 36.363281 35.335938 C 36.660156 35.335938 36.878906 35.554688 36.878906 35.851562 C 36.878906 36.144531 36.660156 36.367188 36.363281 36.367188 Z M 36.363281 36.367188 " fill-opacity="1" fill-rule="evenodd"/><path fill="#2f72f1" d="M 33.636719 36.367188 L 32.457031 36.367188 C 32.164062 36.367188 31.941406 36.144531 31.941406 35.851562 C 31.941406 35.554688 32.164062 35.335938 32.457031 35.335938 L 33.636719 35.335938 C 33.933594 35.335938 34.152344 35.554688 34.152344 35.851562 C 34.152344 36.144531 33.933594 36.367188 33.636719 36.367188 Z M 33.636719 36.367188 " fill-opacity="1" fill-rule="evenodd"/><path fill="#2f72f1" d="M 15.804688 20.742188 L 13.078125 20.742188 C 12.785156 20.742188 12.5625 20.449219 12.5625 20.226562 L 12.5625 14.847656 C 12.5625 14.554688 12.785156 14.332031 13.078125 14.332031 L 15.804688 14.332031 C 16.101562 14.332031 16.320312 14.554688 16.320312 14.847656 L 16.320312 20.226562 C 16.320312 20.523438 16.101562 20.742188 15.804688 20.742188 Z M 13.59375 19.710938 L 15.289062 19.710938 L 15.289062 15.363281 L 13.59375 15.363281 Z M 13.59375 19.710938 " fill-opacity="1" fill-rule="evenodd"/><path fill="#2f72f1" d="M 20.519531 20.742188 L 17.792969 20.742188 C 17.5 20.742188 17.277344 20.523438 17.277344 20.226562 L 17.277344 13.375 C 17.277344 13.082031 17.5 12.859375 17.792969 12.859375 L 20.519531 12.859375 C 20.816406 12.859375 21.035156 13.082031 21.035156 13.375 L 21.035156 20.226562 C 21.035156 20.523438 20.816406 20.742188 20.519531 20.742188 Z M 18.308594 19.710938 L 20.003906 19.710938 L 20.003906 13.890625 L 18.308594 13.890625 Z M 18.308594 19.710938 " fill-opacity="1" fill-rule="evenodd"/><path fill="#2f72f1" d="M 25.3125 20.742188 L 22.585938 20.742188 C 22.289062 20.742188 22.070312 20.449219 22.070312 20.226562 L 22.070312 15.511719 C 22.070312 15.21875 22.289062 14.996094 22.585938 14.996094 L 25.3125 14.996094 C 25.605469 14.996094 25.828125 15.21875 25.828125 15.511719 L 25.828125 20.226562 C 25.828125 20.449219 25.605469 20.742188 25.3125 20.742188 Z M 23.101562 19.710938 L 24.796875 19.710938 L 24.796875 16.027344 L 23.101562 16.027344 Z M 23.101562 19.710938 " fill-opacity="1" fill-rule="evenodd"/><path fill="#2f72f1" d="M 30.027344 20.742188 L 27.300781 20.742188 C 27.003906 20.742188 26.785156 20.523438 26.785156 20.226562 L 26.785156 13.890625 C 26.785156 13.597656 27.003906 13.375 27.300781 13.375 L 30.027344 13.375 C 30.320312 13.375 30.542969 13.597656 30.542969 13.890625 L 30.542969 20.226562 C 30.542969 20.523438 30.320312 20.742188 30.027344 20.742188 Z M 27.816406 19.710938 L 29.511719 19.710938 L 29.511719 14.40625 L 27.816406 14.40625 Z M 27.816406 19.710938 " fill-opacity="1" fill-rule="evenodd"/><path fill="#2f72f1" d="M 34.742188 20.742188 L 32.015625 20.742188 C 31.722656 20.742188 31.5 20.523438 31.5 20.226562 L 31.5 12.933594 C 31.5 12.636719 31.722656 12.417969 32.015625 12.417969 L 34.742188 12.417969 C 35.039062 12.417969 35.257812 12.636719 35.257812 12.933594 L 35.257812 20.226562 C 35.257812 20.523438 35.039062 20.742188 34.742188 20.742188 Z M 32.53125 19.710938 L 34.226562 19.710938 L 34.226562 13.449219 L 32.53125 13.449219 Z M 32.53125 19.710938 " fill-opacity="1" fill-rule="evenodd"/><path fill="#2f72f1" d="M 36.660156 20.742188 L 11.164062 20.742188 C 10.867188 20.742188 10.648438 20.523438 10.648438 20.226562 C 10.648438 19.933594 10.867188 19.710938 11.164062 19.710938 L 36.660156 19.710938 C 36.953125 19.710938 37.175781 19.933594 37.175781 20.226562 C 37.175781 20.523438 36.953125 20.742188 36.660156 20.742188 Z M 36.660156 20.742188 " fill-opacity="1" fill-rule="evenodd"/><path fill="#2f72f1" d="M 33.636719 32.679688 L 31.574219 32.679688 C 31.28125 32.679688 31.058594 32.460938 31.058594 32.164062 L 31.058594 31.722656 C 30.765625 31.648438 30.542969 31.503906 30.246094 31.355469 L 29.953125 31.722656 C 29.730469 31.945312 29.4375 31.945312 29.214844 31.722656 L 27.816406 30.324219 C 27.59375 30.101562 27.59375 29.808594 27.816406 29.585938 L 28.109375 29.21875 C 27.964844 28.996094 27.890625 28.703125 27.816406 28.480469 L 27.300781 28.480469 C 27.003906 28.480469 26.785156 28.261719 26.785156 27.964844 L 26.785156 25.902344 C 26.785156 25.605469 27.003906 25.386719 27.300781 25.386719 L 27.816406 25.386719 C 27.890625 25.089844 27.964844 24.871094 28.109375 24.574219 L 27.816406 24.28125 C 27.59375 24.058594 27.59375 23.765625 27.816406 23.542969 L 29.214844 22.144531 C 29.4375 21.921875 29.730469 21.921875 29.953125 22.144531 L 30.246094 22.4375 C 30.542969 22.292969 30.765625 22.21875 31.058594 22.144531 L 31.058594 21.628906 C 31.058594 21.332031 31.28125 21.113281 31.574219 21.113281 L 33.636719 21.113281 C 33.933594 21.113281 34.152344 21.332031 34.152344 21.628906 L 34.152344 22.144531 C 34.375 22.21875 34.667969 22.292969 34.964844 22.4375 L 35.257812 22.144531 C 35.480469 21.921875 35.773438 21.921875 35.996094 22.144531 L 37.394531 23.542969 C 37.617188 23.765625 37.617188 24.058594 37.394531 24.28125 L 37.101562 24.574219 C 37.25 24.871094 37.320312 25.089844 37.394531 25.386719 L 37.910156 25.386719 C 38.207031 25.386719 38.425781 25.605469 38.425781 25.902344 L 38.425781 27.964844 C 38.425781 28.261719 38.207031 28.480469 37.910156 28.480469 L 37.394531 28.480469 C 37.320312 28.703125 37.175781 28.996094 37.101562 29.21875 L 37.394531 29.585938 C 37.617188 29.808594 37.542969 30.101562 37.394531 30.324219 L 35.996094 31.722656 C 35.773438 31.945312 35.480469 31.945312 35.257812 31.722656 L 34.890625 31.355469 C 34.667969 31.503906 34.375 31.648438 34.152344 31.722656 L 34.152344 32.164062 C 34.152344 32.460938 33.933594 32.679688 33.636719 32.679688 Z M 32.089844 31.648438 L 33.121094 31.648438 L 33.121094 31.355469 C 33.121094 31.132812 33.269531 30.914062 33.492188 30.839844 C 33.859375 30.765625 34.375 30.542969 34.816406 30.324219 C 35.039062 30.175781 35.257812 30.25 35.40625 30.398438 L 35.628906 30.617188 L 36.363281 29.953125 L 36.070312 29.660156 C 35.921875 29.4375 35.921875 29.144531 36.070312 28.996094 C 36.289062 28.703125 36.363281 28.332031 36.511719 27.964844 C 36.511719 27.890625 36.511719 27.816406 36.585938 27.816406 C 36.660156 27.597656 36.804688 27.449219 37.027344 27.449219 L 37.394531 27.449219 L 37.394531 26.417969 L 37.027344 26.417969 C 36.804688 26.417969 36.585938 26.269531 36.511719 26.050781 C 36.363281 25.535156 36.289062 25.164062 35.996094 24.796875 C 35.847656 24.574219 35.921875 24.28125 36.070312 24.132812 L 36.289062 23.914062 L 35.628906 23.25 L 35.40625 23.46875 C 35.257812 23.617188 34.964844 23.691406 34.742188 23.542969 C 34.449219 23.324219 34.007812 23.175781 33.636719 23.027344 C 33.5625 23.027344 33.5625 23.027344 33.492188 23.027344 C 33.269531 22.953125 33.121094 22.734375 33.121094 22.511719 L 33.121094 22.144531 L 32.089844 22.144531 L 32.089844 22.511719 C 32.089844 22.734375 31.941406 22.953125 31.722656 23.027344 C 31.207031 23.175781 30.835938 23.324219 30.46875 23.542969 C 30.246094 23.691406 30.027344 23.617188 29.804688 23.46875 L 29.585938 23.25 L 28.921875 23.914062 L 29.144531 24.132812 C 29.289062 24.28125 29.363281 24.574219 29.214844 24.796875 C 28.996094 25.164062 28.847656 25.535156 28.699219 26.050781 C 28.625 26.269531 28.40625 26.417969 28.183594 26.417969 L 27.816406 26.417969 L 27.816406 27.449219 L 28.183594 27.449219 C 28.40625 27.449219 28.625 27.597656 28.699219 27.816406 C 28.699219 27.816406 28.699219 27.890625 28.773438 27.964844 C 28.847656 28.332031 28.996094 28.703125 29.214844 28.996094 C 29.363281 29.144531 29.363281 29.4375 29.214844 29.660156 L 28.921875 29.953125 L 29.585938 30.617188 L 29.804688 30.398438 C 30.027344 30.25 30.246094 30.175781 30.46875 30.324219 C 30.835938 30.542969 31.28125 30.691406 31.722656 30.839844 C 31.941406 30.914062 32.089844 31.132812 32.089844 31.355469 Z M 32.089844 31.648438 " fill-opacity="1" fill-rule="evenodd"/><path fill="#2f72f1" d="M 32.605469 30.027344 C 30.910156 30.027344 29.511719 28.628906 29.511719 26.933594 C 29.511719 25.238281 30.910156 23.839844 32.605469 23.839844 C 34.300781 23.839844 35.699219 25.238281 35.699219 26.933594 C 35.699219 28.628906 34.300781 30.027344 32.605469 30.027344 Z M 32.605469 24.871094 C 31.5 24.871094 30.542969 25.828125 30.542969 26.933594 C 30.542969 28.039062 31.5 28.996094 32.605469 28.996094 C 33.710938 28.996094 34.667969 28.039062 34.667969 26.933594 C 34.667969 25.828125 33.710938 24.871094 32.605469 24.871094 Z M 32.605469 24.871094 " fill-opacity="1" fill-rule="evenodd"/><path fill="#2f72f1" d="M 16.246094 26.785156 L 11.679688 26.785156 C 11.382812 26.785156 11.164062 26.566406 11.164062 26.269531 L 11.164062 22.660156 C 11.164062 22.363281 11.382812 22.144531 11.679688 22.144531 L 16.246094 22.144531 C 16.542969 22.144531 16.761719 22.363281 16.761719 22.660156 L 16.761719 26.269531 C 16.761719 26.566406 16.542969 26.785156 16.246094 26.785156 Z M 12.195312 25.753906 L 15.730469 25.753906 L 15.730469 23.175781 L 12.195312 23.175781 Z M 12.195312 25.753906 " fill-opacity="1" fill-rule="evenodd"/><path fill="#2f72f1" d="M 16.246094 32.3125 L 11.679688 32.3125 C 11.382812 32.3125 11.164062 32.09375 11.164062 31.796875 L 11.164062 28.1875 C 11.164062 27.890625 11.382812 27.671875 11.679688 27.671875 L 16.246094 27.671875 C 16.542969 27.671875 16.761719 27.890625 16.761719 28.1875 L 16.761719 31.796875 C 16.761719 32.09375 16.542969 32.3125 16.246094 32.3125 Z M 12.195312 31.28125 L 15.730469 31.28125 L 15.730469 28.703125 L 12.195312 28.703125 Z M 12.195312 31.28125 " fill-opacity="1" fill-rule="evenodd"/><path fill="#2f72f1" d="M 23.910156 24.207031 L 17.722656 24.207031 C 17.425781 24.207031 17.207031 23.984375 17.207031 23.691406 C 17.207031 23.398438 17.425781 23.175781 17.722656 23.175781 L 23.910156 23.175781 C 24.207031 23.175781 24.425781 23.398438 24.425781 23.691406 C 24.425781 23.984375 24.207031 24.207031 23.910156 24.207031 Z M 23.910156 24.207031 " fill-opacity="1" fill-rule="evenodd"/><path fill="#2f72f1" d="M 23.910156 25.753906 L 17.722656 25.753906 C 17.425781 25.753906 17.207031 25.535156 17.207031 25.238281 C 17.207031 24.945312 17.425781 24.722656 17.722656 24.722656 L 23.910156 24.722656 C 24.207031 24.722656 24.425781 24.945312 24.425781 25.238281 C 24.425781 25.535156 24.207031 25.753906 23.910156 25.753906 Z M 23.910156 25.753906 " fill-opacity="1" fill-rule="evenodd"/><path fill="#2f72f1" d="M 23.910156 29.660156 L 17.722656 29.660156 C 17.425781 29.660156 17.207031 29.4375 17.207031 29.144531 C 17.207031 28.847656 17.425781 28.628906 17.722656 28.628906 L 23.910156 28.628906 C 24.207031 28.628906 24.425781 28.847656 24.425781 29.144531 C 24.425781 29.4375 24.207031 29.660156 23.910156 29.660156 Z M 23.910156 29.660156 " fill-opacity="1" fill-rule="evenodd"/><path fill="#2f72f1" d="M 23.910156 31.28125 L 17.722656 31.28125 C 17.425781 31.28125 17.207031 31.058594 17.207031 30.765625 C 17.207031 30.472656 17.425781 30.25 17.722656 30.25 L 23.910156 30.25 C 24.207031 30.25 24.425781 30.472656 24.425781 30.765625 C 24.425781 31.058594 24.207031 31.28125 23.910156 31.28125 Z M 23.910156 31.28125 " fill-opacity="1" fill-rule="evenodd"/></svg>