<svg xmlns="http://www.w3.org/2000/svg" xmlns:xlink="http://www.w3.org/1999/xlink" width="66" zoomAndPan="magnify" viewBox="0 0 49.5 49.499998" height="66" preserveAspectRatio="xMidYMid meet" version="1.0"><defs><clipPath id="5fb3cf1608"><path d="M 0.46875 1.246094 L 48.527344 1.246094 L 48.527344 47.746094 L 0.46875 47.746094 Z M 0.46875 1.246094 " clip-rule="nonzero"/></clipPath><clipPath id="33a76bfc51"><path d="M 40.542969 1.332031 C 44.910156 1.332031 48.441406 4.871094 48.441406 9.230469 L 48.441406 39.765625 C 48.441406 44.132812 44.902344 47.660156 40.542969 47.660156 L 8.449219 47.660156 C 4.085938 47.660156 0.554688 44.121094 0.554688 39.765625 L 0.554688 9.230469 C 0.554688 4.863281 4.09375 1.332031 8.449219 1.332031 Z M 40.542969 1.332031 " clip-rule="nonzero"/></clipPath><clipPath id="bee8f5214c"><path d="M 0 0.773438 L 49 0.773438 L 49 48.222656 L 0 48.222656 Z M 0 0.773438 " clip-rule="nonzero"/></clipPath><clipPath id="cdf1700aed"><path d="M 49 9.230469 L 49 39.765625 C 49 44.425781 45.203125 48.222656 40.542969 48.222656 L 8.449219 48.222656 C 3.789062 48.222656 -0.00390625 44.425781 -0.00390625 39.765625 L -0.00390625 9.230469 C -0.00390625 4.570312 3.789062 0.773438 8.449219 0.773438 L 40.535156 0.773438 C 45.203125 0.773438 49 4.570312 49 9.230469 Z M 1.113281 39.765625 C 1.113281 43.808594 4.40625 47.101562 8.449219 47.101562 L 40.535156 47.101562 C 44.578125 47.101562 47.871094 43.808594 47.871094 39.765625 L 47.871094 9.230469 C 47.871094 5.1875 44.578125 1.894531 40.535156 1.894531 L 8.449219 1.894531 C 4.40625 1.894531 1.113281 5.1875 1.113281 9.230469 Z M 1.113281 39.765625 " clip-rule="nonzero"/></clipPath><clipPath id="8a442ff319"><path d="M 6.363281 6.363281 L 42.746094 6.363281 L 42.746094 42.746094 L 6.363281 42.746094 Z M 6.363281 6.363281 " clip-rule="nonzero"/></clipPath></defs><g clip-path="url(#5fb3cf1608)"><g clip-path="url(#33a76bfc51)"><path fill="#ffffff" d="M -0.00390625 48.222656 L -0.00390625 0.773438 L 49 0.773438 L 49 48.222656 Z M -0.00390625 48.222656 " fill-opacity="1" fill-rule="nonzero"/></g></g><g clip-path="url(#bee8f5214c)"><g clip-path="url(#cdf1700aed)"><path fill="#edf4ff" d="M -0.00390625 48.222656 L -0.00390625 0.773438 L 49 0.773438 L 49 48.222656 Z M -0.00390625 48.222656 " fill-opacity="1" fill-rule="nonzero"/></g></g><g clip-path="url(#8a442ff319)"><path fill="#2f72f1" d="M 24.5 42.640625 C 22.050781 42.640625 19.675781 42.160156 17.441406 41.214844 C 15.28125 40.300781 13.339844 38.992188 11.675781 37.328125 C 10.007812 35.660156 8.699219 33.722656 7.789062 31.5625 C 6.839844 29.324219 6.363281 26.949219 6.363281 24.5 C 6.363281 22.050781 6.839844 19.675781 7.789062 17.441406 C 8.699219 15.28125 10.007812 13.339844 11.675781 11.675781 C 13.339844 10.007812 15.28125 8.699219 17.441406 7.789062 C 19.675781 6.839844 22.050781 6.363281 24.5 6.363281 C 26.949219 6.363281 29.324219 6.839844 31.5625 7.789062 C 33.722656 8.699219 35.660156 10.007812 37.328125 11.675781 C 38.992188 13.339844 40.300781 15.28125 41.214844 17.441406 C 42.160156 19.675781 42.640625 22.050781 42.640625 24.5 C 42.640625 26.949219 42.160156 29.324219 41.214844 31.5625 C 40.300781 33.722656 38.992188 35.660156 37.328125 37.328125 C 35.660156 38.992188 33.722656 40.300781 31.5625 41.214844 C 29.324219 42.160156 26.949219 42.640625 24.5 42.640625 Z M 24.5 7.371094 C 15.054688 7.371094 7.371094 15.054688 7.371094 24.5 C 7.371094 33.949219 15.054688 41.632812 24.5 41.632812 C 33.949219 41.632812 41.632812 33.949219 41.632812 24.5 C 41.632812 15.054688 33.949219 7.371094 24.5 7.371094 Z M 24.5 7.371094 " fill-opacity="1" fill-rule="nonzero"/></g><path fill="#2f72f1" d="M 24.5 36.578125 C 24.46875 36.578125 24.4375 36.574219 24.40625 36.566406 C 22.226562 36.0625 20.347656 35.160156 18.828125 33.886719 C 17.597656 32.851562 16.59375 31.578125 15.878906 30.140625 C 14.628906 27.652344 14.546875 25.460938 14.546875 25.371094 C 14.546875 25.367188 14.546875 25.359375 14.546875 25.355469 L 14.546875 16.109375 C 14.546875 15.878906 14.730469 15.695312 14.960938 15.695312 C 14.960938 15.695312 14.964844 15.695312 14.964844 15.695312 C 15.011719 15.695312 15.054688 15.695312 15.097656 15.695312 C 19.886719 15.695312 24.210938 12.539062 24.253906 12.507812 C 24.398438 12.398438 24.601562 12.398438 24.746094 12.507812 C 24.789062 12.539062 29.113281 15.695312 33.902344 15.695312 C 33.945312 15.695312 33.992188 15.695312 34.035156 15.695312 L 34.039062 15.695312 C 34.269531 15.695312 34.457031 15.882812 34.457031 16.109375 L 34.457031 25.355469 C 34.457031 25.359375 34.457031 25.367188 34.457031 25.371094 C 34.453125 25.460938 34.375 27.652344 33.121094 30.140625 C 32.40625 31.578125 31.402344 32.851562 30.171875 33.886719 C 28.652344 35.160156 26.777344 36.0625 24.59375 36.566406 C 24.5625 36.574219 24.53125 36.578125 24.5 36.578125 Z M 15.375 25.347656 C 15.378906 25.460938 15.484375 27.527344 16.636719 29.796875 C 18.191406 32.867188 20.839844 34.863281 24.5 35.734375 C 28.175781 34.863281 30.828125 32.855469 32.382812 29.769531 C 33.523438 27.5 33.621094 25.464844 33.625 25.351562 L 33.625 16.519531 C 31.097656 16.460938 28.753906 15.601562 27.203125 14.871094 C 26.261719 14.433594 25.359375 13.921875 24.5 13.347656 C 23.640625 13.925781 22.738281 14.433594 21.796875 14.875 C 20.242188 15.605469 17.898438 16.460938 15.371094 16.523438 Z M 15.375 25.347656 " fill-opacity="1" fill-rule="nonzero"/><path fill="#2f72f1" d="M 24.5 34.976562 C 24.464844 34.976562 24.429688 34.972656 24.398438 34.960938 C 21.082031 34.109375 18.683594 32.25 17.269531 29.441406 C 16.238281 27.398438 16.113281 25.550781 16.101562 25.347656 C 16.101562 25.339844 16.101562 25.332031 16.101562 25.324219 L 16.101562 17.589844 C 16.101562 17.375 16.261719 17.195312 16.472656 17.175781 C 19.875 16.820312 22.828125 15.253906 24.28125 14.351562 C 24.417969 14.269531 24.585938 14.269531 24.71875 14.351562 C 26.175781 15.253906 29.125 16.820312 32.53125 17.175781 C 32.742188 17.195312 32.902344 17.375 32.902344 17.589844 L 32.902344 25.320312 C 32.902344 25.328125 32.902344 25.335938 32.902344 25.34375 C 32.890625 25.558594 32.753906 27.476562 31.679688 29.550781 C 30.253906 32.296875 27.875 34.121094 24.605469 34.960938 C 24.570312 34.972656 24.535156 34.976562 24.5 34.976562 Z M 16.929688 25.3125 C 16.941406 25.476562 17.066406 27.195312 18.011719 29.066406 C 19.296875 31.625 21.484375 33.328125 24.5 34.132812 C 27.480469 33.339844 29.648438 31.671875 30.941406 29.171875 C 31.921875 27.28125 32.058594 25.550781 32.074219 25.308594 L 32.074219 17.957031 C 28.824219 17.539062 26.023438 16.109375 24.503906 15.191406 C 22.980469 16.109375 20.179688 17.539062 16.929688 17.957031 Z M 16.929688 25.3125 " fill-opacity="1" fill-rule="nonzero"/><path fill="#2f72f1" d="M 28.171875 31.015625 L 20.828125 31.015625 C 19.992188 31.015625 19.3125 30.335938 19.308594 29.496094 L 19.308594 23.640625 C 19.3125 22.800781 19.992188 22.125 20.828125 22.121094 L 28.171875 22.121094 C 29.011719 22.125 29.691406 22.800781 29.691406 23.640625 L 29.691406 29.496094 C 29.691406 30.335938 29.011719 31.015625 28.171875 31.015625 Z M 20.828125 22.953125 C 20.449219 22.953125 20.140625 23.261719 20.140625 23.644531 L 20.140625 29.5 C 20.140625 29.882812 20.449219 30.1875 20.828125 30.191406 L 28.171875 30.191406 C 28.554688 30.191406 28.863281 29.882812 28.863281 29.5 L 28.863281 23.644531 C 28.863281 23.261719 28.554688 22.953125 28.171875 22.953125 Z M 20.828125 22.953125 " fill-opacity="1" fill-rule="nonzero"/><path fill="#2f72f1" d="M 27.53125 22.953125 L 21.46875 22.953125 C 21.238281 22.953125 21.054688 22.769531 21.054688 22.539062 L 21.054688 20.507812 C 21.054688 18.6875 22.527344 17.214844 24.347656 17.214844 L 24.65625 17.214844 C 26.472656 17.214844 27.949219 18.6875 27.949219 20.507812 L 27.949219 22.539062 C 27.949219 22.769531 27.765625 22.953125 27.535156 22.953125 C 27.535156 22.953125 27.53125 22.953125 27.53125 22.953125 Z M 21.882812 22.125 L 27.117188 22.125 L 27.117188 20.507812 C 27.117188 19.148438 26.015625 18.046875 24.65625 18.042969 L 24.351562 18.042969 C 22.992188 18.042969 21.886719 19.144531 21.886719 20.507812 Z M 21.882812 22.125 " fill-opacity="1" fill-rule="nonzero"/><path fill="#2f72f1" d="M 21.292969 29.140625 L 19.722656 29.140625 C 19.496094 29.140625 19.308594 28.957031 19.308594 28.726562 L 19.308594 24.035156 C 19.308594 23.804688 19.496094 23.621094 19.722656 23.621094 L 21.292969 23.621094 C 21.523438 23.621094 21.707031 23.804688 21.707031 24.035156 L 21.707031 28.730469 C 21.707031 28.957031 21.523438 29.140625 21.292969 29.140625 Z M 20.140625 28.3125 L 20.878906 28.3125 L 20.878906 24.449219 L 20.140625 24.449219 Z M 20.140625 28.3125 " fill-opacity="1" fill-rule="nonzero"/><path fill="#2f72f1" d="M 29.277344 29.140625 L 27.707031 29.140625 C 27.480469 29.140625 27.292969 28.957031 27.292969 28.726562 L 27.292969 24.035156 C 27.292969 23.804688 27.480469 23.621094 27.707031 23.621094 L 29.277344 23.621094 C 29.507812 23.621094 29.691406 23.804688 29.691406 24.035156 L 29.691406 28.730469 C 29.691406 28.957031 29.507812 29.140625 29.277344 29.140625 Z M 28.125 28.3125 L 28.863281 28.3125 L 28.863281 24.449219 L 28.125 24.449219 Z M 28.125 28.3125 " fill-opacity="1" fill-rule="nonzero"/><path fill="#2f72f1" d="M 25.957031 31.015625 L 23.042969 31.015625 C 22.816406 31.015625 22.628906 30.832031 22.628906 30.601562 L 22.628906 29.03125 C 22.628906 28.804688 22.816406 28.617188 23.042969 28.617188 L 25.957031 28.617188 C 26.1875 28.617188 26.371094 28.804688 26.371094 29.03125 L 26.371094 30.601562 C 26.371094 30.832031 26.1875 31.015625 25.957031 31.015625 Z M 23.457031 30.1875 L 25.542969 30.1875 L 25.542969 29.449219 L 23.457031 29.449219 Z M 23.457031 30.1875 " fill-opacity="1" fill-rule="nonzero"/><path fill="#2f72f1" d="M 25.957031 24.523438 L 23.042969 24.523438 C 22.816406 24.523438 22.628906 24.335938 22.628906 24.109375 L 22.628906 22.539062 C 22.628906 22.308594 22.816406 22.125 23.042969 22.125 L 25.957031 22.125 C 26.1875 22.125 26.371094 22.308594 26.371094 22.539062 L 26.371094 24.109375 C 26.371094 24.335938 26.1875 24.523438 25.957031 24.523438 Z M 23.457031 23.691406 L 25.542969 23.691406 L 25.542969 22.953125 L 23.457031 22.953125 Z M 23.457031 23.691406 " fill-opacity="1" fill-rule="nonzero"/><path fill="#2f72f1" d="M 24.5 28.023438 C 23.699219 28.023438 23.050781 27.371094 23.050781 26.570312 C 23.050781 25.769531 23.699219 25.121094 24.5 25.121094 C 25.300781 25.121094 25.953125 25.769531 25.953125 26.570312 C 25.953125 27.371094 25.300781 28.023438 24.5 28.023438 Z M 24.5 25.949219 C 24.15625 25.949219 23.878906 26.226562 23.878906 26.570312 C 23.878906 26.914062 24.15625 27.191406 24.5 27.191406 C 24.84375 27.191406 25.125 26.914062 25.125 26.570312 C 25.125 26.226562 24.84375 25.949219 24.5 25.949219 Z M 24.5 25.949219 " fill-opacity="1" fill-rule="nonzero"/></svg>