<svg xmlns="http://www.w3.org/2000/svg" xmlns:xlink="http://www.w3.org/1999/xlink" width="66" zoomAndPan="magnify" viewBox="0 0 49.5 49.499998" height="66" preserveAspectRatio="xMidYMid meet" version="1.0"><defs><clipPath id="808b9a0b86"><path d="M 0.46875 1.246094 L 48.527344 1.246094 L 48.527344 47.746094 L 0.46875 47.746094 Z M 0.46875 1.246094 " clip-rule="nonzero"/></clipPath><clipPath id="993c054dbe"><path d="M 40.542969 1.332031 C 44.910156 1.332031 48.441406 4.871094 48.441406 9.230469 L 48.441406 39.765625 C 48.441406 44.132812 44.902344 47.660156 40.542969 47.660156 L 8.449219 47.660156 C 4.085938 47.660156 0.554688 44.121094 0.554688 39.765625 L 0.554688 9.230469 C 0.554688 4.863281 4.09375 1.332031 8.449219 1.332031 Z M 40.542969 1.332031 " clip-rule="nonzero"/></clipPath><clipPath id="c22f9a25cb"><path d="M 0 0.773438 L 49 0.773438 L 49 48.222656 L 0 48.222656 Z M 0 0.773438 " clip-rule="nonzero"/></clipPath><clipPath id="b79c27823e"><path d="M 49 9.230469 L 49 39.765625 C 49 44.425781 45.203125 48.222656 40.542969 48.222656 L 8.449219 48.222656 C 3.789062 48.222656 -0.00390625 44.425781 -0.00390625 39.765625 L -0.00390625 9.230469 C -0.00390625 4.570312 3.789062 0.773438 8.449219 0.773438 L 40.535156 0.773438 C 45.203125 0.773438 49 4.570312 49 9.230469 Z M 1.113281 39.765625 C 1.113281 43.808594 4.40625 47.101562 8.449219 47.101562 L 40.535156 47.101562 C 44.578125 47.101562 47.871094 43.808594 47.871094 39.765625 L 47.871094 9.230469 C 47.871094 5.1875 44.578125 1.894531 40.535156 1.894531 L 8.449219 1.894531 C 4.40625 1.894531 1.113281 5.1875 1.113281 9.230469 Z M 1.113281 39.765625 " clip-rule="nonzero"/></clipPath><clipPath id="d8434274d4"><path d="M 5.917969 7.566406 L 33 7.566406 L 33 41.722656 L 5.917969 41.722656 Z M 5.917969 7.566406 " clip-rule="nonzero"/></clipPath><clipPath id="d1c2b97723"><path d="M 21 26 L 43.042969 26 L 43.042969 41.722656 L 21 41.722656 Z M 21 26 " clip-rule="nonzero"/></clipPath></defs><g clip-path="url(#808b9a0b86)"><g clip-path="url(#993c054dbe)"><path fill="#ffffff" d="M -0.00390625 48.222656 L -0.00390625 0.773438 L 49 0.773438 L 49 48.222656 Z M -0.00390625 48.222656 " fill-opacity="1" fill-rule="nonzero"/></g></g><g clip-path="url(#c22f9a25cb)"><g clip-path="url(#b79c27823e)"><path fill="#edf4ff" d="M -0.00390625 48.222656 L -0.00390625 0.773438 L 49 0.773438 L 49 48.222656 Z M -0.00390625 48.222656 " fill-opacity="1" fill-rule="nonzero"/></g></g><path stroke-linecap="round" transform="matrix(0.504974, 0, 0, 0.509776, -5.944535, -5.942028)" fill="none" stroke-linejoin="round" d="M 83.302611 50.996342 C 84.199935 52.398612 84.702745 54.099727 84.702745 55.800841 C 84.702745 60.896522 80.602903 65.003718 75.396877 65.003718 C 70.299149 65.003718 66.098745 60.896522 66.098745 55.800841 C 66.098745 54.000112 66.601555 52.398612 67.398317 50.996342 " stroke="#3f70f5" stroke-width="3" stroke-opacity="1" stroke-miterlimit="10"/><g clip-path="url(#d8434274d4)"><path stroke-linecap="round" transform="matrix(0.504974, 0, 0, 0.509776, -5.944535, -5.942028)" fill="none" stroke-linejoin="round" d="M 49.003176 91.999333 L 29.40129 91.999333 C 27.003269 91.999333 24.999761 89.999374 24.999761 87.600955 L 24.999761 32.399022 C 24.999761 30.000604 27.003269 28.000645 29.40129 28.000645 L 71.103646 28.000645 C 73.501667 28.000645 75.497439 30.000604 75.497439 32.399022 L 75.497439 36.199711 " stroke="#3f70f5" stroke-width="3" stroke-opacity="1" stroke-miterlimit="10"/></g><path stroke-linecap="round" transform="matrix(0.504974, 0, 0, 0.509776, -5.944535, -5.942028)" fill="none" stroke-linejoin="round" d="M 75.396877 42.697662 L 58.301309 48.09985 L 75.396877 53.502038 L 92.500181 48.09985 Z M 75.396877 42.697662 " stroke="#3f70f5" stroke-width="3" stroke-opacity="1" stroke-miterlimit="10"/><path stroke-linecap="round" transform="matrix(0.504974, 0, 0, 0.509776, -5.944535, -5.942028)" fill="none" stroke-linejoin="round" d="M 42.59814 62.298792 L 55.400477 62.298792 " stroke="#3f70f5" stroke-width="3" stroke-opacity="1" stroke-miterlimit="10"/><path stroke-linecap="round" transform="matrix(0.504974, 0, 0, 0.509776, -5.944535, -5.942028)" fill="none" stroke-linejoin="round" d="M 42.59814 71.800513 L 49.003176 71.800513 " stroke="#3f70f5" stroke-width="3" stroke-opacity="1" stroke-miterlimit="10"/><path stroke-linecap="round" transform="matrix(0.504974, 0, 0, 0.509776, -5.944535, -5.942028)" fill="none" stroke-linejoin="round" d="M 47.79643 38.299285 L 35.303515 38.299285 L 35.303515 50.896727 L 47.896993 50.896727 L 47.896993 38.299285 Z M 47.79643 38.299285 " stroke="#3f70f5" stroke-width="3" stroke-opacity="1" stroke-miterlimit="10"/><path stroke-linecap="round" transform="matrix(0.504974, 0, 0, 0.509776, -5.944535, -5.942028)" fill="none" stroke-linejoin="round" d="M 42.59814 81.302234 L 46.59742 81.302234 " stroke="#3f70f5" stroke-width="3" stroke-opacity="1" stroke-miterlimit="10"/><path fill="#c1d4fa" d="M 42.027344 38.917969 L 21.828125 38.917969 L 21.828125 40.292969 L 42.027344 40.292969 Z M 42.027344 38.917969 " fill-opacity="1" fill-rule="nonzero"/><path stroke-linecap="round" transform="matrix(0.504974, 0, 0, 0.509776, -5.944535, -5.942028)" fill="none" stroke-linejoin="round" d="M 86.597955 68.398284 C 80.997416 75.800431 69.796338 75.800431 64.203535 68.398284 " stroke="#3f70f5" stroke-width="3" stroke-opacity="1" stroke-miterlimit="10"/><g clip-path="url(#d1c2b97723)"><path stroke-linecap="round" transform="matrix(0.504974, 0, 0, 0.509776, -5.944535, -5.942028)" fill="none" stroke-linejoin="round" d="M 95.401013 91.999333 L 55.501039 91.999333 L 55.501039 85.003307 C 55.501039 73.999702 64.396923 65.003718 75.497439 65.003718 C 86.597955 65.003718 95.501575 73.900087 95.501575 85.003307 Z M 95.401013 91.999333 " stroke="#3f70f5" stroke-width="3" stroke-opacity="1" stroke-miterlimit="10"/></g></svg>