<svg xmlns="http://www.w3.org/2000/svg" xmlns:xlink="http://www.w3.org/1999/xlink" width="66" zoomAndPan="magnify" viewBox="0 0 49.5 49.499998" height="66" preserveAspectRatio="xMidYMid meet" version="1.0"><defs><clipPath id="06b7d1a38c"><path d="M 0.46875 1.246094 L 48.527344 1.246094 L 48.527344 47.746094 L 0.46875 47.746094 Z M 0.46875 1.246094 " clip-rule="nonzero"/></clipPath><clipPath id="f7f75dc63e"><path d="M 40.542969 1.332031 C 44.910156 1.332031 48.441406 4.871094 48.441406 9.230469 L 48.441406 39.765625 C 48.441406 44.132812 44.902344 47.660156 40.542969 47.660156 L 8.449219 47.660156 C 4.085938 47.660156 0.554688 44.121094 0.554688 39.765625 L 0.554688 9.230469 C 0.554688 4.863281 4.09375 1.332031 8.449219 1.332031 Z M 40.542969 1.332031 " clip-rule="nonzero"/></clipPath><clipPath id="0a28972e31"><path d="M 0 0.773438 L 49 0.773438 L 49 48.222656 L 0 48.222656 Z M 0 0.773438 " clip-rule="nonzero"/></clipPath><clipPath id="293da0c8f5"><path d="M 49 9.230469 L 49 39.765625 C 49 44.425781 45.203125 48.222656 40.542969 48.222656 L 8.449219 48.222656 C 3.789062 48.222656 -0.00390625 44.425781 -0.00390625 39.765625 L -0.00390625 9.230469 C -0.00390625 4.570312 3.789062 0.773438 8.449219 0.773438 L 40.535156 0.773438 C 45.203125 0.773438 49 4.570312 49 9.230469 Z M 1.113281 39.765625 C 1.113281 43.808594 4.40625 47.101562 8.449219 47.101562 L 40.535156 47.101562 C 44.578125 47.101562 47.871094 43.808594 47.871094 39.765625 L 47.871094 9.230469 C 47.871094 5.1875 44.578125 1.894531 40.535156 1.894531 L 8.449219 1.894531 C 4.40625 1.894531 1.113281 5.1875 1.113281 9.230469 Z M 1.113281 39.765625 " clip-rule="nonzero"/></clipPath><clipPath id="0b3c91a854"><path d="M 18 29 L 31 29 L 31 42.6875 L 18 42.6875 Z M 18 29 " clip-rule="nonzero"/></clipPath><clipPath id="e07998d4a7"><path d="M 6.191406 6.304688 L 19 6.304688 L 19 31 L 6.191406 31 Z M 6.191406 6.304688 " clip-rule="nonzero"/></clipPath><clipPath id="50187ebdf9"><path d="M 30 10 L 42.574219 10 L 42.574219 35 L 30 35 Z M 30 10 " clip-rule="nonzero"/></clipPath></defs><g clip-path="url(#06b7d1a38c)"><g clip-path="url(#f7f75dc63e)"><path fill="#ffffff" d="M -0.00390625 48.222656 L -0.00390625 0.773438 L 49 0.773438 L 49 48.222656 Z M -0.00390625 48.222656 " fill-opacity="1" fill-rule="nonzero"/></g></g><g clip-path="url(#0a28972e31)"><g clip-path="url(#293da0c8f5)"><path fill="#edf4ff" d="M -0.00390625 48.222656 L -0.00390625 0.773438 L 49 0.773438 L 49 48.222656 Z M -0.00390625 48.222656 " fill-opacity="1" fill-rule="nonzero"/></g></g><path fill="#2f72f1" d="M 34.046875 27.320312 C 35.308594 27.320312 36.332031 26.296875 36.332031 25.035156 L 36.332031 15.75 C 36.332031 14.492188 35.308594 13.464844 34.046875 13.464844 L 14.949219 13.464844 C 13.691406 13.464844 12.664062 14.492188 12.664062 15.75 L 12.664062 25.035156 C 12.664062 26.296875 13.691406 27.320312 14.949219 27.320312 Z M 13.242188 25.035156 L 13.242188 15.75 C 13.242188 14.808594 14.007812 14.042969 14.949219 14.042969 L 24.210938 14.042969 L 24.210938 18.085938 L 23.34375 18.085938 C 22.070312 18.085938 21.035156 19.121094 21.035156 20.394531 C 21.035156 21.011719 21.273438 21.589844 21.710938 22.027344 C 22.148438 22.460938 22.726562 22.703125 23.34375 22.703125 L 24.210938 22.703125 L 24.210938 26.742188 L 14.949219 26.742188 C 14.007812 26.742188 13.242188 25.976562 13.242188 25.035156 Z M 13.242188 25.035156 " fill-opacity="1" fill-rule="nonzero"/><g clip-path="url(#0b3c91a854)"><path fill="#2f72f1" d="M 30.128906 34.613281 L 27.820312 34.613281 C 27.660156 34.613281 27.53125 34.742188 27.53125 34.902344 L 27.53125 35.425781 C 27.300781 35.246094 27.058594 35.082031 26.804688 34.9375 C 26.742188 34.902344 26.683594 34.871094 26.621094 34.835938 C 26.460938 34.753906 26.355469 34.589844 26.347656 34.410156 C 26.195312 31.789062 26.328125 30.851562 26.371094 30.625 C 26.382812 30.566406 26.394531 30.507812 26.40625 30.449219 C 26.496094 30.023438 26.34375 29.589844 26.007812 29.316406 C 25.675781 29.042969 25.222656 28.976562 24.824219 29.148438 C 24.820312 29.148438 24.816406 29.152344 24.808594 29.15625 C 23.476562 29.738281 22.890625 31.90625 23.378906 34.429688 C 23.390625 34.492188 23.363281 34.539062 23.347656 34.558594 C 23.328125 34.578125 23.292969 34.613281 23.230469 34.613281 L 19.84375 34.613281 C 19.148438 34.613281 18.582031 35.179688 18.582031 35.875 C 18.582031 36.210938 18.710938 36.527344 18.953125 36.769531 C 18.980469 36.796875 19.011719 36.824219 19.042969 36.851562 C 18.761719 37.082031 18.582031 37.433594 18.582031 37.824219 C 18.582031 38.160156 18.710938 38.476562 18.953125 38.71875 C 18.980469 38.746094 19.011719 38.773438 19.042969 38.796875 C 18.761719 39.03125 18.582031 39.378906 18.582031 39.773438 C 18.582031 40.109375 18.710938 40.425781 18.953125 40.664062 C 18.96875 40.683594 18.984375 40.695312 19.003906 40.710938 C 18.753906 40.914062 18.589844 41.214844 18.582031 41.554688 C 18.578125 41.859375 18.691406 42.144531 18.902344 42.359375 C 19.113281 42.574219 19.398438 42.695312 19.699219 42.695312 L 25.296875 42.695312 C 25.964844 42.695312 26.613281 42.46875 27.121094 42.0625 L 27.125 42.058594 C 27.128906 42.058594 27.132812 42.054688 27.132812 42.054688 C 27.269531 41.941406 27.402344 41.824219 27.53125 41.703125 L 27.53125 41.828125 C 27.53125 41.988281 27.660156 42.117188 27.816406 42.117188 L 30.128906 42.117188 C 30.285156 42.117188 30.417969 41.988281 30.417969 41.828125 L 30.417969 34.902344 C 30.417969 34.742188 30.285156 34.613281 30.128906 34.613281 Z M 26.773438 41.601562 C 26.769531 41.605469 26.765625 41.609375 26.761719 41.609375 C 26.355469 41.9375 25.835938 42.117188 25.296875 42.117188 L 19.699219 42.117188 C 19.554688 42.117188 19.417969 42.058594 19.3125 41.953125 C 19.210938 41.851562 19.15625 41.710938 19.160156 41.566406 C 19.164062 41.273438 19.417969 41.035156 19.726562 41.035156 L 20.023438 41.035156 C 20.183594 41.035156 20.3125 40.90625 20.3125 40.746094 C 20.3125 40.585938 20.183594 40.457031 20.023438 40.457031 L 19.84375 40.457031 C 19.660156 40.457031 19.488281 40.386719 19.359375 40.257812 C 19.230469 40.128906 19.160156 39.953125 19.160156 39.773438 C 19.160156 39.394531 19.464844 39.085938 19.84375 39.085938 L 20.023438 39.085938 C 20.183594 39.085938 20.3125 38.957031 20.3125 38.796875 C 20.3125 38.636719 20.183594 38.507812 20.023438 38.507812 L 19.84375 38.507812 C 19.660156 38.507812 19.488281 38.4375 19.359375 38.308594 C 19.230469 38.179688 19.160156 38.007812 19.160156 37.824219 C 19.160156 37.445312 19.464844 37.136719 19.84375 37.136719 L 20.023438 37.136719 C 20.183594 37.136719 20.3125 37.007812 20.3125 36.847656 C 20.3125 36.691406 20.183594 36.5625 20.023438 36.5625 L 19.84375 36.5625 C 19.660156 36.5625 19.488281 36.488281 19.359375 36.359375 C 19.230469 36.230469 19.160156 36.058594 19.160156 35.875 C 19.160156 35.496094 19.464844 35.191406 19.84375 35.191406 L 23.230469 35.191406 C 23.449219 35.191406 23.652344 35.09375 23.792969 34.925781 C 23.929688 34.757812 23.984375 34.535156 23.945312 34.320312 C 23.457031 31.800781 24.128906 30.078125 25.046875 29.679688 C 25.050781 29.679688 25.054688 29.675781 25.058594 29.675781 C 25.257812 29.59375 25.476562 29.625 25.640625 29.761719 C 25.8125 29.902344 25.886719 30.113281 25.839844 30.328125 C 25.828125 30.390625 25.816406 30.453125 25.804688 30.515625 C 25.742188 30.824219 25.621094 31.828125 25.769531 34.441406 C 25.792969 34.824219 26.015625 35.171875 26.351562 35.347656 C 26.40625 35.378906 26.464844 35.410156 26.519531 35.441406 C 26.878906 35.644531 27.21875 35.894531 27.53125 36.179688 L 27.53125 40.855469 C 27.300781 41.128906 27.046875 41.378906 26.773438 41.601562 Z M 26.773438 41.601562 " fill-opacity="1" fill-rule="nonzero"/></g><g clip-path="url(#e07998d4a7)"><path fill="#2f72f1" d="M 13.480469 28.34375 C 10.378906 26.171875 8.707031 22.503906 9.117188 18.765625 C 9.496094 15.335938 11.644531 12.277344 14.75 10.707031 L 15.292969 12.089844 C 15.332031 12.191406 15.421875 12.261719 15.527344 12.273438 C 15.632812 12.285156 15.738281 12.238281 15.796875 12.152344 L 18.773438 7.882812 C 18.828125 7.800781 18.839844 7.699219 18.804688 7.609375 C 18.769531 7.519531 18.691406 7.453125 18.597656 7.433594 L 13.511719 6.332031 C 13.40625 6.308594 13.300781 6.34375 13.230469 6.425781 C 13.160156 6.507812 13.140625 6.621094 13.179688 6.71875 L 13.742188 8.144531 C 11.925781 9.015625 10.320312 10.304688 9.078125 11.890625 C 7.585938 13.800781 6.65625 16.074219 6.394531 18.464844 C 6.195312 20.273438 6.371094 22.066406 6.917969 23.800781 C 7.78125 26.53125 9.554688 28.941406 11.910156 30.589844 C 11.960938 30.625 12.019531 30.644531 12.074219 30.644531 C 12.167969 30.644531 12.257812 30.601562 12.3125 30.519531 L 13.550781 28.746094 C 13.597656 28.683594 13.613281 28.605469 13.601562 28.53125 C 13.585938 28.453125 13.542969 28.386719 13.480469 28.34375 Z M 13.480469 28.34375 " fill-opacity="1" fill-rule="nonzero"/></g><g clip-path="url(#50187ebdf9)"><path fill="#2f72f1" d="M 42.082031 16.847656 C 41.21875 14.117188 39.445312 11.707031 37.085938 10.058594 C 36.957031 9.964844 36.777344 10 36.6875 10.128906 L 35.445312 11.902344 C 35.402344 11.964844 35.382812 12.042969 35.398438 12.121094 C 35.410156 12.195312 35.453125 12.261719 35.515625 12.304688 C 38.621094 14.476562 40.292969 18.144531 39.878906 21.882812 C 39.5 25.3125 37.355469 28.371094 34.25 29.941406 L 33.707031 28.558594 C 33.667969 28.457031 33.578125 28.386719 33.46875 28.375 C 33.363281 28.363281 33.261719 28.410156 33.199219 28.496094 L 30.226562 32.765625 C 30.171875 32.847656 30.160156 32.949219 30.195312 33.039062 C 30.230469 33.128906 30.308594 33.195312 30.402344 33.214844 L 35.488281 34.316406 C 35.507812 34.320312 35.527344 34.324219 35.546875 34.324219 C 35.632812 34.324219 35.710938 34.289062 35.769531 34.222656 C 35.835938 34.140625 35.855469 34.027344 35.816406 33.929688 L 35.257812 32.503906 C 37.070312 31.632812 38.679688 30.34375 39.917969 28.757812 C 41.410156 26.851562 42.339844 24.578125 42.605469 22.183594 C 42.804688 20.375 42.628906 18.582031 42.082031 16.847656 Z M 42.082031 16.847656 " fill-opacity="1" fill-rule="nonzero"/></g></svg>