<svg xmlns="http://www.w3.org/2000/svg" xmlns:xlink="http://www.w3.org/1999/xlink" width="66" zoomAndPan="magnify" viewBox="0 0 49.5 49.499998" height="66" preserveAspectRatio="xMidYMid meet" version="1.0"><defs><clipPath id="daf926c810"><path d="M 0.46875 2.027344 L 48.527344 2.027344 L 48.527344 48.527344 L 0.46875 48.527344 Z M 0.46875 2.027344 " clip-rule="nonzero"/></clipPath><clipPath id="bfd8f5730d"><path d="M 40.542969 2.109375 C 44.910156 2.109375 48.441406 5.652344 48.441406 10.007812 L 48.441406 40.542969 C 48.441406 44.910156 44.902344 48.441406 40.542969 48.441406 L 8.449219 48.441406 C 4.085938 48.441406 0.554688 44.902344 0.554688 40.542969 L 0.554688 10.007812 C 0.554688 5.640625 4.09375 2.109375 8.449219 2.109375 Z M 40.542969 2.109375 " clip-rule="nonzero"/></clipPath><clipPath id="e184f6ebc0"><path d="M 0 1.550781 L 49 1.550781 L 49 49 L 0 49 Z M 0 1.550781 " clip-rule="nonzero"/></clipPath><clipPath id="35dd757c59"><path d="M 49 10.007812 L 49 40.542969 C 49 45.203125 45.203125 49 40.542969 49 L 8.449219 49 C 3.789062 49 -0.00390625 45.203125 -0.00390625 40.542969 L -0.00390625 10.007812 C -0.00390625 5.347656 3.789062 1.550781 8.449219 1.550781 L 40.535156 1.550781 C 45.203125 1.550781 49 5.347656 49 10.007812 Z M 1.113281 40.542969 C 1.113281 44.585938 4.40625 47.878906 8.449219 47.878906 L 40.535156 47.878906 C 44.578125 47.878906 47.871094 44.585938 47.871094 40.542969 L 47.871094 10.007812 C 47.871094 5.964844 44.578125 2.671875 40.535156 2.671875 L 8.449219 2.671875 C 4.40625 2.671875 1.113281 5.964844 1.113281 10.007812 Z M 1.113281 40.542969 " clip-rule="nonzero"/></clipPath><clipPath id="b02ed4422b"><path d="M 10.402344 18.699219 L 24.503906 18.699219 L 24.503906 31.589844 L 10.402344 31.589844 Z M 10.402344 18.699219 " clip-rule="nonzero"/></clipPath><clipPath id="c53be7c5e9"><path d="M 25.105469 9.953125 L 39.503906 9.953125 L 39.503906 22.996094 L 25.105469 22.996094 Z M 25.105469 9.953125 " clip-rule="nonzero"/></clipPath><clipPath id="2c0b9f4947"><path d="M 6.191406 20 L 17 20 L 17 32 L 6.191406 32 Z M 6.191406 20 " clip-rule="nonzero"/></clipPath><clipPath id="b2a9a327fe"><path d="M 32 20 L 42.574219 20 L 42.574219 32 L 32 32 Z M 32 20 " clip-rule="nonzero"/></clipPath><clipPath id="03f72e0e22"><path d="M 13 33 L 36 33 L 36 39.371094 L 13 39.371094 Z M 13 33 " clip-rule="nonzero"/></clipPath><clipPath id="bca4ec83f7"><path d="M 11 9.671875 L 33 9.671875 L 33 20 L 11 20 Z M 11 9.671875 " clip-rule="nonzero"/></clipPath></defs><g clip-path="url(#daf926c810)"><g clip-path="url(#bfd8f5730d)"><path fill="#ffffff" d="M -0.00390625 49 L -0.00390625 1.550781 L 49 1.550781 L 49 49 Z M -0.00390625 49 " fill-opacity="1" fill-rule="nonzero"/></g></g><g clip-path="url(#e184f6ebc0)"><g clip-path="url(#35dd757c59)"><path fill="#edf4ff" d="M -0.00390625 49 L -0.00390625 1.550781 L 49 1.550781 L 49 49 Z M -0.00390625 49 " fill-opacity="1" fill-rule="nonzero"/></g></g><g clip-path="url(#b02ed4422b)"><path fill="#ffffff" d="M 10.402344 18.699219 L 24.503906 18.699219 L 24.503906 31.589844 L 10.402344 31.589844 Z M 10.402344 18.699219 " fill-opacity="1" fill-rule="nonzero"/></g><g clip-path="url(#c53be7c5e9)"><path fill="#ffffff" d="M 25.105469 9.953125 L 39.503906 9.953125 L 39.503906 22.996094 L 25.105469 22.996094 Z M 25.105469 9.953125 " fill-opacity="1" fill-rule="nonzero"/></g><g clip-path="url(#2c0b9f4947)"><path fill="#2f72f1" d="M 14.949219 29.972656 C 15.058594 30.015625 15.183594 29.980469 15.257812 29.890625 L 16.046875 28.921875 C 16.121094 28.832031 16.132812 28.703125 16.070312 28.601562 L 15.476562 27.613281 L 15.6875 26.910156 L 16.730469 26.417969 C 16.835938 26.367188 16.902344 26.253906 16.890625 26.136719 L 16.765625 24.894531 C 16.753906 24.777344 16.667969 24.679688 16.554688 24.652344 L 15.433594 24.375 L 15.085938 23.726562 L 15.476562 22.640625 C 15.515625 22.53125 15.484375 22.40625 15.390625 22.332031 L 14.425781 21.542969 C 14.335938 21.46875 14.207031 21.457031 14.105469 21.519531 L 13.117188 22.117188 L 12.414062 21.902344 L 11.917969 20.859375 C 11.867188 20.753906 11.757812 20.691406 11.640625 20.699219 L 10.398438 20.824219 C 10.28125 20.835938 10.183594 20.921875 10.15625 21.035156 L 9.878906 22.15625 L 9.230469 22.503906 L 8.144531 22.113281 C 8.035156 22.074219 7.910156 22.109375 7.835938 22.199219 L 7.042969 23.164062 C 6.96875 23.253906 6.960938 23.382812 7.023438 23.484375 L 7.617188 24.472656 L 7.40625 25.175781 L 6.363281 25.671875 C 6.257812 25.71875 6.191406 25.832031 6.203125 25.949219 L 6.328125 27.191406 C 6.339844 27.308594 6.421875 27.40625 6.539062 27.433594 L 7.660156 27.710938 L 8.007812 28.359375 L 7.617188 29.445312 C 7.578125 29.554688 7.609375 29.679688 7.703125 29.753906 L 8.667969 30.546875 C 8.757812 30.617188 8.886719 30.628906 8.988281 30.566406 L 9.976562 29.972656 L 10.679688 30.183594 L 11.175781 31.226562 C 11.207031 31.300781 11.269531 31.351562 11.34375 31.375 C 11.378906 31.382812 11.414062 31.386719 11.453125 31.382812 L 12.695312 31.261719 C 12.8125 31.25 12.910156 31.164062 12.9375 31.050781 L 13.214844 29.929688 L 13.863281 29.582031 Z M 13.371094 26.144531 C 13.316406 27.152344 12.457031 27.921875 11.449219 27.867188 C 10.441406 27.8125 9.671875 26.953125 9.726562 25.945312 C 9.78125 24.941406 10.640625 24.167969 11.648438 24.222656 C 12.652344 24.277344 13.425781 25.136719 13.371094 26.144531 Z M 13.371094 26.144531 " fill-opacity="1" fill-rule="nonzero"/></g><g clip-path="url(#b2a9a327fe)"><path fill="#2f72f1" d="M 42.625 24.996094 L 41.546875 24.582031 L 41.28125 23.894531 L 41.804688 22.863281 C 41.855469 22.757812 41.835938 22.632812 41.757812 22.546875 L 40.898438 21.640625 C 40.816406 21.558594 40.691406 21.53125 40.582031 21.578125 L 39.527344 22.046875 L 38.855469 21.75 L 38.496094 20.652344 C 38.460938 20.539062 38.359375 20.464844 38.238281 20.460938 L 36.992188 20.429688 C 36.875 20.425781 36.765625 20.496094 36.726562 20.605469 L 36.3125 21.683594 L 35.625 21.949219 L 34.59375 21.425781 C 34.488281 21.375 34.363281 21.394531 34.277344 21.472656 L 33.371094 22.332031 C 33.289062 22.414062 33.261719 22.539062 33.308594 22.648438 L 33.777344 23.703125 L 33.480469 24.375 L 32.382812 24.734375 C 32.269531 24.769531 32.195312 24.871094 32.191406 24.992188 L 32.160156 26.238281 C 32.15625 26.355469 32.226562 26.460938 32.335938 26.503906 L 33.414062 26.917969 L 33.679688 27.605469 L 33.15625 28.636719 C 33.105469 28.742188 33.125 28.867188 33.203125 28.953125 L 34.0625 29.855469 C 34.144531 29.941406 34.269531 29.96875 34.378906 29.917969 L 35.433594 29.453125 L 36.105469 29.75 L 36.464844 30.847656 C 36.488281 30.921875 36.542969 30.984375 36.613281 31.015625 C 36.648438 31.027344 36.683594 31.039062 36.722656 31.039062 L 37.96875 31.070312 C 38.085938 31.074219 38.191406 31 38.234375 30.890625 L 38.648438 29.816406 L 39.335938 29.550781 L 40.367188 30.074219 C 40.472656 30.125 40.597656 30.105469 40.683594 30.027344 L 41.585938 29.167969 C 41.671875 29.085938 41.699219 28.960938 41.648438 28.851562 L 41.183594 27.796875 L 41.480469 27.125 L 42.578125 26.765625 C 42.6875 26.730469 42.765625 26.628906 42.769531 26.507812 L 42.800781 25.261719 C 42.804688 25.144531 42.734375 25.035156 42.625 24.996094 Z M 39.277344 26.074219 C 39.097656 27.066406 38.148438 27.726562 37.15625 27.546875 C 36.164062 27.367188 35.503906 26.414062 35.683594 25.421875 C 35.863281 24.429688 36.8125 23.773438 37.804688 23.953125 C 38.796875 24.132812 39.457031 25.082031 39.277344 26.074219 Z M 39.277344 26.074219 " fill-opacity="1" fill-rule="nonzero"/></g><path fill="#2f72f1" d="M 32.964844 23.734375 C 33.105469 23.605469 33.152344 23.402344 33.078125 23.222656 L 32.296875 21.332031 C 32.222656 21.15625 32.046875 21.042969 31.851562 21.054688 L 29.960938 21.148438 L 29.109375 20.296875 L 29.207031 18.40625 C 29.214844 18.214844 29.101562 18.035156 28.925781 17.960938 L 27.035156 17.179688 C 26.859375 17.105469 26.652344 17.152344 26.523438 17.296875 L 25.253906 18.699219 L 24.046875 18.699219 L 22.777344 17.296875 C 22.648438 17.152344 22.441406 17.105469 22.265625 17.179688 L 20.375 17.960938 C 20.199219 18.035156 20.085938 18.214844 20.09375 18.40625 L 20.191406 20.296875 L 19.339844 21.148438 L 17.449219 21.054688 C 17.253906 21.042969 17.078125 21.15625 17.003906 21.332031 L 16.222656 23.222656 C 16.148438 23.402344 16.195312 23.605469 16.335938 23.734375 L 17.742188 25.003906 L 17.742188 26.210938 L 16.335938 27.480469 C 16.195312 27.609375 16.148438 27.816406 16.222656 27.996094 L 17.003906 29.882812 C 17.078125 30.0625 17.253906 30.175781 17.449219 30.164062 L 19.339844 30.066406 L 20.191406 30.921875 L 20.09375 32.8125 C 20.085938 33.003906 20.199219 33.183594 20.375 33.257812 L 22.265625 34.039062 C 22.441406 34.113281 22.648438 34.066406 22.777344 33.921875 L 24.046875 32.515625 L 25.253906 32.515625 L 26.523438 33.921875 C 26.609375 34.019531 26.734375 34.074219 26.859375 34.074219 C 26.917969 34.074219 26.976562 34.0625 27.035156 34.039062 L 28.925781 33.257812 C 29.101562 33.183594 29.214844 33.003906 29.207031 32.8125 L 29.109375 30.921875 L 29.960938 30.066406 L 31.851562 30.164062 C 32.046875 30.175781 32.222656 30.0625 32.296875 29.882812 L 33.078125 27.996094 C 33.152344 27.816406 33.105469 27.609375 32.964844 27.480469 L 31.558594 26.210938 L 31.558594 25.003906 Z M 24.648438 30.527344 C 21.933594 30.527344 19.730469 28.324219 19.730469 25.609375 C 19.730469 22.894531 21.933594 20.691406 24.648438 20.691406 C 27.363281 20.691406 29.566406 22.894531 29.566406 25.609375 C 29.566406 28.324219 27.363281 30.527344 24.648438 30.527344 Z M 24.648438 30.527344 " fill-opacity="1" fill-rule="nonzero"/><path fill="#2f72f1" d="M 25.5 25.046875 C 25.96875 24.753906 26.28125 24.234375 26.28125 23.640625 C 26.28125 22.726562 25.539062 21.988281 24.625 21.988281 C 23.710938 21.988281 22.972656 22.726562 22.972656 23.640625 C 22.972656 24.234375 23.28125 24.753906 23.75 25.046875 C 22.527344 25.417969 21.636719 26.558594 21.636719 27.90625 C 21.636719 28.097656 21.773438 28.261719 21.957031 28.296875 C 22.222656 28.570312 23.316406 28.773438 24.628906 28.773438 C 25.941406 28.773438 27.039062 28.570312 27.304688 28.296875 C 27.484375 28.257812 27.617188 28.097656 27.617188 27.90625 C 27.617188 26.558594 26.726562 25.417969 25.5 25.046875 Z M 25.5 25.046875 " fill-opacity="1" fill-rule="nonzero"/><path fill="#2f72f1" d="M 33.75 19.414062 L 33.75 17.257812 C 33.75 17.054688 33.585938 16.890625 33.382812 16.890625 L 32.164062 16.890625 C 31.960938 16.890625 31.796875 17.054688 31.796875 17.257812 L 31.796875 19.414062 C 31.796875 19.617188 31.960938 19.78125 32.164062 19.78125 L 33.382812 19.78125 C 33.585938 19.78125 33.75 19.617188 33.75 19.414062 Z M 33.75 19.414062 " fill-opacity="1" fill-rule="nonzero"/><path fill="#2f72f1" d="M 34.929688 15.753906 C 34.726562 15.753906 34.5625 15.917969 34.5625 16.117188 L 34.5625 19.414062 C 34.5625 19.617188 34.726562 19.78125 34.929688 19.78125 L 36.148438 19.78125 C 36.351562 19.78125 36.515625 19.617188 36.515625 19.414062 L 36.515625 16.117188 C 36.515625 15.914062 36.351562 15.753906 36.148438 15.753906 Z M 34.929688 15.753906 " fill-opacity="1" fill-rule="nonzero"/><path fill="#2f72f1" d="M 37.328125 14.003906 L 37.328125 19.414062 C 37.328125 19.617188 37.492188 19.78125 37.695312 19.78125 L 38.914062 19.78125 C 39.117188 19.78125 39.28125 19.617188 39.28125 19.414062 L 39.28125 14.003906 C 39.28125 13.800781 39.117188 13.636719 38.914062 13.636719 L 37.695312 13.636719 C 37.492188 13.636719 37.328125 13.800781 37.328125 14.003906 Z M 37.328125 14.003906 " fill-opacity="1" fill-rule="nonzero"/><path fill="#2f72f1" d="M 32.6875 15.175781 C 32.722656 15.179688 32.761719 15.175781 32.800781 15.175781 L 32.914062 15.175781 C 32.953125 15.175781 32.992188 15.175781 33.03125 15.171875 C 33.070312 15.171875 33.109375 15.171875 33.144531 15.167969 L 33.261719 15.15625 C 33.300781 15.15625 33.339844 15.152344 33.375 15.148438 L 33.492188 15.132812 C 33.511719 15.132812 33.53125 15.128906 33.550781 15.128906 L 33.605469 15.117188 C 33.914062 15.074219 34.21875 15 34.519531 14.898438 C 34.820312 14.800781 35.113281 14.671875 35.394531 14.523438 C 35.960938 14.222656 36.480469 13.816406 36.925781 13.324219 C 37.296875 12.914062 37.613281 12.441406 37.859375 11.925781 L 38.324219 12.0625 C 38.445312 12.09375 38.550781 11.976562 38.5 11.863281 L 37.816406 10.21875 C 37.78125 10.132812 37.671875 10.101562 37.597656 10.15625 L 36.140625 11.179688 C 36.039062 11.25 36.066406 11.40625 36.183594 11.441406 L 36.605469 11.5625 C 36.492188 11.957031 36.328125 12.34375 36.109375 12.703125 C 35.824219 13.167969 35.457031 13.597656 35.019531 13.949219 C 34.800781 14.128906 34.566406 14.289062 34.316406 14.429688 C 34.0625 14.566406 33.800781 14.6875 33.527344 14.785156 L 33.472656 14.800781 C 33.457031 14.808594 33.441406 14.8125 33.421875 14.820312 L 33.316406 14.851562 C 33.28125 14.863281 33.246094 14.871094 33.210938 14.882812 L 33.105469 14.914062 C 33.070312 14.921875 33.035156 14.929688 32.996094 14.9375 C 32.960938 14.945312 32.925781 14.953125 32.890625 14.964844 L 32.78125 14.984375 C 32.746094 14.992188 32.707031 15 32.671875 15.003906 L 31.78125 15.160156 Z M 32.6875 15.175781 " fill-opacity="1" fill-rule="nonzero"/><g clip-path="url(#03f72e0e22)"><path fill="#2f72f1" d="M 35.570312 33.414062 C 35.351562 33.234375 35.027344 33.265625 34.847656 33.484375 C 32.316406 36.542969 28.589844 38.296875 24.625 38.296875 C 21.90625 38.296875 19.289062 37.480469 17.066406 35.929688 C 17.019531 35.898438 16.96875 35.875 16.921875 35.863281 L 17.914062 34.867188 C 18.023438 34.757812 18.066406 34.597656 18.027344 34.445312 C 17.988281 34.296875 17.871094 34.179688 17.71875 34.136719 L 13.824219 33.058594 C 13.671875 33.015625 13.507812 33.058594 13.398438 33.171875 C 13.285156 33.28125 13.242188 33.445312 13.285156 33.597656 L 14.363281 37.492188 C 14.40625 37.644531 14.523438 37.761719 14.671875 37.800781 C 14.710938 37.8125 14.746094 37.816406 14.785156 37.816406 C 14.902344 37.816406 15.011719 37.769531 15.09375 37.6875 L 16.28125 36.503906 C 16.3125 36.609375 16.378906 36.707031 16.476562 36.773438 C 18.875 38.441406 21.695312 39.324219 24.625 39.324219 C 25.710938 39.324219 26.796875 39.199219 27.847656 38.960938 C 28.867188 38.722656 29.863281 38.375 30.8125 37.917969 C 31.738281 37.472656 32.621094 36.921875 33.433594 36.285156 C 34.242188 35.652344 34.984375 34.929688 35.636719 34.136719 C 35.820312 33.917969 35.789062 33.597656 35.570312 33.414062 Z M 15.007812 36.53125 L 14.335938 34.109375 L 16.761719 34.78125 Z M 15.007812 36.53125 " fill-opacity="1" fill-rule="nonzero"/></g><g clip-path="url(#bca4ec83f7)"><path fill="#2f72f1" d="M 12.164062 19.144531 C 12.242188 19.1875 12.320312 19.203125 12.402344 19.203125 C 12.585938 19.203125 12.765625 19.105469 12.855469 18.929688 C 15.152344 14.519531 19.660156 11.78125 24.625 11.78125 C 25.863281 11.78125 27.082031 11.949219 28.257812 12.285156 L 27.621094 13.410156 C 27.542969 13.542969 27.546875 13.710938 27.625 13.847656 C 27.703125 13.980469 27.847656 14.0625 28.003906 14.0625 L 31.988281 14.0625 C 32.144531 14.0625 32.289062 13.980469 32.367188 13.847656 C 32.445312 13.710938 32.445312 13.546875 32.367188 13.410156 L 30.378906 9.890625 C 30.300781 9.753906 30.15625 9.671875 29.996094 9.671875 C 29.835938 9.671875 29.691406 9.753906 29.613281 9.890625 L 28.777344 11.367188 C 27.4375 10.960938 26.039062 10.757812 24.625 10.757812 C 23.277344 10.757812 21.9375 10.945312 20.652344 11.316406 C 19.410156 11.675781 18.214844 12.203125 17.109375 12.890625 C 14.917969 14.246094 13.132812 16.171875 11.945312 18.453125 C 11.816406 18.707031 11.914062 19.015625 12.164062 19.144531 Z M 29.996094 11 L 31.234375 13.1875 L 28.757812 13.1875 Z M 29.996094 11 " fill-opacity="1" fill-rule="nonzero"/></g></svg>