<svg xmlns="http://www.w3.org/2000/svg" xmlns:xlink="http://www.w3.org/1999/xlink" width="66" zoomAndPan="magnify" viewBox="0 0 49.5 49.499998" height="66" preserveAspectRatio="xMidYMid meet" version="1.0"><defs><clipPath id="e09d54f210"><path d="M 0.46875 1.246094 L 48.527344 1.246094 L 48.527344 47.746094 L 0.46875 47.746094 Z M 0.46875 1.246094 " clip-rule="nonzero"/></clipPath><clipPath id="93ea40748f"><path d="M 40.542969 1.332031 C 44.910156 1.332031 48.441406 4.871094 48.441406 9.230469 L 48.441406 39.765625 C 48.441406 44.132812 44.902344 47.660156 40.542969 47.660156 L 8.449219 47.660156 C 4.085938 47.660156 0.554688 44.121094 0.554688 39.765625 L 0.554688 9.230469 C 0.554688 4.863281 4.09375 1.332031 8.449219 1.332031 Z M 40.542969 1.332031 " clip-rule="nonzero"/></clipPath><clipPath id="cb4403b9e3"><path d="M 0 0.773438 L 49 0.773438 L 49 48.222656 L 0 48.222656 Z M 0 0.773438 " clip-rule="nonzero"/></clipPath><clipPath id="ccb9ce601e"><path d="M 49 9.230469 L 49 39.765625 C 49 44.425781 45.203125 48.222656 40.542969 48.222656 L 8.449219 48.222656 C 3.789062 48.222656 -0.00390625 44.425781 -0.00390625 39.765625 L -0.00390625 9.230469 C -0.00390625 4.570312 3.789062 0.773438 8.449219 0.773438 L 40.535156 0.773438 C 45.203125 0.773438 49 4.570312 49 9.230469 Z M 1.113281 39.765625 C 1.113281 43.808594 4.40625 47.101562 8.449219 47.101562 L 40.535156 47.101562 C 44.578125 47.101562 47.871094 43.808594 47.871094 39.765625 L 47.871094 9.230469 C 47.871094 5.1875 44.578125 1.894531 40.535156 1.894531 L 8.449219 1.894531 C 4.40625 1.894531 1.113281 5.1875 1.113281 9.230469 Z M 1.113281 39.765625 " clip-rule="nonzero"/></clipPath><clipPath id="c85a7fb87c"><path d="M 9.289062 7 L 39.734375 7 L 39.734375 43 L 9.289062 43 Z M 9.289062 7 " clip-rule="nonzero"/></clipPath></defs><g clip-path="url(#e09d54f210)"><g clip-path="url(#93ea40748f)"><path fill="#ffffff" d="M -0.00390625 48.222656 L -0.00390625 0.773438 L 49 0.773438 L 49 48.222656 Z M -0.00390625 48.222656 " fill-opacity="1" fill-rule="nonzero"/></g></g><g clip-path="url(#cb4403b9e3)"><g clip-path="url(#ccb9ce601e)"><path fill="#edf4ff" d="M -0.00390625 48.222656 L -0.00390625 0.773438 L 49 0.773438 L 49 48.222656 Z M -0.00390625 48.222656 " fill-opacity="1" fill-rule="nonzero"/></g></g><g clip-path="url(#c85a7fb87c)"><path fill="#2f72f1" d="M 29.578125 21.789062 L 34.003906 21.789062 C 34.085938 21.789062 34.160156 21.769531 34.230469 21.734375 C 34.304688 21.695312 34.363281 21.644531 34.410156 21.582031 C 34.457031 21.515625 34.488281 21.445312 34.5 21.367188 C 34.515625 21.289062 34.507812 21.210938 34.484375 21.132812 C 34.300781 20.542969 33.980469 20.039062 33.523438 19.617188 C 33.066406 19.199219 32.535156 18.925781 31.929688 18.792969 C 31.328125 18.664062 30.730469 18.691406 30.140625 18.882812 C 29.550781 19.074219 29.050781 19.402344 28.636719 19.863281 C 29.085938 20.4375 29.398438 21.078125 29.578125 21.789062 Z M 20.082031 30.726562 C 21.425781 32.097656 22.984375 31.46875 24.464844 30.867188 C 25.648438 30.386719 26.792969 29.925781 27.902344 30.230469 C 28.125 30.289062 28.335938 30.378906 28.535156 30.492188 L 33.5 33.320312 C 33.699219 33.433594 33.871094 33.574219 34.023438 33.746094 L 34.460938 33.5625 L 31.992188 27.1875 C 31 27.628906 30.121094 27.269531 29.125 26.863281 C 28.082031 26.4375 26.878906 25.945312 25.320312 26.703125 C 24.613281 27.050781 23.957031 27.59375 23.40625 28.148438 C 22.863281 28.691406 22.289062 29.191406 21.671875 29.648438 C 21.167969 30.03125 20.636719 30.390625 20.082031 30.726562 Z M 13.617188 23.175781 L 9.621094 32.210938 C 9.527344 32.429688 9.519531 32.652344 9.605469 32.875 C 9.695312 33.097656 9.847656 33.257812 10.066406 33.355469 L 11.804688 34.125 C 12.023438 34.222656 12.246094 34.226562 12.46875 34.140625 C 12.691406 34.050781 12.851562 33.898438 12.949219 33.679688 L 16.945312 24.644531 C 17.039062 24.425781 17.046875 24.203125 16.960938 23.980469 C 16.871094 23.757812 16.71875 23.597656 16.5 23.5 L 14.761719 22.730469 C 14.542969 22.632812 14.320312 22.628906 14.097656 22.714844 C 13.875 22.800781 13.714844 22.957031 13.617188 23.175781 Z M 35.824219 23.816406 L 39.394531 33.027344 C 39.480469 33.25 39.476562 33.472656 39.378906 33.691406 C 39.28125 33.910156 39.121094 34.0625 38.898438 34.152344 L 37.125 34.839844 C 36.902344 34.925781 36.679688 34.917969 36.460938 34.824219 C 36.242188 34.726562 36.089844 34.566406 36 34.34375 L 32.429688 25.132812 C 32.34375 24.90625 32.351562 24.6875 32.445312 24.46875 C 32.542969 24.25 32.703125 24.09375 32.925781 24.007812 L 34.699219 23.320312 C 34.921875 23.234375 35.144531 23.238281 35.363281 23.335938 C 35.582031 23.433594 35.734375 23.59375 35.824219 23.816406 Z M 34.460938 24.746094 C 34.296875 24.746094 34.160156 24.804688 34.042969 24.917969 C 33.929688 25.035156 33.871094 25.171875 33.871094 25.335938 C 33.871094 25.5 33.929688 25.640625 34.042969 25.753906 C 34.160156 25.871094 34.296875 25.925781 34.460938 25.925781 C 34.625 25.925781 34.765625 25.871094 34.878906 25.753906 C 34.996094 25.640625 35.050781 25.5 35.050781 25.335938 C 35.050781 25.171875 34.996094 25.035156 34.878906 24.917969 C 34.765625 24.804688 34.625 24.746094 34.460938 24.746094 Z M 14.933594 24.167969 C 15.097656 24.171875 15.234375 24.238281 15.34375 24.359375 C 15.453125 24.480469 15.503906 24.621094 15.496094 24.785156 C 15.488281 24.945312 15.425781 25.082031 15.304688 25.191406 C 15.183594 25.304688 15.042969 25.355469 14.878906 25.347656 C 14.714844 25.339844 14.578125 25.273438 14.46875 25.15625 C 14.359375 25.035156 14.308594 24.890625 14.316406 24.730469 C 14.324219 24.566406 14.386719 24.429688 14.507812 24.320312 C 14.628906 24.210938 14.769531 24.160156 14.933594 24.167969 Z M 26.367188 40.515625 C 26.332031 40.761719 26.257812 40.992188 26.140625 41.214844 L 25.664062 42.105469 C 25.828125 42.199219 26.003906 42.300781 26.164062 42.390625 C 26.367188 42.496094 26.578125 42.515625 26.800781 42.453125 C 27.019531 42.386719 27.1875 42.253906 27.300781 42.054688 C 27.421875 41.84375 27.449219 41.621094 27.382812 41.390625 C 27.316406 41.15625 27.179688 40.984375 26.96875 40.867188 Z M 19.910156 40.625 C 19.878906 40.828125 19.914062 41.023438 20.015625 41.203125 C 20.121094 41.386719 20.265625 41.515625 20.460938 41.59375 C 20.652344 41.671875 20.851562 41.683594 21.050781 41.625 C 21.25 41.566406 21.414062 41.453125 21.535156 41.285156 L 22.671875 39.117188 C 22.722656 38.914062 22.707031 38.71875 22.625 38.53125 C 22.542969 38.339844 22.40625 38.195312 22.226562 38.097656 C 22.042969 38 21.847656 37.96875 21.644531 38.003906 C 21.4375 38.039062 21.265625 38.136719 21.128906 38.289062 Z M 20.113281 37.871094 L 18.832031 40.265625 C 18.71875 40.492188 18.539062 40.640625 18.300781 40.71875 C 18.058594 40.792969 17.828125 40.773438 17.605469 40.65625 C 17.382812 40.539062 17.234375 40.359375 17.164062 40.117188 C 17.089844 39.875 17.117188 39.644531 17.238281 39.421875 L 18.546875 36.976562 C 18.878906 36.671875 19.25 36.507812 19.695312 36.742188 C 20.140625 36.980469 20.230469 37.417969 20.113281 37.871094 Z M 17.742188 36.210938 C 17.84375 35.992188 17.851562 35.765625 17.773438 35.535156 C 17.691406 35.304688 17.539062 35.136719 17.320312 35.027344 C 17.105469 34.921875 16.878906 34.902344 16.648438 34.976562 C 16.414062 35.050781 16.242188 35.195312 16.125 35.410156 L 15.214844 37.117188 C 15.109375 37.308594 15.082031 37.515625 15.128906 37.730469 C 15.171875 37.945312 15.28125 38.121094 15.457031 38.253906 C 15.628906 38.390625 15.824219 38.453125 16.046875 38.441406 C 16.265625 38.433594 16.457031 38.355469 16.617188 38.207031 Z M 22.570312 41.722656 L 23.660156 39.644531 C 23.8125 39.472656 24 39.375 24.226562 39.351562 C 24.453125 39.324219 24.660156 39.375 24.847656 39.507812 C 25.035156 39.636719 25.15625 39.816406 25.207031 40.035156 C 25.261719 40.257812 25.234375 40.46875 25.125 40.671875 L 24.253906 42.304688 C 24.148438 42.5 23.992188 42.640625 23.785156 42.71875 C 23.578125 42.800781 23.371094 42.804688 23.160156 42.730469 C 22.953125 42.660156 22.789062 42.527344 22.679688 42.335938 C 22.566406 42.144531 22.53125 41.9375 22.570312 41.722656 Z M 14.566406 32.878906 L 17.351562 26.574219 L 17.433594 26.609375 C 18.457031 27.175781 19.394531 26.957031 20.410156 26.71875 C 21.273438 26.515625 22.207031 26.296875 23.257812 26.71875 C 22.46875 27.390625 21.84375 28.085938 20.984375 28.730469 C 20.375 29.183594 19.742188 29.601562 19.082031 29.984375 C 18.992188 30.039062 18.914062 30.109375 18.851562 30.195312 C 18.789062 30.285156 18.75 30.382812 18.726562 30.488281 C 18.707031 30.59375 18.710938 30.699219 18.734375 30.800781 C 18.757812 30.90625 18.804688 31.003906 18.871094 31.085938 C 20.8125 33.589844 22.910156 32.738281 24.894531 31.9375 C 26.042969 31.472656 27.144531 31.023438 27.96875 31.492188 L 32.933594 34.324219 C 33.140625 34.4375 33.277344 34.613281 33.34375 34.839844 C 33.410156 35.070312 33.386719 35.289062 33.273438 35.5 C 33.160156 35.703125 32.992188 35.839844 32.769531 35.90625 C 32.546875 35.972656 32.332031 35.949219 32.125 35.84375 C 30.996094 35.183594 29.835938 34.558594 28.703125 33.910156 C 28.5625 33.832031 28.417969 33.8125 28.265625 33.855469 C 28.109375 33.894531 27.996094 33.984375 27.914062 34.125 C 27.835938 34.261719 27.816406 34.40625 27.859375 34.5625 C 27.902344 34.714844 27.992188 34.832031 28.128906 34.910156 C 29.265625 35.558594 30.410156 36.199219 31.550781 36.839844 C 31.757812 36.953125 31.894531 37.125 31.960938 37.351562 C 32.027344 37.574219 32.003906 37.792969 31.890625 38 C 31.78125 38.207031 31.613281 38.34375 31.386719 38.414062 C 31.164062 38.484375 30.945312 38.464844 30.738281 38.355469 C 29.261719 37.488281 27.726562 36.660156 26.234375 35.820312 C 26.09375 35.746094 25.949219 35.730469 25.796875 35.773438 C 25.648438 35.816406 25.53125 35.90625 25.457031 36.042969 C 25.378906 36.183594 25.359375 36.328125 25.402344 36.480469 C 25.445312 36.632812 25.535156 36.746094 25.671875 36.824219 C 26.894531 37.515625 28.113281 38.214844 29.339844 38.898438 C 29.546875 39.011719 29.683594 39.183594 29.753906 39.410156 C 29.820312 39.636719 29.796875 39.855469 29.683594 40.066406 C 29.570312 40.273438 29.402344 40.414062 29.171875 40.480469 C 28.945312 40.546875 28.726562 40.523438 28.519531 40.410156 L 25.910156 38.9375 C 25.648438 38.621094 25.324219 38.40625 24.933594 38.285156 C 24.542969 38.164062 24.148438 38.164062 23.757812 38.277344 C 23.675781 38.019531 23.550781 37.789062 23.378906 37.582031 C 23.207031 37.375 23.003906 37.210938 22.765625 37.082031 C 22.53125 36.957031 22.277344 36.878906 22.011719 36.851562 C 21.746094 36.824219 21.484375 36.847656 21.226562 36.921875 C 21.152344 36.6875 21.039062 36.472656 20.886719 36.277344 C 20.738281 36.085938 20.558594 35.921875 20.347656 35.792969 C 20.140625 35.664062 19.914062 35.574219 19.671875 35.527344 C 19.433594 35.480469 19.191406 35.472656 18.945312 35.511719 C 18.886719 35.140625 18.738281 34.8125 18.496094 34.523438 C 18.257812 34.234375 17.960938 34.027344 17.605469 33.902344 C 17.25 33.777344 16.890625 33.75 16.519531 33.824219 C 16.152344 33.898438 15.828125 34.0625 15.546875 34.3125 C 15.425781 33.71875 15.230469 33.15625 14.566406 32.878906 Z M 36.640625 15.867188 C 37.910156 18.046875 38.542969 20.402344 38.539062 22.925781 C 38.539062 23.085938 38.597656 23.21875 38.707031 23.332031 C 38.820312 23.445312 38.957031 23.5 39.117188 23.5 C 39.277344 23.5 39.410156 23.445312 39.523438 23.332031 C 39.636719 23.21875 39.691406 23.085938 39.691406 22.925781 C 39.695312 20.195312 39.011719 17.648438 37.636719 15.289062 C 37.554688 15.152344 37.441406 15.0625 37.285156 15.023438 C 37.132812 14.984375 36.988281 15 36.851562 15.082031 C 36.710938 15.160156 36.625 15.277344 36.582031 15.429688 C 36.542969 15.585938 36.5625 15.730469 36.640625 15.867188 Z M 11.234375 14.40625 C 11.082031 14.445312 10.9375 14.429688 10.800781 14.351562 C 10.664062 14.273438 10.574219 14.160156 10.53125 14.007812 C 10.488281 13.855469 10.503906 13.710938 10.578125 13.574219 C 10.65625 13.433594 10.769531 13.34375 10.917969 13.296875 L 13.355469 12.601562 C 13.972656 11.933594 14.648438 11.324219 15.378906 10.773438 C 16.109375 10.226562 16.882812 9.75 17.699219 9.339844 C 18.515625 8.929688 19.363281 8.597656 20.242188 8.34375 C 21.117188 8.085938 22.007812 7.910156 22.917969 7.816406 C 23.824219 7.71875 24.734375 7.707031 25.644531 7.777344 C 26.554688 7.84375 27.453125 7.996094 28.335938 8.226562 C 29.21875 8.457031 30.078125 8.765625 30.90625 9.148438 C 31.734375 9.535156 32.519531 9.988281 33.265625 10.515625 L 33.019531 9.660156 C 32.976562 9.507812 32.996094 9.359375 33.074219 9.222656 C 33.152344 9.085938 33.265625 8.996094 33.417969 8.953125 C 33.570312 8.910156 33.714844 8.925781 33.855469 9 C 33.992188 9.078125 34.082031 9.191406 34.128906 9.34375 L 34.867188 11.9375 C 34.894531 12.023438 34.898438 12.113281 34.878906 12.203125 C 34.859375 12.292969 34.824219 12.375 34.765625 12.449219 C 34.710938 12.519531 34.640625 12.578125 34.558594 12.617188 C 34.472656 12.65625 34.386719 12.671875 34.292969 12.667969 L 31.640625 12.765625 C 31.480469 12.769531 31.34375 12.71875 31.226562 12.609375 C 31.113281 12.503906 31.050781 12.371094 31.046875 12.210938 C 31.039062 12.050781 31.089844 11.914062 31.199219 11.800781 C 31.308594 11.683594 31.441406 11.621094 31.597656 11.617188 L 32.765625 11.574219 C 32.078125 11.074219 31.351562 10.640625 30.585938 10.273438 C 29.820312 9.90625 29.03125 9.609375 28.210938 9.382812 C 27.390625 9.160156 26.558594 9.011719 25.714844 8.9375 C 24.867188 8.863281 24.023438 8.867188 23.175781 8.949219 C 22.332031 9.027344 21.5 9.183594 20.683594 9.414062 C 19.863281 9.644531 19.074219 9.949219 18.3125 10.324219 C 17.550781 10.695312 16.828125 11.136719 16.144531 11.640625 C 15.464844 12.148438 14.832031 12.710938 14.25 13.328125 L 14.339844 15.785156 C 14.347656 15.945312 14.296875 16.082031 14.1875 16.199219 C 14.078125 16.316406 13.945312 16.378906 13.785156 16.382812 C 13.628906 16.386719 13.488281 16.335938 13.375 16.226562 C 13.257812 16.121094 13.195312 15.984375 13.191406 15.828125 L 13.148438 14.660156 C 12.273438 15.859375 11.605469 17.167969 11.148438 18.578125 C 10.6875 19.992188 10.457031 21.441406 10.460938 22.925781 C 10.460938 23.085938 10.40625 23.21875 10.292969 23.332031 C 10.179688 23.445312 10.042969 23.5 9.886719 23.5 C 9.726562 23.5 9.589844 23.445312 9.476562 23.332031 C 9.363281 23.21875 9.308594 23.085938 9.308594 22.925781 C 9.304688 21.355469 9.542969 19.824219 10.015625 18.328125 C 10.492188 16.832031 11.183594 15.441406 12.089844 14.160156 Z M 24.5 14.140625 C 24.226562 14.140625 23.964844 14.191406 23.710938 14.296875 C 23.457031 14.402344 23.234375 14.550781 23.042969 14.746094 C 22.847656 14.9375 22.699219 15.160156 22.59375 15.414062 C 22.488281 15.667969 22.4375 15.929688 22.4375 16.203125 C 22.4375 16.476562 22.488281 16.742188 22.59375 16.992188 C 22.699219 17.246094 22.847656 17.46875 23.042969 17.664062 C 23.234375 17.855469 23.457031 18.007812 23.710938 18.109375 C 23.964844 18.214844 24.226562 18.269531 24.5 18.269531 C 24.773438 18.269531 25.039062 18.214844 25.289062 18.109375 C 25.542969 18.007812 25.765625 17.855469 25.960938 17.664062 C 26.152344 17.46875 26.300781 17.246094 26.40625 16.992188 C 26.511719 16.742188 26.5625 16.476562 26.5625 16.203125 C 26.5625 15.929688 26.511719 15.667969 26.40625 15.414062 C 26.300781 15.160156 26.152344 14.9375 25.960938 14.746094 C 25.765625 14.550781 25.542969 14.402344 25.289062 14.296875 C 25.039062 14.191406 24.773438 14.140625 24.5 14.140625 Z M 21.050781 22.628906 L 27.953125 22.628906 C 28.03125 22.628906 28.105469 22.613281 28.175781 22.578125 C 28.246094 22.542969 28.304688 22.496094 28.351562 22.433594 C 28.402344 22.371094 28.433594 22.300781 28.445312 22.222656 C 28.460938 22.144531 28.460938 22.070312 28.4375 21.992188 C 28.320312 21.5625 28.136719 21.160156 27.886719 20.789062 C 27.636719 20.417969 27.332031 20.097656 26.976562 19.824219 C 26.621094 19.554688 26.230469 19.347656 25.808594 19.203125 C 25.382812 19.058594 24.949219 18.988281 24.5 18.988281 C 24.054688 18.988281 23.617188 19.058594 23.191406 19.203125 C 22.769531 19.347656 22.378906 19.554688 22.023438 19.824219 C 21.667969 20.097656 21.363281 20.417969 21.113281 20.789062 C 20.863281 21.160156 20.679688 21.5625 20.5625 21.992188 C 20.542969 22.070312 20.539062 22.144531 20.554688 22.222656 C 20.570312 22.300781 20.601562 22.371094 20.648438 22.433594 C 20.695312 22.496094 20.753906 22.542969 20.824219 22.578125 C 20.894531 22.613281 20.96875 22.628906 21.050781 22.628906 Z M 17.800781 14.515625 C 17.570312 14.515625 17.347656 14.558594 17.136719 14.648438 C 16.921875 14.738281 16.734375 14.863281 16.570312 15.027344 C 16.40625 15.1875 16.28125 15.378906 16.195312 15.589844 C 16.105469 15.804688 16.0625 16.023438 16.0625 16.257812 C 16.0625 16.488281 16.105469 16.707031 16.195312 16.921875 C 16.28125 17.136719 16.40625 17.324219 16.570312 17.484375 C 16.734375 17.648438 16.921875 17.773438 17.136719 17.863281 C 17.347656 17.953125 17.570312 17.996094 17.800781 17.996094 C 18.03125 17.996094 18.253906 17.953125 18.46875 17.863281 C 18.679688 17.773438 18.867188 17.648438 19.03125 17.484375 C 19.195312 17.324219 19.320312 17.136719 19.410156 16.921875 C 19.496094 16.707031 19.539062 16.488281 19.539062 16.257812 C 19.539062 16.023438 19.496094 15.804688 19.410156 15.589844 C 19.320312 15.378906 19.195312 15.1875 19.03125 15.027344 C 18.867188 14.863281 18.679688 14.738281 18.46875 14.648438 C 18.253906 14.558594 18.03125 14.515625 17.800781 14.515625 Z M 31.199219 14.515625 C 30.96875 14.515625 30.746094 14.558594 30.535156 14.648438 C 30.320312 14.738281 30.132812 14.863281 29.96875 15.027344 C 29.808594 15.1875 29.679688 15.378906 29.59375 15.589844 C 29.503906 15.804688 29.460938 16.023438 29.460938 16.257812 C 29.460938 16.488281 29.503906 16.707031 29.59375 16.921875 C 29.679688 17.136719 29.808594 17.324219 29.96875 17.484375 C 30.132812 17.648438 30.320312 17.773438 30.535156 17.863281 C 30.746094 17.953125 30.96875 17.996094 31.199219 17.996094 C 31.429688 17.996094 31.652344 17.953125 31.867188 17.863281 C 32.078125 17.773438 32.265625 17.648438 32.429688 17.484375 C 32.59375 17.324219 32.71875 17.136719 32.808594 16.921875 C 32.894531 16.707031 32.941406 16.488281 32.941406 16.257812 C 32.941406 16.023438 32.894531 15.804688 32.808594 15.589844 C 32.71875 15.378906 32.59375 15.1875 32.429688 15.027344 C 32.265625 14.863281 32.078125 14.738281 31.867188 14.648438 C 31.652344 14.558594 31.429688 14.515625 31.199219 14.515625 Z M 14.996094 21.789062 L 19.425781 21.789062 C 19.601562 21.078125 19.914062 20.4375 20.363281 19.863281 C 19.949219 19.402344 19.449219 19.074219 18.859375 18.882812 C 18.273438 18.691406 17.675781 18.664062 17.070312 18.792969 C 16.464844 18.925781 15.933594 19.199219 15.476562 19.617188 C 15.019531 20.039062 14.699219 20.542969 14.515625 21.132812 C 14.492188 21.210938 14.484375 21.289062 14.5 21.367188 C 14.511719 21.445312 14.542969 21.515625 14.589844 21.582031 C 14.636719 21.644531 14.699219 21.695312 14.769531 21.734375 C 14.839844 21.769531 14.917969 21.789062 14.996094 21.789062 Z M 14.996094 21.789062 " fill-opacity="1" fill-rule="evenodd"/></g></svg>