<svg xmlns="http://www.w3.org/2000/svg" xmlns:xlink="http://www.w3.org/1999/xlink" width="66" zoomAndPan="magnify" viewBox="0 0 49.5 49.499998" height="66" preserveAspectRatio="xMidYMid meet" version="1.0"><defs><clipPath id="a90124fbed"><path d="M 0.46875 1.246094 L 48.527344 1.246094 L 48.527344 47.746094 L 0.46875 47.746094 Z M 0.46875 1.246094 " clip-rule="nonzero"/></clipPath><clipPath id="ce7dac182a"><path d="M 40.542969 1.332031 C 44.910156 1.332031 48.441406 4.871094 48.441406 9.230469 L 48.441406 39.765625 C 48.441406 44.132812 44.902344 47.660156 40.542969 47.660156 L 8.449219 47.660156 C 4.085938 47.660156 0.554688 44.121094 0.554688 39.765625 L 0.554688 9.230469 C 0.554688 4.863281 4.09375 1.332031 8.449219 1.332031 Z M 40.542969 1.332031 " clip-rule="nonzero"/></clipPath><clipPath id="675b193f0b"><path d="M 0 0.773438 L 49 0.773438 L 49 48.222656 L 0 48.222656 Z M 0 0.773438 " clip-rule="nonzero"/></clipPath><clipPath id="3afba1474a"><path d="M 49 9.230469 L 49 39.765625 C 49 44.425781 45.203125 48.222656 40.542969 48.222656 L 8.449219 48.222656 C 3.789062 48.222656 -0.00390625 44.425781 -0.00390625 39.765625 L -0.00390625 9.230469 C -0.00390625 4.570312 3.789062 0.773438 8.449219 0.773438 L 40.535156 0.773438 C 45.203125 0.773438 49 4.570312 49 9.230469 Z M 1.113281 39.765625 C 1.113281 43.808594 4.40625 47.101562 8.449219 47.101562 L 40.535156 47.101562 C 44.578125 47.101562 47.871094 43.808594 47.871094 39.765625 L 47.871094 9.230469 C 47.871094 5.1875 44.578125 1.894531 40.535156 1.894531 L 8.449219 1.894531 C 4.40625 1.894531 1.113281 5.1875 1.113281 9.230469 Z M 1.113281 39.765625 " clip-rule="nonzero"/></clipPath><clipPath id="753c75f1fc"><path d="M 7.214844 7.214844 L 42 7.214844 L 42 38 L 7.214844 38 Z M 7.214844 7.214844 " clip-rule="nonzero"/></clipPath></defs><g clip-path="url(#a90124fbed)"><g clip-path="url(#ce7dac182a)"><path fill="#ffffff" d="M -0.00390625 48.222656 L -0.00390625 0.773438 L 49 0.773438 L 49 48.222656 Z M -0.00390625 48.222656 " fill-opacity="1" fill-rule="nonzero"/></g></g><g clip-path="url(#675b193f0b)"><g clip-path="url(#3afba1474a)"><path fill="#edf4ff" d="M -0.00390625 48.222656 L -0.00390625 0.773438 L 49 0.773438 L 49 48.222656 Z M -0.00390625 48.222656 " fill-opacity="1" fill-rule="nonzero"/></g></g><g clip-path="url(#753c75f1fc)"><path fill="#2f72f1" d="M 39.269531 7.472656 C 39.082031 7.332031 38.878906 7.3125 38.667969 7.417969 C 38.457031 7.523438 38.351562 7.695312 38.351562 7.929688 L 38.351562 9.074219 L 28.621094 9.074219 C 27.46875 9.074219 26.382812 9.351562 25.367188 9.898438 C 24.351562 10.445312 23.527344 11.203125 22.894531 12.167969 C 21.300781 11.25 19.589844 10.792969 17.753906 10.792969 L 17.746094 10.792969 C 17.355469 10.792969 16.964844 10.8125 16.574219 10.855469 C 16 10.921875 15.433594 11.03125 14.878906 11.191406 C 14.320312 11.347656 13.78125 11.554688 13.261719 11.804688 C 12.738281 12.054688 12.242188 12.34375 11.769531 12.679688 C 11.296875 13.011719 10.859375 13.386719 10.449219 13.792969 C 10.039062 14.203125 9.667969 14.640625 9.332031 15.113281 C 8.996094 15.585938 8.703125 16.082031 8.453125 16.601562 C 8.203125 17.125 7.996094 17.664062 7.835938 18.21875 C 7.675781 18.773438 7.566406 19.339844 7.5 19.914062 C 7.351562 21.292969 7.480469 22.644531 7.890625 23.96875 C 8.296875 25.292969 8.953125 26.484375 9.855469 27.539062 C 10.6875 28.578125 11.335938 29.722656 11.804688 30.96875 C 12.273438 32.214844 12.535156 33.503906 12.59375 34.832031 L 12.59375 36.550781 C 12.59375 36.707031 12.652344 36.84375 12.761719 36.953125 C 12.875 37.066406 13.007812 37.121094 13.167969 37.121094 L 22.324219 37.121094 C 22.484375 37.121094 22.617188 37.066406 22.730469 36.953125 C 22.84375 36.84375 22.898438 36.707031 22.898438 36.550781 L 22.898438 34.832031 C 22.898438 32.59375 24.128906 29.359375 25.703125 27.472656 C 26.847656 26.097656 27.574219 24.53125 27.886719 22.773438 C 28.367188 22.824219 28.847656 22.824219 29.328125 22.777344 C 29.808594 22.726562 30.277344 22.628906 30.734375 22.484375 C 31.195312 22.335938 31.632812 22.140625 32.050781 21.902344 C 32.46875 21.660156 32.855469 21.378906 33.214844 21.058594 C 33.574219 20.734375 33.894531 20.378906 34.179688 19.988281 C 34.460938 19.597656 34.703125 19.183594 34.898438 18.742188 C 35.09375 18.300781 35.242188 17.847656 35.34375 17.375 C 35.441406 16.902344 35.492188 16.425781 35.492188 15.945312 C 35.492188 14.585938 35.121094 13.335938 34.378906 12.195312 L 33.421875 12.820312 C 33.921875 13.601562 34.21875 14.449219 34.304688 15.371094 L 32.628906 15.371094 L 32.628906 16.515625 L 34.316406 16.515625 C 34.25 17.171875 34.074219 17.800781 33.792969 18.394531 C 33.507812 18.992188 33.132812 19.523438 32.667969 19.988281 C 32.199219 20.457031 31.667969 20.832031 31.074219 21.113281 C 30.476562 21.398438 29.851562 21.570312 29.195312 21.636719 L 29.195312 19.949219 L 28.050781 19.949219 L 28.050781 21.636719 C 27.394531 21.570312 26.765625 21.398438 26.171875 21.113281 C 25.574219 20.832031 25.042969 20.457031 24.578125 19.988281 C 24.109375 19.523438 23.734375 18.992188 23.453125 18.394531 C 23.167969 17.800781 22.996094 17.171875 22.925781 16.515625 L 24.617188 16.515625 L 24.617188 15.371094 L 22.925781 15.371094 C 22.996094 14.714844 23.167969 14.089844 23.453125 13.492188 C 23.734375 12.898438 24.109375 12.363281 24.578125 11.898438 C 25.042969 11.433594 25.574219 11.058594 26.171875 10.773438 C 26.765625 10.492188 27.394531 10.316406 28.050781 10.25 L 28.050781 11.9375 L 29.195312 11.9375 L 29.195312 10.21875 L 38.351562 10.21875 L 38.351562 11.363281 C 38.351562 11.601562 38.457031 11.769531 38.667969 11.875 C 38.878906 11.980469 39.082031 11.964844 39.269531 11.824219 L 41.558594 10.105469 C 41.628906 10.050781 41.6875 9.984375 41.726562 9.902344 C 41.765625 9.824219 41.789062 9.738281 41.789062 9.648438 C 41.789062 9.558594 41.765625 9.472656 41.726562 9.390625 C 41.6875 9.3125 41.628906 9.242188 41.558594 9.191406 Z M 21.753906 35.976562 L 13.738281 35.976562 L 13.738281 34.832031 L 21.753906 34.832031 Z M 26.765625 22.550781 C 26.488281 24.121094 25.84375 25.515625 24.820312 26.738281 C 23.21875 28.792969 22.222656 31.109375 21.839844 33.6875 L 20.035156 33.6875 L 20.035156 24.53125 L 20.609375 24.53125 L 20.609375 25.101562 C 20.609375 25.261719 20.664062 25.394531 20.777344 25.507812 C 20.886719 25.617188 21.023438 25.675781 21.179688 25.675781 L 23.472656 25.675781 C 23.628906 25.675781 23.765625 25.617188 23.875 25.507812 C 23.988281 25.394531 24.042969 25.261719 24.042969 25.101562 L 24.042969 22.8125 C 24.042969 22.65625 23.988281 22.519531 23.875 22.40625 C 23.765625 22.296875 23.628906 22.238281 23.472656 22.238281 L 21.179688 22.238281 C 21.023438 22.238281 20.886719 22.296875 20.777344 22.40625 C 20.664062 22.519531 20.609375 22.65625 20.609375 22.8125 L 20.609375 23.386719 L 19.464844 23.386719 C 19.304688 23.386719 19.171875 23.441406 19.058594 23.550781 C 18.949219 23.664062 18.890625 23.800781 18.890625 23.957031 L 18.890625 33.6875 L 18.320312 33.6875 L 18.320312 19.96875 C 18.320312 19.808594 18.261719 19.675781 18.152344 19.5625 C 18.039062 19.453125 17.90625 19.394531 17.746094 19.394531 L 16.601562 19.394531 L 16.601562 18.824219 C 16.601562 18.664062 16.546875 18.53125 16.433594 18.417969 C 16.324219 18.304688 16.1875 18.25 16.03125 18.25 L 13.738281 18.25 C 13.582031 18.25 13.445312 18.304688 13.335938 18.417969 C 13.222656 18.53125 13.167969 18.664062 13.167969 18.824219 L 13.167969 21.113281 C 13.167969 21.269531 13.222656 21.40625 13.335938 21.515625 C 13.445312 21.628906 13.582031 21.683594 13.738281 21.683594 L 16.03125 21.683594 C 16.1875 21.683594 16.324219 21.628906 16.433594 21.515625 C 16.546875 21.40625 16.601562 21.269531 16.601562 21.113281 L 16.601562 20.539062 L 17.175781 20.539062 L 17.175781 33.6875 L 16.601562 33.6875 L 16.601562 25.121094 C 16.601562 24.960938 16.546875 24.828125 16.433594 24.714844 C 16.324219 24.601562 16.1875 24.546875 16.03125 24.546875 L 14.886719 24.546875 L 14.886719 23.972656 C 14.886719 23.816406 14.828125 23.679688 14.71875 23.570312 C 14.605469 23.457031 14.46875 23.402344 14.3125 23.402344 L 12.023438 23.402344 C 11.863281 23.402344 11.730469 23.457031 11.617188 23.570312 C 11.507812 23.679688 11.449219 23.816406 11.449219 23.972656 L 11.449219 26.265625 C 11.449219 26.421875 11.507812 26.558594 11.617188 26.667969 C 11.730469 26.78125 11.863281 26.835938 12.023438 26.835938 L 14.3125 26.835938 C 14.46875 26.835938 14.605469 26.78125 14.71875 26.667969 C 14.828125 26.558594 14.886719 26.421875 14.886719 26.265625 L 14.886719 25.691406 L 15.457031 25.691406 L 15.457031 33.6875 L 13.660156 33.6875 C 13.3125 31.121094 12.332031 28.824219 10.722656 26.796875 C 9.925781 25.863281 9.34375 24.808594 8.980469 23.632812 C 8.617188 22.457031 8.503906 21.257812 8.636719 20.03125 C 8.695312 19.523438 8.792969 19.019531 8.9375 18.527344 C 9.078125 18.035156 9.261719 17.554688 9.484375 17.09375 C 9.707031 16.628906 9.96875 16.191406 10.265625 15.769531 C 10.5625 15.351562 10.894531 14.960938 11.257812 14.597656 C 11.621094 14.234375 12.011719 13.90625 12.433594 13.609375 C 12.851562 13.3125 13.292969 13.054688 13.757812 12.832031 C 14.21875 12.609375 14.699219 12.429688 15.191406 12.289062 C 15.6875 12.148438 16.1875 12.050781 16.699219 11.996094 C 17.050781 11.957031 17.425781 11.945312 17.753906 11.9375 C 19.394531 11.933594 20.925781 12.34375 22.34375 13.167969 C 22.144531 13.617188 21.996094 14.082031 21.894531 14.5625 C 21.796875 15.046875 21.75 15.53125 21.753906 16.023438 C 21.757812 16.515625 21.816406 17.003906 21.925781 17.480469 C 22.039062 17.960938 22.195312 18.425781 22.40625 18.871094 C 22.617188 19.3125 22.871094 19.730469 23.171875 20.121094 C 23.46875 20.511719 23.808594 20.867188 24.183594 21.183594 C 24.558594 21.5 24.964844 21.773438 25.402344 22.003906 C 25.835938 22.234375 26.289062 22.417969 26.765625 22.546875 Z M 21.753906 24.53125 L 21.753906 23.386719 L 22.898438 23.386719 L 22.898438 24.53125 Z M 15.457031 19.394531 L 15.457031 20.539062 L 14.3125 20.539062 L 14.3125 19.394531 Z M 13.738281 24.546875 L 13.738281 25.691406 L 12.59375 25.691406 L 12.59375 24.546875 Z M 39.496094 10.21875 L 39.496094 9.074219 L 40.261719 9.648438 Z M 39.496094 10.21875 " fill-opacity="1" fill-rule="nonzero"/></g><path fill="#2f72f1" d="M 13.738281 38.265625 L 21.753906 38.265625 L 21.753906 39.410156 L 13.738281 39.410156 Z M 13.738281 38.265625 " fill-opacity="1" fill-rule="nonzero"/><path fill="#2f72f1" d="M 14.886719 40.558594 L 20.609375 40.558594 L 20.609375 41.703125 L 14.886719 41.703125 Z M 14.886719 40.558594 " fill-opacity="1" fill-rule="nonzero"/><path fill="#2f72f1" d="M 27.308594 14.394531 L 26.5 15.203125 L 28.21875 16.921875 C 28.328125 17.03125 28.464844 17.089844 28.621094 17.089844 C 28.78125 17.089844 28.914062 17.03125 29.027344 16.921875 L 31.890625 14.058594 L 31.078125 13.25 L 28.621094 15.707031 Z M 27.308594 14.394531 " fill-opacity="1" fill-rule="nonzero"/></svg>