<svg xmlns="http://www.w3.org/2000/svg" xmlns:xlink="http://www.w3.org/1999/xlink" width="66" zoomAndPan="magnify" viewBox="0 0 49.5 49.499998" height="66" preserveAspectRatio="xMidYMid meet" version="1.0"><defs><clipPath id="627189566e"><path d="M 0.46875 1.246094 L 48.527344 1.246094 L 48.527344 47.746094 L 0.46875 47.746094 Z M 0.46875 1.246094 " clip-rule="nonzero"/></clipPath><clipPath id="c56c1d05ca"><path d="M 40.542969 1.332031 C 44.910156 1.332031 48.441406 4.871094 48.441406 9.230469 L 48.441406 39.765625 C 48.441406 44.132812 44.902344 47.660156 40.542969 47.660156 L 8.449219 47.660156 C 4.085938 47.660156 0.554688 44.121094 0.554688 39.765625 L 0.554688 9.230469 C 0.554688 4.863281 4.09375 1.332031 8.449219 1.332031 Z M 40.542969 1.332031 " clip-rule="nonzero"/></clipPath><clipPath id="0fce1b8655"><path d="M 0 0.773438 L 49 0.773438 L 49 48.222656 L 0 48.222656 Z M 0 0.773438 " clip-rule="nonzero"/></clipPath><clipPath id="4d8eba7d49"><path d="M 49 9.230469 L 49 39.765625 C 49 44.425781 45.203125 48.222656 40.542969 48.222656 L 8.449219 48.222656 C 3.789062 48.222656 -0.00390625 44.425781 -0.00390625 39.765625 L -0.00390625 9.230469 C -0.00390625 4.570312 3.789062 0.773438 8.449219 0.773438 L 40.535156 0.773438 C 45.203125 0.773438 49 4.570312 49 9.230469 Z M 1.113281 39.765625 C 1.113281 43.808594 4.40625 47.101562 8.449219 47.101562 L 40.535156 47.101562 C 44.578125 47.101562 47.871094 43.808594 47.871094 39.765625 L 47.871094 9.230469 C 47.871094 5.1875 44.578125 1.894531 40.535156 1.894531 L 8.449219 1.894531 C 4.40625 1.894531 1.113281 5.1875 1.113281 9.230469 Z M 1.113281 39.765625 " clip-rule="nonzero"/></clipPath><clipPath id="59eec96b89"><path d="M 10.402344 18.699219 L 24.503906 18.699219 L 24.503906 31.589844 L 10.402344 31.589844 Z M 10.402344 18.699219 " clip-rule="nonzero"/></clipPath><clipPath id="203a18929d"><path d="M 25.105469 9.953125 L 39.503906 9.953125 L 39.503906 22.996094 L 25.105469 22.996094 Z M 25.105469 9.953125 " clip-rule="nonzero"/></clipPath><clipPath id="181d646038"><path d="M 25 15 L 42.699219 15 L 42.699219 38 L 25 38 Z M 25 15 " clip-rule="nonzero"/></clipPath><clipPath id="47b67dd46d"><path d="M 20 7.839844 L 33 7.839844 L 33 19 L 20 19 Z M 20 7.839844 " clip-rule="nonzero"/></clipPath><clipPath id="c17980784c"><path d="M 8 27 L 29 27 L 29 41.253906 L 8 41.253906 Z M 8 27 " clip-rule="nonzero"/></clipPath><clipPath id="571eeda225"><path d="M 6.316406 18 L 31 18 L 31 27 L 6.316406 27 Z M 6.316406 18 " clip-rule="nonzero"/></clipPath><clipPath id="a394955230"><path d="M 22.148438 9.210938 L 31.097656 9.210938 L 31.097656 18.15625 L 22.148438 18.15625 Z M 22.148438 9.210938 " clip-rule="nonzero"/></clipPath><clipPath id="5608961c00"><path d="M 26.625 9.210938 C 24.152344 9.210938 22.148438 11.210938 22.148438 13.683594 C 22.148438 16.15625 24.152344 18.15625 26.625 18.15625 C 29.09375 18.15625 31.097656 16.15625 31.097656 13.683594 C 31.097656 11.210938 29.09375 9.210938 26.625 9.210938 Z M 26.625 9.210938 " clip-rule="nonzero"/></clipPath><clipPath id="39533ec725"><path d="M 22.175781 9.210938 L 31.085938 9.210938 L 31.085938 18.121094 L 22.175781 18.121094 Z M 22.175781 9.210938 " clip-rule="nonzero"/></clipPath></defs><g clip-path="url(#627189566e)"><g clip-path="url(#c56c1d05ca)"><path fill="#ffffff" d="M -0.00390625 48.222656 L -0.00390625 0.773438 L 49 0.773438 L 49 48.222656 Z M -0.00390625 48.222656 " fill-opacity="1" fill-rule="nonzero"/></g></g><g clip-path="url(#0fce1b8655)"><g clip-path="url(#4d8eba7d49)"><path fill="#edf4ff" d="M -0.00390625 48.222656 L -0.00390625 0.773438 L 49 0.773438 L 49 48.222656 Z M -0.00390625 48.222656 " fill-opacity="1" fill-rule="nonzero"/></g></g><g clip-path="url(#59eec96b89)"><path fill="#ffffff" d="M 10.402344 18.699219 L 24.503906 18.699219 L 24.503906 31.589844 L 10.402344 31.589844 Z M 10.402344 18.699219 " fill-opacity="1" fill-rule="nonzero"/></g><g clip-path="url(#203a18929d)"><path fill="#ffffff" d="M 25.105469 9.953125 L 39.503906 9.953125 L 39.503906 22.996094 L 25.105469 22.996094 Z M 25.105469 9.953125 " fill-opacity="1" fill-rule="nonzero"/></g><g clip-path="url(#181d646038)"><path fill="#2f72f1" d="M 42.640625 31.605469 L 36.53125 15.820312 C 36.417969 15.527344 36.089844 15.382812 35.796875 15.496094 L 25.40625 19.515625 C 25.113281 19.628906 24.96875 19.957031 25.082031 20.25 C 25.195312 20.542969 25.523438 20.6875 25.816406 20.570312 L 35.679688 16.753906 L 41.378906 31.488281 L 29.632812 36.03125 C 29.339844 36.144531 29.195312 36.472656 29.308594 36.761719 C 29.394531 36.988281 29.609375 37.125 29.835938 37.125 C 29.902344 37.125 29.972656 37.113281 30.039062 37.089844 L 42.3125 32.335938 C 42.457031 32.285156 42.566406 32.179688 42.628906 32.039062 C 42.6875 31.902344 42.695312 31.746094 42.640625 31.605469 " fill-opacity="1" fill-rule="nonzero"/></g><path fill="#2f72f1" d="M 38.042969 28.621094 C 38.335938 28.507812 38.480469 28.179688 38.371094 27.886719 L 35.875 21.441406 C 35.820312 21.304688 35.710938 21.1875 35.574219 21.128906 C 35.4375 21.066406 35.28125 21.0625 35.140625 21.117188 C 34.289062 21.445312 33.328125 21.023438 33 20.171875 C 32.886719 19.878906 32.558594 19.738281 32.265625 19.847656 L 28.300781 21.382812 C 28.007812 21.496094 27.863281 21.824219 27.976562 22.113281 C 28.089844 22.40625 28.417969 22.550781 28.710938 22.441406 L 32.199219 21.085938 C 32.800781 22.015625 33.910156 22.507812 35 22.324219 L 37.125 27.824219 C 36.675781 28.113281 36.3125 28.535156 36.089844 29.039062 C 35.867188 29.542969 35.800781 30.089844 35.890625 30.621094 L 29.632812 33.042969 C 29.339844 33.160156 29.195312 33.484375 29.308594 33.777344 C 29.394531 34.003906 29.609375 34.136719 29.835938 34.136719 C 29.902344 34.136719 29.972656 34.125 30.039062 34.101562 L 36.773438 31.496094 C 36.914062 31.441406 37.027344 31.332031 37.085938 31.195312 C 37.148438 31.058594 37.152344 30.902344 37.097656 30.761719 C 36.769531 29.910156 37.195312 28.953125 38.042969 28.621094 " fill-opacity="1" fill-rule="nonzero"/><g clip-path="url(#47b67dd46d)"><path fill="#2f72f1" d="M 23.597656 18.691406 C 23.6875 18.746094 23.785156 18.769531 23.886719 18.769531 C 24.078125 18.769531 24.265625 18.671875 24.371094 18.492188 C 24.53125 18.222656 24.445312 17.875 24.171875 17.714844 C 22.765625 16.886719 21.890625 15.355469 21.890625 13.722656 C 21.890625 11.167969 23.964844 9.09375 26.515625 9.09375 C 29.070312 9.09375 31.148438 11.167969 31.148438 13.722656 C 31.148438 14.246094 31.0625 14.757812 30.894531 15.242188 C 30.789062 15.539062 30.945312 15.859375 31.242188 15.964844 C 31.539062 16.066406 31.859375 15.910156 31.964844 15.613281 C 32.175781 15.007812 32.28125 14.371094 32.28125 13.722656 C 32.28125 10.546875 29.695312 7.960938 26.515625 7.960938 C 23.339844 7.960938 20.757812 10.546875 20.757812 13.722656 C 20.757812 15.753906 21.84375 17.660156 23.597656 18.691406 " fill-opacity="1" fill-rule="nonzero"/></g><path fill="#2f72f1" d="M 25.910156 12.167969 L 26.984375 12.167969 C 27.253906 12.167969 27.476562 12.386719 27.476562 12.664062 C 27.476562 12.976562 27.730469 13.230469 28.042969 13.230469 C 28.355469 13.230469 28.609375 12.976562 28.609375 12.664062 C 28.609375 11.773438 27.894531 11.054688 27.011719 11.039062 L 27.011719 10.351562 C 27.011719 10.039062 26.757812 9.785156 26.445312 9.785156 C 26.132812 9.785156 25.878906 10.039062 25.878906 10.351562 L 25.878906 11.039062 C 24.996094 11.054688 24.28125 11.773438 24.28125 12.664062 C 24.28125 13.5625 25.011719 14.289062 25.910156 14.289062 L 26.984375 14.289062 C 27.253906 14.289062 27.476562 14.511719 27.476562 14.78125 C 27.476562 15.058594 27.253906 15.277344 26.984375 15.277344 L 25.910156 15.277344 C 25.636719 15.277344 25.414062 15.058594 25.414062 14.78125 C 25.414062 14.46875 25.160156 14.214844 24.847656 14.214844 C 24.535156 14.214844 24.28125 14.46875 24.28125 14.78125 C 24.28125 15.671875 24.996094 16.390625 25.878906 16.40625 L 25.878906 17.09375 C 25.878906 17.410156 26.132812 17.664062 26.445312 17.664062 C 26.757812 17.664062 27.011719 17.410156 27.011719 17.09375 L 27.011719 16.40625 C 27.894531 16.390625 28.609375 15.671875 28.609375 14.78125 C 28.609375 13.886719 27.882812 13.15625 26.984375 13.15625 L 25.910156 13.15625 C 25.636719 13.15625 25.414062 12.933594 25.414062 12.664062 C 25.414062 12.386719 25.636719 12.167969 25.910156 12.167969 " fill-opacity="1" fill-rule="nonzero"/><g clip-path="url(#c17980784c)"><path fill="#2f72f1" d="M 27.625 27.203125 C 27.308594 27.203125 27.058594 27.457031 27.058594 27.769531 L 27.058594 39.910156 L 9.601562 39.910156 L 9.601562 27.769531 C 9.601562 27.457031 9.347656 27.203125 9.035156 27.203125 C 8.71875 27.203125 8.464844 27.457031 8.464844 27.769531 L 8.464844 40.476562 C 8.464844 40.789062 8.71875 41.042969 9.035156 41.042969 L 27.625 41.042969 C 27.933594 41.042969 28.191406 40.789062 28.191406 40.476562 L 28.191406 27.769531 C 28.191406 27.457031 27.933594 27.203125 27.625 27.203125 " fill-opacity="1" fill-rule="nonzero"/></g><g clip-path="url(#571eeda225)"><path fill="#2f72f1" d="M 8.304688 25.0625 L 18.328125 19.953125 L 28.351562 25.0625 Z M 30.238281 25.511719 C 30.335938 25.113281 30.144531 24.703125 29.777344 24.515625 L 18.585938 18.8125 C 18.421875 18.730469 18.234375 18.730469 18.070312 18.8125 L 6.878906 24.511719 C 6.511719 24.703125 6.324219 25.113281 6.417969 25.511719 C 6.515625 25.914062 6.867188 26.195312 7.28125 26.195312 L 29.375 26.195312 C 29.789062 26.195312 30.144531 25.914062 30.238281 25.511719 " fill-opacity="1" fill-rule="nonzero"/></g><path fill="#2f72f1" d="M 18.996094 22.789062 C 18.996094 23.15625 18.699219 23.457031 18.328125 23.457031 C 17.960938 23.457031 17.660156 23.15625 17.660156 22.789062 C 17.660156 22.421875 17.960938 22.121094 18.328125 22.121094 C 18.699219 22.121094 18.996094 22.421875 18.996094 22.789062 Z M 16.527344 22.789062 C 16.527344 23.78125 17.335938 24.589844 18.328125 24.589844 C 19.320312 24.589844 20.128906 23.78125 20.128906 22.789062 C 20.128906 21.796875 19.320312 20.988281 18.328125 20.988281 C 17.335938 20.988281 16.527344 21.796875 16.527344 22.789062 " fill-opacity="1" fill-rule="nonzero"/><path fill="#2f72f1" d="M 13.886719 29.304688 L 13.886719 36.972656 C 13.886719 37.496094 13.460938 37.921875 12.941406 37.921875 C 12.417969 37.921875 11.996094 37.496094 11.996094 36.972656 L 11.996094 29.304688 C 11.996094 28.78125 12.417969 28.355469 12.941406 28.355469 C 13.460938 28.355469 13.886719 28.78125 13.886719 29.304688 Z M 10.859375 29.304688 L 10.859375 36.972656 C 10.859375 38.121094 11.792969 39.054688 12.941406 39.054688 C 14.089844 39.054688 15.023438 38.121094 15.023438 36.972656 L 15.023438 29.304688 C 15.023438 28.160156 14.089844 27.222656 12.941406 27.222656 C 11.792969 27.222656 10.859375 28.160156 10.859375 29.304688 " fill-opacity="1" fill-rule="nonzero"/><path fill="#2f72f1" d="M 19.300781 29.304688 L 19.300781 36.972656 C 19.300781 37.496094 18.875 37.921875 18.355469 37.921875 C 17.832031 37.921875 17.40625 37.496094 17.40625 36.972656 L 17.40625 29.304688 C 17.40625 28.78125 17.832031 28.355469 18.355469 28.355469 C 18.875 28.355469 19.300781 28.78125 19.300781 29.304688 Z M 16.273438 29.304688 L 16.273438 36.972656 C 16.273438 38.121094 17.207031 39.054688 18.355469 39.054688 C 19.5 39.054688 20.433594 38.121094 20.433594 36.972656 L 20.433594 29.304688 C 20.433594 28.160156 19.5 27.222656 18.355469 27.222656 C 17.207031 27.222656 16.273438 28.160156 16.273438 29.304688 " fill-opacity="1" fill-rule="nonzero"/><path fill="#2f72f1" d="M 24.710938 29.304688 L 24.710938 36.972656 C 24.710938 37.496094 24.289062 37.921875 23.769531 37.921875 C 23.246094 37.921875 22.820312 37.496094 22.820312 36.972656 L 22.820312 29.304688 C 22.820312 28.78125 23.246094 28.355469 23.769531 28.355469 C 24.289062 28.355469 24.710938 28.78125 24.710938 29.304688 Z M 21.6875 29.304688 L 21.6875 36.972656 C 21.6875 38.121094 22.617188 39.054688 23.769531 39.054688 C 24.914062 39.054688 25.847656 38.121094 25.847656 36.972656 L 25.847656 29.304688 C 25.847656 28.160156 24.914062 27.222656 23.769531 27.222656 C 22.617188 27.222656 21.6875 28.160156 21.6875 29.304688 " fill-opacity="1" fill-rule="nonzero"/><g clip-path="url(#a394955230)"><g clip-path="url(#5608961c00)"><path fill="#ffffff" d="M 22.148438 9.210938 L 31.097656 9.210938 L 31.097656 18.15625 L 22.148438 18.15625 Z M 22.148438 9.210938 " fill-opacity="1" fill-rule="nonzero"/></g></g><g clip-path="url(#39533ec725)"><path fill="#2f72f1" d="M 26.636719 9.210938 C 24.175781 9.210938 22.175781 11.210938 22.175781 13.671875 C 22.175781 16.128906 24.175781 18.132812 26.636719 18.132812 C 29.097656 18.132812 31.097656 16.128906 31.097656 13.671875 C 31.097656 11.210938 29.097656 9.210938 26.636719 9.210938 Z M 26.636719 17.632812 C 24.445312 17.632812 22.671875 15.859375 22.671875 13.671875 C 22.671875 11.480469 24.445312 9.707031 26.636719 9.707031 C 28.828125 9.707031 30.597656 11.480469 30.597656 13.671875 C 30.597656 15.859375 28.828125 17.632812 26.636719 17.632812 Z M 26.636719 17.632812 " fill-opacity="1" fill-rule="nonzero"/></g><path fill="#2f72f1" d="M 28.328125 11.757812 C 28.328125 11.609375 28.210938 11.488281 28.058594 11.488281 L 25.222656 11.488281 C 25.074219 11.488281 24.953125 11.609375 24.953125 11.757812 C 24.953125 11.90625 25.074219 12.027344 25.222656 12.027344 L 26.296875 12.027344 C 26.578125 12.027344 26.816406 12.195312 26.925781 12.433594 L 25.210938 12.433594 C 25.0625 12.433594 24.945312 12.554688 24.945312 12.703125 C 24.945312 12.855469 25.0625 12.972656 25.210938 12.972656 L 26.914062 12.972656 C 26.804688 13.210938 26.566406 13.382812 26.289062 13.382812 L 25.34375 13.382812 C 25.234375 13.382812 25.132812 13.449219 25.09375 13.550781 C 25.054688 13.648438 25.074219 13.769531 25.152344 13.847656 L 27.066406 15.761719 C 27.113281 15.8125 27.183594 15.839844 27.253906 15.839844 C 27.324219 15.839844 27.394531 15.8125 27.441406 15.761719 C 27.550781 15.652344 27.550781 15.480469 27.441406 15.371094 L 26 13.929688 L 26.296875 13.929688 C 26.347656 13.929688 26.386719 13.929688 26.425781 13.917969 C 26.957031 13.859375 27.375 13.472656 27.492188 12.972656 L 28.058594 12.972656 C 28.210938 12.972656 28.328125 12.855469 28.328125 12.703125 C 28.328125 12.554688 28.210938 12.433594 28.058594 12.433594 L 27.492188 12.433594 C 27.464844 12.285156 27.402344 12.148438 27.3125 12.027344 L 28.050781 12.027344 C 28.210938 12.039062 28.328125 11.90625 28.328125 11.757812 Z M 28.328125 11.757812 " fill-opacity="1" fill-rule="nonzero"/></svg>