<svg xmlns="http://www.w3.org/2000/svg" xmlns:xlink="http://www.w3.org/1999/xlink" width="66" zoomAndPan="magnify" viewBox="0 0 49.5 49.499998" height="66" preserveAspectRatio="xMidYMid meet" version="1.0"><defs><clipPath id="40f0251e9b"><path d="M 0.46875 1.246094 L 48.527344 1.246094 L 48.527344 47.746094 L 0.46875 47.746094 Z M 0.46875 1.246094 " clip-rule="nonzero"/></clipPath><clipPath id="9799536dda"><path d="M 40.542969 1.332031 C 44.910156 1.332031 48.441406 4.871094 48.441406 9.230469 L 48.441406 39.765625 C 48.441406 44.132812 44.902344 47.660156 40.542969 47.660156 L 8.449219 47.660156 C 4.085938 47.660156 0.554688 44.121094 0.554688 39.765625 L 0.554688 9.230469 C 0.554688 4.863281 4.09375 1.332031 8.449219 1.332031 Z M 40.542969 1.332031 " clip-rule="nonzero"/></clipPath><clipPath id="9cd77e3512"><path d="M 0 0.773438 L 49 0.773438 L 49 48.222656 L 0 48.222656 Z M 0 0.773438 " clip-rule="nonzero"/></clipPath><clipPath id="6ae26e711e"><path d="M 49 9.230469 L 49 39.765625 C 49 44.425781 45.203125 48.222656 40.542969 48.222656 L 8.449219 48.222656 C 3.789062 48.222656 -0.00390625 44.425781 -0.00390625 39.765625 L -0.00390625 9.230469 C -0.00390625 4.570312 3.789062 0.773438 8.449219 0.773438 L 40.535156 0.773438 C 45.203125 0.773438 49 4.570312 49 9.230469 Z M 1.113281 39.765625 C 1.113281 43.808594 4.40625 47.101562 8.449219 47.101562 L 40.535156 47.101562 C 44.578125 47.101562 47.871094 43.808594 47.871094 39.765625 L 47.871094 9.230469 C 47.871094 5.1875 44.578125 1.894531 40.535156 1.894531 L 8.449219 1.894531 C 4.40625 1.894531 1.113281 5.1875 1.113281 9.230469 Z M 1.113281 39.765625 " clip-rule="nonzero"/></clipPath><clipPath id="ada216277b"><path d="M 24 7.207031 L 42.21875 7.207031 L 42.21875 30 L 24 30 Z M 24 7.207031 " clip-rule="nonzero"/></clipPath><clipPath id="7ef6f1c061"><path d="M 7 7.207031 L 22 7.207031 L 22 32 L 7 32 Z M 7 7.207031 " clip-rule="nonzero"/></clipPath></defs><g clip-path="url(#40f0251e9b)"><g clip-path="url(#9799536dda)"><path fill="#ffffff" d="M -0.00390625 48.222656 L -0.00390625 0.773438 L 49 0.773438 L 49 48.222656 Z M -0.00390625 48.222656 " fill-opacity="1" fill-rule="nonzero"/></g></g><g clip-path="url(#9cd77e3512)"><g clip-path="url(#6ae26e711e)"><path fill="#edf4ff" d="M -0.00390625 48.222656 L -0.00390625 0.773438 L 49 0.773438 L 49 48.222656 Z M -0.00390625 48.222656 " fill-opacity="1" fill-rule="nonzero"/></g></g><g clip-path="url(#ada216277b)"><path fill="#2f72f1" d="M 41.816406 24.292969 L 41.128906 24.21875 C 41.148438 23.851562 41.121094 23.46875 41.101562 23.101562 C 41.027344 21.566406 40.746094 20.070312 40.261719 18.613281 C 39.773438 17.15625 39.097656 15.792969 38.234375 14.523438 C 37.371094 13.253906 36.351562 12.125 35.175781 11.136719 C 34 10.148438 32.710938 9.339844 31.3125 8.707031 C 29.292969 7.804688 27.175781 7.34375 24.964844 7.328125 C 33.597656 8.105469 40.496094 16.058594 39.910156 24.707031 C 39.910156 24.894531 39.972656 25.054688 40.105469 25.1875 C 40.238281 25.316406 40.402344 25.378906 40.585938 25.375 C 40.03125 26.0625 39.210938 27.109375 38.660156 27.796875 C 38.636719 27.816406 38.609375 27.828125 38.578125 27.820312 C 38.550781 27.820312 38.527344 27.816406 38.503906 27.800781 C 38.46875 27.71875 38.359375 27.472656 38.324219 27.382812 C 38.066406 26.785156 37.523438 25.554688 37.257812 24.957031 C 37.308594 24.964844 37.503906 24.980469 37.546875 24.984375 L 37.957031 24.976562 L 37.972656 24.976562 C 38.121094 24.976562 38.25 24.921875 38.355469 24.816406 C 38.460938 24.710938 38.511719 24.585938 38.515625 24.4375 C 38.5625 22.699219 38.304688 21.011719 37.734375 19.371094 C 37.167969 17.730469 36.328125 16.246094 35.214844 14.910156 C 34.125 13.601562 32.832031 12.53125 31.339844 11.703125 C 29.847656 10.875 28.257812 10.34375 26.566406 10.105469 C 27.335938 10.28125 28.085938 10.519531 28.816406 10.824219 C 29.546875 11.125 30.242188 11.488281 30.910156 11.910156 C 31.578125 12.328125 32.207031 12.804688 32.792969 13.332031 C 33.378906 13.859375 33.917969 14.433594 34.40625 15.054688 C 34.894531 15.675781 35.328125 16.332031 35.707031 17.023438 C 36.082031 17.71875 36.398438 18.4375 36.652344 19.1875 C 36.90625 19.933594 37.097656 20.695312 37.222656 21.476562 C 37.347656 22.253906 37.402344 23.039062 37.394531 23.828125 L 36.390625 23.707031 C 36.289062 23.695312 36.191406 23.710938 36.09375 23.75 C 36 23.792969 35.921875 23.855469 35.859375 23.9375 C 35.800781 24.019531 35.761719 24.113281 35.75 24.214844 C 35.738281 24.320312 35.753906 24.417969 35.796875 24.511719 C 36.113281 25.242188 36.910156 27.148438 37.21875 27.855469 L 37.335938 28.132812 C 37.371094 28.242188 37.421875 28.34375 37.484375 28.4375 C 37.546875 28.53125 37.621094 28.617188 37.703125 28.691406 C 37.789062 28.769531 37.882812 28.832031 37.980469 28.882812 C 38.082031 28.9375 38.1875 28.976562 38.296875 29 C 38.410156 29.027344 38.519531 29.035156 38.632812 29.03125 C 38.746094 29.027344 38.859375 29.011719 38.96875 28.980469 C 39.078125 28.945312 39.179688 28.902344 39.277344 28.84375 C 39.375 28.785156 39.460938 28.714844 39.539062 28.632812 C 39.832031 28.296875 40.433594 27.53125 40.71875 27.179688 L 42.222656 25.277344 C 42.371094 25.089844 42.398438 24.886719 42.304688 24.667969 C 42.214844 24.445312 42.050781 24.324219 41.816406 24.292969 Z M 41.816406 24.292969 " fill-opacity="1" fill-rule="nonzero"/></g><path fill="#2f72f1" d="M 32.816406 37.507812 C 32.140625 37.910156 31.4375 38.265625 30.714844 38.566406 C 29.988281 38.871094 29.242188 39.121094 28.480469 39.316406 C 27.71875 39.515625 26.949219 39.65625 26.167969 39.742188 C 25.386719 39.832031 24.601562 39.863281 23.816406 39.839844 C 23.027344 39.816406 22.246094 39.738281 21.472656 39.601562 C 20.699219 39.46875 19.9375 39.28125 19.1875 39.039062 C 18.4375 38.796875 17.710938 38.5 17.003906 38.15625 C 16.296875 37.808594 15.621094 37.417969 14.96875 36.972656 C 14.8125 36.875 14.640625 36.847656 14.460938 36.890625 C 14.277344 36.9375 14.140625 37.042969 14.046875 37.203125 C 13.835938 36.609375 13.390625 35.410156 13.175781 34.816406 L 12.984375 34.296875 C 12.976562 34.265625 12.984375 34.238281 13.003906 34.214844 C 13.03125 34.167969 13.0625 34.164062 13.058594 34.160156 C 13.148438 34.175781 13.417969 34.210938 13.511719 34.226562 C 14.15625 34.316406 15.488281 34.496094 16.136719 34.578125 C 16.105469 34.617188 15.988281 34.777344 15.964844 34.8125 L 15.757812 35.164062 L 15.746094 35.179688 C 15.671875 35.308594 15.652344 35.441406 15.6875 35.589844 C 15.722656 35.734375 15.800781 35.84375 15.929688 35.921875 C 17.390625 36.863281 18.972656 37.523438 20.671875 37.898438 C 21.921875 38.175781 23.183594 38.273438 24.460938 38.203125 C 25.738281 38.128906 26.980469 37.882812 28.1875 37.464844 C 29.398438 37.050781 30.527344 36.476562 31.582031 35.75 C 32.632812 35.023438 33.566406 34.167969 34.382812 33.179688 C 33.214844 34.355469 31.886719 35.296875 30.394531 36.007812 C 28.898438 36.71875 27.328125 37.152344 25.683594 37.316406 C 24.167969 37.464844 22.667969 37.363281 21.1875 37.015625 C 19.707031 36.667969 18.320312 36.089844 17.027344 35.28125 L 17.65625 34.492188 C 17.71875 34.410156 17.757812 34.316406 17.773438 34.214844 C 17.785156 34.113281 17.773438 34.011719 17.734375 33.917969 C 17.695312 33.820312 17.636719 33.742188 17.554688 33.679688 C 17.472656 33.613281 17.378906 33.574219 17.277344 33.5625 C 16.492188 33.453125 14.445312 33.140625 13.683594 33.035156 L 13.382812 32.992188 C 13.273438 32.964844 13.160156 32.957031 13.046875 32.960938 C 12.933594 32.964844 12.824219 32.984375 12.714844 33.015625 C 12.605469 33.046875 12.503906 33.09375 12.40625 33.152344 C 12.308594 33.210938 12.222656 33.28125 12.144531 33.363281 C 12.066406 33.445312 11.996094 33.535156 11.941406 33.632812 C 11.886719 33.730469 11.84375 33.835938 11.8125 33.945312 C 11.785156 34.054688 11.769531 34.164062 11.769531 34.277344 C 11.769531 34.390625 11.78125 34.503906 11.808594 34.613281 C 11.945312 35.035156 12.289062 35.949219 12.4375 36.378906 L 13.28125 38.652344 C 13.363281 38.875 13.523438 39.003906 13.757812 39.039062 C 13.992188 39.078125 14.183594 39 14.332031 38.816406 L 14.75 38.269531 C 15.25 38.601562 15.933594 38.929688 16.460938 39.222656 C 17.78125 39.855469 19.164062 40.308594 20.601562 40.578125 C 22.042969 40.847656 23.492188 40.929688 24.953125 40.816406 C 26.414062 40.707031 27.835938 40.410156 29.21875 39.925781 C 30.601562 39.441406 31.898438 38.785156 33.109375 37.960938 C 34.929688 36.707031 36.425781 35.140625 37.589844 33.261719 C 36.273438 34.984375 34.679688 36.398438 32.816406 37.507812 Z M 32.816406 37.507812 " fill-opacity="1" fill-rule="nonzero"/><g clip-path="url(#7ef6f1c061)"><path fill="#2f72f1" d="M 11.40625 18.742188 C 12.015625 17.347656 12.832031 16.085938 13.859375 14.960938 C 14.886719 13.835938 16.066406 12.910156 17.398438 12.175781 C 17.503906 12.371094 17.765625 13.230469 17.96875 13.347656 C 18.09375 13.445312 18.238281 13.484375 18.398438 13.460938 C 18.558594 13.4375 18.683594 13.363281 18.78125 13.234375 C 19.363281 12.464844 20.605469 10.863281 21.175781 10.109375 C 21.339844 9.925781 21.445312 9.710938 21.488281 9.464844 C 21.53125 9.21875 21.511719 8.980469 21.421875 8.75 C 21.332031 8.519531 21.1875 8.328125 20.992188 8.175781 C 20.796875 8.023438 20.574219 7.933594 20.328125 7.90625 C 20.238281 7.894531 19.972656 7.84375 19.878906 7.832031 C 19.125 7.699219 17.070312 7.382812 16.285156 7.261719 C 16.050781 7.222656 15.859375 7.296875 15.710938 7.484375 C 15.5625 7.675781 15.535156 7.878906 15.632812 8.097656 L 15.902344 8.734375 C 15.574219 8.898438 15.253906 9.109375 14.941406 9.308594 C 13.644531 10.125 12.480469 11.105469 11.449219 12.246094 C 10.421875 13.386719 9.566406 14.644531 8.882812 16.019531 C 8.203125 17.398438 7.722656 18.839844 7.4375 20.351562 C 7.15625 21.859375 7.085938 23.378906 7.222656 24.910156 C 7.429688 27.113281 8.070312 29.179688 9.144531 31.113281 C 8.289062 29.140625 7.828125 27.074219 7.765625 24.921875 C 7.699219 22.769531 8.039062 20.679688 8.773438 18.65625 C 9.503906 16.675781 10.570312 14.898438 11.980469 13.324219 C 13.386719 11.753906 15.035156 10.496094 16.925781 9.550781 C 17.089844 9.464844 17.199219 9.328125 17.246094 9.148438 C 17.296875 8.96875 17.273438 8.796875 17.175781 8.636719 C 17.800781 8.742188 19.0625 8.9375 19.683594 9.035156 L 20.230469 9.125 C 20.242188 9.125 20.273438 9.140625 20.292969 9.183594 C 20.304688 9.207031 20.3125 9.230469 20.3125 9.257812 L 20.222656 9.375 C 20.109375 9.519531 19.433594 10.425781 19.308594 10.589844 L 18.449219 11.738281 C 18.429688 11.695312 18.347656 11.515625 18.328125 11.476562 L 18.125 11.125 L 18.117188 11.109375 C 18.039062 10.980469 17.929688 10.894531 17.789062 10.855469 C 17.644531 10.816406 17.507812 10.832031 17.375 10.902344 C 11.210938 14.007812 8.09375 21.988281 10.777344 28.351562 C 10.320312 26.761719 10.144531 25.140625 10.253906 23.492188 C 10.359375 21.839844 10.746094 20.257812 11.40625 18.742188 Z M 11.40625 18.742188 " fill-opacity="1" fill-rule="nonzero"/></g><path fill="#2f72f1" d="M 17.625 23.417969 C 20.785156 23.3125 20.785156 18.316406 17.625 18.214844 C 14.464844 18.316406 14.46875 23.3125 17.625 23.417969 Z M 17.625 23.417969 " fill-opacity="1" fill-rule="nonzero"/><path fill="#2f72f1" d="M 21.117188 31.097656 C 21.28125 31.09375 21.394531 31.011719 21.457031 30.859375 L 23.125 27.246094 C 23.140625 27.210938 23.140625 27.179688 23.121094 27.148438 L 17.410156 27.128906 C 17.257812 27.132812 17.148438 27.203125 17.082031 27.34375 L 15.167969 30.980469 C 15.148438 31.015625 15.148438 31.050781 15.171875 31.082031 Z M 21.117188 31.097656 " fill-opacity="1" fill-rule="nonzero"/><path fill="#2f72f1" d="M 14.476562 25.074219 L 13.1875 27.765625 C 13.105469 27.929688 13.078125 28.105469 13.105469 28.289062 C 13.128906 28.472656 13.203125 28.636719 13.324219 28.773438 L 14.785156 30.382812 L 15.386719 29.238281 L 14.800781 28.589844 C 14.589844 28.347656 14.550781 28.078125 14.691406 27.789062 L 15.269531 26.625 C 15.308594 26.546875 15.367188 26.5 15.449219 26.472656 C 15.527344 26.445312 15.605469 26.449219 15.679688 26.488281 C 15.753906 26.523438 15.804688 26.582031 15.832031 26.664062 C 15.859375 26.742188 15.855469 26.820312 15.820312 26.894531 L 15.246094 28.058594 C 15.164062 28.148438 15.550781 28.464844 15.695312 28.652344 L 16.535156 27.0625 C 16.714844 26.699219 17.007812 26.519531 17.410156 26.511719 L 20.886719 26.511719 L 20.191406 25.074219 C 20.09375 24.863281 19.949219 24.691406 19.753906 24.5625 C 19.558594 24.4375 19.347656 24.371094 19.113281 24.367188 L 15.5625 24.367188 C 15.328125 24.371094 15.113281 24.4375 14.917969 24.566406 C 14.722656 24.695312 14.574219 24.863281 14.476562 25.074219 Z M 14.476562 25.074219 " fill-opacity="1" fill-rule="nonzero"/><path fill="#2f72f1" d="M 28.886719 19.269531 C 32.042969 19.164062 32.046875 14.175781 28.882812 14.070312 C 25.722656 14.175781 25.726562 19.164062 28.886719 19.269531 Z M 28.886719 19.269531 " fill-opacity="1" fill-rule="nonzero"/><path fill="#2f72f1" d="M 32.714844 26.714844 L 34.378906 23.097656 C 34.394531 23.0625 34.394531 23.03125 34.378906 22.996094 L 28.667969 22.980469 C 28.515625 22.988281 28.40625 23.058594 28.335938 23.195312 L 26.425781 26.832031 C 26.410156 26.867188 26.410156 26.898438 26.425781 26.929688 L 32.375 26.957031 C 32.539062 26.949219 32.652344 26.867188 32.714844 26.714844 Z M 32.714844 26.714844 " fill-opacity="1" fill-rule="nonzero"/><path fill="#2f72f1" d="M 25.117188 25.21875 C 25.128906 25.230469 25.148438 25.261719 25.160156 25.273438 L 26.042969 26.234375 L 26.648438 25.089844 L 26.0625 24.441406 C 25.84375 24.199219 25.808594 23.933594 25.949219 23.644531 L 26.53125 22.472656 C 26.570312 22.398438 26.628906 22.351562 26.707031 22.324219 C 26.789062 22.300781 26.863281 22.308594 26.9375 22.34375 C 27.015625 22.382812 27.066406 22.441406 27.089844 22.519531 C 27.117188 22.597656 27.113281 22.675781 27.078125 22.75 L 26.503906 23.917969 C 26.417969 24 26.851562 24.367188 26.953125 24.507812 L 27.792969 22.910156 C 27.972656 22.550781 28.265625 22.367188 28.667969 22.363281 L 32.140625 22.363281 L 31.449219 20.925781 C 31.355469 20.714844 31.207031 20.542969 31.011719 20.414062 C 30.820312 20.285156 30.605469 20.21875 30.371094 20.21875 L 26.820312 20.21875 C 26.585938 20.222656 26.371094 20.292969 26.175781 20.417969 C 25.980469 20.546875 25.835938 20.714844 25.734375 20.925781 C 25.714844 20.960938 25.691406 21.027344 25.671875 21.0625 L 24.445312 23.613281 C 24.105469 24.273438 24.722656 24.785156 25.117188 25.21875 Z M 25.117188 25.21875 " fill-opacity="1" fill-rule="nonzero"/><path fill="#2f72f1" d="M 18.792969 14.890625 C 18.894531 18.332031 23.472656 18.328125 23.578125 14.890625 C 23.472656 11.449219 18.894531 11.449219 18.792969 14.890625 Z M 18.792969 14.890625 " fill-opacity="1" fill-rule="nonzero"/><path fill="#2f72f1" d="M 20.066406 17.824219 C 19.980469 17.824219 19.910156 17.855469 19.851562 17.914062 C 19.792969 17.976562 19.761719 18.046875 19.761719 18.132812 C 19.761719 18.214844 19.792969 18.289062 19.851562 18.347656 C 19.910156 18.40625 19.980469 18.4375 20.066406 18.441406 L 22.667969 18.441406 C 22.902344 18.445312 23.113281 18.511719 23.308594 18.636719 C 23.503906 18.765625 23.652344 18.9375 23.746094 19.148438 C 23.785156 19.226562 23.84375 19.277344 23.921875 19.304688 C 24.003906 19.335938 24.082031 19.328125 24.160156 19.292969 C 24.234375 19.253906 24.289062 19.195312 24.316406 19.117188 C 24.34375 19.035156 24.339844 18.957031 24.300781 18.878906 C 24.15625 18.5625 23.933594 18.304688 23.636719 18.113281 C 23.34375 17.925781 23.019531 17.828125 22.667969 17.824219 Z M 20.066406 17.824219 " fill-opacity="1" fill-rule="nonzero"/><path fill="#2f72f1" d="M 28.824219 33.472656 C 28.988281 33.464844 29.101562 33.386719 29.164062 33.234375 L 30.828125 29.613281 C 30.84375 29.582031 30.839844 29.550781 30.820312 29.519531 L 25.113281 29.496094 C 24.960938 29.503906 24.851562 29.574219 24.785156 29.710938 L 22.867188 33.351562 C 22.851562 33.382812 22.855469 33.417969 22.875 33.449219 Z M 28.824219 33.472656 " fill-opacity="1" fill-rule="nonzero"/></svg>