<svg xmlns="http://www.w3.org/2000/svg" xmlns:xlink="http://www.w3.org/1999/xlink" width="66" zoomAndPan="magnify" viewBox="0 0 49.5 49.499998" height="66" preserveAspectRatio="xMidYMid meet" version="1.0"><defs><clipPath id="52301014e2"><path d="M 0.46875 1.246094 L 48.527344 1.246094 L 48.527344 47.746094 L 0.46875 47.746094 Z M 0.46875 1.246094 " clip-rule="nonzero"/></clipPath><clipPath id="183c577e9b"><path d="M 40.542969 1.332031 C 44.910156 1.332031 48.441406 4.871094 48.441406 9.230469 L 48.441406 39.765625 C 48.441406 44.132812 44.902344 47.660156 40.542969 47.660156 L 8.449219 47.660156 C 4.085938 47.660156 0.554688 44.121094 0.554688 39.765625 L 0.554688 9.230469 C 0.554688 4.863281 4.09375 1.332031 8.449219 1.332031 Z M 40.542969 1.332031 " clip-rule="nonzero"/></clipPath><clipPath id="4a0f352c94"><path d="M 0 0.773438 L 49 0.773438 L 49 48.222656 L 0 48.222656 Z M 0 0.773438 " clip-rule="nonzero"/></clipPath><clipPath id="0f67122e7a"><path d="M 49 9.230469 L 49 39.765625 C 49 44.425781 45.203125 48.222656 40.542969 48.222656 L 8.449219 48.222656 C 3.789062 48.222656 -0.00390625 44.425781 -0.00390625 39.765625 L -0.00390625 9.230469 C -0.00390625 4.570312 3.789062 0.773438 8.449219 0.773438 L 40.535156 0.773438 C 45.203125 0.773438 49 4.570312 49 9.230469 Z M 1.113281 39.765625 C 1.113281 43.808594 4.40625 47.101562 8.449219 47.101562 L 40.535156 47.101562 C 44.578125 47.101562 47.871094 43.808594 47.871094 39.765625 L 47.871094 9.230469 C 47.871094 5.1875 44.578125 1.894531 40.535156 1.894531 L 8.449219 1.894531 C 4.40625 1.894531 1.113281 5.1875 1.113281 9.230469 Z M 1.113281 39.765625 " clip-rule="nonzero"/></clipPath><clipPath id="9c6dd5f612"><path d="M 13.058594 4.902344 L 36 4.902344 L 36 44.253906 L 13.058594 44.253906 Z M 13.058594 4.902344 " clip-rule="nonzero"/></clipPath><clipPath id="d16ca21dbf"><path d="M 13.058594 7 L 36 7 L 36 9 L 13.058594 9 Z M 13.058594 7 " clip-rule="nonzero"/></clipPath><clipPath id="3411cc5c5b"><path d="M 13.058594 36 L 36 36 L 36 38 L 13.058594 38 Z M 13.058594 36 " clip-rule="nonzero"/></clipPath></defs><g clip-path="url(#52301014e2)"><g clip-path="url(#183c577e9b)"><path fill="#ffffff" d="M -0.00390625 48.222656 L -0.00390625 0.773438 L 49 0.773438 L 49 48.222656 Z M -0.00390625 48.222656 " fill-opacity="1" fill-rule="nonzero"/></g></g><g clip-path="url(#4a0f352c94)"><g clip-path="url(#0f67122e7a)"><path fill="#edf4ff" d="M -0.00390625 48.222656 L -0.00390625 0.773438 L 49 0.773438 L 49 48.222656 Z M -0.00390625 48.222656 " fill-opacity="1" fill-rule="nonzero"/></g></g><g clip-path="url(#9c6dd5f612)"><path fill="#2f72f1" d="M 33.769531 44.09375 L 15.230469 44.09375 C 14.03125 44.09375 13.058594 43.121094 13.058594 41.925781 L 13.058594 7.085938 C 13.058594 5.886719 14.03125 4.914062 15.230469 4.914062 L 33.769531 4.914062 C 34.964844 4.914062 35.941406 5.886719 35.941406 7.085938 L 35.941406 41.925781 C 35.941406 43.121094 34.964844 44.09375 33.769531 44.09375 Z M 15.230469 5.679688 C 14.453125 5.679688 13.824219 6.308594 13.824219 7.085938 L 13.824219 41.925781 C 13.824219 42.699219 14.453125 43.328125 15.230469 43.328125 L 33.769531 43.328125 C 34.542969 43.328125 35.175781 42.699219 35.175781 41.925781 L 35.175781 7.085938 C 35.175781 6.308594 34.542969 5.679688 33.769531 5.679688 Z M 15.230469 5.679688 " fill-opacity="1" fill-rule="evenodd"/></g><g clip-path="url(#d16ca21dbf)"><path fill="#2f72f1" d="M 35.558594 8.597656 L 13.441406 8.597656 C 13.230469 8.597656 13.058594 8.425781 13.058594 8.214844 C 13.058594 8.003906 13.230469 7.832031 13.441406 7.832031 L 35.558594 7.832031 C 35.769531 7.832031 35.941406 8.003906 35.941406 8.214844 C 35.941406 8.425781 35.769531 8.597656 35.558594 8.597656 Z M 35.558594 8.597656 " fill-opacity="1" fill-rule="evenodd"/></g><g clip-path="url(#3411cc5c5b)"><path fill="#2f72f1" d="M 35.558594 37.113281 L 13.441406 37.113281 C 13.230469 37.113281 13.058594 36.941406 13.058594 36.730469 C 13.058594 36.519531 13.230469 36.347656 13.441406 36.347656 L 35.558594 36.347656 C 35.769531 36.347656 35.941406 36.519531 35.941406 36.730469 C 35.941406 36.941406 35.769531 37.113281 35.558594 37.113281 Z M 35.558594 37.113281 " fill-opacity="1" fill-rule="evenodd"/></g><path fill="#2f72f1" d="M 28.144531 40.605469 L 24.144531 40.605469 C 23.933594 40.605469 23.761719 40.433594 23.761719 40.222656 C 23.761719 40.011719 23.933594 39.839844 24.144531 39.839844 L 28.144531 39.839844 C 28.355469 39.839844 28.527344 40.011719 28.527344 40.222656 C 28.527344 40.433594 28.355469 40.605469 28.144531 40.605469 Z M 28.144531 40.605469 " fill-opacity="1" fill-rule="evenodd"/><path fill="#2f72f1" d="M 21.535156 40.605469 L 20.851562 40.605469 C 20.640625 40.605469 20.46875 40.433594 20.46875 40.222656 C 20.46875 40.011719 20.640625 39.839844 20.851562 39.839844 L 21.535156 39.839844 C 21.746094 39.839844 21.917969 40.011719 21.917969 40.222656 C 21.917969 40.433594 21.746094 40.605469 21.535156 40.605469 Z M 21.535156 40.605469 " fill-opacity="1" fill-rule="evenodd"/><path fill="#2f72f1" d="M 22.941406 28.785156 C 22.941406 28.785156 22.9375 28.785156 22.9375 28.785156 L 16.375 28.785156 C 15.773438 28.785156 15.28125 28.296875 15.28125 27.695312 L 15.28125 19.40625 C 15.28125 19.304688 15.324219 19.207031 15.394531 19.136719 C 15.464844 19.0625 15.5625 19.023438 15.664062 19.023438 L 26.972656 19.023438 C 27.183594 19.023438 27.355469 19.195312 27.355469 19.40625 L 27.355469 22.96875 C 27.355469 23.148438 27.230469 23.304688 27.054688 23.34375 C 24.851562 23.84375 23.308594 25.777344 23.308594 28.042969 C 23.308594 28.140625 23.3125 28.242188 23.316406 28.34375 C 23.320312 28.363281 23.324219 28.382812 23.324219 28.402344 C 23.324219 28.617188 23.152344 28.785156 22.941406 28.785156 Z M 16.046875 19.789062 L 16.046875 27.695312 C 16.046875 27.875 16.195312 28.019531 16.375 28.019531 L 22.542969 28.019531 C 22.546875 26.753906 22.988281 25.519531 23.78125 24.535156 C 24.503906 23.640625 25.492188 22.988281 26.589844 22.671875 L 26.589844 19.789062 Z M 16.046875 19.789062 " fill-opacity="1" fill-rule="evenodd"/><path fill="#2f72f1" d="M 18.09375 19.789062 C 17.878906 19.789062 17.710938 19.617188 17.710938 19.40625 L 17.710938 16.796875 C 17.710938 15.054688 19.128906 13.636719 20.871094 13.636719 L 21.765625 13.636719 C 23.378906 13.636719 24.714844 14.851562 24.90625 16.414062 L 25.5625 16.414062 C 25.371094 14.488281 23.742188 12.980469 21.765625 12.980469 L 20.871094 12.980469 C 18.765625 12.980469 17.054688 14.695312 17.054688 16.796875 L 17.054688 19.40625 C 17.054688 19.617188 16.882812 19.789062 16.671875 19.789062 C 16.460938 19.789062 16.289062 19.617188 16.289062 19.40625 L 16.289062 16.796875 C 16.289062 14.273438 18.34375 12.21875 20.871094 12.21875 L 21.765625 12.21875 C 24.292969 12.21875 26.347656 14.273438 26.347656 16.796875 C 26.347656 17.007812 26.175781 17.179688 25.964844 17.179688 L 24.542969 17.179688 C 24.332031 17.179688 24.164062 17.007812 24.164062 16.796875 C 24.164062 15.476562 23.085938 14.402344 21.765625 14.402344 L 20.871094 14.402344 C 19.550781 14.402344 18.472656 15.476562 18.472656 16.796875 L 18.472656 19.40625 C 18.472656 19.617188 18.304688 19.789062 18.09375 19.789062 Z M 18.09375 19.789062 " fill-opacity="1" fill-rule="evenodd"/><path fill="#2f72f1" d="M 19.445312 25.785156 C 19.347656 25.785156 19.25 25.746094 19.175781 25.671875 L 17.640625 24.140625 C 17.492188 23.988281 17.492188 23.746094 17.640625 23.597656 C 17.792969 23.449219 18.035156 23.449219 18.183594 23.597656 L 19.445312 24.859375 L 22.167969 22.136719 C 22.316406 21.988281 22.558594 21.988281 22.707031 22.136719 C 22.859375 22.289062 22.859375 22.53125 22.707031 22.679688 L 19.714844 25.671875 C 19.640625 25.746094 19.542969 25.785156 19.445312 25.785156 Z M 19.445312 25.785156 " fill-opacity="1" fill-rule="evenodd"/><path fill="#2f72f1" d="M 28.128906 33.628906 C 25.050781 33.628906 22.542969 31.125 22.542969 28.042969 C 22.542969 24.964844 25.050781 22.457031 28.128906 22.457031 C 31.210938 22.457031 33.714844 24.964844 33.714844 28.042969 C 33.714844 31.125 31.210938 33.628906 28.128906 33.628906 Z M 28.128906 23.222656 C 25.472656 23.222656 23.308594 25.386719 23.308594 28.042969 C 23.308594 30.703125 25.472656 32.863281 28.128906 32.863281 C 30.789062 32.863281 32.949219 30.703125 32.949219 28.042969 C 32.949219 25.386719 30.789062 23.222656 28.128906 23.222656 Z M 28.128906 23.222656 " fill-opacity="1" fill-rule="evenodd"/><path fill="#2f72f1" d="M 28.128906 33.628906 C 26.773438 33.628906 25.46875 33.140625 24.449219 32.246094 C 24.367188 32.175781 24.320312 32.070312 24.320312 31.957031 L 24.320312 31.558594 C 24.320312 30.4375 25.230469 29.527344 26.351562 29.527344 L 27.257812 29.527344 C 27.46875 29.527344 27.640625 29.695312 27.640625 29.910156 L 27.640625 29.925781 C 27.640625 30.195312 27.859375 30.414062 28.128906 30.414062 C 28.398438 30.414062 28.617188 30.195312 28.617188 29.925781 L 28.617188 29.910156 C 28.617188 29.695312 28.789062 29.527344 29 29.527344 L 30.066406 29.527344 C 31.1875 29.527344 32.097656 30.4375 32.097656 31.558594 L 32.097656 31.8125 C 32.097656 31.917969 32.054688 32.019531 31.980469 32.089844 C 30.9375 33.082031 29.570312 33.628906 28.128906 33.628906 Z M 25.085938 31.78125 C 25.941406 32.480469 27.015625 32.863281 28.128906 32.863281 C 29.320312 32.863281 30.449219 32.433594 31.335938 31.644531 L 31.335938 31.558594 C 31.335938 30.859375 30.765625 30.292969 30.066406 30.292969 L 29.328125 30.292969 C 29.171875 30.804688 28.691406 31.179688 28.128906 31.179688 C 27.566406 31.179688 27.085938 30.804688 26.929688 30.292969 L 26.351562 30.292969 C 25.652344 30.292969 25.085938 30.859375 25.085938 31.558594 Z M 25.085938 31.78125 " fill-opacity="1" fill-rule="evenodd"/><path fill="#2f72f1" d="M 28.59375 29.296875 L 27.824219 29.296875 C 26.761719 29.296875 25.894531 28.429688 25.894531 27.367188 L 25.894531 26.164062 C 25.894531 25.101562 26.761719 24.234375 27.824219 24.234375 L 28.59375 24.234375 C 29.65625 24.234375 30.523438 25.101562 30.523438 26.164062 L 30.523438 27.367188 C 30.523438 28.429688 29.65625 29.296875 28.59375 29.296875 Z M 27.824219 25 C 27.183594 25 26.660156 25.523438 26.660156 26.164062 L 26.660156 27.367188 C 26.660156 28.007812 27.183594 28.53125 27.824219 28.53125 L 28.59375 28.53125 C 29.234375 28.53125 29.757812 28.007812 29.757812 27.367188 L 29.757812 26.164062 C 29.757812 25.523438 29.234375 25 28.59375 25 Z M 27.824219 25 " fill-opacity="1" fill-rule="evenodd"/><path fill="#2f72f1" d="M 28.59375 29.296875 L 27.824219 29.296875 C 26.761719 29.296875 25.894531 28.429688 25.894531 27.363281 L 25.894531 26.550781 C 25.894531 26.421875 25.960938 26.300781 26.070312 26.230469 C 26.410156 26.011719 26.800781 25.894531 27.207031 25.894531 L 29.214844 25.894531 C 29.617188 25.894531 30.007812 26.011719 30.347656 26.230469 C 30.457031 26.300781 30.523438 26.421875 30.523438 26.550781 L 30.523438 27.363281 C 30.523438 28.429688 29.65625 29.296875 28.59375 29.296875 Z M 26.660156 26.777344 L 26.660156 27.363281 C 26.660156 28.007812 27.183594 28.53125 27.824219 28.53125 L 28.59375 28.53125 C 29.234375 28.53125 29.757812 28.007812 29.757812 27.363281 L 29.757812 26.777344 C 29.585938 26.699219 29.402344 26.660156 29.210938 26.660156 L 27.207031 26.660156 C 27.015625 26.660156 26.832031 26.699219 26.660156 26.777344 Z M 26.660156 26.777344 " fill-opacity="1" fill-rule="evenodd"/><path fill="#2f72f1" d="M 28.128906 31.179688 C 27.4375 31.179688 26.875 30.617188 26.875 29.925781 L 26.875 28.808594 C 26.875 28.679688 26.9375 28.5625 27.042969 28.488281 C 27.148438 28.417969 27.28125 28.402344 27.398438 28.449219 C 27.535156 28.503906 27.679688 28.53125 27.824219 28.53125 L 28.59375 28.53125 C 28.695312 28.53125 28.800781 28.519531 28.898438 28.492188 C 29.011719 28.460938 29.136719 28.484375 29.230469 28.554688 C 29.328125 28.628906 29.382812 28.738281 29.382812 28.859375 L 29.382812 29.925781 C 29.382812 30.617188 28.820312 31.179688 28.128906 31.179688 Z M 27.640625 29.289062 L 27.640625 29.925781 C 27.640625 30.195312 27.859375 30.414062 28.128906 30.414062 C 28.398438 30.414062 28.617188 30.195312 28.617188 29.925781 L 28.617188 29.296875 C 28.609375 29.296875 28.601562 29.296875 28.59375 29.296875 L 27.824219 29.296875 C 27.765625 29.296875 27.703125 29.292969 27.640625 29.289062 Z M 27.640625 29.289062 " fill-opacity="1" fill-rule="evenodd"/><path fill="#2f72f1" d="M 23.820312 21.203125 L 23.324219 21.203125 C 23.113281 21.203125 22.941406 21.03125 22.941406 20.820312 C 22.941406 20.609375 23.113281 20.4375 23.324219 20.4375 L 23.820312 20.4375 C 24.03125 20.4375 24.203125 20.609375 24.203125 20.820312 C 24.203125 21.03125 24.03125 21.203125 23.820312 21.203125 Z M 23.820312 21.203125 " fill-opacity="1" fill-rule="evenodd"/><path fill="#2f72f1" d="M 25.523438 21.203125 L 25.023438 21.203125 C 24.8125 21.203125 24.640625 21.03125 24.640625 20.820312 C 24.640625 20.609375 24.8125 20.4375 25.023438 20.4375 L 25.523438 20.4375 C 25.734375 20.4375 25.90625 20.609375 25.90625 20.820312 C 25.90625 21.03125 25.734375 21.203125 25.523438 21.203125 Z M 25.523438 21.203125 " fill-opacity="1" fill-rule="evenodd"/></svg>