<svg xmlns="http://www.w3.org/2000/svg" xmlns:xlink="http://www.w3.org/1999/xlink" width="66" zoomAndPan="magnify" viewBox="0 0 49.5 49.499998" height="66" preserveAspectRatio="xMidYMid meet" version="1.0"><defs><clipPath id="df6c5477df"><path d="M 0.46875 1.246094 L 48.527344 1.246094 L 48.527344 47.746094 L 0.46875 47.746094 Z M 0.46875 1.246094 " clip-rule="nonzero"/></clipPath><clipPath id="0a81b5b6cd"><path d="M 40.542969 1.332031 C 44.910156 1.332031 48.441406 4.871094 48.441406 9.230469 L 48.441406 39.765625 C 48.441406 44.132812 44.902344 47.660156 40.542969 47.660156 L 8.449219 47.660156 C 4.085938 47.660156 0.554688 44.121094 0.554688 39.765625 L 0.554688 9.230469 C 0.554688 4.863281 4.09375 1.332031 8.449219 1.332031 Z M 40.542969 1.332031 " clip-rule="nonzero"/></clipPath><clipPath id="a0a6af76cf"><path d="M 0 0.773438 L 49 0.773438 L 49 48.222656 L 0 48.222656 Z M 0 0.773438 " clip-rule="nonzero"/></clipPath><clipPath id="ca1c550de8"><path d="M 49 9.230469 L 49 39.765625 C 49 44.425781 45.203125 48.222656 40.542969 48.222656 L 8.449219 48.222656 C 3.789062 48.222656 -0.00390625 44.425781 -0.00390625 39.765625 L -0.00390625 9.230469 C -0.00390625 4.570312 3.789062 0.773438 8.449219 0.773438 L 40.535156 0.773438 C 45.203125 0.773438 49 4.570312 49 9.230469 Z M 1.113281 39.765625 C 1.113281 43.808594 4.40625 47.101562 8.449219 47.101562 L 40.535156 47.101562 C 44.578125 47.101562 47.871094 43.808594 47.871094 39.765625 L 47.871094 9.230469 C 47.871094 5.1875 44.578125 1.894531 40.535156 1.894531 L 8.449219 1.894531 C 4.40625 1.894531 1.113281 5.1875 1.113281 9.230469 Z M 1.113281 39.765625 " clip-rule="nonzero"/></clipPath><clipPath id="bb3bae2951"><path d="M 24 19 L 41.839844 19 L 41.839844 41.277344 L 24 41.277344 Z M 24 19 " clip-rule="nonzero"/></clipPath><clipPath id="86502adc53"><path d="M 6.941406 7.863281 L 34 7.863281 L 34 41.277344 L 6.941406 41.277344 Z M 6.941406 7.863281 " clip-rule="nonzero"/></clipPath></defs><g clip-path="url(#df6c5477df)"><g clip-path="url(#0a81b5b6cd)"><path fill="#ffffff" d="M -0.00390625 48.222656 L -0.00390625 0.773438 L 49 0.773438 L 49 48.222656 Z M -0.00390625 48.222656 " fill-opacity="1" fill-rule="nonzero"/></g></g><g clip-path="url(#a0a6af76cf)"><g clip-path="url(#ca1c550de8)"><path fill="#edf4ff" d="M -0.00390625 48.222656 L -0.00390625 0.773438 L 49 0.773438 L 49 48.222656 Z M -0.00390625 48.222656 " fill-opacity="1" fill-rule="nonzero"/></g></g><g clip-path="url(#bb3bae2951)"><path fill="#2f72f1" d="M 33.246094 41.144531 C 33.175781 41.144531 33.113281 41.132812 33.046875 41.109375 C 32.707031 40.988281 24.632812 38.105469 24.4375 33.171875 C 24.4375 33.164062 24.4375 33.15625 24.4375 33.148438 L 24.4375 21.84375 C 24.4375 21.683594 24.496094 21.542969 24.609375 21.429688 C 24.71875 21.316406 24.855469 21.253906 25.019531 21.253906 C 25.070312 21.253906 30.375 21.132812 32.953125 19.660156 C 33.148438 19.546875 33.34375 19.546875 33.539062 19.660156 C 36.117188 21.132812 41.417969 21.25 41.472656 21.253906 C 41.632812 21.253906 41.769531 21.316406 41.882812 21.429688 C 41.992188 21.542969 42.050781 21.683594 42.050781 21.84375 L 42.050781 33.148438 C 42.050781 33.15625 42.050781 33.164062 42.050781 33.171875 C 41.855469 38.105469 33.785156 40.988281 33.441406 41.109375 C 33.375 41.132812 33.3125 41.144531 33.246094 41.144531 Z M 25.617188 33.136719 C 25.777344 36.890625 32.046875 39.464844 33.246094 39.925781 C 34.4375 39.464844 40.710938 36.890625 40.871094 33.136719 L 40.871094 22.410156 C 39.417969 22.335938 35.609375 22.042969 33.246094 20.839844 C 30.878906 22.042969 27.070312 22.339844 25.617188 22.410156 Z M 25.617188 33.136719 " fill-opacity="1" fill-rule="nonzero"/></g><path fill="#2f72f1" d="M 33.246094 35.996094 C 33.082031 35.996094 32.941406 35.9375 32.828125 35.824219 C 32.710938 35.707031 32.65625 35.570312 32.65625 35.40625 L 32.65625 32.804688 C 32.65625 32.644531 32.710938 32.503906 32.828125 32.390625 C 32.941406 32.273438 33.082031 32.214844 33.246094 32.214844 C 33.40625 32.214844 33.546875 32.273438 33.660156 32.390625 C 33.777344 32.503906 33.835938 32.644531 33.835938 32.804688 L 33.835938 35.40625 C 33.835938 35.570312 33.777344 35.707031 33.660156 35.824219 C 33.546875 35.9375 33.40625 35.996094 33.246094 35.996094 Z M 33.246094 35.996094 " fill-opacity="1" fill-rule="nonzero"/><path fill="#2f72f1" d="M 33.246094 33.394531 C 32.984375 33.394531 32.730469 33.347656 32.492188 33.246094 C 32.25 33.144531 32.035156 33.003906 31.851562 32.820312 C 31.667969 32.632812 31.523438 32.421875 31.425781 32.179688 C 31.324219 31.9375 31.273438 31.6875 31.273438 31.425781 C 31.273438 31.164062 31.324219 30.914062 31.425781 30.671875 C 31.523438 30.429688 31.667969 30.21875 31.851562 30.035156 C 32.035156 29.847656 32.25 29.707031 32.488281 29.605469 C 32.730469 29.507812 32.984375 29.457031 33.242188 29.457031 C 33.503906 29.457031 33.757812 29.507812 33.996094 29.605469 C 34.238281 29.707031 34.453125 29.847656 34.636719 30.035156 C 34.820312 30.21875 34.964844 30.433594 35.0625 30.671875 C 35.164062 30.914062 35.210938 31.164062 35.210938 31.425781 C 35.210938 31.6875 35.164062 31.9375 35.0625 32.179688 C 34.960938 32.421875 34.820312 32.632812 34.636719 32.816406 C 34.449219 33.003906 34.238281 33.144531 33.996094 33.246094 C 33.757812 33.34375 33.503906 33.394531 33.246094 33.394531 Z M 33.246094 30.636719 C 33.027344 30.636719 32.839844 30.714844 32.6875 30.867188 C 32.53125 31.023438 32.453125 31.207031 32.453125 31.425781 C 32.453125 31.644531 32.53125 31.832031 32.683594 31.984375 C 32.839844 32.140625 33.023438 32.214844 33.242188 32.214844 C 33.460938 32.214844 33.648438 32.140625 33.800781 31.984375 C 33.957031 31.832031 34.03125 31.644531 34.03125 31.425781 C 34.03125 31.210938 33.957031 31.023438 33.800781 30.871094 C 33.648438 30.714844 33.460938 30.636719 33.246094 30.636719 Z M 33.246094 30.636719 " fill-opacity="1" fill-rule="nonzero"/><path fill="#2f72f1" d="M 36.101562 37.441406 L 30.382812 37.441406 C 30.136719 37.441406 29.902344 37.394531 29.675781 37.300781 C 29.449219 37.207031 29.246094 37.070312 29.074219 36.898438 C 28.898438 36.722656 28.765625 36.523438 28.671875 36.296875 C 28.578125 36.070312 28.53125 35.832031 28.53125 35.585938 L 28.53125 29.867188 C 28.53125 29.621094 28.578125 29.386719 28.671875 29.160156 C 28.765625 28.929688 28.898438 28.730469 29.074219 28.558594 C 29.246094 28.382812 29.449219 28.25 29.675781 28.15625 C 29.902344 28.058594 30.136719 28.011719 30.382812 28.011719 L 36.101562 28.011719 C 36.347656 28.011719 36.585938 28.058594 36.8125 28.15625 C 37.039062 28.25 37.242188 28.382812 37.414062 28.558594 C 37.589844 28.730469 37.722656 28.929688 37.816406 29.160156 C 37.910156 29.386719 37.957031 29.621094 37.957031 29.867188 L 37.957031 35.585938 C 37.957031 35.832031 37.910156 36.070312 37.816406 36.296875 C 37.722656 36.523438 37.585938 36.722656 37.414062 36.898438 C 37.238281 37.070312 37.039062 37.207031 36.8125 37.300781 C 36.585938 37.394531 36.347656 37.441406 36.101562 37.441406 Z M 30.382812 29.191406 C 30.199219 29.191406 30.039062 29.257812 29.90625 29.390625 C 29.777344 29.523438 29.710938 29.679688 29.710938 29.867188 L 29.710938 35.585938 C 29.710938 35.773438 29.777344 35.933594 29.90625 36.0625 C 30.039062 36.195312 30.199219 36.261719 30.382812 36.261719 L 36.101562 36.261719 C 36.289062 36.261719 36.449219 36.195312 36.582031 36.0625 C 36.710938 35.933594 36.777344 35.773438 36.777344 35.585938 L 36.777344 29.867188 C 36.777344 29.679688 36.710938 29.523438 36.582031 29.390625 C 36.449219 29.257812 36.289062 29.191406 36.101562 29.191406 Z M 30.382812 29.191406 " fill-opacity="1" fill-rule="nonzero"/><path fill="#2f72f1" d="M 35.414062 29.191406 C 35.25 29.191406 35.113281 29.136719 34.996094 29.019531 C 34.882812 28.90625 34.824219 28.765625 34.824219 28.601562 L 34.824219 26.046875 C 34.824219 25.835938 34.785156 25.632812 34.703125 25.441406 C 34.625 25.246094 34.507812 25.074219 34.359375 24.925781 C 34.210938 24.777344 34.042969 24.664062 33.847656 24.582031 C 33.652344 24.503906 33.453125 24.464844 33.242188 24.464844 C 33.03125 24.464844 32.832031 24.503906 32.636719 24.582031 C 32.441406 24.664062 32.273438 24.777344 32.125 24.925781 C 31.976562 25.074219 31.859375 25.246094 31.78125 25.441406 C 31.699219 25.632812 31.660156 25.835938 31.660156 26.046875 L 31.660156 28.601562 C 31.660156 28.765625 31.601562 28.90625 31.488281 29.019531 C 31.371094 29.136719 31.234375 29.191406 31.070312 29.191406 C 30.90625 29.191406 30.769531 29.136719 30.652344 29.019531 C 30.539062 28.90625 30.480469 28.765625 30.480469 28.601562 L 30.480469 26.046875 C 30.480469 25.679688 30.550781 25.328125 30.691406 24.988281 C 30.832031 24.652344 31.03125 24.351562 31.289062 24.09375 C 31.546875 23.832031 31.847656 23.632812 32.183594 23.492188 C 32.523438 23.355469 32.875 23.285156 33.242188 23.285156 C 33.609375 23.285156 33.960938 23.355469 34.300781 23.492188 C 34.636719 23.632812 34.9375 23.832031 35.195312 24.09375 C 35.453125 24.351562 35.652344 24.652344 35.792969 24.988281 C 35.933594 25.328125 36.003906 25.679688 36.003906 26.046875 L 36.003906 28.601562 C 36.003906 28.765625 35.945312 28.90625 35.832031 29.019531 C 35.714844 29.136719 35.578125 29.191406 35.414062 29.191406 Z M 35.414062 29.191406 " fill-opacity="1" fill-rule="nonzero"/><g clip-path="url(#86502adc53)"><path fill="#2f72f1" d="M 30.746094 41.144531 L 9.820312 41.144531 C 9.441406 41.140625 9.074219 41.070312 8.722656 40.925781 C 8.375 40.777344 8.0625 40.570312 7.796875 40.304688 C 7.527344 40.035156 7.320312 39.726562 7.175781 39.375 C 7.027344 39.023438 6.957031 38.660156 6.957031 38.277344 L 6.957031 10.734375 C 6.957031 10.351562 7.027344 9.988281 7.175781 9.636719 C 7.320312 9.285156 7.527344 8.976562 7.796875 8.707031 C 8.0625 8.441406 8.375 8.234375 8.722656 8.085938 C 9.074219 7.941406 9.441406 7.867188 9.820312 7.867188 L 30.746094 7.867188 C 31.128906 7.867188 31.492188 7.941406 31.84375 8.085938 C 32.195312 8.234375 32.503906 8.441406 32.773438 8.707031 C 33.039062 8.976562 33.246094 9.285156 33.394531 9.636719 C 33.539062 9.988281 33.613281 10.351562 33.613281 10.734375 L 33.613281 20.292969 C 33.613281 20.453125 33.554688 20.59375 33.4375 20.710938 C 33.324219 20.824219 33.183594 20.882812 33.023438 20.882812 C 32.859375 20.882812 32.71875 20.824219 32.605469 20.710938 C 32.488281 20.59375 32.433594 20.453125 32.433594 20.292969 L 32.433594 10.734375 C 32.433594 10.507812 32.390625 10.292969 32.304688 10.089844 C 32.21875 9.882812 32.097656 9.699219 31.9375 9.542969 C 31.78125 9.382812 31.597656 9.261719 31.390625 9.175781 C 31.1875 9.089844 30.972656 9.046875 30.746094 9.046875 L 9.820312 9.046875 C 9.597656 9.046875 9.382812 9.089844 9.175781 9.175781 C 8.96875 9.261719 8.785156 9.382812 8.628906 9.542969 C 8.472656 9.699219 8.347656 9.882812 8.261719 10.089844 C 8.179688 10.292969 8.136719 10.507812 8.136719 10.734375 L 8.136719 38.277344 C 8.136719 38.5 8.179688 38.714844 8.261719 38.921875 C 8.347656 39.128906 8.472656 39.3125 8.628906 39.46875 C 8.785156 39.628906 8.96875 39.75 9.175781 39.835938 C 9.382812 39.921875 9.597656 39.964844 9.820312 39.964844 L 30.746094 39.964844 C 31.121094 39.964844 31.460938 39.851562 31.757812 39.625 C 31.886719 39.539062 32.03125 39.511719 32.183594 39.539062 C 32.335938 39.5625 32.460938 39.640625 32.554688 39.765625 C 32.648438 39.890625 32.6875 40.027344 32.667969 40.183594 C 32.652344 40.339844 32.582031 40.464844 32.464844 40.566406 C 31.957031 40.953125 31.386719 41.144531 30.746094 41.144531 Z M 30.746094 41.144531 " fill-opacity="1" fill-rule="nonzero"/></g><path fill="#2f72f1" d="M 30.601562 13.140625 L 9.75 13.140625 C 9.589844 13.140625 9.449219 13.082031 9.332031 12.96875 C 9.21875 12.851562 9.160156 12.710938 9.160156 12.550781 C 9.160156 12.386719 9.21875 12.246094 9.332031 12.132812 C 9.449219 12.019531 9.589844 11.960938 9.75 11.960938 L 30.601562 11.960938 C 30.765625 11.960938 30.90625 12.019531 31.019531 12.132812 C 31.136719 12.246094 31.191406 12.386719 31.191406 12.550781 C 31.191406 12.710938 31.136719 12.851562 31.019531 12.96875 C 30.90625 13.082031 30.765625 13.140625 30.601562 13.140625 Z M 30.601562 13.140625 " fill-opacity="1" fill-rule="nonzero"/><path fill="#2f72f1" d="M 30.636719 17.125 L 9.785156 17.125 C 9.625 17.125 9.484375 17.066406 9.371094 16.953125 C 9.253906 16.835938 9.195312 16.699219 9.195312 16.535156 C 9.195312 16.371094 9.253906 16.234375 9.371094 16.117188 C 9.484375 16.003906 9.625 15.945312 9.785156 15.945312 L 30.636719 15.945312 C 30.800781 15.945312 30.941406 16.003906 31.054688 16.117188 C 31.171875 16.234375 31.226562 16.371094 31.226562 16.535156 C 31.226562 16.699219 31.171875 16.835938 31.054688 16.953125 C 30.941406 17.066406 30.800781 17.125 30.636719 17.125 Z M 30.636719 17.125 " fill-opacity="1" fill-rule="nonzero"/><path fill="#2f72f1" d="M 23.585938 21.113281 L 9.820312 21.113281 C 9.660156 21.113281 9.519531 21.054688 9.40625 20.941406 C 9.289062 20.824219 9.230469 20.6875 9.230469 20.523438 C 9.230469 20.363281 9.289062 20.222656 9.40625 20.105469 C 9.519531 19.992188 9.660156 19.933594 9.820312 19.933594 L 23.585938 19.933594 C 23.75 19.933594 23.890625 19.992188 24.003906 20.105469 C 24.121094 20.222656 24.175781 20.363281 24.175781 20.523438 C 24.175781 20.6875 24.121094 20.824219 24.003906 20.941406 C 23.890625 21.054688 23.75 21.113281 23.585938 21.113281 Z M 23.585938 21.113281 " fill-opacity="1" fill-rule="nonzero"/><path fill="#2f72f1" d="M 23.4375 25.09375 L 9.859375 25.09375 C 9.695312 25.09375 9.554688 25.039062 9.441406 24.921875 C 9.324219 24.808594 9.269531 24.667969 9.269531 24.503906 C 9.269531 24.34375 9.324219 24.203125 9.441406 24.089844 C 9.554688 23.972656 9.695312 23.914062 9.859375 23.914062 L 23.4375 23.914062 C 23.597656 23.914062 23.738281 23.972656 23.851562 24.089844 C 23.96875 24.203125 24.027344 24.34375 24.027344 24.503906 C 24.027344 24.667969 23.96875 24.808594 23.851562 24.921875 C 23.738281 25.039062 23.597656 25.09375 23.4375 25.09375 Z M 23.4375 25.09375 " fill-opacity="1" fill-rule="nonzero"/><path fill="#2f72f1" d="M 23.355469 29.082031 L 9.894531 29.082031 C 9.730469 29.082031 9.589844 29.023438 9.476562 28.90625 C 9.359375 28.792969 9.304688 28.652344 9.304688 28.492188 C 9.304688 28.328125 9.359375 28.1875 9.476562 28.074219 C 9.589844 27.957031 9.730469 27.902344 9.894531 27.902344 L 23.355469 27.902344 C 23.519531 27.902344 23.660156 27.957031 23.773438 28.074219 C 23.890625 28.1875 23.945312 28.328125 23.945312 28.492188 C 23.945312 28.652344 23.890625 28.792969 23.773438 28.90625 C 23.660156 29.023438 23.519531 29.082031 23.355469 29.082031 Z M 23.355469 29.082031 " fill-opacity="1" fill-rule="nonzero"/><path fill="#2f72f1" d="M 23.199219 33.066406 L 9.925781 33.066406 C 9.761719 33.066406 9.625 33.007812 9.507812 32.894531 C 9.394531 32.777344 9.335938 32.640625 9.335938 32.476562 C 9.335938 32.3125 9.394531 32.175781 9.507812 32.058594 C 9.625 31.945312 9.761719 31.886719 9.925781 31.886719 L 23.199219 31.886719 C 23.359375 31.886719 23.5 31.945312 23.613281 32.058594 C 23.730469 32.175781 23.789062 32.3125 23.789062 32.476562 C 23.789062 32.640625 23.730469 32.777344 23.613281 32.894531 C 23.5 33.007812 23.359375 33.066406 23.199219 33.066406 Z M 23.199219 33.066406 " fill-opacity="1" fill-rule="nonzero"/><path fill="#2f72f1" d="M 23.480469 37.050781 L 9.964844 37.050781 C 9.800781 37.050781 9.664062 36.992188 9.546875 36.878906 C 9.433594 36.761719 9.375 36.625 9.375 36.460938 C 9.375 36.296875 9.433594 36.160156 9.546875 36.042969 C 9.664062 35.929688 9.800781 35.871094 9.964844 35.871094 L 23.480469 35.871094 C 23.640625 35.871094 23.78125 35.929688 23.894531 36.042969 C 24.011719 36.160156 24.070312 36.296875 24.070312 36.460938 C 24.070312 36.625 24.011719 36.761719 23.894531 36.878906 C 23.78125 36.992188 23.640625 37.050781 23.480469 37.050781 Z M 23.480469 37.050781 " fill-opacity="1" fill-rule="nonzero"/></svg>