<svg xmlns="http://www.w3.org/2000/svg" xmlns:xlink="http://www.w3.org/1999/xlink" width="66" zoomAndPan="magnify" viewBox="0 0 49.5 49.499998" height="66" preserveAspectRatio="xMidYMid meet" version="1.0"><defs><clipPath id="5af7c028e0"><path d="M 0.46875 1.246094 L 48.527344 1.246094 L 48.527344 47.746094 L 0.46875 47.746094 Z M 0.46875 1.246094 " clip-rule="nonzero"/></clipPath><clipPath id="7adc965d62"><path d="M 40.542969 1.332031 C 44.910156 1.332031 48.441406 4.871094 48.441406 9.230469 L 48.441406 39.765625 C 48.441406 44.132812 44.902344 47.660156 40.542969 47.660156 L 8.449219 47.660156 C 4.085938 47.660156 0.554688 44.121094 0.554688 39.765625 L 0.554688 9.230469 C 0.554688 4.863281 4.09375 1.332031 8.449219 1.332031 Z M 40.542969 1.332031 " clip-rule="nonzero"/></clipPath><clipPath id="90ef99e373"><path d="M 0 0.773438 L 49 0.773438 L 49 48.222656 L 0 48.222656 Z M 0 0.773438 " clip-rule="nonzero"/></clipPath><clipPath id="6a1f3c818c"><path d="M 49 9.230469 L 49 39.765625 C 49 44.425781 45.203125 48.222656 40.542969 48.222656 L 8.449219 48.222656 C 3.789062 48.222656 -0.00390625 44.425781 -0.00390625 39.765625 L -0.00390625 9.230469 C -0.00390625 4.570312 3.789062 0.773438 8.449219 0.773438 L 40.535156 0.773438 C 45.203125 0.773438 49 4.570312 49 9.230469 Z M 1.113281 39.765625 C 1.113281 43.808594 4.40625 47.101562 8.449219 47.101562 L 40.535156 47.101562 C 44.578125 47.101562 47.871094 43.808594 47.871094 39.765625 L 47.871094 9.230469 C 47.871094 5.1875 44.578125 1.894531 40.535156 1.894531 L 8.449219 1.894531 C 4.40625 1.894531 1.113281 5.1875 1.113281 9.230469 Z M 1.113281 39.765625 " clip-rule="nonzero"/></clipPath><clipPath id="5e4d40436a"><path d="M 11 16 L 41.386719 16 L 41.386719 41.386719 L 11 41.386719 Z M 11 16 " clip-rule="nonzero"/></clipPath><clipPath id="c62b7fdcac"><path d="M 7.972656 7.972656 L 38 7.972656 L 38 33 L 7.972656 33 Z M 7.972656 7.972656 " clip-rule="nonzero"/></clipPath><clipPath id="6e4d5afd3f"><path d="M 14.128906 14.128906 L 35.472656 14.128906 L 35.472656 35.472656 L 14.128906 35.472656 Z M 14.128906 14.128906 " clip-rule="nonzero"/></clipPath><clipPath id="fc1a9f052b"><path d="M 24.800781 14.128906 C 18.90625 14.128906 14.128906 18.90625 14.128906 24.800781 C 14.128906 30.695312 18.90625 35.472656 24.800781 35.472656 C 30.695312 35.472656 35.472656 30.695312 35.472656 24.800781 C 35.472656 18.90625 30.695312 14.128906 24.800781 14.128906 Z M 24.800781 14.128906 " clip-rule="nonzero"/></clipPath><clipPath id="903e9f032e"><path d="M 17.269531 15.167969 L 31.375 15.167969 L 31.375 36.699219 L 17.269531 36.699219 Z M 17.269531 15.167969 " clip-rule="nonzero"/></clipPath></defs><g clip-path="url(#5af7c028e0)"><g clip-path="url(#7adc965d62)"><path fill="#ffffff" d="M -0.00390625 48.222656 L -0.00390625 0.773438 L 49 0.773438 L 49 48.222656 Z M -0.00390625 48.222656 " fill-opacity="1" fill-rule="nonzero"/></g></g><g clip-path="url(#90ef99e373)"><g clip-path="url(#6a1f3c818c)"><path fill="#edf4ff" d="M -0.00390625 48.222656 L -0.00390625 0.773438 L 49 0.773438 L 49 48.222656 Z M -0.00390625 48.222656 " fill-opacity="1" fill-rule="nonzero"/></g></g><g clip-path="url(#5e4d40436a)"><path fill="#2f72f1" d="M 40.554688 20.578125 C 40.25 19.335938 39.800781 18.128906 39.222656 16.992188 C 39.082031 16.722656 38.753906 16.613281 38.484375 16.75 C 38.214844 16.890625 38.109375 17.21875 38.246094 17.488281 C 39.363281 19.671875 39.925781 22.03125 39.925781 24.5 C 39.925781 33.007812 33.007812 39.929688 24.5 39.929688 C 20.148438 39.929688 16.070312 38.128906 13.148438 34.953125 L 15.882812 34.953125 C 16.1875 34.953125 16.433594 34.707031 16.433594 34.40625 C 16.433594 34.101562 16.1875 33.859375 15.882812 33.859375 L 11.28125 33.859375 L 11.28125 38.460938 C 11.28125 38.761719 11.527344 39.007812 11.832031 39.007812 C 12.132812 39.007812 12.378906 38.761719 12.378906 38.460938 L 12.378906 35.730469 C 12.929688 36.324219 13.523438 36.878906 14.15625 37.386719 C 15.105469 38.152344 16.136719 38.804688 17.226562 39.339844 C 18.335938 39.886719 19.503906 40.304688 20.707031 40.585938 C 21.941406 40.875 23.21875 41.023438 24.5 41.023438 C 26.730469 41.023438 28.890625 40.585938 30.929688 39.722656 C 32.898438 38.890625 34.664062 37.699219 36.183594 36.179688 C 37.703125 34.660156 38.894531 32.894531 39.726562 30.925781 C 40.585938 28.890625 41.027344 26.726562 41.027344 24.496094 C 41.023438 23.175781 40.867188 21.855469 40.554688 20.578125 Z M 40.554688 20.578125 " fill-opacity="1" fill-rule="nonzero"/></g><g clip-path="url(#c62b7fdcac)"><path fill="#2f72f1" d="M 9.070312 24.5 C 9.070312 15.992188 15.988281 9.070312 24.5 9.070312 C 28.691406 9.070312 32.675781 10.769531 35.578125 13.761719 L 32.71875 13.761719 C 32.414062 13.761719 32.167969 14.007812 32.167969 14.308594 C 32.167969 14.613281 32.414062 14.859375 32.71875 14.859375 L 37.320312 14.859375 L 37.320312 10.253906 C 37.320312 9.953125 37.074219 9.707031 36.773438 9.707031 C 36.46875 9.707031 36.222656 9.953125 36.222656 10.253906 L 36.222656 12.855469 C 33.128906 9.742188 28.921875 7.976562 24.5 7.976562 C 22.265625 7.976562 20.105469 8.414062 18.066406 9.277344 C 16.097656 10.109375 14.332031 11.296875 12.8125 12.816406 C 11.296875 14.335938 10.101562 16.101562 9.269531 18.070312 C 8.410156 20.105469 7.972656 22.269531 7.972656 24.5 C 7.972656 25.78125 8.121094 27.058594 8.410156 28.292969 C 8.695312 29.492188 9.113281 30.667969 9.65625 31.777344 C 9.75 31.96875 9.945312 32.082031 10.148438 32.082031 C 10.230469 32.082031 10.3125 32.066406 10.390625 32.027344 C 10.660156 31.890625 10.773438 31.5625 10.640625 31.292969 C 9.597656 29.167969 9.070312 26.882812 9.070312 24.5 Z M 9.070312 24.5 " fill-opacity="1" fill-rule="nonzero"/></g><path fill="#2f72f1" d="M 34.6875 26.328125 L 34.6875 23.113281 L 31.785156 22.457031 L 31.253906 21.171875 L 32.84375 18.652344 L 30.566406 16.378906 L 28.050781 17.96875 L 26.765625 17.433594 L 26.105469 14.527344 L 22.890625 14.527344 L 22.234375 17.433594 L 20.949219 17.964844 L 18.429688 16.375 L 16.15625 18.652344 L 17.742188 21.167969 L 17.210938 22.453125 L 14.308594 23.113281 L 14.308594 26.328125 L 17.210938 26.984375 L 17.742188 28.269531 L 16.15625 30.789062 L 18.429688 33.0625 L 20.945312 31.472656 L 22.230469 32.003906 L 22.886719 34.910156 L 26.105469 34.910156 L 26.761719 32.003906 L 28.046875 31.472656 L 30.5625 33.0625 L 32.835938 30.789062 L 31.25 28.269531 L 31.78125 26.984375 Z M 31.449219 30.632812 L 30.410156 31.671875 L 28.15625 30.246094 L 25.820312 31.214844 L 25.230469 33.816406 L 23.765625 33.816406 L 23.179688 31.214844 L 20.84375 30.246094 L 18.585938 31.671875 L 17.550781 30.632812 L 18.976562 28.378906 L 18.007812 26.042969 L 15.402344 25.453125 L 15.402344 23.984375 L 18.007812 23.398438 L 18.976562 21.0625 L 17.550781 18.808594 L 18.585938 17.769531 L 20.84375 19.195312 L 23.179688 18.226562 L 23.765625 15.625 L 25.230469 15.625 L 25.820312 18.230469 L 28.15625 19.199219 L 30.410156 17.773438 L 31.449219 18.808594 L 30.023438 21.066406 L 30.992188 23.402344 L 33.597656 23.988281 L 33.597656 25.453125 L 30.992188 26.042969 L 30.023438 28.378906 Z M 31.449219 30.632812 " fill-opacity="1" fill-rule="nonzero"/><path fill="#2f72f1" d="M 26.394531 24.375 C 26.140625 24.265625 25.667969 24.109375 24.96875 23.90625 C 24.890625 23.886719 24.839844 23.816406 24.839844 23.738281 L 24.839844 22.023438 C 24.839844 21.914062 24.945312 21.828125 25.054688 21.855469 C 25.441406 21.949219 25.726562 22.21875 25.90625 22.65625 C 25.9375 22.738281 26.019531 22.78125 26.105469 22.761719 L 26.957031 22.582031 C 27.0625 22.5625 27.125 22.453125 27.085938 22.351562 C 26.746094 21.464844 26.046875 20.929688 24.988281 20.757812 C 24.902344 20.746094 24.835938 20.671875 24.835938 20.585938 L 24.835938 20.0625 C 24.835938 19.964844 24.757812 19.886719 24.664062 19.886719 L 24.21875 19.886719 C 24.121094 19.886719 24.042969 19.964844 24.042969 20.0625 L 24.042969 20.582031 C 24.042969 20.671875 23.980469 20.742188 23.890625 20.753906 C 22.324219 20.984375 21.542969 21.742188 21.542969 23.023438 C 21.542969 23.53125 21.699219 23.96875 22.011719 24.335938 C 22.3125 24.6875 22.945312 24.980469 23.90625 25.214844 C 23.984375 25.234375 24.039062 25.304688 24.039062 25.382812 L 24.039062 27.371094 C 24.039062 27.480469 23.941406 27.5625 23.835938 27.542969 C 23.203125 27.429688 22.777344 27.046875 22.550781 26.386719 C 22.523438 26.300781 22.433594 26.253906 22.347656 26.273438 L 21.429688 26.484375 C 21.328125 26.507812 21.265625 26.617188 21.304688 26.714844 C 21.726562 27.839844 22.585938 28.480469 23.882812 28.628906 C 23.972656 28.640625 24.039062 28.714844 24.039062 28.804688 L 24.039062 29.558594 C 24.039062 29.65625 24.117188 29.734375 24.214844 29.734375 L 24.65625 29.734375 C 24.753906 29.734375 24.832031 29.65625 24.832031 29.558594 L 24.832031 28.804688 C 24.832031 28.714844 24.902344 28.640625 24.988281 28.628906 C 25.757812 28.539062 26.34375 28.292969 26.761719 27.886719 C 27.203125 27.457031 27.425781 26.914062 27.425781 26.265625 C 27.425781 25.808594 27.320312 25.40625 27.105469 25.066406 C 26.898438 24.726562 26.660156 24.496094 26.394531 24.375 Z M 24.046875 23.589844 C 24.046875 23.699219 23.949219 23.78125 23.839844 23.761719 C 23.179688 23.625 22.851562 23.3125 22.851562 22.8125 C 22.851562 22.488281 22.964844 22.242188 23.195312 22.074219 C 23.378906 21.941406 23.597656 21.859375 23.859375 21.832031 C 23.960938 21.820312 24.050781 21.902344 24.050781 22.003906 L 24.050781 23.589844 Z M 25.769531 27.246094 C 25.566406 27.421875 25.320312 27.523438 25.039062 27.558594 C 24.933594 27.570312 24.84375 27.492188 24.84375 27.386719 L 24.84375 25.535156 C 24.84375 25.421875 24.949219 25.339844 25.058594 25.367188 C 25.78125 25.546875 26.140625 25.898438 26.140625 26.417969 C 26.140625 26.757812 26.015625 27.035156 25.769531 27.246094 Z M 25.769531 27.246094 " fill-opacity="1" fill-rule="nonzero"/><g clip-path="url(#6e4d5afd3f)"><g clip-path="url(#fc1a9f052b)"><path fill="#ffffff" d="M 14.128906 14.128906 L 35.472656 14.128906 L 35.472656 35.472656 L 14.128906 35.472656 Z M 14.128906 14.128906 " fill-opacity="1" fill-rule="nonzero"/></g></g><g clip-path="url(#903e9f032e)"><path fill="#2f72f1" d="M 26.496094 19.996094 C 25.820312 18.574219 24.375 17.585938 22.691406 17.585938 L 17.269531 17.585938 L 17.269531 15.179688 L 31.722656 15.179688 L 31.722656 17.585938 L 27.796875 17.585938 C 28.375 18.285156 28.808594 19.105469 29.0625 19.996094 L 31.722656 19.996094 L 31.722656 22.40625 L 29.292969 22.40625 C 28.988281 25.78125 26.148438 28.429688 22.691406 28.429688 L 21.808594 28.429688 L 29.917969 36.863281 L 26.582031 36.863281 L 18.472656 28.429688 L 18.472656 26.019531 L 22.691406 26.019531 C 24.808594 26.019531 26.570312 24.453125 26.859375 22.40625 L 17.269531 22.40625 L 17.269531 19.996094 Z M 26.496094 19.996094 " fill-opacity="1" fill-rule="nonzero"/></g></svg>