<svg xmlns="http://www.w3.org/2000/svg" xmlns:xlink="http://www.w3.org/1999/xlink" width="66" zoomAndPan="magnify" viewBox="0 0 49.5 49.499998" height="66" preserveAspectRatio="xMidYMid meet" version="1.0"><defs><clipPath id="6b6a0d5d55"><path d="M 0.46875 1.246094 L 48.527344 1.246094 L 48.527344 47.746094 L 0.46875 47.746094 Z M 0.46875 1.246094 " clip-rule="nonzero"/></clipPath><clipPath id="df669e301b"><path d="M 40.542969 1.332031 C 44.910156 1.332031 48.441406 4.871094 48.441406 9.230469 L 48.441406 39.765625 C 48.441406 44.132812 44.902344 47.660156 40.542969 47.660156 L 8.449219 47.660156 C 4.085938 47.660156 0.554688 44.121094 0.554688 39.765625 L 0.554688 9.230469 C 0.554688 4.863281 4.09375 1.332031 8.449219 1.332031 Z M 40.542969 1.332031 " clip-rule="nonzero"/></clipPath><clipPath id="17fc321c32"><path d="M 0 0.773438 L 49 0.773438 L 49 48.222656 L 0 48.222656 Z M 0 0.773438 " clip-rule="nonzero"/></clipPath><clipPath id="9b98062ab4"><path d="M 49 9.230469 L 49 39.765625 C 49 44.425781 45.203125 48.222656 40.542969 48.222656 L 8.449219 48.222656 C 3.789062 48.222656 -0.00390625 44.425781 -0.00390625 39.765625 L -0.00390625 9.230469 C -0.00390625 4.570312 3.789062 0.773438 8.449219 0.773438 L 40.535156 0.773438 C 45.203125 0.773438 49 4.570312 49 9.230469 Z M 1.113281 39.765625 C 1.113281 43.808594 4.40625 47.101562 8.449219 47.101562 L 40.535156 47.101562 C 44.578125 47.101562 47.871094 43.808594 47.871094 39.765625 L 47.871094 9.230469 C 47.871094 5.1875 44.578125 1.894531 40.535156 1.894531 L 8.449219 1.894531 C 4.40625 1.894531 1.113281 5.1875 1.113281 9.230469 Z M 1.113281 39.765625 " clip-rule="nonzero"/></clipPath><clipPath id="fb1e8d2013"><path d="M 10 20 L 38 20 L 38 42.773438 L 10 42.773438 Z M 10 20 " clip-rule="nonzero"/></clipPath><clipPath id="a5fbd37e8c"><path d="M 6.390625 11 L 24 11 L 24 25 L 6.390625 25 Z M 6.390625 11 " clip-rule="nonzero"/></clipPath><clipPath id="bd2277f933"><path d="M 25 6.390625 L 42.773438 6.390625 L 42.773438 20 L 25 20 Z M 25 6.390625 " clip-rule="nonzero"/></clipPath><clipPath id="b35115f1df"><path d="M 18 6.390625 L 20 6.390625 L 20 8 L 18 8 Z M 18 6.390625 " clip-rule="nonzero"/></clipPath></defs><g clip-path="url(#6b6a0d5d55)"><g clip-path="url(#df669e301b)"><path fill="#ffffff" d="M -0.00390625 48.222656 L -0.00390625 0.773438 L 49 0.773438 L 49 48.222656 Z M -0.00390625 48.222656 " fill-opacity="1" fill-rule="nonzero"/></g></g><g clip-path="url(#17fc321c32)"><g clip-path="url(#9b98062ab4)"><path fill="#edf4ff" d="M -0.00390625 48.222656 L -0.00390625 0.773438 L 49 0.773438 L 49 48.222656 Z M -0.00390625 48.222656 " fill-opacity="1" fill-rule="nonzero"/></g></g><g clip-path="url(#fb1e8d2013)"><path fill="#2f72f1" d="M 34.761719 25.105469 C 34.761719 24.894531 34.75 24.6875 34.722656 24.480469 C 34.695312 24.273438 34.65625 24.066406 34.601562 23.863281 C 34.550781 23.664062 34.484375 23.464844 34.40625 23.273438 C 34.324219 23.078125 34.234375 22.890625 34.128906 22.707031 C 34.027344 22.527344 33.914062 22.351562 33.785156 22.1875 C 33.660156 22.019531 33.523438 21.863281 33.378906 21.710938 C 33.230469 21.5625 33.074219 21.425781 32.910156 21.296875 C 32.746094 21.167969 32.574219 21.046875 32.394531 20.941406 C 32.214844 20.835938 32.027344 20.742188 31.835938 20.660156 C 31.644531 20.578125 31.449219 20.507812 31.246094 20.449219 C 31.046875 20.394531 30.84375 20.347656 30.636719 20.320312 C 30.429688 20.289062 30.21875 20.273438 30.011719 20.269531 C 29.800781 20.265625 29.59375 20.273438 29.386719 20.296875 C 29.179688 20.324219 28.972656 20.359375 28.769531 20.410156 C 28.566406 20.460938 28.367188 20.523438 28.175781 20.597656 C 27.980469 20.675781 27.789062 20.765625 27.605469 20.863281 C 27.425781 20.964844 27.25 21.078125 27.078125 21.199219 C 26.910156 21.324219 26.75 21.457031 26.601562 21.601562 C 26.449219 21.746094 26.308594 21.898438 26.175781 22.0625 C 26.042969 22.226562 25.925781 22.394531 25.816406 22.574219 C 25.707031 22.753906 25.609375 22.9375 25.523438 23.128906 C 25.4375 23.320312 25.367188 23.515625 25.304688 23.714844 C 25.246094 23.914062 25.199219 24.117188 25.167969 24.324219 C 25.132812 24.53125 25.113281 24.738281 25.105469 24.949219 C 25.101562 25.15625 25.105469 25.363281 25.128906 25.574219 C 25.148438 25.78125 25.183594 25.988281 25.230469 26.191406 C 25.277344 26.394531 25.335938 26.59375 25.410156 26.789062 C 25.484375 26.984375 25.570312 27.175781 25.667969 27.359375 C 25.765625 27.542969 25.875 27.722656 25.996094 27.894531 C 26.117188 28.0625 26.25 28.226562 26.390625 28.378906 C 26.53125 28.53125 26.683594 28.675781 26.84375 28.808594 C 27.003906 28.941406 27.171875 29.066406 27.351562 29.175781 C 26.152344 29.601562 25.121094 30.277344 24.246094 31.199219 C 23.375 32.125 22.761719 33.195312 22.40625 34.414062 C 21.800781 33.984375 21.148438 33.644531 20.449219 33.398438 C 20.742188 33.214844 21.011719 33 21.257812 32.753906 C 21.503906 32.511719 21.722656 32.242188 21.910156 31.953125 C 22.101562 31.660156 22.253906 31.351562 22.378906 31.027344 C 22.5 30.703125 22.585938 30.371094 22.636719 30.027344 C 22.6875 29.683594 22.703125 29.339844 22.679688 28.992188 C 22.652344 28.648438 22.59375 28.308594 22.496094 27.976562 C 22.398438 27.640625 22.269531 27.324219 22.105469 27.019531 C 21.9375 26.714844 21.742188 26.429688 21.515625 26.167969 C 21.289062 25.902344 21.035156 25.667969 20.757812 25.460938 C 20.480469 25.253906 20.183594 25.074219 19.871094 24.933594 C 19.554688 24.789062 19.226562 24.679688 18.886719 24.605469 C 18.550781 24.53125 18.207031 24.492188 17.859375 24.492188 C 17.511719 24.492188 17.171875 24.53125 16.832031 24.605469 C 16.492188 24.679688 16.164062 24.789062 15.851562 24.933594 C 15.535156 25.074219 15.238281 25.253906 14.960938 25.460938 C 14.683594 25.667969 14.429688 25.902344 14.203125 26.167969 C 13.976562 26.429688 13.78125 26.714844 13.617188 27.019531 C 13.449219 27.324219 13.320312 27.640625 13.222656 27.976562 C 13.125 28.308594 13.066406 28.648438 13.042969 28.992188 C 13.019531 29.339844 13.03125 29.683594 13.082031 30.027344 C 13.132812 30.371094 13.21875 30.703125 13.34375 31.027344 C 13.464844 31.351562 13.621094 31.660156 13.808594 31.953125 C 13.996094 32.242188 14.214844 32.511719 14.460938 32.753906 C 14.707031 33 14.976562 33.214844 15.269531 33.398438 C 14.503906 33.667969 13.792969 34.046875 13.144531 34.535156 C 12.496094 35.023438 11.933594 35.601562 11.464844 36.261719 C 10.992188 36.925781 10.632812 37.644531 10.386719 38.417969 C 10.136719 39.191406 10.011719 39.984375 10.011719 40.800781 L 10.011719 42.007812 C 10.011719 42.171875 10.070312 42.316406 10.1875 42.433594 C 10.308594 42.550781 10.449219 42.609375 10.617188 42.609375 L 25.105469 42.609375 C 25.269531 42.609375 25.414062 42.550781 25.53125 42.433594 C 25.648438 42.316406 25.707031 42.171875 25.707031 42.007812 L 25.707031 40.800781 C 25.707031 39.972656 25.578125 39.167969 25.324219 38.382812 L 37.175781 38.382812 C 37.34375 38.382812 37.484375 38.324219 37.605469 38.207031 C 37.722656 38.089844 37.78125 37.949219 37.78125 37.78125 L 37.78125 36.574219 C 37.78125 35.761719 37.65625 34.96875 37.40625 34.191406 C 37.160156 33.417969 36.800781 32.699219 36.328125 32.035156 C 35.859375 31.375 35.296875 30.796875 34.648438 30.308594 C 34 29.820312 33.289062 29.441406 32.523438 29.171875 C 33.21875 28.730469 33.765625 28.148438 34.164062 27.425781 C 34.5625 26.703125 34.761719 25.929688 34.761719 25.105469 Z M 14.238281 29.328125 C 14.238281 28.847656 14.328125 28.386719 14.511719 27.945312 C 14.699219 27.5 14.960938 27.109375 15.296875 26.769531 C 15.636719 26.429688 16.03125 26.167969 16.472656 25.984375 C 16.917969 25.800781 17.378906 25.707031 17.859375 25.707031 C 18.339844 25.707031 18.800781 25.800781 19.246094 25.984375 C 19.691406 26.167969 20.082031 26.429688 20.421875 26.769531 C 20.761719 27.109375 21.023438 27.5 21.207031 27.945312 C 21.390625 28.386719 21.480469 28.847656 21.480469 29.328125 C 21.480469 29.808594 21.390625 30.273438 21.207031 30.714844 C 21.023438 31.160156 20.761719 31.550781 20.421875 31.890625 C 20.082031 32.230469 19.691406 32.492188 19.246094 32.675781 C 18.800781 32.859375 18.339844 32.953125 17.859375 32.953125 C 17.378906 32.949219 16.917969 32.859375 16.472656 32.675781 C 16.03125 32.492188 15.640625 32.230469 15.300781 31.890625 C 14.960938 31.550781 14.699219 31.160156 14.515625 30.714844 C 14.332031 30.273438 14.238281 29.808594 14.238281 29.328125 Z M 24.5 41.402344 L 11.21875 41.402344 L 11.21875 40.800781 C 11.21875 40.363281 11.261719 39.929688 11.347656 39.503906 C 11.433594 39.074219 11.558594 38.660156 11.726562 38.257812 C 11.890625 37.855469 12.097656 37.472656 12.339844 37.109375 C 12.582031 36.746094 12.855469 36.410156 13.164062 36.105469 C 13.472656 35.796875 13.808594 35.519531 14.171875 35.277344 C 14.535156 35.035156 14.914062 34.832031 15.320312 34.664062 C 15.722656 34.496094 16.136719 34.371094 16.5625 34.285156 C 16.992188 34.203125 17.425781 34.160156 17.859375 34.160156 C 18.296875 34.160156 18.726562 34.203125 19.15625 34.285156 C 19.582031 34.371094 20 34.496094 20.402344 34.664062 C 20.804688 34.832031 21.1875 35.035156 21.550781 35.277344 C 21.910156 35.519531 22.246094 35.796875 22.554688 36.105469 C 22.863281 36.410156 23.140625 36.746094 23.382812 37.109375 C 23.625 37.472656 23.828125 37.855469 23.996094 38.257812 C 24.160156 38.660156 24.289062 39.074219 24.371094 39.503906 C 24.457031 39.929688 24.5 40.363281 24.5 40.800781 Z M 36.574219 36.574219 L 36.574219 37.175781 L 24.816406 37.175781 C 24.449219 36.476562 23.988281 35.84375 23.433594 35.285156 C 23.511719 34.882812 23.628906 34.492188 23.78125 34.113281 C 23.929688 33.734375 24.117188 33.371094 24.332031 33.023438 C 24.550781 32.679688 24.800781 32.355469 25.078125 32.058594 C 25.355469 31.757812 25.65625 31.484375 25.984375 31.242188 C 26.3125 31 26.660156 30.785156 27.027344 30.609375 C 27.394531 30.429688 27.773438 30.285156 28.167969 30.175781 C 28.5625 30.066406 28.960938 29.992188 29.371094 29.957031 C 29.777344 29.921875 30.183594 29.925781 30.589844 29.964844 C 30.996094 30.003906 31.394531 30.082031 31.789062 30.195312 C 32.179688 30.308594 32.558594 30.457031 32.925781 30.640625 C 33.289062 30.824219 33.632812 31.039062 33.957031 31.289062 C 34.285156 31.535156 34.582031 31.8125 34.859375 32.113281 C 35.132812 32.417969 35.375 32.742188 35.589844 33.089844 C 35.804688 33.4375 35.984375 33.800781 36.132812 34.183594 C 36.277344 34.566406 36.386719 34.957031 36.460938 35.359375 C 36.539062 35.761719 36.574219 36.164062 36.574219 36.574219 Z M 29.933594 28.726562 C 29.453125 28.726562 28.992188 28.632812 28.546875 28.449219 C 28.101562 28.265625 27.710938 28.003906 27.371094 27.664062 C 27.03125 27.324219 26.769531 26.933594 26.585938 26.488281 C 26.402344 26.046875 26.3125 25.585938 26.3125 25.105469 C 26.3125 24.625 26.402344 24.160156 26.585938 23.71875 C 26.769531 23.273438 27.03125 22.882812 27.371094 22.542969 C 27.710938 22.203125 28.101562 21.941406 28.546875 21.757812 C 28.992188 21.574219 29.453125 21.480469 29.933594 21.480469 C 30.414062 21.480469 30.875 21.574219 31.320312 21.757812 C 31.761719 21.941406 32.15625 22.203125 32.496094 22.542969 C 32.835938 22.882812 33.097656 23.273438 33.28125 23.71875 C 33.464844 24.160156 33.554688 24.625 33.554688 25.105469 C 33.554688 25.585938 33.460938 26.046875 33.277344 26.488281 C 33.09375 26.933594 32.832031 27.324219 32.492188 27.664062 C 32.152344 28.003906 31.761719 28.265625 31.320312 28.449219 C 30.875 28.632812 30.414062 28.726562 29.933594 28.726562 Z M 29.933594 28.726562 " fill-opacity="1" fill-rule="nonzero"/></g><g clip-path="url(#a5fbd37e8c)"><path fill="#2f72f1" d="M 8.199219 21.480469 L 9.191406 21.480469 L 12.644531 24.359375 C 12.839844 24.523438 13.054688 24.550781 13.285156 24.441406 C 13.519531 24.335938 13.632812 24.152344 13.632812 23.898438 L 13.632812 21.480469 L 21.480469 21.480469 C 21.722656 21.480469 21.953125 21.4375 22.175781 21.34375 C 22.398438 21.253906 22.59375 21.121094 22.761719 20.953125 C 22.933594 20.78125 23.0625 20.585938 23.15625 20.363281 C 23.246094 20.140625 23.292969 19.910156 23.292969 19.671875 L 23.292969 13.632812 C 23.292969 13.394531 23.246094 13.164062 23.15625 12.941406 C 23.0625 12.71875 22.933594 12.523438 22.761719 12.355469 C 22.59375 12.183594 22.398438 12.054688 22.175781 11.960938 C 21.953125 11.867188 21.722656 11.824219 21.480469 11.824219 L 18.464844 11.824219 L 18.464844 13.03125 L 21.480469 13.03125 C 21.648438 13.03125 21.789062 13.089844 21.910156 13.207031 C 22.027344 13.324219 22.085938 13.46875 22.085938 13.632812 L 22.085938 19.671875 C 22.085938 19.835938 22.027344 19.980469 21.910156 20.097656 C 21.789062 20.214844 21.648438 20.273438 21.480469 20.273438 L 13.03125 20.273438 C 12.863281 20.273438 12.722656 20.332031 12.605469 20.453125 C 12.484375 20.570312 12.425781 20.710938 12.425781 20.878906 L 12.425781 22.609375 L 9.792969 20.414062 C 9.683594 20.320312 9.554688 20.273438 9.410156 20.273438 L 8.199219 20.273438 C 8.035156 20.273438 7.890625 20.214844 7.773438 20.097656 C 7.65625 19.980469 7.597656 19.835938 7.597656 19.671875 L 7.597656 13.632812 C 7.597656 13.46875 7.65625 13.324219 7.773438 13.207031 C 7.890625 13.089844 8.035156 13.03125 8.199219 13.03125 L 8.199219 11.824219 C 7.960938 11.824219 7.730469 11.867188 7.507812 11.960938 C 7.285156 12.054688 7.089844 12.183594 6.921875 12.355469 C 6.75 12.523438 6.621094 12.71875 6.527344 12.941406 C 6.4375 13.164062 6.390625 13.394531 6.390625 13.632812 L 6.390625 19.671875 C 6.390625 19.910156 6.4375 20.140625 6.527344 20.363281 C 6.621094 20.585938 6.75 20.78125 6.921875 20.953125 C 7.089844 21.121094 7.285156 21.253906 7.507812 21.34375 C 7.730469 21.4375 7.960938 21.480469 8.199219 21.480469 Z M 8.199219 21.480469 " fill-opacity="1" fill-rule="nonzero"/></g><g clip-path="url(#bd2277f933)"><path fill="#2f72f1" d="M 40.800781 6.390625 L 27.519531 6.390625 C 27.277344 6.390625 27.046875 6.4375 26.824219 6.527344 C 26.605469 6.621094 26.40625 6.75 26.238281 6.921875 C 26.066406 7.089844 25.9375 7.285156 25.84375 7.507812 C 25.753906 7.730469 25.707031 7.960938 25.707031 8.199219 L 25.707031 14.238281 C 25.707031 14.476562 25.753906 14.710938 25.84375 14.929688 C 25.9375 15.152344 26.066406 15.347656 26.238281 15.519531 C 26.40625 15.6875 26.605469 15.820312 26.824219 15.910156 C 27.046875 16.003906 27.277344 16.050781 27.519531 16.050781 L 35.367188 16.050781 L 35.367188 18.464844 C 35.367188 18.71875 35.480469 18.902344 35.714844 19.011719 C 35.945312 19.117188 36.160156 19.089844 36.355469 18.925781 L 39.808594 16.050781 L 40.800781 16.050781 C 41.039062 16.050781 41.269531 16.003906 41.492188 15.910156 C 41.714844 15.820312 41.910156 15.6875 42.078125 15.519531 C 42.25 15.347656 42.378906 15.152344 42.472656 14.929688 C 42.5625 14.710938 42.609375 14.476562 42.609375 14.238281 L 42.609375 8.199219 C 42.609375 7.960938 42.5625 7.730469 42.472656 7.507812 C 42.378906 7.285156 42.25 7.089844 42.078125 6.921875 C 41.910156 6.75 41.714844 6.621094 41.492188 6.527344 C 41.269531 6.4375 41.039062 6.390625 40.800781 6.390625 Z M 41.402344 14.238281 C 41.402344 14.40625 41.34375 14.546875 41.226562 14.664062 C 41.109375 14.78125 40.964844 14.839844 40.800781 14.839844 L 39.59375 14.839844 C 39.445312 14.839844 39.316406 14.886719 39.207031 14.980469 L 36.574219 17.175781 L 36.574219 15.445312 C 36.574219 15.277344 36.515625 15.136719 36.398438 15.019531 C 36.277344 14.902344 36.136719 14.839844 35.96875 14.839844 L 27.519531 14.839844 C 27.351562 14.839844 27.210938 14.78125 27.089844 14.664062 C 26.972656 14.546875 26.914062 14.40625 26.914062 14.238281 L 26.914062 8.199219 C 26.914062 8.035156 26.972656 7.890625 27.089844 7.773438 C 27.210938 7.65625 27.351562 7.597656 27.519531 7.597656 L 40.800781 7.597656 C 40.964844 7.597656 41.109375 7.65625 41.226562 7.773438 C 41.34375 7.890625 41.402344 8.035156 41.402344 8.199219 Z M 41.402344 14.238281 " fill-opacity="1" fill-rule="nonzero"/></g><path fill="#2f72f1" d="M 29.328125 9.410156 C 29.089844 9.410156 28.859375 9.453125 28.636719 9.546875 C 28.414062 9.636719 28.21875 9.769531 28.050781 9.9375 C 27.878906 10.109375 27.75 10.304688 27.65625 10.527344 C 27.566406 10.75 27.519531 10.980469 27.519531 11.21875 C 27.519531 11.460938 27.566406 11.691406 27.65625 11.914062 C 27.75 12.132812 27.878906 12.332031 28.050781 12.5 C 28.21875 12.667969 28.414062 12.800781 28.636719 12.894531 C 28.859375 12.984375 29.089844 13.03125 29.328125 13.03125 C 29.570312 13.03125 29.800781 12.984375 30.023438 12.894531 C 30.246094 12.800781 30.441406 12.667969 30.609375 12.5 C 30.78125 12.332031 30.910156 12.132812 31.003906 11.914062 C 31.09375 11.691406 31.140625 11.460938 31.140625 11.21875 C 31.140625 10.980469 31.09375 10.75 31.003906 10.527344 C 30.910156 10.304688 30.78125 10.109375 30.609375 9.9375 C 30.441406 9.769531 30.246094 9.636719 30.023438 9.546875 C 29.800781 9.453125 29.570312 9.410156 29.328125 9.410156 Z M 29.328125 11.824219 C 29.164062 11.824219 29.019531 11.765625 28.902344 11.644531 C 28.785156 11.527344 28.726562 11.386719 28.726562 11.21875 C 28.726562 11.054688 28.785156 10.910156 28.902344 10.792969 C 29.019531 10.675781 29.164062 10.617188 29.328125 10.617188 C 29.496094 10.617188 29.636719 10.675781 29.757812 10.792969 C 29.875 10.910156 29.933594 11.054688 29.933594 11.21875 C 29.933594 11.386719 29.875 11.527344 29.757812 11.644531 C 29.636719 11.765625 29.496094 11.824219 29.328125 11.824219 Z M 29.328125 11.824219 " fill-opacity="1" fill-rule="nonzero"/><path fill="#2f72f1" d="M 34.160156 9.410156 C 33.917969 9.410156 33.6875 9.453125 33.464844 9.546875 C 33.242188 9.636719 33.046875 9.769531 32.878906 9.9375 C 32.707031 10.109375 32.578125 10.304688 32.484375 10.527344 C 32.394531 10.75 32.347656 10.980469 32.347656 11.21875 C 32.347656 11.460938 32.394531 11.691406 32.484375 11.914062 C 32.578125 12.132812 32.707031 12.332031 32.878906 12.5 C 33.046875 12.667969 33.242188 12.800781 33.464844 12.894531 C 33.6875 12.984375 33.917969 13.03125 34.160156 13.03125 C 34.398438 13.03125 34.628906 12.984375 34.851562 12.894531 C 35.074219 12.800781 35.269531 12.667969 35.441406 12.5 C 35.609375 12.332031 35.738281 12.132812 35.832031 11.914062 C 35.925781 11.691406 35.96875 11.460938 35.96875 11.21875 C 35.96875 10.980469 35.925781 10.75 35.832031 10.527344 C 35.738281 10.304688 35.609375 10.109375 35.441406 9.9375 C 35.269531 9.769531 35.074219 9.636719 34.851562 9.546875 C 34.628906 9.453125 34.398438 9.410156 34.160156 9.410156 Z M 34.160156 11.824219 C 33.992188 11.824219 33.851562 11.765625 33.730469 11.644531 C 33.613281 11.527344 33.554688 11.386719 33.554688 11.21875 C 33.554688 11.054688 33.613281 10.910156 33.730469 10.792969 C 33.851562 10.675781 33.992188 10.617188 34.160156 10.617188 C 34.324219 10.617188 34.46875 10.675781 34.585938 10.792969 C 34.703125 10.910156 34.761719 11.054688 34.761719 11.21875 C 34.761719 11.386719 34.703125 11.527344 34.585938 11.644531 C 34.46875 11.765625 34.324219 11.824219 34.160156 11.824219 Z M 34.160156 11.824219 " fill-opacity="1" fill-rule="nonzero"/><path fill="#2f72f1" d="M 38.988281 9.410156 C 38.75 9.410156 38.515625 9.453125 38.296875 9.546875 C 38.074219 9.636719 37.878906 9.769531 37.707031 9.9375 C 37.539062 10.109375 37.40625 10.304688 37.316406 10.527344 C 37.222656 10.75 37.175781 10.980469 37.175781 11.21875 C 37.175781 11.460938 37.222656 11.691406 37.316406 11.914062 C 37.40625 12.132812 37.539062 12.332031 37.707031 12.5 C 37.878906 12.667969 38.074219 12.800781 38.296875 12.894531 C 38.515625 12.984375 38.75 13.03125 38.988281 13.03125 C 39.226562 13.03125 39.460938 12.984375 39.679688 12.894531 C 39.902344 12.800781 40.097656 12.667969 40.269531 12.5 C 40.4375 12.332031 40.570312 12.132812 40.660156 11.914062 C 40.753906 11.691406 40.800781 11.460938 40.800781 11.21875 C 40.800781 10.980469 40.753906 10.75 40.660156 10.527344 C 40.570312 10.304688 40.4375 10.109375 40.269531 9.9375 C 40.097656 9.769531 39.902344 9.636719 39.679688 9.546875 C 39.460938 9.453125 39.226562 9.410156 38.988281 9.410156 Z M 38.988281 11.824219 C 38.820312 11.824219 38.679688 11.765625 38.5625 11.644531 C 38.445312 11.527344 38.382812 11.386719 38.382812 11.21875 C 38.382812 11.054688 38.445312 10.910156 38.5625 10.792969 C 38.679688 10.675781 38.820312 10.617188 38.988281 10.617188 C 39.15625 10.617188 39.296875 10.675781 39.414062 10.792969 C 39.53125 10.910156 39.59375 11.054688 39.59375 11.21875 C 39.59375 11.386719 39.53125 11.527344 39.414062 11.644531 C 39.296875 11.765625 39.15625 11.824219 38.988281 11.824219 Z M 38.988281 11.824219 " fill-opacity="1" fill-rule="nonzero"/><path fill="#2f72f1" d="M 8.207031 14.660156 C 8.234375 14.902344 8.332031 15.117188 8.5 15.292969 C 8.667969 15.472656 8.871094 15.582031 9.113281 15.621094 L 10.644531 15.886719 L 10.875 18.082031 C 10.898438 18.316406 10.988281 18.523438 11.144531 18.699219 C 11.296875 18.875 11.492188 18.988281 11.71875 19.039062 C 11.804688 19.058594 11.886719 19.066406 11.972656 19.066406 C 12.378906 19.066406 12.6875 18.894531 12.898438 18.546875 L 14.152344 16.515625 L 16.472656 17.066406 C 16.703125 17.121094 16.925781 17.105469 17.140625 17.015625 C 17.359375 16.925781 17.53125 16.785156 17.65625 16.585938 C 17.78125 16.386719 17.835938 16.167969 17.824219 15.933594 C 17.808594 15.699219 17.730469 15.492188 17.582031 15.308594 L 16.191406 13.589844 L 17.089844 12.320312 C 17.230469 12.121094 17.296875 11.898438 17.292969 11.65625 C 17.285156 11.410156 17.203125 11.195312 17.050781 11.003906 C 16.898438 10.8125 16.703125 10.6875 16.46875 10.625 C 16.230469 10.5625 16 10.578125 15.773438 10.671875 L 14.0625 11.378906 L 12.398438 9.574219 C 12.242188 9.40625 12.054688 9.296875 11.828125 9.246094 C 11.605469 9.199219 11.386719 9.21875 11.171875 9.304688 C 10.960938 9.394531 10.792969 9.535156 10.667969 9.726562 C 10.542969 9.921875 10.484375 10.132812 10.496094 10.363281 L 10.589844 12.8125 L 8.878906 13.523438 C 8.652344 13.613281 8.476562 13.765625 8.351562 13.976562 C 8.226562 14.1875 8.179688 14.417969 8.207031 14.660156 Z M 11.125 13.902344 C 11.335938 13.816406 11.503906 13.675781 11.628906 13.480469 C 11.75 13.289062 11.808594 13.074219 11.800781 12.847656 L 11.714844 10.613281 L 13.226562 12.253906 C 13.382812 12.421875 13.574219 12.53125 13.796875 12.582031 C 14.023438 12.628906 14.242188 12.613281 14.453125 12.523438 L 15.886719 11.933594 L 15.164062 12.957031 C 15.023438 13.160156 14.957031 13.382812 14.964844 13.628906 C 14.972656 13.871094 15.050781 14.089844 15.207031 14.28125 L 16.445312 15.816406 L 14.359375 15.324219 C 14.128906 15.269531 13.902344 15.289062 13.683594 15.378906 C 13.464844 15.46875 13.296875 15.613281 13.171875 15.816406 L 12.042969 17.640625 L 11.835938 15.675781 C 11.8125 15.433594 11.714844 15.222656 11.546875 15.042969 C 11.378906 14.863281 11.171875 14.753906 10.933594 14.710938 L 9.691406 14.496094 Z M 11.125 13.902344 " fill-opacity="1" fill-rule="nonzero"/><g clip-path="url(#b35115f1df)"><path fill="#2f72f1" d="M 18.464844 6.390625 L 19.671875 6.390625 L 19.671875 7.597656 L 18.464844 7.597656 Z M 18.464844 6.390625 " fill-opacity="1" fill-rule="nonzero"/></g><path fill="#2f72f1" d="M 17.257812 7.597656 L 18.464844 7.597656 L 18.464844 8.804688 L 17.257812 8.804688 Z M 17.257812 7.597656 " fill-opacity="1" fill-rule="nonzero"/><path fill="#2f72f1" d="M 19.671875 7.597656 L 20.878906 7.597656 L 20.878906 8.804688 L 19.671875 8.804688 Z M 19.671875 7.597656 " fill-opacity="1" fill-rule="nonzero"/><path fill="#2f72f1" d="M 18.464844 8.804688 L 19.671875 8.804688 L 19.671875 10.011719 L 18.464844 10.011719 Z M 18.464844 8.804688 " fill-opacity="1" fill-rule="nonzero"/><path fill="#2f72f1" d="M 19.671875 13.632812 L 20.878906 13.632812 L 20.878906 14.839844 L 19.671875 14.839844 Z M 19.671875 13.632812 " fill-opacity="1" fill-rule="nonzero"/></svg>