<svg xmlns="http://www.w3.org/2000/svg" xmlns:xlink="http://www.w3.org/1999/xlink" width="66" zoomAndPan="magnify" viewBox="0 0 49.5 49.499998" height="66" preserveAspectRatio="xMidYMid meet" version="1.0"><defs><clipPath id="628f751368"><path d="M 0.46875 1.246094 L 48.527344 1.246094 L 48.527344 47.746094 L 0.46875 47.746094 Z M 0.46875 1.246094 " clip-rule="nonzero"/></clipPath><clipPath id="9ab413e415"><path d="M 40.542969 1.332031 C 44.910156 1.332031 48.441406 4.871094 48.441406 9.230469 L 48.441406 39.765625 C 48.441406 44.132812 44.902344 47.660156 40.542969 47.660156 L 8.449219 47.660156 C 4.085938 47.660156 0.554688 44.121094 0.554688 39.765625 L 0.554688 9.230469 C 0.554688 4.863281 4.09375 1.332031 8.449219 1.332031 Z M 40.542969 1.332031 " clip-rule="nonzero"/></clipPath><clipPath id="e3d41a5c9c"><path d="M 0 0.773438 L 49 0.773438 L 49 48.222656 L 0 48.222656 Z M 0 0.773438 " clip-rule="nonzero"/></clipPath><clipPath id="8941f048c5"><path d="M 49 9.230469 L 49 39.765625 C 49 44.425781 45.203125 48.222656 40.542969 48.222656 L 8.449219 48.222656 C 3.789062 48.222656 -0.00390625 44.425781 -0.00390625 39.765625 L -0.00390625 9.230469 C -0.00390625 4.570312 3.789062 0.773438 8.449219 0.773438 L 40.535156 0.773438 C 45.203125 0.773438 49 4.570312 49 9.230469 Z M 1.113281 39.765625 C 1.113281 43.808594 4.40625 47.101562 8.449219 47.101562 L 40.535156 47.101562 C 44.578125 47.101562 47.871094 43.808594 47.871094 39.765625 L 47.871094 9.230469 C 47.871094 5.1875 44.578125 1.894531 40.535156 1.894531 L 8.449219 1.894531 C 4.40625 1.894531 1.113281 5.1875 1.113281 9.230469 Z M 1.113281 39.765625 " clip-rule="nonzero"/></clipPath><clipPath id="13bea00c07"><path d="M 4.902344 19.980469 L 23.742188 19.980469 L 23.742188 38.515625 L 4.902344 38.515625 Z M 4.902344 19.980469 " clip-rule="nonzero"/></clipPath><clipPath id="5c166758be"><path d="M 25.265625 19.980469 L 44.101562 19.980469 L 44.101562 38.515625 L 25.265625 38.515625 Z M 25.265625 19.980469 " clip-rule="nonzero"/></clipPath><clipPath id="ecb2c0088f"><path d="M 16 10.488281 L 33 10.488281 L 33 31 L 16 31 Z M 16 10.488281 " clip-rule="nonzero"/></clipPath></defs><g clip-path="url(#628f751368)"><g clip-path="url(#9ab413e415)"><path fill="#ffffff" d="M -0.00390625 48.222656 L -0.00390625 0.773438 L 49 0.773438 L 49 48.222656 Z M -0.00390625 48.222656 " fill-opacity="1" fill-rule="nonzero"/></g></g><g clip-path="url(#e3d41a5c9c)"><g clip-path="url(#8941f048c5)"><path fill="#edf4ff" d="M -0.00390625 48.222656 L -0.00390625 0.773438 L 49 0.773438 L 49 48.222656 Z M -0.00390625 48.222656 " fill-opacity="1" fill-rule="nonzero"/></g></g><g clip-path="url(#13bea00c07)"><path fill="#2f72f1" d="M 23.328125 35.507812 C 23.089844 35.207031 22.765625 34.992188 22.394531 34.882812 L 19.132812 33.914062 C 19.039062 33.886719 18.9375 33.898438 18.851562 33.945312 C 18.765625 33.992188 18.703125 34.070312 18.675781 34.164062 C 18.644531 34.269531 18.664062 34.382812 18.726562 34.476562 C 18.730469 34.484375 18.734375 34.488281 18.742188 34.496094 C 18.789062 34.554688 18.851562 34.601562 18.925781 34.621094 L 18.945312 34.625 C 18.957031 34.628906 18.96875 34.632812 18.976562 34.636719 L 18.980469 34.636719 L 22.191406 35.59375 C 22.414062 35.65625 22.605469 35.785156 22.75 35.96875 C 22.765625 35.988281 22.78125 36.011719 22.796875 36.03125 C 22.988281 36.308594 23.042969 36.652344 22.949219 36.972656 C 22.867188 37.257812 22.675781 37.496094 22.417969 37.636719 C 22.15625 37.78125 21.855469 37.816406 21.570312 37.734375 L 12.777344 35.15625 C 12.671875 35.125 12.578125 35.082031 12.488281 35.027344 C 12.386719 34.960938 12.292969 34.878906 12.214844 34.78125 C 12.191406 34.75 12.171875 34.71875 12.152344 34.691406 L 12.144531 34.679688 L 12.140625 34.671875 L 9.203125 28.125 C 9.195312 28.105469 9.191406 28.09375 9.183594 28.082031 C 9.136719 28 9.085938 27.921875 9.027344 27.847656 C 8.785156 27.546875 8.464844 27.332031 8.09375 27.222656 L 7.503906 27.050781 L 8.90625 22.222656 L 12.714844 23.316406 C 13.167969 23.449219 13.558594 23.710938 13.847656 24.078125 C 13.921875 24.167969 13.984375 24.261719 14.042969 24.363281 L 14.050781 24.378906 L 17.179688 32.027344 L 17.183594 32.035156 C 17.414062 32.59375 17.15625 33.238281 16.609375 33.476562 C 16.339844 33.59375 16.042969 33.59375 15.773438 33.484375 C 15.59375 33.414062 15.433594 33.292969 15.316406 33.144531 C 15.253906 33.066406 15.203125 32.980469 15.164062 32.890625 L 15.160156 32.886719 C 15.160156 32.886719 15.160156 32.882812 15.160156 32.878906 C 15.15625 32.878906 15.15625 32.875 15.15625 32.875 L 15.15625 32.871094 L 13.390625 29.046875 C 13.378906 29.023438 13.363281 28.996094 13.34375 28.976562 C 13.238281 28.839844 13.054688 28.796875 12.898438 28.871094 C 12.804688 28.917969 12.730469 29 12.703125 29.101562 C 12.675781 29.1875 12.683594 29.28125 12.722656 29.363281 L 14.488281 33.1875 C 14.488281 33.191406 14.492188 33.191406 14.492188 33.191406 L 14.492188 33.195312 C 14.558594 33.339844 14.640625 33.480469 14.738281 33.601562 C 14.9375 33.851562 15.199219 34.046875 15.496094 34.167969 C 15.953125 34.351562 16.453125 34.347656 16.902344 34.152344 C 17.816406 33.757812 18.246094 32.679688 17.863281 31.753906 L 17.863281 31.75 L 14.734375 24.101562 C 14.726562 24.089844 14.691406 24.011719 14.679688 23.992188 C 14.597656 23.839844 14.527344 23.742188 14.425781 23.617188 C 14.042969 23.132812 13.519531 22.785156 12.921875 22.609375 L 9.109375 21.515625 L 9.285156 20.910156 C 9.316406 20.804688 9.300781 20.691406 9.238281 20.597656 C 9.230469 20.589844 9.226562 20.585938 9.222656 20.578125 C 9.171875 20.519531 9.109375 20.476562 9.035156 20.453125 L 7.472656 19.996094 C 7.472656 19.996094 7.46875 19.996094 7.46875 19.996094 L 7.457031 19.992188 C 7.34375 19.960938 7.222656 19.988281 7.128906 20.058594 C 6.976562 20.179688 6.945312 20.398438 7.054688 20.558594 C 7.058594 20.566406 7.066406 20.574219 7.070312 20.582031 C 7.121094 20.648438 7.195312 20.691406 7.277344 20.710938 L 7.285156 20.714844 L 8.476562 21.058594 L 8.460938 21.109375 L 6.515625 27.816406 L 5.410156 27.5 C 5.386719 27.488281 5.359375 27.480469 5.332031 27.476562 C 5.230469 27.457031 5.121094 27.484375 5.039062 27.550781 C 4.886719 27.671875 4.855469 27.890625 4.964844 28.050781 C 4.96875 28.058594 4.976562 28.066406 4.980469 28.074219 C 5.03125 28.132812 5.09375 28.175781 5.171875 28.199219 L 6.660156 28.628906 C 6.859375 28.683594 7.0625 28.570312 7.121094 28.375 L 7.296875 27.761719 L 7.886719 27.929688 C 8.109375 27.996094 8.304688 28.125 8.449219 28.308594 C 8.480469 28.347656 8.507812 28.386719 8.53125 28.429688 L 8.539062 28.445312 L 11.484375 35.007812 L 11.488281 35.015625 C 11.488281 35.019531 11.492188 35.023438 11.492188 35.023438 L 11.496094 35.035156 C 11.5 35.039062 11.5 35.039062 11.5 35.042969 L 11.507812 35.054688 C 11.546875 35.117188 11.589844 35.179688 11.636719 35.238281 C 11.765625 35.398438 11.917969 35.539062 12.089844 35.648438 C 12.238281 35.742188 12.402344 35.816406 12.570312 35.863281 L 21.363281 38.441406 C 21.535156 38.492188 21.707031 38.515625 21.878906 38.515625 C 22.1875 38.515625 22.492188 38.4375 22.773438 38.285156 C 23.207031 38.046875 23.519531 37.652344 23.65625 37.179688 C 23.8125 36.644531 23.722656 36.074219 23.40625 35.613281 C 23.378906 35.578125 23.355469 35.542969 23.328125 35.507812 " fill-opacity="1" fill-rule="nonzero"/></g><g clip-path="url(#5c166758be)"><path fill="#2f72f1" d="M 43.960938 27.550781 C 43.878906 27.484375 43.773438 27.457031 43.671875 27.476562 C 43.644531 27.480469 43.617188 27.488281 43.59375 27.5 L 42.488281 27.816406 L 40.542969 21.109375 L 40.527344 21.058594 L 41.71875 20.714844 L 41.726562 20.710938 C 41.808594 20.691406 41.878906 20.648438 41.933594 20.582031 C 41.9375 20.574219 41.945312 20.566406 41.949219 20.558594 C 42.058594 20.398438 42.023438 20.179688 41.871094 20.058594 C 41.78125 19.988281 41.660156 19.960938 41.546875 19.992188 L 41.535156 19.996094 C 41.535156 19.996094 41.53125 19.996094 41.53125 19.996094 L 39.96875 20.453125 C 39.894531 20.476562 39.828125 20.519531 39.78125 20.578125 C 39.777344 20.585938 39.773438 20.589844 39.765625 20.597656 C 39.703125 20.691406 39.6875 20.804688 39.71875 20.910156 L 39.890625 21.515625 L 36.082031 22.609375 C 35.484375 22.785156 34.960938 23.132812 34.578125 23.617188 C 34.476562 23.742188 34.40625 23.839844 34.320312 23.992188 C 34.3125 24.011719 34.273438 24.089844 34.269531 24.101562 L 31.140625 31.75 L 31.140625 31.753906 C 30.757812 32.679688 31.1875 33.757812 32.101562 34.152344 C 32.550781 34.347656 33.050781 34.351562 33.507812 34.167969 C 33.804688 34.046875 34.066406 33.851562 34.265625 33.601562 C 34.363281 33.480469 34.445312 33.339844 34.511719 33.195312 L 34.511719 33.191406 C 34.511719 33.191406 34.511719 33.1875 34.515625 33.1875 L 36.28125 29.363281 C 36.320312 29.28125 36.324219 29.1875 36.300781 29.101562 C 36.269531 29 36.199219 28.917969 36.105469 28.871094 C 35.949219 28.796875 35.765625 28.839844 35.65625 28.976562 C 35.640625 28.996094 35.625 29.023438 35.613281 29.046875 L 33.847656 32.871094 L 33.847656 32.875 C 33.847656 32.875 33.84375 32.878906 33.84375 32.882812 C 33.84375 32.882812 33.84375 32.886719 33.839844 32.886719 L 33.839844 32.890625 C 33.800781 32.980469 33.75 33.066406 33.6875 33.144531 C 33.566406 33.292969 33.410156 33.414062 33.230469 33.484375 C 32.957031 33.59375 32.660156 33.59375 32.394531 33.476562 C 31.847656 33.238281 31.589844 32.59375 31.820312 32.035156 L 31.824219 32.027344 L 34.953125 24.378906 L 34.960938 24.363281 C 35.019531 24.261719 35.082031 24.167969 35.15625 24.078125 C 35.445312 23.710938 35.835938 23.449219 36.289062 23.316406 L 40.097656 22.222656 L 41.5 27.050781 L 40.910156 27.222656 C 40.539062 27.332031 40.214844 27.546875 39.976562 27.847656 C 39.917969 27.921875 39.867188 28 39.820312 28.082031 C 39.8125 28.09375 39.804688 28.105469 39.800781 28.121094 L 36.859375 34.671875 L 36.859375 34.679688 L 36.851562 34.691406 C 36.832031 34.71875 36.8125 34.75 36.789062 34.78125 C 36.710938 34.878906 36.617188 34.960938 36.515625 35.027344 C 36.425781 35.082031 36.332031 35.125 36.226562 35.15625 L 27.433594 37.734375 C 27.148438 37.816406 26.847656 37.78125 26.585938 37.636719 C 26.324219 37.496094 26.136719 37.257812 26.054688 36.972656 C 25.960938 36.652344 26.015625 36.308594 26.207031 36.03125 C 26.21875 36.011719 26.234375 35.988281 26.253906 35.96875 C 26.394531 35.785156 26.589844 35.65625 26.8125 35.59375 L 30.023438 34.636719 C 30.035156 34.632812 30.046875 34.628906 30.058594 34.625 L 30.078125 34.621094 C 30.152344 34.601562 30.214844 34.554688 30.261719 34.496094 C 30.269531 34.488281 30.273438 34.484375 30.277344 34.476562 C 30.339844 34.382812 30.359375 34.269531 30.328125 34.164062 C 30.300781 34.070312 30.238281 33.992188 30.152344 33.945312 C 30.066406 33.898438 29.964844 33.886719 29.871094 33.914062 L 26.609375 34.882812 C 26.238281 34.992188 25.914062 35.207031 25.675781 35.507812 C 25.648438 35.542969 25.621094 35.578125 25.597656 35.613281 C 25.28125 36.074219 25.191406 36.644531 25.34375 37.179688 C 25.484375 37.652344 25.796875 38.046875 26.230469 38.285156 C 26.511719 38.4375 26.816406 38.515625 27.121094 38.515625 C 27.296875 38.515625 27.46875 38.488281 27.640625 38.441406 L 36.433594 35.863281 C 36.601562 35.816406 36.761719 35.742188 36.910156 35.648438 C 37.085938 35.539062 37.238281 35.398438 37.367188 35.238281 C 37.414062 35.179688 37.457031 35.117188 37.496094 35.054688 L 37.503906 35.042969 C 37.503906 35.039062 37.503906 35.039062 37.503906 35.035156 L 37.511719 35.027344 C 37.511719 35.023438 37.515625 35.019531 37.515625 35.011719 L 37.519531 35.007812 L 40.464844 28.445312 L 40.46875 28.429688 C 40.496094 28.386719 40.523438 28.347656 40.554688 28.308594 C 40.699219 28.125 40.894531 27.996094 41.117188 27.929688 L 41.707031 27.761719 L 41.882812 28.375 C 41.941406 28.570312 42.144531 28.683594 42.339844 28.628906 L 43.832031 28.199219 C 43.910156 28.175781 43.972656 28.132812 44.023438 28.074219 C 44.027344 28.066406 44.03125 28.058594 44.039062 28.050781 C 44.148438 27.890625 44.113281 27.671875 43.960938 27.550781 " fill-opacity="1" fill-rule="nonzero"/></g><g clip-path="url(#ecb2c0088f)"><path fill="#2f72f1" d="M 31.601562 14.492188 L 31.601562 22.449219 C 31.601562 23.316406 31.207031 24.234375 30.4375 25.179688 C 29.828125 25.921875 29 26.671875 27.96875 27.402344 C 26.597656 28.375 25.214844 29.078125 24.5 29.414062 C 23.789062 29.078125 22.40625 28.375 21.035156 27.402344 C 20.003906 26.671875 19.171875 25.921875 18.566406 25.179688 C 17.792969 24.234375 17.402344 23.316406 17.402344 22.449219 L 17.402344 14.492188 C 17.777344 14.390625 18.214844 14.238281 18.738281 14.03125 C 19.507812 13.730469 20.445312 13.3125 21.527344 12.789062 C 22.761719 12.1875 23.914062 11.585938 24.5 11.269531 C 25.089844 11.585938 26.242188 12.1875 27.476562 12.789062 C 28.558594 13.3125 29.496094 13.730469 30.265625 14.03125 C 30.785156 14.238281 31.226562 14.390625 31.601562 14.492188 Z M 30.992188 25.632812 C 31.871094 24.558594 32.316406 23.484375 32.316406 22.449219 L 32.316406 14.210938 C 32.316406 14.042969 32.203125 13.898438 32.039062 13.863281 C 31.640625 13.773438 31.148438 13.609375 30.527344 13.367188 C 29.777344 13.070312 28.855469 12.65625 27.789062 12.140625 C 26.476562 11.507812 25.273438 10.871094 24.671875 10.546875 C 24.566406 10.488281 24.4375 10.488281 24.332031 10.546875 C 23.730469 10.871094 22.527344 11.507812 21.214844 12.140625 C 20.148438 12.65625 19.226562 13.070312 18.476562 13.367188 C 17.859375 13.609375 17.367188 13.769531 16.972656 13.859375 C 16.925781 13.871094 16.878906 13.890625 16.839844 13.917969 C 16.816406 13.933594 16.796875 13.949219 16.78125 13.96875 C 16.71875 14.035156 16.6875 14.121094 16.6875 14.210938 L 16.6875 22.449219 C 16.6875 23.484375 17.132812 24.558594 18.011719 25.632812 C 18.660156 26.425781 19.535156 27.21875 20.617188 27.988281 C 22.171875 29.089844 23.746094 29.855469 24.351562 30.132812 C 24.398438 30.15625 24.449219 30.167969 24.5 30.167969 C 24.554688 30.167969 24.605469 30.15625 24.652344 30.132812 C 25.257812 29.855469 26.832031 29.089844 28.382812 27.988281 C 29.46875 27.21875 30.34375 26.425781 30.992188 25.632812 " fill-opacity="1" fill-rule="nonzero"/></g><path fill="#2f72f1" d="M 29.332031 16.402344 C 29.253906 16.34375 29.160156 16.320312 29.066406 16.332031 C 28.972656 16.34375 28.886719 16.394531 28.828125 16.472656 L 24.011719 22.824219 L 21.078125 19.964844 C 20.9375 19.824219 20.707031 19.828125 20.570312 19.96875 C 20.433594 20.113281 20.433594 20.339844 20.578125 20.476562 L 23.800781 23.621094 C 23.871094 23.6875 23.957031 23.722656 24.050781 23.722656 C 24.0625 23.722656 24.070312 23.722656 24.078125 23.722656 C 24.183594 23.714844 24.277344 23.664062 24.339844 23.582031 L 29.402344 16.90625 C 29.519531 16.746094 29.488281 16.523438 29.332031 16.402344 " fill-opacity="1" fill-rule="nonzero"/></svg>