<svg xmlns="http://www.w3.org/2000/svg" xmlns:xlink="http://www.w3.org/1999/xlink" width="66" zoomAndPan="magnify" viewBox="0 0 49.5 49.499998" height="66" preserveAspectRatio="xMidYMid meet" version="1.0"><defs><clipPath id="3f08840465"><path d="M 0.46875 1.246094 L 48.527344 1.246094 L 48.527344 47.746094 L 0.46875 47.746094 Z M 0.46875 1.246094 " clip-rule="nonzero"/></clipPath><clipPath id="499c855d8e"><path d="M 40.542969 1.332031 C 44.910156 1.332031 48.441406 4.871094 48.441406 9.230469 L 48.441406 39.765625 C 48.441406 44.132812 44.902344 47.660156 40.542969 47.660156 L 8.449219 47.660156 C 4.085938 47.660156 0.554688 44.121094 0.554688 39.765625 L 0.554688 9.230469 C 0.554688 4.863281 4.09375 1.332031 8.449219 1.332031 Z M 40.542969 1.332031 " clip-rule="nonzero"/></clipPath><clipPath id="1b49be412b"><path d="M 0 0.773438 L 49 0.773438 L 49 48.222656 L 0 48.222656 Z M 0 0.773438 " clip-rule="nonzero"/></clipPath><clipPath id="77f03f6782"><path d="M 49 9.230469 L 49 39.765625 C 49 44.425781 45.203125 48.222656 40.542969 48.222656 L 8.449219 48.222656 C 3.789062 48.222656 -0.00390625 44.425781 -0.00390625 39.765625 L -0.00390625 9.230469 C -0.00390625 4.570312 3.789062 0.773438 8.449219 0.773438 L 40.535156 0.773438 C 45.203125 0.773438 49 4.570312 49 9.230469 Z M 1.113281 39.765625 C 1.113281 43.808594 4.40625 47.101562 8.449219 47.101562 L 40.535156 47.101562 C 44.578125 47.101562 47.871094 43.808594 47.871094 39.765625 L 47.871094 9.230469 C 47.871094 5.1875 44.578125 1.894531 40.535156 1.894531 L 8.449219 1.894531 C 4.40625 1.894531 1.113281 5.1875 1.113281 9.230469 Z M 1.113281 39.765625 " clip-rule="nonzero"/></clipPath><clipPath id="39b6fb57bf"><path d="M 35 10 L 40.519531 10 L 40.519531 16 L 35 16 Z M 35 10 " clip-rule="nonzero"/></clipPath><clipPath id="9f72f61e6f"><path d="M 8.59375 13 L 33 13 L 33 41.894531 L 8.59375 41.894531 Z M 8.59375 13 " clip-rule="nonzero"/></clipPath><clipPath id="96ac246cd3"><path d="M 21 6.996094 L 35 6.996094 L 35 33 L 21 33 Z M 21 6.996094 " clip-rule="nonzero"/></clipPath><clipPath id="c07480b97d"><path d="M 30 18 L 33 18 L 33 21.929688 L 30 21.929688 Z M 30 18 " clip-rule="nonzero"/></clipPath><clipPath id="40ec98398f"><path d="M 26 19 L 31 19 L 31 21.929688 L 26 21.929688 Z M 26 19 " clip-rule="nonzero"/></clipPath><clipPath id="9a8a3a70e6"><path d="M 30 14 L 33.414062 14 L 33.414062 18 L 30 18 Z M 30 14 " clip-rule="nonzero"/></clipPath><clipPath id="24c0173e1c"><path d="M 24.503906 15 L 28 15 L 28 19 L 24.503906 19 Z M 24.503906 15 " clip-rule="nonzero"/></clipPath><clipPath id="2b8bea0f7f"><path d="M 27 13.761719 L 30 13.761719 L 30 17 L 27 17 Z M 27 13.761719 " clip-rule="nonzero"/></clipPath></defs><g clip-path="url(#3f08840465)"><g clip-path="url(#499c855d8e)"><path fill="#ffffff" d="M -0.00390625 48.222656 L -0.00390625 0.773438 L 49 0.773438 L 49 48.222656 Z M -0.00390625 48.222656 " fill-opacity="1" fill-rule="nonzero"/></g></g><g clip-path="url(#1b49be412b)"><g clip-path="url(#77f03f6782)"><path fill="#edf4ff" d="M -0.00390625 48.222656 L -0.00390625 0.773438 L 49 0.773438 L 49 48.222656 Z M -0.00390625 48.222656 " fill-opacity="1" fill-rule="nonzero"/></g></g><g clip-path="url(#39b6fb57bf)"><path fill="#2f72f1" d="M 39.957031 11.808594 C 39.667969 10.898438 38.699219 10.398438 37.789062 10.6875 L 35.632812 11.378906 L 35.632812 15.011719 L 38.839844 13.984375 C 39.746094 13.695312 40.246094 12.71875 39.957031 11.808594 Z M 39.957031 11.808594 " fill-opacity="1" fill-rule="nonzero"/></g><g clip-path="url(#9f72f61e6f)"><path fill="#2f72f1" d="M 21.132812 30.238281 L 21.132812 28.425781 L 21.128906 28.425781 C 21.128906 28.425781 21.132812 28.402344 21.132812 28.355469 L 21.132812 28.105469 C 21.113281 27.542969 20.945312 26.242188 20.003906 24.253906 C 19.527344 23.242188 18.632812 22.347656 18.191406 21.945312 L 20.90625 16.507812 C 21.414062 15.410156 20.941406 14.105469 19.851562 13.589844 C 18.757812 13.082031 18.390625 13.488281 17.726562 14.652344 L 13.3125 21.933594 L 13.289062 21.988281 L 12.53125 23.21875 L 14.105469 32.976562 L 8.730469 41.996094 L 22.179688 41.996094 L 24.816406 37.617188 C 25.988281 37.410156 28.589844 36.664062 31.40625 34.003906 C 31.683594 33.742188 31.878906 33.457031 32.117188 33.089844 L 23.867188 33.089844 C 22.324219 33.089844 21.132812 31.789062 21.132812 30.238281 Z M 21.132812 30.238281 " fill-opacity="1" fill-rule="nonzero"/></g><path fill="#2f72f1" d="M 38.019531 16.59375 L 35.632812 16.59375 L 35.632812 19.980469 L 38.019531 19.980469 C 38.949219 19.980469 39.699219 19.222656 39.699219 18.285156 C 39.699219 17.351562 38.949219 16.59375 38.019531 16.59375 Z M 38.019531 16.59375 " fill-opacity="1" fill-rule="nonzero"/><path fill="#2f72f1" d="M 37.0625 20.660156 L 35.632812 20.660156 L 35.632812 24.046875 L 37.0625 24.046875 C 38.019531 24.046875 38.796875 23.289062 38.796875 22.351562 C 38.796875 21.417969 38.019531 20.660156 37.0625 20.660156 Z M 37.0625 20.660156 " fill-opacity="1" fill-rule="nonzero"/><path fill="#2f72f1" d="M 36.183594 24.726562 L 35.632812 24.726562 L 35.632812 28.113281 L 36.183594 28.113281 C 37.128906 28.113281 37.894531 27.355469 37.894531 26.417969 C 37.894531 25.484375 37.128906 24.726562 36.183594 24.726562 Z M 36.183594 24.726562 " fill-opacity="1" fill-rule="nonzero"/><g clip-path="url(#96ac246cd3)"><path fill="#2f72f1" d="M 33.890625 28.699219 L 23.140625 28.699219 L 23.140625 8.910156 L 33.890625 8.910156 Z M 28.460938 31.1875 C 28.058594 31.1875 27.730469 30.855469 27.730469 30.449219 C 27.730469 30.042969 28.058594 29.714844 28.460938 29.714844 C 28.863281 29.714844 29.1875 30.046875 29.1875 30.449219 C 29.1875 30.855469 28.863281 31.1875 28.460938 31.1875 Z M 27.394531 7.613281 L 29.714844 7.613281 C 29.871094 7.613281 29.996094 7.738281 29.996094 7.894531 C 29.996094 8.050781 29.871094 8.175781 29.714844 8.175781 L 27.394531 8.175781 C 27.238281 8.175781 27.113281 8.050781 27.113281 7.894531 C 27.113281 7.738281 27.242188 7.613281 27.394531 7.613281 Z M 32.9375 6.988281 L 23.984375 6.988281 C 22.867188 6.988281 21.964844 7.902344 21.964844 9.023438 L 21.964844 30.257812 C 21.964844 31.382812 22.867188 32.292969 23.984375 32.292969 L 32.9375 32.292969 C 34.050781 32.292969 34.957031 31.382812 34.957031 30.257812 L 34.957031 9.023438 C 34.957031 7.902344 34.050781 6.988281 32.9375 6.988281 Z M 32.9375 6.988281 " fill-opacity="1" fill-rule="evenodd"/></g><path fill="#2f72f1" d="M 26.460938 20.996094 C 26.414062 20.996094 26.382812 20.980469 26.351562 20.949219 C 25.734375 20.359375 25.363281 19.558594 25.285156 18.722656 C 25.285156 18.644531 25.347656 18.570312 25.425781 18.554688 C 25.515625 18.554688 25.578125 18.613281 25.59375 18.691406 C 25.671875 19.464844 26.011719 20.191406 26.566406 20.730469 C 26.628906 20.792969 26.628906 20.886719 26.566406 20.949219 C 26.535156 20.980469 26.507812 20.996094 26.460938 20.996094 Z M 26.460938 20.996094 " fill-opacity="1" fill-rule="nonzero"/><g clip-path="url(#c07480b97d)"><path fill="#2f72f1" d="M 31.140625 21.042969 C 31.097656 21.042969 31.066406 21.027344 31.035156 20.996094 C 30.972656 20.933594 30.972656 20.839844 31.035156 20.777344 C 31.699219 20.160156 32.070312 19.296875 32.070312 18.398438 C 32.070312 18.335938 32.070312 18.289062 32.070312 18.230469 C 32.070312 18.136719 32.132812 18.074219 32.207031 18.074219 C 32.300781 18.074219 32.363281 18.136719 32.363281 18.214844 C 32.363281 18.273438 32.363281 18.335938 32.363281 18.398438 C 32.363281 19.386719 31.945312 20.332031 31.234375 20.996094 C 31.21875 21.027344 31.171875 21.042969 31.140625 21.042969 Z M 31.140625 21.042969 " fill-opacity="1" fill-rule="nonzero"/></g><path fill="#2f72f1" d="M 28.824219 19.945312 C 28.050781 19.945312 27.433594 19.324219 27.433594 18.554688 C 27.433594 17.78125 28.050781 17.164062 28.824219 17.164062 C 29.597656 17.164062 30.214844 17.78125 30.214844 18.554688 C 30.214844 19.324219 29.597656 19.945312 28.824219 19.945312 Z M 28.824219 17.472656 C 28.222656 17.472656 27.742188 17.949219 27.742188 18.554688 C 27.742188 19.15625 28.222656 19.636719 28.824219 19.636719 C 29.425781 19.636719 29.90625 19.15625 29.90625 18.554688 C 29.90625 17.949219 29.425781 17.472656 28.824219 17.472656 Z M 28.824219 17.472656 " fill-opacity="1" fill-rule="nonzero"/><g clip-path="url(#40ec98398f)"><path fill="#2f72f1" d="M 28.824219 21.953125 C 28.175781 21.953125 27.542969 21.78125 27 21.457031 C 26.9375 21.425781 26.90625 21.351562 26.9375 21.273438 C 27.21875 20.46875 27.972656 19.945312 28.824219 19.945312 C 29.675781 19.945312 30.429688 20.46875 30.710938 21.273438 C 30.742188 21.351562 30.710938 21.425781 30.648438 21.457031 C 30.105469 21.78125 29.472656 21.953125 28.824219 21.953125 Z M 27.277344 21.257812 C 27.742188 21.503906 28.285156 21.644531 28.824219 21.644531 C 29.363281 21.644531 29.90625 21.503906 30.371094 21.257812 C 30.089844 20.65625 29.488281 20.253906 28.824219 20.253906 C 28.160156 20.253906 27.542969 20.65625 27.277344 21.257812 Z M 27.277344 21.257812 " fill-opacity="1" fill-rule="nonzero"/></g><g clip-path="url(#9a8a3a70e6)"><path fill="#2f72f1" d="M 31.824219 17.78125 C 31.574219 17.78125 31.328125 17.71875 31.097656 17.59375 L 30.355469 17.65625 C 30.292969 17.65625 30.246094 17.625 30.214844 17.578125 C 30.183594 17.53125 30.183594 17.472656 30.214844 17.410156 L 30.476562 16.992188 C 30.167969 16.480469 30.183594 15.847656 30.507812 15.355469 C 30.742188 15 31.082031 14.765625 31.496094 14.675781 C 31.898438 14.582031 32.316406 14.660156 32.671875 14.890625 C 33.027344 15.121094 33.257812 15.460938 33.351562 15.878906 C 33.445312 16.28125 33.367188 16.699219 33.136719 17.054688 C 32.828125 17.519531 32.332031 17.78125 31.824219 17.78125 Z M 31.125 17.285156 C 31.15625 17.285156 31.171875 17.285156 31.203125 17.300781 C 31.777344 17.625 32.519531 17.457031 32.875 16.898438 C 33.058594 16.621094 33.121094 16.28125 33.042969 15.957031 C 32.964844 15.632812 32.78125 15.355469 32.503906 15.167969 C 32.222656 14.984375 31.882812 14.921875 31.558594 15 C 31.234375 15.074219 30.957031 15.261719 30.769531 15.539062 C 30.492188 15.972656 30.507812 16.511719 30.785156 16.929688 C 30.816406 16.976562 30.816406 17.054688 30.785156 17.101562 L 30.632812 17.332031 L 31.125 17.285156 C 31.113281 17.285156 31.113281 17.285156 31.125 17.285156 Z M 31.125 17.285156 " fill-opacity="1" fill-rule="nonzero"/></g><path fill="#2f72f1" d="M 31.835938 16.914062 C 31.746094 16.914062 31.683594 16.851562 31.683594 16.761719 L 31.683594 16.636719 C 31.683594 16.46875 31.792969 16.3125 31.945312 16.265625 C 32.085938 16.21875 32.191406 16.066406 32.164062 15.878906 C 32.132812 15.757812 32.039062 15.648438 31.914062 15.632812 C 31.808594 15.617188 31.714844 15.632812 31.636719 15.695312 C 31.558594 15.757812 31.511719 15.847656 31.511719 15.957031 C 31.511719 16.050781 31.453125 16.113281 31.359375 16.113281 C 31.265625 16.113281 31.203125 16.050781 31.203125 15.957031 C 31.203125 15.757812 31.296875 15.585938 31.4375 15.460938 C 31.589844 15.339844 31.777344 15.292969 31.976562 15.339844 C 32.222656 15.386719 32.410156 15.585938 32.472656 15.832031 C 32.535156 16.15625 32.363281 16.46875 32.054688 16.574219 C 32.023438 16.589844 31.992188 16.621094 31.992188 16.652344 L 31.992188 16.777344 C 31.992188 16.835938 31.914062 16.914062 31.835938 16.914062 Z M 31.835938 16.914062 " fill-opacity="1" fill-rule="nonzero"/><path fill="#2f72f1" d="M 31.945312 17.191406 C 31.945312 17.265625 31.910156 17.300781 31.835938 17.300781 C 31.765625 17.300781 31.730469 17.265625 31.730469 17.191406 C 31.730469 17.121094 31.765625 17.085938 31.835938 17.085938 C 31.910156 17.085938 31.945312 17.121094 31.945312 17.191406 Z M 31.945312 17.191406 " fill-opacity="1" fill-rule="nonzero"/><g clip-path="url(#24c0173e1c)"><path fill="#2f72f1" d="M 25.855469 18.199219 C 25.441406 18.199219 25.023438 17.980469 24.773438 17.609375 C 24.589844 17.316406 24.527344 16.976562 24.605469 16.636719 C 24.683594 16.296875 24.882812 16.019531 25.160156 15.816406 C 25.457031 15.632812 25.796875 15.570312 26.136719 15.648438 C 26.476562 15.726562 26.753906 15.925781 26.953125 16.203125 C 27.21875 16.605469 27.234375 17.132812 26.984375 17.546875 L 27.1875 17.875 C 27.21875 17.917969 27.21875 17.980469 27.1875 18.042969 C 27.15625 18.089844 27.09375 18.121094 27.046875 18.121094 L 26.460938 18.058594 C 26.257812 18.152344 26.058594 18.199219 25.855469 18.199219 Z M 25.039062 17.441406 C 25.316406 17.875 25.886719 18.011719 26.351562 17.765625 C 26.382812 17.75 26.414062 17.75 26.445312 17.75 L 26.753906 17.78125 L 26.660156 17.625 C 26.628906 17.578125 26.628906 17.503906 26.660156 17.457031 C 26.890625 17.132812 26.890625 16.699219 26.675781 16.375 C 26.535156 16.15625 26.320312 16.003906 26.058594 15.941406 C 25.796875 15.878906 25.546875 15.941406 25.316406 16.082031 C 24.867188 16.375 24.746094 16.976562 25.039062 17.441406 Z M 25.039062 17.441406 " fill-opacity="1" fill-rule="nonzero"/></g><path fill="#2f72f1" d="M 25.933594 17.503906 C 25.839844 17.503906 25.78125 17.441406 25.78125 17.347656 L 25.78125 17.253906 C 25.78125 17.101562 25.871094 16.976562 26.011719 16.929688 C 26.105469 16.898438 26.195312 16.792969 26.167969 16.652344 C 26.152344 16.558594 26.074219 16.496094 25.980469 16.46875 C 25.902344 16.453125 25.839844 16.46875 25.78125 16.511719 C 25.71875 16.558594 25.6875 16.621094 25.6875 16.699219 C 25.6875 16.792969 25.625 16.851562 25.53125 16.851562 C 25.441406 16.851562 25.378906 16.792969 25.378906 16.699219 C 25.378906 16.527344 25.457031 16.375 25.578125 16.28125 C 25.703125 16.171875 25.871094 16.140625 26.042969 16.171875 C 26.242188 16.21875 26.414062 16.390625 26.460938 16.589844 C 26.523438 16.867188 26.367188 17.132812 26.105469 17.222656 C 26.089844 17.222656 26.074219 17.238281 26.074219 17.269531 L 26.074219 17.363281 C 26.089844 17.425781 26.011719 17.503906 25.933594 17.503906 Z M 25.933594 17.503906 " fill-opacity="1" fill-rule="nonzero"/><path fill="#2f72f1" d="M 26.027344 17.6875 C 26.027344 17.75 25.996094 17.78125 25.933594 17.78125 C 25.871094 17.78125 25.839844 17.75 25.839844 17.6875 C 25.839844 17.625 25.871094 17.59375 25.933594 17.59375 C 25.996094 17.59375 26.027344 17.625 26.027344 17.6875 Z M 26.027344 17.6875 " fill-opacity="1" fill-rule="nonzero"/><g clip-path="url(#2b8bea0f7f)"><path fill="#2f72f1" d="M 28.546875 16.867188 C 28.546875 16.867188 28.53125 16.867188 28.53125 16.867188 C 28.46875 16.867188 28.421875 16.824219 28.40625 16.761719 L 28.285156 16.421875 C 27.820312 16.34375 27.433594 16.019531 27.277344 15.570312 C 27.171875 15.246094 27.203125 14.90625 27.339844 14.613281 C 27.496094 14.320312 27.742188 14.085938 28.066406 13.980469 C 28.730469 13.761719 29.441406 14.117188 29.675781 14.78125 C 29.875 15.402344 29.582031 16.066406 28.996094 16.328125 L 28.683594 16.808594 C 28.640625 16.851562 28.59375 16.867188 28.546875 16.867188 Z M 28.46875 14.226562 C 28.375 14.226562 28.269531 14.242188 28.175781 14.273438 C 27.929688 14.351562 27.742188 14.519531 27.632812 14.75 C 27.527344 14.984375 27.496094 15.230469 27.589844 15.476562 C 27.710938 15.847656 28.035156 16.097656 28.421875 16.125 C 28.484375 16.125 28.53125 16.171875 28.5625 16.234375 L 28.609375 16.375 L 28.777344 16.125 C 28.792969 16.097656 28.824219 16.082031 28.855469 16.066406 C 29.320312 15.878906 29.566406 15.355469 29.410156 14.890625 C 29.242188 14.472656 28.871094 14.226562 28.46875 14.226562 Z M 28.46875 14.226562 " fill-opacity="1" fill-rule="nonzero"/></g><path fill="#2f72f1" d="M 28.53125 15.769531 C 28.4375 15.769531 28.375 15.710938 28.375 15.617188 L 28.375 15.523438 C 28.375 15.386719 28.46875 15.246094 28.609375 15.199219 C 28.699219 15.167969 28.777344 15.058594 28.746094 14.9375 C 28.730469 14.859375 28.652344 14.78125 28.578125 14.765625 C 28.5 14.75 28.4375 14.765625 28.375 14.8125 C 28.328125 14.859375 28.296875 14.921875 28.296875 14.984375 C 28.296875 15.074219 28.238281 15.136719 28.144531 15.136719 C 28.050781 15.136719 27.988281 15.074219 27.988281 14.984375 C 27.988281 14.828125 28.066406 14.675781 28.191406 14.566406 C 28.3125 14.457031 28.484375 14.425781 28.640625 14.457031 C 28.839844 14.503906 29.007812 14.660156 29.054688 14.875 C 29.117188 15.136719 28.964844 15.402344 28.714844 15.492188 C 28.699219 15.492188 28.683594 15.507812 28.683594 15.523438 L 28.683594 15.617188 C 28.683594 15.710938 28.609375 15.769531 28.53125 15.769531 Z M 28.53125 15.769531 " fill-opacity="1" fill-rule="nonzero"/><path fill="#2f72f1" d="M 28.609375 15.957031 C 28.609375 16.007812 28.582031 16.035156 28.53125 16.035156 C 28.480469 16.035156 28.453125 16.007812 28.453125 15.957031 C 28.453125 15.90625 28.480469 15.878906 28.53125 15.878906 C 28.582031 15.878906 28.609375 15.90625 28.609375 15.957031 Z M 28.609375 15.957031 " fill-opacity="1" fill-rule="nonzero"/></svg>